<svg xmlns="http://www.w3.org/2000/svg" width="23.086" height="23.065" viewBox="0 0 23.086 23.065"><g transform="translate(0 -0.335)"><path d="M21.932,255.766h-.77a1.154,1.154,0,0,0-1.154,1.154v9.234a.385.385,0,0,1-.385.385H3.463a.385.385,0,0,1-.385-.385V256.92a1.154,1.154,0,0,0-1.154-1.154h-.77A1.154,1.154,0,0,0,0,256.92v11.543a1.154,1.154,0,0,0,1.154,1.154H21.932a1.154,1.154,0,0,0,1.154-1.154V256.92A1.154,1.154,0,0,0,21.932,255.766Zm.385,12.7a.385.385,0,0,1-.385.385H1.154a.385.385,0,0,1-.385-.385V256.92a.385.385,0,0,1,.385-.385h.77a.385.385,0,0,1,.385.385v9.234a1.154,1.154,0,0,0,1.154,1.154h16.16a1.154,1.154,0,0,0,1.154-1.154V256.92a.385.385,0,0,1,.385-.385h.77a.385.385,0,0,1,.385.385Zm0,0" transform="translate(0 -246.217)" fill="#fff"/><path d="M111.281,256.92a1.154,1.154,0,0,0-1.154-1.154h-2.308a1.154,1.154,0,0,0-1.154,1.154v2.309a1.154,1.154,0,0,0,1.154,1.154h2.308a1.154,1.154,0,0,0,1.154-1.154Zm-.769,2.309a.385.385,0,0,1-.385.385h-2.308a.385.385,0,0,1-.385-.385V256.92a.385.385,0,0,1,.385-.385h2.308a.385.385,0,0,1,.385.385Zm0,0" transform="translate(-102.817 -246.217)" fill="#fff"/><path d="M110.127,405.094h-2.308a1.154,1.154,0,0,0-1.154,1.154v2.309a1.154,1.154,0,0,0,1.154,1.154h2.308a1.154,1.154,0,0,0,1.154-1.154v-2.309A1.154,1.154,0,0,0,110.127,405.094Zm.385,3.463a.385.385,0,0,1-.385.385h-2.308a.385.385,0,0,1-.385-.385v-2.309a.385.385,0,0,1,.385-.385h2.308a.385.385,0,0,1,.385.385Zm0,0" transform="translate(-102.816 -390.159)" fill="#fff"/><path d="M257.154,409.711h2.309a1.154,1.154,0,0,0,1.154-1.154v-2.309a1.154,1.154,0,0,0-1.154-1.154h-2.309A1.154,1.154,0,0,0,256,406.248v2.309A1.154,1.154,0,0,0,257.154,409.711Zm-.385-3.463a.385.385,0,0,1,.385-.385h2.309a.385.385,0,0,1,.385.385v2.309a.385.385,0,0,1-.385.385h-2.309a.385.385,0,0,1-.385-.385Zm0,0" transform="translate(-246.766 -390.159)" fill="#fff"/><path d="M409.949,256.92a1.154,1.154,0,0,0-1.154-1.154h-2.308a1.154,1.154,0,0,0-1.154,1.154v2.309a1.154,1.154,0,0,0,1.154,1.154h2.308a1.154,1.154,0,0,0,1.154-1.154Zm-.77,2.309a.385.385,0,0,1-.385.385h-2.308a.385.385,0,0,1-.385-.385V256.92a.385.385,0,0,1,.385-.385H408.8a.385.385,0,0,1,.385.385Zm0,0" transform="translate(-390.711 -246.217)" fill="#fff"/><path d="M408.795,405.094h-2.308a1.154,1.154,0,0,0-1.154,1.154v2.309a1.154,1.154,0,0,0,1.154,1.154h2.308a1.154,1.154,0,0,0,1.154-1.154v-2.309A1.154,1.154,0,0,0,408.795,405.094Zm.385,3.463a.385.385,0,0,1-.385.385h-2.308a.385.385,0,0,1-.385-.385v-2.309a.385.385,0,0,1,.385-.385h2.308a.385.385,0,0,1,.385.385Zm0,0" transform="translate(-390.711 -390.159)" fill="#fff"/><path d="M105.028,7.625V2.557a1.154,1.154,0,0,0-1.969-.82L102.02,2.777,99.913.673a1.154,1.154,0,0,0-1.632,0L96.922,2.032a1.154,1.154,0,0,0,0,1.632L99.028,5.77,97.989,6.809a1.154,1.154,0,0,0,.817,1.97h5.067a1.154,1.154,0,0,0,1.154-1.154Zm-6.58.146a.376.376,0,0,1,.083-.417l1.312-1.312a.385.385,0,0,0,0-.544L97.466,3.12a.385.385,0,0,1,0-.544l1.359-1.359a.385.385,0,0,1,.544,0L101.747,3.6a.385.385,0,0,0,.544,0L103.6,2.283a.385.385,0,0,1,.656.274V7.625a.385.385,0,0,1-.385.385H98.806a.379.379,0,0,1-.358-.239Zm0,0" transform="translate(-93.1 0)" fill="#fff"/><path d="M236.207,138.43a.385.385,0,0,0-.385.385v.769h-.769a.385.385,0,0,0,0,.77h.769a.77.77,0,0,0,.77-.77v-.769a.385.385,0,0,0-.385-.385Zm0,0" transform="translate(-226.203 -133.114)" fill="#fff"/></g></svg>