<svg xmlns="http://www.w3.org/2000/svg" width="47.792" height="47.794" viewBox="0 0 47.792 47.794"><g transform="translate(0)" opacity="0.8"><path d="M6817.8,756.414a14.337,14.337,0,1,0-9.55-25.018l2.254,2.254a11.165,11.165,0,1,1-1.131,1.131l-2.254-2.255a14.328,14.328,0,0,0,10.681,23.888Z" transform="translate(-6793.906 -718.179)" fill="#d1d1d1"/><path d="M6814.732,743.7l.9.111a5.31,5.31,0,0,1,.916-1.855l-2.836-2.836a9.577,9.577,0,1,0,1.131-1.13l2.835,2.835a5.324,5.324,0,0,1,1.855-.916l-.11-.9a.8.8,0,1,1,1.576-.192l.112.9a5.576,5.576,0,1,1-5.67,5.671l-.9-.112a.8.8,0,1,1,.192-1.577Z" transform="translate(-6797.11 -721.383)" fill="#d1d1d1"/><path d="M6823.745,745.83l1.123,1.123-.2-1.57A4.262,4.262,0,0,0,6823.745,745.83Z" transform="translate(-6802.045 -725.26)" fill="#d1d1d1"/><path d="M6821.11,748.942l1.569.2-1.123-1.123A4.277,4.277,0,0,0,6821.11,748.942Z" transform="translate(-6800.988 -726.318)" fill="#d1d1d1"/><path d="M6824.757,753.013a3.983,3.983,0,0,0,.3-7.949l.478,3.815.008.056a.788.788,0,0,1-.224.661.8.8,0,0,1-.565.23.394.394,0,0,1-.095-.008l-.056-.007-3.815-.478A3.981,3.981,0,0,0,6824.757,753.013Z" transform="translate(-6800.86 -725.132)" fill="#d1d1d1"/><path d="M6834.491,735.666H6832.9a21.511,21.511,0,0,0-20.708-21.481v-1.617a.8.8,0,0,0-1.593,0v1.617a21.277,21.277,0,0,0-13.818,5.735l-2.82-2.82.684-2.746a.8.8,0,0,0-1.544-.385l-.454,1.817-1.044-1.043h0l.638-1.919a.8.8,0,0,0-1.514-.5l-.388,1.163L6788.859,712a.8.8,0,0,0-1.131,1.131l1.478,1.477-1.163.389a.8.8,0,1,0,.5,1.513l1.918-.636,1.048,1.042-1.817.454a.8.8,0,0,0,.194,1.57.833.833,0,0,0,.191-.025l2.745-.687,2.821,2.822a21.364,21.364,0,0,0-5.758,14.615h-1.595a.8.8,0,0,0,0,1.593h1.657a21.51,21.51,0,0,0,1.035,5.175,5.726,5.726,0,0,1,5.8-.4,15.933,15.933,0,0,1,2.8-17.046l-2.812-2.812a15.084,15.084,0,0,1,1.131-1.131l2.812,2.811a15.924,15.924,0,0,1,26.611,11.813c0,.271-.008.549-.024.82a15.928,15.928,0,0,1-27.358,10.264c.009.134.016.269.016.407a5.721,5.721,0,0,1-2.592,4.792,21.452,21.452,0,0,0,13.232,5.2v1.617a.8.8,0,1,0,1.593,0v-1.617a21.511,21.511,0,0,0,20.646-19.888h1.656a.8.8,0,0,0,0-1.593Zm-41.417,1.593h-1.521c-.047-.527-.071-1.06-.071-1.593h1.592a.8.8,0,0,1,0,1.593Zm19.116-19.914a.8.8,0,1,1-1.593,0v-1.577c.263-.008.534-.016.8-.016s.533.008.8.016Zm0,38.218c-.263.008-.533.015-.8.015s-.534-.008-.8-.015v-1.578a.8.8,0,0,1,1.593,0Zm19.045-18.3h-1.521a.8.8,0,1,1,0-1.593h1.592C6831.3,736.2,6831.281,736.733,6831.234,737.259Z" transform="translate(-6787.495 -711.768)" fill="#d1d1d1"/><g transform="translate(3.956 31.613)"><path d="M6795.789,764.577H6794.1v1.413l.617-.619A4.316,4.316,0,0,1,6795.789,764.577Z" transform="translate(-6794.104 -764.577)" fill="#d1d1d1"/><g transform="translate(0 0.184)"><path d="M6799.9,769.652a2.153,2.153,0,0,0-.658-1.6,2.29,2.29,0,0,0-3.226.006l-1.916,1.923v.933l2.382-2.392a1.61,1.61,0,0,1,1.155-.485,1.622,1.622,0,0,1,1.625,1.618,1.6,1.6,0,0,1-.482,1.157l-2.337,2.347h.5c.145,0,.286-.007.426-.016l1.868-1.875A2.169,2.169,0,0,0,6799.9,769.652Z" transform="translate(-6794.104 -765.889)" fill="#d1d1d1"/><path d="M6795.188,765.958l-1.083,1.088v.916l1.541-1.547a2.988,2.988,0,1,1,4.234,4.217l-1.258,1.264a3.651,3.651,0,0,0,2.688-3.47V768.4a3.56,3.56,0,0,0-2.276-3.3,3.7,3.7,0,0,0-1.276-.223A3.528,3.528,0,0,0,6795.188,765.958Z" transform="translate(-6794.104 -764.884)" fill="#d1d1d1"/><path d="M6798.6,770.537a.925.925,0,0,0-.286-.682.958.958,0,0,0-1.379,0L6794.1,772.7v.916l3.29-3.3a.292.292,0,0,1,.466,0,.288.288,0,0,1-.007.459l-3.247,3.259h.928l2.783-2.794A.948.948,0,0,0,6798.6,770.537Z" transform="translate(-6794.104 -766.762)" fill="#d1d1d1"/></g></g></g></svg>