<svg xmlns="http://www.w3.org/2000/svg" width="30.206" height="26.296" viewBox="0 0 30.206 26.296"><path d="M749.769,418.972a1.924,1.924,0,0,0-.222-.127l-.089-.046-1.633-.865c-2.79-1.477-5.675-3-8.457-4.612a.458.458,0,0,0-.53,0,11.593,11.593,0,0,1-1.81.884,5.015,5.015,0,0,1-2.921.374,10.337,10.337,0,0,1-3.035-1.252.447.447,0,0,0-.51-.018c-2.889,1.668-5.884,3.252-8.78,4.783l-1.453.769c-.14.074-.313.189-.347.316a.708.708,0,0,0,.149.461q1.449,2.307,2.9,4.611l.2.311c.191.3.322.344.667.2l.268-.108c.668-.271,1.359-.552,2.036-.833a.71.71,0,0,1,.271-.064.415.415,0,0,1,.252.081.491.491,0,0,1,.175.473,1.464,1.464,0,0,0,0,.165c0,.033,0,.067,0,.1v3.147q0,5.506,0,11.012a.656.656,0,0,0,.109.451.648.648,0,0,0,.448.1c.421-.008.9-.016,1.373-.017h6.459v.016H737c1.768,0,3.6,0,5.4,0h0a.467.467,0,0,0,.607-.607v-14.32c0-.211,0-.411.19-.539s.377-.051.576.03l1.056.432,1.2.491c.319.13.458.085.646-.211q.22-.348.438-.7l.217-.345.709-1.127q.894-1.421,1.787-2.843C749.928,419.379,750.005,419.141,749.769,418.972Zm-1.128,1.043c-.761,1.185-1.5,2.359-2.192,3.489a.629.629,0,0,1-.877.273c-.324-.137-.659-.27-.982-.4-.544-.217-1.107-.442-1.652-.7a.522.522,0,0,0-.5-.011.536.536,0,0,0-.2.48c.023,1.767.018,3.563.014,5.3q0,1.013,0,2.027V432.1c0,1.885,0,3.835.006,5.752a.672.672,0,0,1-.167.515.654.654,0,0,1-.482.164h-.023c-1.937-.026-3.848-.039-5.68-.037-1.8,0-3.621.01-5.387.019l-2.173.011a.688.688,0,0,1-.544-.143.7.7,0,0,1-.146-.55V435.6q0-6.235,0-12.471c0-.233-.027-.337-.107-.414-.117-.113-.251-.165-.519-.054q-.476.2-.953.39c-.565.23-1.149.468-1.716.713a.666.666,0,0,1-.933-.3c-.753-1.226-1.527-2.445-2.192-3.491a.612.612,0,0,1-.115-.489.6.6,0,0,1,.33-.363l.253-.134c2.9-1.529,5.895-3.111,8.787-4.761a.627.627,0,0,1,.653.01,10.515,10.515,0,0,0,2.9,1.1,5.6,5.6,0,0,0,3.168-.393,11.548,11.548,0,0,0,1.537-.7.653.653,0,0,1,.683,0c2.966,1.693,6.018,3.3,8.969,4.855a.661.661,0,0,1,.369.394A.672.672,0,0,1,748.641,420.014Z" transform="translate(-719.851 -413.114)" fill="#fff" stroke="#fff" stroke-width="0.25"/></svg>