<svg xmlns="http://www.w3.org/2000/svg" width="19.958" height="27.931" viewBox="0 0 19.958 27.931"><g transform="translate(-487.832 -460.327)"><g transform="translate(487.832 460.327)"><path d="M488.15,477.563c.112-2.84.213-5.681.341-8.521.076-1.693.691-2.253,2.4-2.281.871-.014,1.98.276,2.547-.15.616-.463.146-1.632.216-2.49a4.128,4.128,0,0,1,4.05-3.792,4.083,4.083,0,0,1,4.229,3.68,18.2,18.2,0,0,1,.03,2.154c-.014.458.169.6.6.6.843-.015,1.688-.024,2.531.012a1.889,1.889,0,0,1,2.029,2.077c.108,2.121.187,4.244.268,6.366.136,3.559.276,7.117.392,10.676.053,1.634-.664,2.362-2.287,2.364q-7.688.008-15.375,0c-1.626,0-2.34-.721-2.291-2.358.084-2.779.2-5.556.3-8.335Zm1,.087c-.1,2.778-.2,5.557-.32,8.334-.035.812.289,1.261,1.117,1.262q7.876.012,15.752.006a.993.993,0,0,0,1.1-1.19c-.048-.9-.067-1.81-.1-2.716q-.283-7.117-.571-14.233c-.047-1.142-.268-1.337-1.43-1.358-.531-.01-1.062,0-1.594,0-1.327,0-1.459.218-.787,1.36a1.1,1.1,0,0,1-.058,1.31,1.066,1.066,0,0,1-1.27.337,1.122,1.122,0,0,1-.475-1.711c.587-1.047.45-1.29-.735-1.293q-1.875,0-3.75,0c-1.409,0-1.5.138-.854,1.387a1.122,1.122,0,0,1-.089,1.312,1.1,1.1,0,0,1-1.678-1.415,1.1,1.1,0,0,0,.212-1.046c-.164-.428-.6-.2-.912-.218-.592-.032-1.187-.012-1.781-.007-1.149.009-1.37.213-1.419,1.361C489.379,471.969,489.266,474.809,489.147,477.65Zm8.664-10.9h.75c2.307,0,2.307,0,2.235-2.333a2.981,2.981,0,0,0-5.957-.1c-.029.592.02,1.188-.017,1.779-.031.5.18.665.648.655C496.25,466.738,497.031,466.749,497.811,466.752Z" transform="translate(-487.832 -460.327)" fill="#fff"/></g></g></svg>