<svg xmlns="http://www.w3.org/2000/svg" width="26.041" height="26.041" viewBox="0 0 26.041 26.041"><g transform="translate(-200.336 -0.413)"><g transform="translate(56.377 55.943)"><rect width="26.041" height="26.041" rx="4" transform="translate(143.959 -55.53)"/></g><g transform="translate(203.325 5.609)"><g transform="translate(4.964 0)"><path d="M177.025,127.785h-2.2v1.846l.805-.808A5.672,5.672,0,0,1,177.025,127.785Z" transform="translate(-174.825 -127.785)" fill="#ec1d25"/><g transform="translate(0 0.24)"><path d="M182.4,165.077a2.819,2.819,0,0,0-.861-2.1,2.992,2.992,0,0,0-4.214.008l-2.5,2.513v1.219l3.113-3.125a2.1,2.1,0,0,1,1.509-.633,2.119,2.119,0,0,1,2.123,2.114,2.1,2.1,0,0,1-.629,1.511l-3.055,3.067h.658c.189,0,.374-.008.556-.021l2.44-2.449A2.838,2.838,0,0,0,182.4,165.077Z" transform="translate(-174.825 -160.159)" fill="#fff"/><path d="M176.24,132.941l-1.415,1.421v1.2l2.013-2.021a3.9,3.9,0,1,1,5.532,5.511l-1.644,1.651a4.77,4.77,0,0,0,3.512-4.534v-.028a4.652,4.652,0,0,0-2.974-4.309,4.827,4.827,0,0,0-1.668-.291A4.615,4.615,0,0,0,176.24,132.941Z" transform="translate(-174.825 -131.537)" fill="#fff"/><path d="M180.7,189.985a1.209,1.209,0,0,0-.374-.89,1.252,1.252,0,0,0-1.8,0l-3.7,3.715v1.2l4.3-4.315a.382.382,0,0,1,.61,0,.375.375,0,0,1-.01.6l-4.242,4.258h1.214l3.637-3.651A1.234,1.234,0,0,0,180.7,189.985Z" transform="translate(-174.825 -185.053)" fill="#fff"/></g></g><g transform="translate(0 12.321)"><path d="M98.787,321.012a1.644,1.644,0,0,1,.7.14,1.467,1.467,0,0,1,.5.367,1.558,1.558,0,0,1,.3.518,1.826,1.826,0,0,1,.1.6,1.847,1.847,0,0,1-.1.6,1.527,1.527,0,0,1-.3.519,1.481,1.481,0,0,1-.5.365,1.644,1.644,0,0,1-.7.14h-.851l-.316-.437v-2.427l-.321-.381Zm0,2.781a1.135,1.135,0,0,0,.491-.1,1.064,1.064,0,0,0,.353-.263,1.117,1.117,0,0,0,.214-.37,1.286,1.286,0,0,0,0-.849,1.113,1.113,0,0,0-.214-.372,1.067,1.067,0,0,0-.353-.263,1.137,1.137,0,0,0-.491-.1h-.7v2.316Z" transform="translate(-97.299 -320.961)" fill="#fff"/><path d="M157.935,323.724h1.507v.465h-1.66l-.326-.442v-2.437l-.312-.372h2.3v.465h-1.507v.916h1.474v.479h-1.474Z" transform="translate(-153.312 -320.892)" fill="#fff"/><path d="M210.235,320.794h1.5a1.055,1.055,0,0,1,.463.1,1.009,1.009,0,0,1,.33.249,1.027,1.027,0,0,1,.2.349,1.258,1.258,0,0,1,.065.4,1.237,1.237,0,0,1-.065.4,1.029,1.029,0,0,1-.2.346.981.981,0,0,1-.33.246,1.076,1.076,0,0,1-.463.093h-.716v1.083l-.474-.442v-2.451Zm1.5,1.711a.6.6,0,0,0,.26-.053.563.563,0,0,0,.186-.139.579.579,0,0,0,.112-.2.717.717,0,0,0,0-.456.58.58,0,0,0-.112-.2.564.564,0,0,0-.186-.14.6.6,0,0,0-.26-.054h-.716v1.237Z" transform="translate(-203.004 -320.757)" fill="#fff"/><path d="M261.9,320.213l1.307,3.3h-.5l-.4-.963h-1.167l-.1.237q-.054.126-.1.253l-.1.249q-.049.121-.086.223l-.326-.46.953-2.423-.167-.414Zm-.586,1.9h.814l-.4-1.163Z" transform="translate(-249.977 -320.213)" fill="#fff"/><path d="M310.141,323.676v-2.334h-.693l-.293-.474h2.437v.474h-.981v2.795Z" transform="translate(-295.59 -320.825)" fill="#fff"/><path d="M361.869,324.222a1.512,1.512,0,0,1-.428-.063,1.243,1.243,0,0,1-.386-.188,1.013,1.013,0,0,1-.281-.314.851.851,0,0,1-.109-.435v-1.916l-.307-.367h.791v2.283a.42.42,0,0,0,.065.235.571.571,0,0,0,.167.167.792.792,0,0,0,.23.1.965.965,0,0,0,.514,0,.824.824,0,0,0,.235-.1.59.59,0,0,0,.172-.167.41.41,0,0,0,.067-.235v-2.283h.47v2.283a.865.865,0,0,1-.107.435.989.989,0,0,1-.279.314,1.243,1.243,0,0,1-.386.188A1.513,1.513,0,0,1,361.869,324.222Z" transform="translate(-343.515 -320.892)" fill="#fff"/></g></g></g></svg>