<svg xmlns="http://www.w3.org/2000/svg" width="22.428" height="23.198" viewBox="0 0 22.428 23.198"><g transform="translate(-27.821 -4070.046)"><g transform="translate(27.821 4070.046)"><path d="M33.073,4070.047l-5.241,0v4.4l1.919-1.926A13.519,13.519,0,0,1,33.073,4070.047Z" transform="translate(-27.824 -4070.045)" fill="#e25351"/><g transform="translate(0 0.577)"><path d="M45.88,4084.96a6.715,6.715,0,0,0-2.049-4.993,6.835,6.835,0,0,0-5.022-2.061,6.767,6.767,0,0,0-5.018,2.076l-5.966,5.985v2.9l7.419-7.442a5,5,0,0,1,3.595-1.507,5.046,5.046,0,0,1,5.057,5.038,5,5,0,0,1-1.5,3.6l-7.28,7.3h1.567c.449,0,.891-.019,1.324-.049l5.815-5.832A6.764,6.764,0,0,0,45.88,4084.96Z" transform="translate(-27.822 -4073.242)"/><path d="M31.2,4074.252l-3.373,3.385v2.851l4.8-4.813a9.326,9.326,0,0,1,13.153-.02,9.263,9.263,0,0,1,.02,13.153l-3.918,3.93c5.119-1.666,8.369-5.8,8.371-10.8v-.067a11.083,11.083,0,0,0-7.081-10.267,11.5,11.5,0,0,0-3.974-.694A10.994,10.994,0,0,0,31.2,4074.252Z" transform="translate(-27.823 -4070.912)"/><path d="M41.823,4087.021a2.88,2.88,0,0,0-.89-2.121,2.983,2.983,0,0,0-4.293.006l-8.819,8.847v2.85l10.242-10.276a.91.91,0,0,1,1.453,0,.894.894,0,0,1-.025,1.426l-10.108,10.139h2.892l8.666-8.695A2.94,2.94,0,0,0,41.823,4087.021Z" transform="translate(-27.821 -4075.271)"/></g></g></g></svg>