<svg xmlns="http://www.w3.org/2000/svg" width="39.091" height="36.413" viewBox="0 0 39.091 36.413"><g transform="translate(-51.073 -33.922)"><g transform="matrix(0.996, -0.087, 0.087, 0.996, 51.072, 37.087)"><path d="M31.693,16.143A4.6,4.6,0,0,0,28.761,17.2L13.864,1.73,13.01.844a.615.615,0,0,0-.484-.188L2.354,1.313,1.271.189a.616.616,0,1,0-.887.854L1.455,2.154.007,11.836a.614.614,0,0,0,.165.518l1.28,1.329,18.785,19.5.007.008a.612.612,0,0,0,.861.009l8.6-8.284a4.615,4.615,0,1,0,1.988-8.775Zm-3.385,4.615a3.356,3.356,0,0,1,.492-1.747l1.09,1.132h-.66v1.231h.976l-.69.691.677.677-.655.628a3.379,3.379,0,0,1-1.231-2.611ZM2.532,3.273l.917.953A1.842,1.842,0,0,0,5.062,6.894H5.1A1.846,1.846,0,0,0,5.131,3.2a1.77,1.77,0,0,0-.794.169l-.865-.9L12.321,1.9l.23.238L1.913,12.388l-.644-.669ZM4.67,4.6A.607.607,0,0,1,5.1,4.432h.012a.615.615,0,0,1,.415,1.058.58.58,0,0,1-.438.172A.615.615,0,0,1,4.67,4.6ZM18.042,29.067h5.585L20.7,31.885Zm6.842-1.212v-.019H16.793L2.769,13.274,13.4,3.027,27.928,18.1a4.592,4.592,0,0,0,.73,6.122Zm6.808-3.711a3.38,3.38,0,0,1-1.018-.157l.8-.766h.837v-.806l.086-.083.6.6.87-.87-.69-.691h.976V20.143h-.976l.69-.69L33,18.585l-.69.688V18.3H31.078v.976l-.69-.688-.148.148-.615-.642a3.385,3.385,0,1,1,2.069,6.053Zm0,0" transform="translate(0 0)"/><circle cx="4.178" cy="4.178" r="4.178" transform="translate(27.965 16.736)"/></g><g transform="translate(82.689 52.83)"><path d="M404.477,332.928h-.938v.787l.343-.345A2.42,2.42,0,0,1,404.477,332.928Z" transform="translate(-403.539 -332.928)" fill="#fff"/><g transform="translate(0 0.102)"><path d="M406.77,378.243a1.2,1.2,0,0,0-.367-.893,1.275,1.275,0,0,0-1.8,0l-1.067,1.071v.52l1.327-1.332a.9.9,0,0,1,.643-.27.9.9,0,0,1,.905.9.894.894,0,0,1-.268.644l-1.3,1.307h.28c.08,0,.159,0,.237-.009l1.04-1.044A1.209,1.209,0,0,0,406.77,378.243Z" transform="translate(-403.539 -376.147)" fill="#fff"/><path d="M404.142,338.342l-.6.606v.51l.858-.861a1.664,1.664,0,1,1,2.358,2.349l-.7.7a2.033,2.033,0,0,0,1.5-1.933V339.7a1.983,1.983,0,0,0-1.268-1.837,2.059,2.059,0,0,0-.711-.124A1.967,1.967,0,0,0,404.142,338.342Z" transform="translate(-403.539 -337.743)" fill="#fff"/><path d="M406.044,411.651a.515.515,0,0,0-.159-.379.534.534,0,0,0-.768,0l-1.577,1.584v.51l1.832-1.839a.163.163,0,0,1,.26,0,.16.16,0,0,1,0,.255l-1.808,1.815h.517l1.55-1.556A.526.526,0,0,0,406.044,411.651Z" transform="translate(-403.539 -409.548)" fill="#fff"/></g></g></g></svg>