<svg xmlns="http://www.w3.org/2000/svg" viewBox="0 0 1080 1080"><g id="fc8dff2a-a1f0-46fe-83cb-ce8e82ee0cfd" data-name="Artboard 2"><path d="M667,907H179c-69.48,0-118.55-51-110-111.29l50.37-354.45c6-42.42,55.36-75.6,110.38-75.6H616.21c55,0,104.35,33.18,110.38,75.6L777,795.73C785.53,856,736.46,907,667,907Z" style="fill:#fff;stroke:#000;stroke-linecap:round;stroke-miterlimit:10;stroke-width:25px"/><path d="M283.59,365.68c0-81.09,62.4-146.82,139.38-146.82s139.37,65.73,139.37,146.82Z" style="fill:#fff;stroke:#000;stroke-linecap:round;stroke-miterlimit:10;stroke-width:25px"/><path d="M817.12,925.9a8.29,8.29,0,0,1-8.3,8.3h-76.1c-32.28,0-43.48,21.58-47,41.49-.47,2.58-.8,5.12-1,7.58a8.3,8.3,0,0,0,8.27,9H869.57c30.79,0,31.95-29.79,31.95-33.19V959a8.29,8.29,0,0,1,8.3-8.21H925a8.3,8.3,0,0,0,8.3-8.3V818a8.3,8.3,0,0,0-8.3-8.3H909.82a8.29,8.29,0,0,1-8.3-8.3h0c0-24.64-30.62-24.89-31.95-24.89H825.42a8.3,8.3,0,0,0-8.3,8.3Z"/><path d="M999.69,984H967.87c-8.89,0-18-5.6-18-14.49V792.38c0-8.89,9.08-15.85,18-15.85h31.82Z"/><path d="M242.88,154.1a8.29,8.29,0,0,1,8.3-8.3h76.1c32.28,0,43.48-21.58,47-41.49.47-2.58.8-5.12,1-7.58a8.3,8.3,0,0,0-8.27-9H190.43c-30.79,0-32,29.79-32,33.19V121a8.29,8.29,0,0,1-8.3,8.21H135a8.3,8.3,0,0,0-8.3,8.3V262a8.3,8.3,0,0,0,8.3,8.3h15.18a8.29,8.29,0,0,1,8.3,8.3h0c0,24.64,30.62,24.89,32,24.89h44.15a8.3,8.3,0,0,0,8.3-8.3Z"/><path d="M60.31,96H92.13c8.89,0,18,5.6,18,14.49V287.62c0,8.89-9.08,15.85-18,15.85H60.31Z"/><circle cx="422.97" cy="646.01" r="157.68" style="fill:#e25351"/><polyline points="348.65 647.67 385.06 698.73 498.96 605.16" style="fill:none;stroke:#fff;stroke-linecap:round;stroke-miterlimit:10;stroke-width:25px"/></g></svg>