<svg
  xmlns="http://www.w3.org/2000/svg"
  width="43.851"
  height="41.12"
  viewBox="0 0 43.851 41.12"
>
  <g id="Group_357" data-name="Group 357" transform="translate(0 0)">
    <path
      id="Path_1040"
      data-name="Path 1040"
      d="M4061.51,8895.233c4.96-1.242,9.419-.521,12.982,3.438a11.933,11.933,0,0,1-6.175,19.51c-.717.169-1.827.715-2.063-.468-.222-1.116.986-.893,1.637-1.062a10.326,10.326,0,0,0-1.383-20.346,10.189,10.189,0,0,0-10.937,7.952,10.024,10.024,0,0,0,3.273,10.114c.456.415,1.447.768.771,1.609-.768.955-1.364-.032-1.858-.458a30.965,30.965,0,0,1-2.208-2.292c-4.737,5.308-10.157,6.675-15.505,3.922a11.915,11.915,0,0,1,2.2-22.025c.73-.2,1.768-.843,2.084.326.3,1.108-.933.972-1.565,1.167a10.318,10.318,0,1,0,10.808,16.4,2.778,2.778,0,0,0,.648-3.059,8.5,8.5,0,0,1-.141-6.139c.9-2.218-.151-3.437-1.487-4.742-.451-.439-.951-.827-1.429-1.24-.233-1.373.528-1.493,1.545-1.175a2.813,2.813,0,0,1,1.489,1.112c1.006,1.533,1.757,1.148,2.817-.041A7.248,7.248,0,0,1,4061.51,8895.233Z"
      transform="translate(-4033.652 -8885.991)"
      fill="#1a1a1a"
    />
    <path
      id="Path_1041"
      data-name="Path 1041"
      d="M4049.289,8893.889a1.326,1.326,0,0,1-.9-1.77c.508-2.4.955-4.82,1.44-7.229.272-1.353,1-1.706,1.835-.517.773,1.1,1.406.76,2.333.306a10.047,10.047,0,0,1,13.794,4.984c.262.635.745,1.47-.021,1.855-1.055.53-1.143-.6-1.436-1.231a8.486,8.486,0,0,0-12.419-3.73c-1.423.865-1.423.865-2.74.151a1.612,1.612,0,0,0-.131.326c-.27,1.611-1.291,4.062-.636,4.651,1.222,1.1,3.426.232,5.583.327-1.806-1.709-.467-2.332.69-2.925a5.883,5.883,0,0,1,6.926,1.319c.515.575,1,1.163.628,2.017-.911.654-1.526-.014-2.154-.509a4.958,4.958,0,0,0-1.929-1.136c-1.39-.318-1.769-.015-1.488,1.346.239,1.154-.315,1.664-1.321,1.844a12.707,12.707,0,0,1-3.364-.144A17.318,17.318,0,0,0,4049.289,8893.889Z"
      transform="translate(-4036.812 -8883.605)"
      fill="#1a1a1a"
    />
    <path
      id="Path_1042"
      data-name="Path 1042"
      d="M4065.754,8930.262c.28-1.375.539-2.607.779-3.842.095-.49.144-.987.228-1.578l-5.511,0c1.281,1.949-.09,2.547-1.479,3.1a5.868,5.868,0,0,1-6.655-1.783c-.333-.455-.79-.942-.206-1.483.615-.571.977-.018,1.394.381,1.973,1.885,3.176,2.112,5.361,1.058-.068-.94-1.692-1.354-1.058-2.38.62-1,1.864-.412,2.822-.476,1.823-.12,3.66-.051,5.484-.176,1.356-.092,1.875.341,1.576,1.727-.516,2.4-.965,4.816-1.446,7.227-.263,1.314-.968,1.525-1.728.466-.806-1.121-1.473-.822-2.489-.315a10.059,10.059,0,0,1-13.736-5.126c-.244-.636-.72-1.4.214-1.778.856-.341.979.542,1.234,1.076,2.489,5.219,7.93,6.8,12.8,3.711C4064.408,8929.39,4064.408,8929.39,4065.754,8930.262Z"
      transform="translate(-4036.903 -8892.104)"
      fill="#1a1a1a"
    />
    <path
      id="Path_1043"
      data-name="Path 1043"
      d="M4053.86,8905.909c-.328-.908-1.123-1.1-1.988-1.131-1.639-.051-2.857-.629-3.34-2.378-.236-.852-.725-1.689-1.806-1.641-1.062.049-1.456.94-1.745,1.763a2.855,2.855,0,0,1-2.853,2.208c-.927.019-1.985.02-2.385,1.133-.445,1.236.561,1.865,1.294,2.48a2.5,2.5,0,0,1,.988,3.106,5.577,5.577,0,0,0-.2,1.221c.01,1.632,1.111,2.313,2.555,1.43,1.591-.973,3.014-1.344,4.6-.089a1.689,1.689,0,0,0,2.1.242,1.722,1.722,0,0,0,.571-2.2,3.186,3.186,0,0,1,1.269-4.076C4053.569,8907.5,4054.206,8906.866,4053.86,8905.909Zm-3.815,6.74c-2.256-1.712-4.328-1.6-6.846.537,1.072-3.03.818-5.171-2.049-6.592a19.11,19.11,0,0,0,3.718-.887c1.049-.51,1.054-1.937,2.056-3.064.665,2.674,2.39,3.879,5.142,3.83C4049.9,8908.07,4049.009,8909.955,4050.046,8912.649Z"
      transform="translate(-4034.94 -8887.3)"
      fill="#e25351"
    />
    <path
      id="Path_1044"
      data-name="Path 1044"
      d="M4077.3,8910.18a2.927,2.927,0,0,0-2.3-2.886,1.327,1.327,0,0,1-1.1-1.645c.063-.78.013-1.571.014-2.323a1.346,1.346,0,0,1,1.211.436c.482.4.872,1.409,1.627.563.721-.811-.2-1.331-.664-1.868-.16-.186-.4-.418-.609-.424-1.443-.043-1.3-1.915-2.247-2.116-1.247-.264-.821,1.791-2.224,2.048a2.8,2.8,0,0,0-2.1,3.018,2.919,2.919,0,0,0,2.174,2.987,1.539,1.539,0,0,1,1.235,1.945,19.839,19.839,0,0,0-.016,2.138,1.45,1.45,0,0,1-1.227-.443c-.519-.423-.922-1.579-1.74-.588-.657.8.3,1.327.76,1.863a1.377,1.377,0,0,0,.781.5c1.327.116,1.2,1.848,2.085,2.048,1.3.294.786-1.79,2.219-2.055A2.866,2.866,0,0,0,4077.3,8910.18Zm-5.45-3.686c-.808.065-1.32-.611-1.356-1.48a1.48,1.48,0,0,1,1.374-1.7c.913.05.25,1.095.513,1.623C4072.144,8905.486,4072.777,8906.419,4071.849,8906.494Zm2.04,5.7a18.476,18.476,0,0,1,.017-2.014c.057-.481-.356-1.326.491-1.347a1.338,1.338,0,0,1,1.3,1.555C4075.669,8911.287,4075.1,8911.861,4073.889,8912.189Z"
      transform="translate(-4041.243 -8887.113)"
      fill="#e25351"
    />
  </g>
</svg>
