<svg xmlns="http://www.w3.org/2000/svg" width="28.651" height="28.651" viewBox="0 0 28.651 28.651"><g transform="translate(-0.001)"><g transform="translate(0.001)"><g transform="translate(0)"><path d="M24.109,14.745h2.42a1.1,1.1,0,1,0,0-.839h-2.42V10.235h2.42a1.1,1.1,0,1,0,0-.839h-2.42V4.962a.42.42,0,0,0-.42-.42h-1.8a.42.42,0,1,0,0,.839H23.27V9.815h0v4.509h0v4.509h0v4.432H5.383V18.836h0V14.326h0V9.815h0V5.382h14.85a.42.42,0,0,0,0-.839h-.976V2.122a1.1,1.1,0,1,0-.839,0v2.42H14.747V2.122a1.1,1.1,0,1,0-.839,0v2.42H10.236V2.122a1.1,1.1,0,1,0-.839,0v2.42H4.963a.42.42,0,0,0-.42.42V9.4H2.123a1.1,1.1,0,1,0,0,.839h2.42v3.671H2.123a1.1,1.1,0,1,0,0,.839h2.42v3.671H2.123a1.1,1.1,0,1,0,0,.839h2.42v4.433a.42.42,0,0,0,.42.42H9.4v2.42a1.1,1.1,0,1,0,.839,0v-2.42h3.671v2.42a1.1,1.1,0,1,0,.839,0v-2.42h3.671v2.421a1.1,1.1,0,1,0,.839,0v-2.42h4.434a.42.42,0,0,0,.42-.42V19.256h2.42a1.1,1.1,0,1,0,0-.839h-2.42V14.745Zm3.44-.684a.264.264,0,1,1-.264.264A.264.264,0,0,1,27.549,14.062Zm0-4.51a.264.264,0,1,1-.264.264A.264.264,0,0,1,27.549,9.552ZM18.837.839a.263.263,0,0,1,0,.527h0a.264.264,0,0,1,0-.527Zm-4.51,0a.263.263,0,0,1,0,.527h0a.263.263,0,0,1,0-.527Zm-4.51,0a.263.263,0,0,1,0,.527h0a.263.263,0,0,1,0-.527ZM1.1,10.079a.264.264,0,1,1,.264-.264A.264.264,0,0,1,1.1,10.079Zm0,4.51a.264.264,0,1,1,.264-.264A.264.264,0,0,1,1.1,14.589Zm0,4.51a.264.264,0,1,1,.264-.264A.264.264,0,0,1,1.1,19.1Zm8.712,8.712a.263.263,0,0,1,0-.527h0a.263.263,0,0,1,0,.527Zm4.51,0a.263.263,0,0,1,0-.527h0a.263.263,0,0,1,0,.527Zm4.51,0a.263.263,0,0,1,0-.527h0a.263.263,0,0,1,0,.527Zm8.712-9.239a.264.264,0,1,1-.264.264A.264.264,0,0,1,27.549,18.572Z" transform="translate(-0.001)" fill="#fff"/></g></g><g transform="translate(5.929 5.928)"><path d="M122.313,105.938H106.358a.42.42,0,0,0-.42.42v11.657a.42.42,0,1,0,.839,0V106.777h15.116v15.116H106.777v-2.225a.42.42,0,0,0-.839,0v2.645a.42.42,0,0,0,.42.42h15.955a.42.42,0,0,0,.42-.42V106.358A.42.42,0,0,0,122.313,105.938Z" transform="translate(-105.938 -105.938)" fill="#fff"/></g><g transform="translate(11.035 11.034)"><path d="M203.347,197.184H197.6a.42.42,0,0,0-.42.42v5.743a.42.42,0,0,0,.42.42h2.213a.42.42,0,1,0,0-.839h-1.793v-4.9h4.9v4.9H201.47a.42.42,0,1,0,0,.839h1.877a.42.42,0,0,0,.42-.42V197.6A.42.42,0,0,0,203.347,197.184Z" transform="translate(-197.184 -197.184)" fill="#fff"/></g><g transform="translate(8.038 8.037)"><path d="M144.712,143.617h-.676a.42.42,0,0,0-.42.42v.676a.42.42,0,0,0,.42.42h.676a.42.42,0,0,0,.42-.42v-.676A.42.42,0,0,0,144.712,143.617Z" transform="translate(-143.617 -143.617)" fill="#fff"/></g><g transform="translate(10.25 8.037)"><path d="M184.252,143.617h-.676a.42.42,0,0,0-.42.42v.676a.42.42,0,0,0,.42.42h.676a.42.42,0,0,0,.42-.42v-.676A.42.42,0,0,0,184.252,143.617Z" transform="translate(-183.157 -143.617)" fill="#fff"/></g><g transform="translate(12.463 8.037)"><path d="M223.79,143.617h-.676a.42.42,0,0,0-.42.42v.676a.42.42,0,0,0,.42.42h.676a.42.42,0,0,0,.42-.42v-.676A.42.42,0,0,0,223.79,143.617Z" transform="translate(-222.695 -143.617)" fill="#fff"/></g><g transform="translate(14.675 8.037)"><path d="M263.329,143.617h-.676a.42.42,0,0,0-.42.42v.676a.42.42,0,0,0,.42.42h.676a.42.42,0,0,0,.42-.42v-.676A.42.42,0,0,0,263.329,143.617Z" transform="translate(-262.234 -143.617)" fill="#fff"/></g><g transform="translate(16.888 8.037)"><path d="M302.868,143.617h-.676a.42.42,0,0,0-.42.42v.676a.42.42,0,0,0,.42.42h.676a.42.42,0,0,0,.42-.42v-.676A.42.42,0,0,0,302.868,143.617Z" transform="translate(-301.773 -143.617)" fill="#fff"/></g><g transform="translate(19.1 8.037)"><path d="M342.406,143.617h-.676a.42.42,0,0,0-.42.42v.676a.42.42,0,0,0,.42.42h.676a.42.42,0,0,0,.42-.42v-.676A.42.42,0,0,0,342.406,143.617Z" transform="translate(-341.311 -143.617)" fill="#fff"/></g><g transform="translate(8.038 19.099)"><path d="M144.712,341.311h-.676a.42.42,0,0,0-.42.42v.676a.42.42,0,0,0,.42.42h.676a.42.42,0,0,0,.42-.42v-.676A.42.42,0,0,0,144.712,341.311Z" transform="translate(-143.617 -341.311)" fill="#fff"/></g><g transform="translate(10.25 19.099)"><path d="M184.251,341.311h-.676a.42.42,0,0,0-.42.42v.676a.42.42,0,0,0,.42.42h.676a.42.42,0,0,0,.42-.42v-.676A.42.42,0,0,0,184.251,341.311Z" transform="translate(-183.156 -341.311)" fill="#fff"/></g><g transform="translate(12.463 19.099)"><path d="M223.79,341.311h-.676a.42.42,0,0,0-.42.42v.676a.42.42,0,0,0,.42.42h.676a.42.42,0,0,0,.42-.42v-.676A.42.42,0,0,0,223.79,341.311Z" transform="translate(-222.695 -341.311)" fill="#fff"/></g><g transform="translate(14.675 19.099)"><path d="M263.329,341.311h-.676a.42.42,0,0,0-.42.42v.676a.42.42,0,0,0,.42.42h.676a.42.42,0,0,0,.42-.42v-.676A.42.42,0,0,0,263.329,341.311Z" transform="translate(-262.234 -341.311)" fill="#fff"/></g><g transform="translate(16.888 19.099)"><path d="M302.868,341.311h-.676a.42.42,0,0,0-.42.42v.676a.42.42,0,0,0,.42.42h.676a.42.42,0,0,0,.42-.42v-.676A.42.42,0,0,0,302.868,341.311Z" transform="translate(-301.773 -341.311)" fill="#fff"/></g><g transform="translate(19.1 19.099)"><path d="M342.406,341.311h-.676a.42.42,0,0,0-.42.42v.676a.42.42,0,0,0,.42.42h.676a.42.42,0,0,0,.42-.42v-.676A.42.42,0,0,0,342.406,341.311Z" transform="translate(-341.311 -341.311)" fill="#fff"/></g><g transform="translate(8.038 10.249)"><path d="M144.712,183.156h-.676a.42.42,0,0,0-.42.42v.676a.42.42,0,0,0,.42.42h.676a.42.42,0,0,0,.42-.42v-.676A.42.42,0,0,0,144.712,183.156Z" transform="translate(-143.617 -183.156)" fill="#fff"/></g><g transform="translate(8.038 12.462)"><path d="M144.712,222.7h-.676a.42.42,0,0,0-.42.42v.676a.42.42,0,0,0,.42.42h.676a.42.42,0,0,0,.42-.42v-.676A.42.42,0,0,0,144.712,222.7Z" transform="translate(-143.617 -222.695)" fill="#fff"/></g><g transform="translate(8.038 14.674)"><path d="M144.712,262.234h-.676a.42.42,0,0,0-.42.42v.676a.42.42,0,0,0,.42.42h.676a.42.42,0,0,0,.42-.42v-.676A.42.42,0,0,0,144.712,262.234Z" transform="translate(-143.617 -262.234)" fill="#fff"/></g><g transform="translate(8.038 16.887)"><path d="M144.712,301.772h-.676a.42.42,0,0,0-.42.42v.676a.42.42,0,0,0,.42.42h.676a.42.42,0,0,0,.42-.42v-.676A.42.42,0,0,0,144.712,301.772Z" transform="translate(-143.617 -301.772)" fill="#fff"/></g><g transform="translate(19.1 10.249)"><path d="M342.406,183.156h-.676a.42.42,0,0,0-.42.42v.676a.42.42,0,0,0,.42.42h.676a.42.42,0,0,0,.42-.42v-.676A.42.42,0,0,0,342.406,183.156Z" transform="translate(-341.311 -183.156)" fill="#fff"/></g><g transform="translate(19.1 12.462)"><path d="M342.406,222.7h-.676a.42.42,0,0,0-.42.42v.676a.42.42,0,0,0,.42.42h.676a.42.42,0,0,0,.42-.42v-.676A.42.42,0,0,0,342.406,222.7Z" transform="translate(-341.311 -222.695)" fill="#fff"/></g><g transform="translate(19.1 14.674)"><path d="M342.406,262.234h-.676a.42.42,0,0,0-.42.42v.676a.42.42,0,0,0,.42.42h.676a.42.42,0,0,0,.42-.42v-.676A.42.42,0,0,0,342.406,262.234Z" transform="translate(-341.311 -262.234)" fill="#fff"/></g><g transform="translate(19.1 16.887)"><path d="M342.406,301.772h-.676a.42.42,0,0,0-.42.42v.676a.42.42,0,0,0,.42.42h.676a.42.42,0,0,0,.42-.42v-.676A.42.42,0,0,0,342.406,301.772Z" transform="translate(-341.311 -301.772)" fill="#fff"/></g></g></svg>