<svg
  xmlns="http://www.w3.org/2000/svg"
  width="192.458"
  height="145.214"
  viewBox="0 0 192.458 145.214"
>
  <g
    id="Group_4664"
    data-name="Group 4664"
    transform="translate(-201.543 -275.91)"
  >
    <g
      id="Group_4665"
      data-name="Group 4665"
      transform="translate(233.424 275.91)"
    >
      <path
        id="Path_6712"
        data-name="Path 6712"
        d="M401.394,396.167l44.321-77.11h0c.091-.108.07-.309.161-.417h0c-.02-.2.07-.309-.04-.4-4.908-24.516-27.531-42.763-52.626-42.321a49.579,49.579,0,0,0-48.58,43.951c.02.2-.07.309.041.4l.111.093c.02.2.131.294.151.494h0l51.9,75.344a6.576,6.576,0,0,0-3.95,6.057,6.7,6.7,0,0,0,2.076,4.5l.332.279a6.781,6.781,0,0,0,4.318,1.6,6.394,6.394,0,0,0,4.466-1.949,6.133,6.133,0,0,0,1.768-4.581A6.426,6.426,0,0,0,401.394,396.167Zm-7.759-116.033c18.779,18.33,20.906,37.388,21.1,44.352-3.848-5.985-11.247-9.989-19.649-9.872-8.291.21-15.463,4.483-18.568,10.882C375.852,318.87,376.029,299.541,393.635,280.134ZM417.5,327.72c-.111-.093-.02-.2,0,0,2.189-6.432,8.445-10.739,16.334-10.918a19.4,19.4,0,0,1,8.715,1.984L403.41,387.016,416.823,330.1h0c.141-.617.19-1.127.331-1.744A2.8,2.8,0,0,0,417.5,327.72Zm-39.825,3.152c1.263-7.578,8.6-13.178,17.61-13.339,8.8-.146,16.727,5.031,18.775,12.263l-14.838,62.892Zm-2.908.317h0l19.7,56.592L348.04,320.526a17.312,17.312,0,0,1,8.582-2.355C365.628,318.01,372.947,323.232,374.763,331.188Zm67.679-15.43a20.985,20.985,0,0,0-8.7-1.783c-6.883.105-12.677,2.962-16.165,7.569-.8-8.942-4.446-25.966-21.453-42.809A50.305,50.305,0,0,1,442.442,315.759Zm-51.475-36.945c-15.665,17.544-17.675,34.784-17.588,43.678a22.033,22.033,0,0,0-16.93-7.039,19.189,19.189,0,0,0-8.511,2.046A46.82,46.82,0,0,1,390.967,278.814Zm8.562,127a3.626,3.626,0,0,1-2.536-1.026,3.119,3.119,0,0,1-1.159-2.442,3.644,3.644,0,0,1,3.479-3.7,3.952,3.952,0,0,1,3.806,3.561,3.229,3.229,0,0,1-.964,2.5A4.327,4.327,0,0,1,399.529,405.811Z"
        transform="translate(-330.365 -275.91)"
        fill="#fff"
      />
      <g
        id="Group_4664-2"
        data-name="Group 4664"
        transform="translate(0 82.825)"
      >
        <rect
          id="Rectangle_1753"
          data-name="Rectangle 1753"
          width="130.243"
          height="60.834"
          rx="4"
          transform="translate(0 0.097)"
        />
        <rect
          id="Rectangle_1754"
          data-name="Rectangle 1754"
          width="130.243"
          height="60.389"
          rx="4"
          fill="none"
          stroke="#fff"
          stroke-miterlimit="10"
          stroke-width="4"
        />
      </g>
    </g>
    <g
      id="Group_4666"
      data-name="Group 4666"
      transform="translate(247.463 372.069)"
    >
      <text
        id="EXCLUSIVE"
        transform="translate(49 17)"
        fill="#fff"
        font-size="18"
        font-family="NeueHaasDisplay-Bold, Neue Haas Grotesk Display Pro"
        font-weight="700"
        letter-spacing="0.01em"
      ><tspan x="-49.383" y="0">EXCLUSIVE</tspan></text>
      <text
        id="R_E_T_A_I_L_D_R_O_P"
        data-name="R E T A I L     D R O P"
        transform="translate(49.364 31.751)"
        fill="#fff"
        font-size="9"
        font-family="NeueHaasDisplay-Mediu, Neue Haas Grotesk Display Pro"
        letter-spacing="0.015em"
      ><tspan
          x="-38.551"
          y="0"
          xml:space="preserve"
        >R E T A I L     D R O P</tspan></text>
    </g>
    <g
      id="Group_4671"
      data-name="Group 4671"
      transform="translate(201.543 367.443)"
    >
      <g id="Group_4668" data-name="Group 4668">
        <g id="Group_4667" data-name="Group 4667" transform="translate(12.585)">
          <path
            id="Path_6713"
            data-name="Path 6713"
            d="M243.169,678.5a20.191,20.191,0,0,0-2.275-2.234c-.477-.394-.367-.58-.018-.874,1.347-1.135,2.668-2.3,4-3.456,1.2-1.046,1.177-1.032,1.971.383a1.517,1.517,0,0,1,.006,1.724c-.844,1.49-1.972,2.8-2.7,4.353C243.917,678.861,243.61,679,243.169,678.5Zm-.185-2.992c-.351.3-.219.566.055.827.3.282.511.2.728-.113a8.3,8.3,0,0,0,1.2-2.4Q243.976,674.662,242.984,675.5Z"
            transform="translate(-240.574 -635.28)"
            fill="#fff"
            stroke="#fff"
            stroke-miterlimit="10"
            stroke-width="1.5"
          />
          <path
            id="Path_6714"
            data-name="Path 6714"
            d="M241.765,561.747a20.235,20.235,0,0,0,2.681-1.724c.49-.378.647-.23.857.176.809,1.565,1.654,3.11,2.487,4.663.754,1.406.746,1.376-.809,1.837a1.516,1.516,0,0,1-1.683-.376c-1.266-1.153-2.294-2.542-3.649-3.593C241.244,562.4,241.179,562.066,241.765,561.747Zm2.959.481c-.214-.408-.5-.339-.819-.129-.34.226-.311.454-.05.735a8.3,8.3,0,0,0,2.074,1.7Q245.326,563.381,244.724,562.228Z"
            transform="translate(-241.09 -559.804)"
            fill="#fff"
            stroke="#fff"
            stroke-miterlimit="10"
            stroke-width="1.5"
          />
        </g>
        <path
          id="Path_6715"
          data-name="Path 6715"
          d="M202.7,619.9c-1.268.009-1.268.009-1.032-1.211.307-1.582.6-3.166.924-4.745.413-2.023.425-2.032,2.4-1.481,3.572,1,7.137,2.024,10.714,3.009.7.192.924.413.481,1.1a26.288,26.288,0,0,0-1.351,2.463.987.987,0,0,1-.989.6c-3.521.053-7.046,0-10.328.253Zm9.9-1.934a2.108,2.108,0,0,0,.667-.094.941.941,0,0,0,.586-.825c.045-.35-.328-.369-.548-.432-2.755-.794-5.518-1.563-8.274-2.356-.517-.149-.783-.007-.873.526-.149.888-.289,1.78-.49,2.657-.133.582.134.659.6.652,1.421-.022,2.842-.024,4.262-.035V618C209.887,617.988,211.244,617.982,212.6,617.965Z"
          transform="translate(-201.543 -595.273)"
          fill="#fff"
        />
      </g>
      <g id="Group_4670" data-name="Group 4670" transform="translate(172.685)">
        <g id="Group_4669" data-name="Group 4669">
          <path
            id="Path_6716"
            data-name="Path 6716"
            d="M742.1,678.392c-.725-1.553-1.853-2.863-2.7-4.353a1.517,1.517,0,0,1,.006-1.724c.794-1.415.767-1.429,1.971-.383,1.329,1.156,2.65,2.321,4,3.456.349.294.459.48-.018.874a20.189,20.189,0,0,0-2.275,2.234C742.64,679,742.334,678.861,742.1,678.392Zm-.814-4.573a8.3,8.3,0,0,0,1.2,2.4c.217.317.433.4.728.113.274-.261.406-.529.055-.827Q742.276,674.66,741.283,673.819Z"
            transform="translate(-738.487 -635.28)"
            fill="#fff"
            stroke="#fff"
            stroke-miterlimit="10"
            stroke-width="1.5"
          />
          <path
            id="Path_6717"
            data-name="Path 6717"
            d="M743.759,562.73c-1.354,1.051-2.382,2.44-3.648,3.593a1.515,1.515,0,0,1-1.683.376c-1.555-.461-1.563-.432-.809-1.837.833-1.552,1.678-3.1,2.487-4.663.21-.406.367-.554.857-.176a20.24,20.24,0,0,0,2.681,1.724C744.229,562.066,744.164,562.4,743.759,562.73Zm-4.279,1.806a8.3,8.3,0,0,0,2.074-1.7c.261-.282.29-.509-.05-.735-.315-.209-.605-.279-.819.129Q740.08,563.381,739.479,564.535Z"
            transform="translate(-737.129 -559.804)"
            fill="#fff"
            stroke="#fff"
            stroke-miterlimit="10"
            stroke-width="1.5"
          />
        </g>
        <path
          id="Path_6718"
          data-name="Path 6718"
          d="M765.252,619.893c-3.283-.255-6.807-.2-10.328-.253a.987.987,0,0,1-.989-.6,26.281,26.281,0,0,0-1.351-2.463c-.443-.689-.216-.911.481-1.1,3.577-.984,7.142-2.01,10.714-3.009,1.972-.551,1.984-.542,2.4,1.481.322,1.579.617,3.163.924,4.745.236,1.22.236,1.22-1.032,1.211ZM760.231,618v.061c1.421.01,2.841.013,4.262.035.469.007.737-.07.6-.652-.2-.877-.341-1.768-.49-2.657-.09-.533-.356-.675-.873-.526-2.756.792-5.518,1.562-8.274,2.356-.22.063-.594.082-.548.432a.941.941,0,0,0,.586.825,2.108,2.108,0,0,0,.667.094C757.519,617.982,758.875,617.988,760.231,618Z"
          transform="translate(-747.446 -595.273)"
          fill="#fff"
        />
      </g>
    </g>
  </g>
</svg>
