<svg xmlns="http://www.w3.org/2000/svg" width="27.054" height="23.711" viewBox="0 0 27.054 23.711"><g transform="translate(0 -26.576)"><g transform="translate(0 26.576)"><g transform="translate(0 0)"><path d="M176.749,159.668a2.76,2.76,0,1,0,2.76,2.76A2.76,2.76,0,0,0,176.749,159.668Zm0,4.205a1.446,1.446,0,1,1,0-2.891h0a1.446,1.446,0,0,1,0,2.891Z" transform="translate(-163.048 -151.299)"/><path d="M24.706,28.637,6.768,26.6a2.464,2.464,0,0,0-1.938.559,2.5,2.5,0,0,0-.953,1.708l-.328,2.694H2.53A2.64,2.64,0,0,0,0,34.288V47.725a2.5,2.5,0,0,0,2.43,2.562H20.567a2.7,2.7,0,0,0,2.76-2.563V47.2a3.285,3.285,0,0,0,1.248-.526,2.727,2.727,0,0,0,.953-1.774l1.511-13.338A2.661,2.661,0,0,0,24.706,28.637ZM22.012,47.725a1.383,1.383,0,0,1-1.446,1.248H2.53a1.183,1.183,0,0,1-1.217-1.147q0-.05,0-.1V45.293l5.092-3.745a1.577,1.577,0,0,1,2.037.1L12.025,44.8a3.088,3.088,0,0,0,1.938.723A2.99,2.99,0,0,0,15.54,45.1l6.472-3.745v6.373Zm0-7.917L14.85,43.979a1.675,1.675,0,0,1-1.938-.164L9.3,40.628A2.924,2.924,0,0,0,5.651,40.5L1.315,43.651V34.288A1.326,1.326,0,0,1,2.53,32.875H20.567a1.511,1.511,0,0,1,1.446,1.413v5.519Zm3.714-8.423V31.4L24.18,44.735a1.117,1.117,0,0,1-.427.887c-.131.131-.427.2-.427.263v-11.6a2.825,2.825,0,0,0-2.76-2.727H4.863L5.159,29a1.511,1.511,0,0,1,.493-.854,1.511,1.511,0,0,1,.986-.263l17.9,2.07A1.314,1.314,0,0,1,25.726,31.384Z" transform="translate(0 -26.576)"/></g></g></g></svg>