<svg
  xmlns="http://www.w3.org/2000/svg"
  width="179.891"
  height="134.858"
  viewBox="0 0 179.891 134.858"
>
  <g
    id="Group_4648"
    data-name="Group 4648"
    transform="translate(-256.847 -305.281)"
  >
    <g
      id="Group_4650"
      data-name="Group 4650"
      transform="translate(313.156 342.311)"
    >
      <g id="Group_4649" data-name="Group 4649">
        <g id="Group_4648-2" data-name="Group 4648">
          <path
            id="Path_6698"
            data-name="Path 6698"
            d="M485.1,468.142,468.86,483.478l-7.792-8.017a2.246,2.246,0,0,0-3.22,3.13l9.346,9.594a2.286,2.286,0,0,0,3.175.067l17.859-16.845a2.244,2.244,0,0,0,.09-3.176A2.3,2.3,0,0,0,485.1,468.142Z"
            transform="translate(-439.402 -444.54)"
            fill="#fff"
            stroke="#fff"
            stroke-miterlimit="10"
            stroke-width="1"
          />
          <path
            id="Path_6699"
            data-name="Path 6699"
            d="M442.715,405.385a33.646,33.646,0,1,0,33.646,33.646A33.678,33.678,0,0,0,442.715,405.385Zm0,62.788a29.142,29.142,0,1,1,29.142-29.142A29.176,29.176,0,0,1,442.715,468.173Z"
            transform="translate(-409.069 -405.385)"
            fill="#fff"
          />
        </g>
      </g>
    </g>
    <path
      id="Path_6700"
      data-name="Path 6700"
      d="M358.991,379.525c0,7.441.143,15.025,0,22.467a30.5,30.5,0,0,0,3.721,15.455c8.3,15.884,20.893,27.332,36.919,35.2a24.4,24.4,0,0,0,22.037.286,80.631,80.631,0,0,0,35.488-31.2,38.522,38.522,0,0,0,6.01-22.037c-.286-6.869,0-13.737,0-20.606V354.2c0-1.574-.43-2-2-2.147a80.815,80.815,0,0,1-14.31-2.432c-12.163-3.005-23.325-8.3-34.057-14.739-1-.572-1.718-.859-2.862-.143a148.774,148.774,0,0,1-19.6,10.017,100.426,100.426,0,0,1-27.9,7.3c-3.435.43-3.005.43-3.005,3.435C358.991,363.641,358.991,371.655,358.991,379.525Z"
      transform="translate(-64.353 -18.291)"
      fill="none"
      stroke="#fff"
      stroke-miterlimit="10"
      stroke-width="6"
    />
    <g
      id="Group_4653"
      data-name="Group 4653"
      transform="translate(256.847 305.281)"
    >
      <g id="Group_4651" data-name="Group 4651" transform="translate(0 0.448)">
        <path
          id="Path_6701"
          data-name="Path 6701"
          d="M338.167,318.315c-2.235-2.494-4.46-5-6.705-7.481-.424-.469-.42-.761.155-1.083,1.81-1.014,3.606-2.055,5.4-3.094.526-.3.825-.192,1.087.377,1.539,3.34,3.11,6.666,4.665,10,.185.4.375.823-.289.976-1.1.253-2.2.5-3.138.711A1.256,1.256,0,0,1,338.167,318.315Zm-1.329-7.936c-.321-.638-.8-.242-1.18,0-.357.222-.768.476-.322.977q1.6,1.8,3.21,3.589A13.325,13.325,0,0,0,336.838,310.38Z"
          transform="translate(-303.672 -306.492)"
          fill="#fff"
        />
        <path
          id="Path_6702"
          data-name="Path 6702"
          d="M256.937,372.329c.706-2.673,1.439-5.339,2.109-8.02.275-1.1.787-1.065,1.723-.721,3.955,1.455,7.944,2.818,11.921,4.211,3.6,1.262,3.541,1.223,1.541,4.551a3.628,3.628,0,0,1-3.577,2.056c-4.1.011-8.157-.781-12.244-.447C257.24,374.019,256.6,373.609,256.937,372.329Zm6.089-4.224c-1.037-.375-1.436.216-1.655,1.1-.236.949.183,1.3,1.1,1.379a19.847,19.847,0,0,0,6.408-.349Q265.953,369.167,263.026,368.1Z"
          transform="translate(-256.847 -342.332)"
          fill="#fff"
        />
      </g>
      <g
        id="Group_4652"
        data-name="Group 4652"
        transform="translate(140.618 0)"
      >
        <path
          id="Path_6703"
          data-name="Path 6703"
          d="M640.587,317.508c-.935-.212-2.037-.459-3.138-.711-.664-.153-.474-.58-.289-.976,1.555-3.333,3.126-6.658,4.665-10,.262-.569.562-.681,1.087-.377,1.8,1.039,3.591,2.08,5.4,3.094.575.323.579.614.155,1.083-2.245,2.484-4.47,4.988-6.706,7.481A1.256,1.256,0,0,1,640.587,317.508Zm.8-3.777q1.605-1.794,3.21-3.589c.446-.5.035-.754-.322-.976-.381-.238-.859-.635-1.18,0A13.325,13.325,0,0,0,641.384,313.731Z"
          transform="translate(-636.985 -305.281)"
          fill="#fff"
        />
        <path
          id="Path_6704"
          data-name="Path 6704"
          d="M709.65,372.747c-4.088-.334-8.147.458-12.245.446a3.627,3.627,0,0,1-3.577-2.056c-2-3.327-2.062-3.289,1.541-4.551,3.977-1.393,7.966-2.757,11.921-4.211.936-.344,1.448-.381,1.723.721.67,2.681,1.4,5.347,2.109,8.02C711.461,372.4,710.82,372.807,709.65,372.747Zm-10.47-3.728a19.856,19.856,0,0,0,6.408.349c.917-.075,1.336-.43,1.1-1.379-.218-.879-.618-1.47-1.655-1.1Q702.105,367.952,699.181,369.019Z"
          transform="translate(-671.94 -341.121)"
          fill="#fff"
        />
      </g>
    </g>
  </g>
</svg>
