<svg
  xmlns="http://www.w3.org/2000/svg"
  width="163.17"
  height="158.683"
  viewBox="0 0 163.17 158.683"
>
  <g
    id="Group_4663"
    data-name="Group 4663"
    transform="translate(-302.666 -305.086)"
  >
    <g
      id="Group_4657"
      data-name="Group 4657"
      transform="translate(302.666 339.827)"
    >
      <g
        id="Group_4654"
        data-name="Group 4654"
        transform="translate(2.168 0.588)"
      >
        <path
          id="Path_6705"
          data-name="Path 6705"
          d="M370.849,407.407c2.58.235,5.079-.941,7.647-1.718,4.552-1.378,8.971-3.181,13.63-4.231a22.652,22.652,0,0,1,12.75.85,39.5,39.5,0,0,0,19.708,1.615c1.172-.189,1.245-.38.6-1.386-.81-1.252-1.652-2.484-2.457-3.739s-.719-1.853.432-2.81q4.605-3.832,9.242-7.626c1.092-.9,1.855-.92,2.543-.145s.484,1.655-.614,2.568c-2.419,2.012-4.824,4.045-7.3,5.988-.953.748-1.1,1.316-.394,2.374q12.759,19.108,25.454,38.258a18.606,18.606,0,0,0,1.806,2.984c.691.718,1.114.63,1.8.072,2.594-2.117,5.223-4.19,7.847-6.269a4.09,4.09,0,0,1,1.113-.7,1.426,1.426,0,0,1,1.805.566,1.371,1.371,0,0,1-.12,1.78,5.375,5.375,0,0,1-.8.73c-2.735,2.2-5.479,4.39-8.208,6.6a19.591,19.591,0,0,0-2.216,1.654c-.481.512-1.079.331-1.608-.144a11.222,11.222,0,0,1-2.123-2.617c-.394-.658-.778-.678-1.337-.177a41.668,41.668,0,0,1-10.4,6.718c-1.129.523-.561,1.235-.341,1.9a9.326,9.326,0,0,1-4.552,11.322,10,10,0,0,1-3.837,1.014c-.7.057-.855.314-.709,1.017,1.543,7.41-4.827,13.239-12.048,11.026-.637-.2-.869-.138-.915.574-.432,6.736-4.439,10.208-11.064,9.508-1.112-.117-1.4.121-1.568,1.225-.668,4.277-5.712,7.434-10.329,6.655a24.464,24.464,0,0,1-9.729-4.4c-1.2-.82-2.382-1.667-3.506-2.583-.716-.583-1.135-.482-1.636.247-.707,1.029-1.5,2-2.266,2.987a7.966,7.966,0,0,1-13.865-1.874c-.294-.713-.423-1.07-1.331-.608-5.438,2.766-11.179-.018-12.451-6-.172-.81-.5-.9-1.261-.733-4.464.973-8.388-.944-10.067-4.9a7.455,7.455,0,0,1-.453-5.083c.231-.8.026-1.054-.814-1.123a8.54,8.54,0,0,1-6.138-14.016c.583-.762,1.523-1.509,1.6-2.328s-1.173-1.291-1.829-1.912c-1.162-1.1-1.788-2.591-2.9-3.7a23.336,23.336,0,0,1-3.483-4.458c-.434-.712-.773-.491-1.128.07-.41.647-.814,1.3-1.274,1.911a1.482,1.482,0,0,1-2.523.157,32.447,32.447,0,0,0-4.2-3.217c-2.177-1.524-4.191-3.282-6.251-4.968-.975-.8-1.106-1.639-.464-2.4.594-.7,1.48-.668,2.483.036,2.944,2.066,5.406,4.707,8.257,6.884.662.505,1.114.675,1.641-.184,6.661-10.861,14.007-21.275,20.971-31.939,2.116-3.24,4.239-6.476,6.42-9.673.6-.877.595-1.4-.282-2.091-2.47-1.948-4.87-3.985-7.289-6a4.533,4.533,0,0,1-.93-.94,1.5,1.5,0,0,1,1.894-2.156,5.757,5.757,0,0,1,.894.615q4.489,3.689,8.965,7.391c1.372,1.137,1.442,1.686.466,3.184-.44.676-.858,1.369-1.352,2-.543.7-.355,1.1.358,1.518a31.142,31.142,0,0,0,8.686,3.282A67.176,67.176,0,0,0,370.849,407.407ZM407.6,482c2.505.006,4.227-.786,5.374-2.376a6.093,6.093,0,0,0-1.708-8.794c-2.921-2.016-5.9-3.947-8.852-5.919-2.548-1.7-5.1-3.4-7.636-5.122-1.084-.736-1.314-1.495-.776-2.311.562-.854,1.416-.937,2.534-.223.646.413,1.273.853,1.911,1.278q9.414,6.273,18.824,12.554a6.32,6.32,0,0,0,5.863.922,6,6,0,0,0,4.193-5.29,6.061,6.061,0,0,0-2.885-6c-3.947-2.659-7.934-5.259-11.906-7.88q-4.837-3.193-9.679-6.379a13.558,13.558,0,0,1-2.3-1.957.95.95,0,0,1,.037-1.493c.483-.442.974-1.072,1.775-.559,1.726,1.107,3.458,2.207,5.168,3.339q9.587,6.342,19.158,12.708a6.276,6.276,0,0,0,5.64.947,5.978,5.978,0,0,0,4.333-5.175,6.22,6.22,0,0,0-3.2-6.328c-2.832-1.765-5.475-3.8-8.293-5.581-3.364-2.13-6.626-4.421-9.927-6.65-5.649-3.814-11.355-7.549-16.908-11.5a8.445,8.445,0,0,0-6.116-1.616,28.927,28.927,0,0,1-7.733-.139,3.961,3.961,0,0,0-3.95,1.509,33.682,33.682,0,0,1-5.342,4.9,17.41,17.41,0,0,1-7.664,3.687c-4.667.772-8.65-.912-12.352-3.518-1.521-1.071-1.656-1.819-.562-3.315,2.834-3.872,5.638-7.762,8.227-11.8.561-.876,1.328-1.619,1.972-2.445.311-.4,1.093-.619.919-1.143-.195-.589-.986-.347-1.511-.488a5.96,5.96,0,0,0-.6-.072c-5.087-.814-10.065-1.978-14.54-4.671-.8-.483-1.186-.242-1.645.453q-10.633,16.094-21.314,32.157a1.449,1.449,0,0,0-.009,1.865,29.135,29.135,0,0,1,1.892,2.95c1.459,2.757,3.681,4.876,5.8,7.087.521.544,1.051.446,1.349-.22a22.756,22.756,0,0,1,2.135-3.066,7.98,7.98,0,0,1,6.8-3.513,7.052,7.052,0,0,1,2.993.146,8.51,8.51,0,0,1,5.369,5.361c.215.634.442.829,1.131.443a12.273,12.273,0,0,1,2.981-1.282c5.648-1.391,10.791,3.228,10.292,9.236-.075.908.1,1.194,1.044,1.231a8.426,8.426,0,0,1,7.914,10.9c-.215.686,0,.981.712,1a6.521,6.521,0,0,1,2.558.684,7.9,7.9,0,0,1,3.6,11.146c-.3.533-.716,1.01.011,1.552,2.913,2.17,5.794,4.4,9.206,5.757,2.806,1.113,5.584,1.322,8.094-.809,1.942-1.649,2.1-3.694.382-5.578a7.537,7.537,0,0,0-1.4-1.139c-3.925-2.62-7.864-5.219-11.791-7.835a9.166,9.166,0,0,1-1.432-1.1,1.515,1.515,0,0,1,1.776-2.388c.318.172.626.365.929.564q7.688,5.045,15.373,10.1A5.845,5.845,0,0,0,407.6,482Zm-17.433-62.487c1.614,0,3.229-.023,4.843.007a6.167,6.167,0,0,1,3.428,1.026q11.153,7.557,22.323,15.092c2.8,1.878,5.5,3.885,8.368,5.67,2.315,1.442,4.521,3.059,6.773,4.6.4.277.781.565,1.327.338a26.83,26.83,0,0,0,3.343-1.376,48.127,48.127,0,0,0,6.766-4.776c1.751-1.485,1.759-1.5.545-3.33q-9.711-14.667-19.43-29.33a1.452,1.452,0,0,0-1.745-.836,41.512,41.512,0,0,1-21.87-1.067c-3.092-1.017-6.185-1.877-9.482-1.507a36.914,36.914,0,0,0-6.94,1.631c-5,1.572-9.9,3.461-14.995,4.727-3.13.777-5.915,2.145-7.778,4.94-2.436,3.655-4.771,7.38-7.525,10.814-.417.52-.415.89.2,1.264,4.119,2.514,8.308,3.236,12.662.578a30.41,30.41,0,0,0,7.114-5.961,6.9,6.9,0,0,1,6.634-2.608A22.633,22.633,0,0,0,390.171,419.516ZM345.979,477.1a5.184,5.184,0,0,0,4.1-1.919c4.26-5.422,8.523-10.844,12.7-16.332a5.235,5.235,0,0,0-1.137-7.422,5.335,5.335,0,0,0-7.388.894c-.885,1.046-1.7,2.152-2.541,3.234-3.317,4.266-6.648,8.522-9.939,12.807a5.108,5.108,0,0,0-.529,5.794A5.312,5.312,0,0,0,345.979,477.1Zm22.3-16.049c-2.182-.025-3.6.562-4.594,1.824-3.465,4.4-6.923,8.807-10.267,13.3a5.154,5.154,0,0,0,1.1,7.232,5.209,5.209,0,0,0,7.3-.629c3.567-4.419,7.018-8.934,10.411-13.489a4.776,4.776,0,0,0,.217-5.378A5.051,5.051,0,0,0,368.278,461.05Zm-31.662,4.571a5.587,5.587,0,0,0,4.956-2.111c2.36-3.011,4.72-6.023,7.035-9.069,1.908-2.511,1.634-5.772-.811-7.519-3.145-2.247-4.939-2.12-7.471.734a98.7,98.7,0,0,0-7.492,9.575,5.073,5.073,0,0,0-.339,5.49A4.98,4.98,0,0,0,336.616,465.62Zm44,12.2a4.852,4.852,0,0,0-3.114-4.6,4.677,4.677,0,0,0-5.436,1.5c-1.748,2.209-3.475,4.437-5.146,6.7a4.828,4.828,0,1,0,7.7,5.819c1.718-2.181,3.37-4.413,5.042-6.631A4.314,4.314,0,0,0,380.613,477.816Z"
          transform="translate(-307.911 -387.657)"
          fill="#fff"
        />
      </g>
      <g
        id="Group_4655"
        data-name="Group 4655"
        transform="translate(125.427 0.022)"
      >
        <rect
          id="Rectangle_1751"
          data-name="Rectangle 1751"
          width="3.636"
          height="58.361"
          transform="matrix(0.802, -0.597, 0.597, 0.802, 0, 2.169)"
          fill="#fff"
        />
      </g>
      <g id="Group_4656" data-name="Group 4656" transform="translate(0 0)">
        <rect
          id="Rectangle_1752"
          data-name="Rectangle 1752"
          width="58.361"
          height="3.636"
          transform="matrix(0.597, -0.802, 0.802, 0.597, 0, 46.832)"
          fill="#fff"
        />
      </g>
    </g>
    <g
      id="Group_4660"
      data-name="Group 4660"
      transform="translate(305.331 431.994)"
    >
      <g id="Group_4658" data-name="Group 4658">
        <path
          id="Path_6706"
          data-name="Path 6706"
          d="M382.511,656.333c.919.208,2,.451,3.084.7.653.15.465.57.284.959-1.529,3.276-3.073,6.545-4.585,9.828-.352.765-.774.69-1.738-.124a11.632,11.632,0,0,0-3.6-2.109c-1.528-.542-1.79-.845-1.2-1.5,2.207-2.442,4.393-4.9,6.591-7.354A1.235,1.235,0,0,1,382.511,656.333Zm-.784,3.713q-1.578,1.764-3.155,3.528c-.439.492-.034.741.316.96.375.234.845.624,1.16,0A13.1,13.1,0,0,0,381.727,660.046Z"
          transform="translate(-347.449 -636.826)"
          fill="#fff"
          stroke="#fff"
          stroke-miterlimit="10"
          stroke-width="0.5"
        />
        <path
          id="Path_6707"
          data-name="Path 6707"
          d="M310.649,609.6c4.018.328,8.008-.45,12.035-.439a3.566,3.566,0,0,1,3.516,2.021c1.966,3.27,2.026,3.232-1.514,4.473-3.91,1.37-7.83,2.71-11.718,4.139-1.027.377-1.534.379-1.779-1.134a36.132,36.132,0,0,0-1.843-7.014C308.738,610.042,309.374,609.539,310.649,609.6Zm10.291,3.665a19.514,19.514,0,0,0-6.3-.343c-.9.074-1.313.423-1.081,1.356.215.864.607,1.445,1.626,1.077Q318.064,614.318,320.94,613.269Z"
          transform="translate(-309.113 -609.166)"
          fill="#fff"
          stroke="#fff"
          stroke-miterlimit="10"
          stroke-width="0.5"
        />
      </g>
      <g id="Group_4659" data-name="Group 4659" transform="translate(113.449)">
        <path
          id="Path_6708"
          data-name="Path 6708"
          d="M588.214,656.729c2.2,2.451,4.384,4.912,6.591,7.354.595.658.333.961-1.2,1.5a11.632,11.632,0,0,0-3.6,2.109c-.964.815-1.386.889-1.739.124-1.512-3.283-3.057-6.552-4.585-9.828-.181-.389-.369-.809.284-.959,1.082-.248,2.165-.491,3.084-.7A1.235,1.235,0,0,1,588.214,656.729Zm1.306,7.8c.315.627.785.237,1.16,0,.351-.219.755-.468.316-.96q-1.575-1.767-3.155-3.528A13.1,13.1,0,0,0,589.521,664.53Z"
          transform="translate(-583.518 -636.826)"
          fill="#fff"
          stroke="#fff"
          stroke-miterlimit="10"
          stroke-width="0.5"
        />
        <path
          id="Path_6709"
          data-name="Path 6709"
          d="M650.5,611.651a36.141,36.141,0,0,0-1.843,7.014c-.245,1.512-.752,1.511-1.779,1.134-3.888-1.43-7.808-2.77-11.718-4.139-3.541-1.241-3.48-1.2-1.514-4.473a3.566,3.566,0,0,1,3.516-2.021c4.027-.011,8.017.767,12.036.439C650.477,609.539,651.113,610.042,650.5,611.651Zm-5.841,3.708c1.019.368,1.412-.213,1.626-1.077.232-.933-.18-1.282-1.081-1.356a19.514,19.514,0,0,0-6.3.343Q641.787,614.314,644.663,615.359Z"
          transform="translate(-612.135 -609.166)"
          fill="#fff"
          stroke="#fff"
          stroke-miterlimit="10"
          stroke-width="0.5"
        />
      </g>
    </g>
    <g
      id="Group_4662"
      data-name="Group 4662"
      transform="translate(365.492 307.115)"
    >
      <g id="Group_4661" data-name="Group 4661" transform="translate(0)">
        <path
          id="Path_6710"
          data-name="Path 6710"
          d="M514,322.839l-.009-.246,0,.259.333,12.988Zm-.031-9.683.022.793c.009-.149.009-.3.009-.465A1.606,1.606,0,0,0,513.97,313.156Z"
          transform="translate(-489.436 -310.659)"
          fill="#fff"
          stroke="#fff"
          stroke-miterlimit="10"
          stroke-width="1"
        />
        <path
          id="Path_6711"
          data-name="Path 6711"
          d="M491.774,309.542c-.382,1.184-9,3.7-12.274,4.647l-.118-4.616a2.273,2.273,0,0,0-1.188-1.53c-2.735-1.617-9.486-.934-14.163.618-7.084,2.354-9.21,4.046-9.3,4.12l-.1.083,5.238,25.086.267-.171c7.408-4.8,15.973-6.825,18.691-5.44a1.146,1.146,0,0,1,.723.977v.044a3.1,3.1,0,0,1-1.139,1.9c-.658.649-.943,1.113-.9,1.46a.508.508,0,0,0,.263.39,1.364,1.364,0,0,0,.653.123c2.915,0,12.467-4,13.641-4.5l.136-.057V308.227Zm-12.581.4c0,.162,0,.315-.009.465l-.022-.793A1.607,1.607,0,0,1,479.193,309.941Zm-.171,22.009c-2.788-1.42-11.389.544-18.858,5.287l-2.621-12.55c1.28-.741,11.765-6.557,21.624-5.2l.022-.179,0-.259.009.246.329,13A2.409,2.409,0,0,0,479.022,331.951Zm12.743.434c-5,2.108-12.7,4.967-13.773,4.344-.044-.026-.048-.048-.048-.061-.009-.07.022-.351.771-1.1a3.422,3.422,0,0,0,1.271-2.214v-.052l-.241-9.455c1.315-.289,9.069-2.043,12.019-3.656Z"
          transform="translate(-454.628 -307.115)"
          fill="#fff"
          stroke="#fff"
          stroke-miterlimit="10"
          stroke-width="1"
        />
      </g>
    </g>
  </g>
</svg>
