<svg id="Group_3279" data-name="Group 3279" xmlns="http://www.w3.org/2000/svg" xmlns:xlink="http://www.w3.org/1999/xlink" width="117.373" height="72.264" viewBox="0 0 117.373 72.264">
  <defs>
    <clipPath id="clip-path">
      <rect id="Rectangle_828" data-name="Rectangle 828" width="26.38" height="34.758" fill="#2b4d62"/>
    </clipPath>
  </defs>
  <rect id="Rectangle_826" data-name="Rectangle 826" width="117.373" height="72.264" rx="4" fill="#72c5e6"/>
  <g id="Group_1189" data-name="Group 1189" transform="translate(84.893 17.253)">
    <rect id="Rectangle_827" data-name="Rectangle 827" width="26.38" height="34.758" fill="#2b4d62"/>
    <g id="Group_1188" data-name="Group 1188" clip-path="url(#clip-path)">
      <path id="Path_3491" data-name="Path 3491" d="M214.854,411.2l3.833-2.613,8.569-4.619,9.735-1.58,9,3.113,2.24,12.914L215.8,416.947Z" transform="translate(-219.178 -378.175)" fill="#fcfcfc"/>
      <g id="Group_1187" data-name="Group 1187" transform="translate(-0.831 5.018)">
        <g id="Group_1186" data-name="Group 1186">
          <path id="Path_3492" data-name="Path 3492" d="M226.815,406.4c-2.586,1.943-5.663,3.137-8.22,5.168-.191.152-.41.377-.609.118-.217-.283.052-.5.26-.666.279-.219.564-.428.853-.631.993-.7,2.041-1.308,3.1-1.906a33.3,33.3,0,0,0,4.5-2.837,2.449,2.449,0,0,0,.608-3.285,9.79,9.79,0,0,1-1.383-2.912,1.067,1.067,0,0,0-.421-.553,3.365,3.365,0,0,1-.978-4.024c.041-.107.143-.2.063-.327-.809-1.287-.133-2.562.069-3.824a5.059,5.059,0,0,1,3.331-4.051,1.474,1.474,0,0,0,.333-.131c1.256-.928,2.808-.474,4.171-.9.055-.017.143-.032.176,0,.588.515,1.412.763,1.9,1.3a3.444,3.444,0,0,0,1.026.982c1.013.485,1.043,1.5,1.164,2.4a12.294,12.294,0,0,1,.109,2.708,1.937,1.937,0,0,0,.553,1.939,2.077,2.077,0,0,1-.132,2.754,15.136,15.136,0,0,0-1.622,3.12,3.124,3.124,0,0,0,.073,2.892,1.121,1.121,0,0,0,.968.771,9.862,9.862,0,0,1,1.622.713c1.925.674,3.865,1.31,5.8,1.964.256.087.506.193.752.3.175.079.314.21.245.422-.094.283-.33.237-.524.154-2.407-1.015-5.011-1.483-7.363-2.636-.4-.194-.47-.05-.654.213a31.651,31.651,0,0,1-3.67,4.7c-1.266,1.242-1.943,1.237-3.182-.049A21.161,21.161,0,0,1,226.815,406.4Z" transform="translate(-217.906 -385.618)" fill="#1b1312"/>
          <path id="Path_3493" data-name="Path 3493" d="M224.887,395.457a.917.917,0,0,1,.63.467,2.052,2.052,0,0,0,3.593-.385c.129-.256.164-.563.594-.54a.708.708,0,0,1,.669.471,1.926,1.926,0,0,0,2.089,1.076,1.712,1.712,0,0,0,1.554-1.408c.121-.457.425-.608.911-.616a12.455,12.455,0,0,1-.711,4.428,4.586,4.586,0,0,1-3.634,2.782,4.527,4.527,0,0,1-2.947-.539,4.629,4.629,0,0,1-1.913-2.595C225.383,397.587,225.167,396.532,224.887,395.457Z" transform="translate(-216.896 -384.331)" fill="#fcfbfa"/>
          <path id="Path_3494" data-name="Path 3494" d="M227.041,401.344c2.535,1.3,3.823,1.126,6.375-.864a5.433,5.433,0,0,0,1.228,2.451c.173.171.089.3-.016.453a30.1,30.1,0,0,1-3.719,4.652.986.986,0,0,1-1.551.032,18.085,18.085,0,0,1-2.733-3.347.4.4,0,0,1-.064-.494A4.84,4.84,0,0,0,227.041,401.344Z" transform="translate(-216.663 -383.47)" fill="#fcfcfc"/>
          <path id="Path_3495" data-name="Path 3495" d="M225.011,394.646a5.2,5.2,0,0,1,1.674-4.6c.142-.144.347-.39.523-.2.628.671,1.064.175,1.537-.191.093-.072.239-.214.286-.188,1.236.688,2.634.1,3.9.507.1.032.26.135.258.2-.039,1.2.974,1.9,1.357,2.9.042.111.133.219.135.33.007.292.469.618,0,.866a.875.875,0,0,1-1.073-.149c-1.245-1.135-2.322-1.006-3.266.435-.439.668-.786.768-1.337.13a4.847,4.847,0,0,0-1.118-.882,1.614,1.614,0,0,0-2.235.423A.86.86,0,0,1,225.011,394.646Z" transform="translate(-216.887 -385.062)" fill="#fefefe"/>
          <path id="Path_3496" data-name="Path 3496" d="M227.9,394.157c.8.214.77.766.467,1.325a1.5,1.5,0,0,1-2.024.545,1.44,1.44,0,0,1-.721-1.362c.169-.73.974-.491,1.521-.631a.231.231,0,0,1,.06.159c0,.235-.372.564.006.675.325.1.217-.326.278-.528C227.553,394.109,227.705,394.094,227.9,394.157Z" transform="translate(-216.794 -384.402)" fill="#f4f0ee"/>
          <path id="Path_3497" data-name="Path 3497" d="M231.466,393.854c.426.232,1.27-.212,1.256.8a1.3,1.3,0,0,1-1.23,1.387,1.435,1.435,0,0,1-1.481-1.288C230.065,393.865,230.83,393.973,231.466,393.854Z" transform="translate(-216.156 -384.427)" fill="#f6f2f0"/>
          <path id="Path_3498" data-name="Path 3498" d="M234.337,393.92c.681.814.6,1.542-.27,2.734Z" transform="translate(-215.569 -384.418)" fill="#dbd5d5"/>
          <path id="Path_3499" data-name="Path 3499" d="M227.76,394.16c-.176.03-.345.008-.18.3a.543.543,0,0,1-.9.6c-.291-.349-.072-.592.165-.834.058-.061.107-.129.16-.195C227.263,394.029,227.538,393.938,227.76,394.16Z" transform="translate(-216.657 -384.405)" fill="#201c1b"/>
          <path id="Path_3500" data-name="Path 3500" d="M224.594,396.571a2.615,2.615,0,0,1-.58-2.362A7.115,7.115,0,0,1,224.594,396.571Z" transform="translate(-217.033 -384.376)" fill="#d4cbca"/>
          <path id="Path_3501" data-name="Path 3501" d="M229.536,398.074a1.9,1.9,0,0,1,2.095.585c.152.143.373.234.286.49-.08.236-.312.255-.521.285a22.321,22.321,0,0,1-3.554.133c-.514-.009-.728-.232-.332-.638.3-.308.348-.975,1.023-.828.08.017.208.029.174-.079-.4-1.3.9-.309,1.108-.82.029-.069.31.058.319.215C230.157,397.8,229.824,397.86,229.536,398.074Z" transform="translate(-216.547 -383.946)" fill="#1d1716"/>
          <path id="Path_3502" data-name="Path 3502" d="M230.361,404.008c-.01.158-.046.3-.233.325-.275.044-1.378-.945-1.355-1.22.015-.18.141-.252.3-.264A3.069,3.069,0,0,1,230.361,404.008Z" transform="translate(-216.335 -383.127)" fill="#221e1e"/>
          <path id="Path_3503" data-name="Path 3503" d="M231.316,393.986a.53.53,0,0,1,.53.584.524.524,0,0,1-.64.553.572.572,0,0,1,.11-1.137Z" transform="translate(-216.052 -384.409)" fill="#403a3a"/>
        </g>
      </g>
    </g>
  </g>
  <rect id="Rectangle_829" data-name="Rectangle 829" width="20.058" height="1.323" transform="translate(88.252 53.287)" fill="#0e282f"/>
  <rect id="Rectangle_830" data-name="Rectangle 830" width="10.462" height="1.323" transform="translate(93.184 55.536)" fill="#0e282f"/>
  <g id="Group_1190" data-name="Group 1190" transform="translate(81.449 60.336)">
    <path id="Path_3504" data-name="Path 3504" d="M215.623,429.1a5.916,5.916,0,0,0,1.082-.346,57.272,57.272,0,0,0,10.473-5.431,14.556,14.556,0,0,0,2.889-2.327,1.048,1.048,0,0,0,.363-.817c-.079-.468-.67-.62-1.143-.639a10.674,10.674,0,0,0-6.312,1.786,6.635,6.635,0,0,0,1.966-1.925c.5-.655-.687-.57-1.331-.41a.876.876,0,0,0-.687.837" transform="translate(-215.623 -418.876)" fill="none" stroke="#1a1818" stroke-linecap="round" stroke-linejoin="round" stroke-width="0.2"/>
    <path id="Path_3505" data-name="Path 3505" d="M225.969,423.638q1.205-.809,2.39-1.646a2.231,2.231,0,0,1,0,.586.537.537,0,0,0,.231.508.56.56,0,0,0,.449-.027,1.993,1.993,0,0,0,.917-.729c.131.3.57.251.875.129a7.373,7.373,0,0,0,2.227-1.39c.137.232-.04.65.217.731a.329.329,0,0,0,.2-.02c.4-.136.73-.445,1.139-.559a.786.786,0,0,1,.322-.029,1.653,1.653,0,0,1,.332.112,3.264,3.264,0,0,0,1.9-.077,41.68,41.68,0,0,0-5.669,1.15,7.228,7.228,0,0,0,3.062-.16,59.38,59.38,0,0,0,7.409-2.248l-.514.68a.277.277,0,0,0,.341-.16.586.586,0,0,1-.452-.522,1.5,1.5,0,0,0,.142.626,11.927,11.927,0,0,0,.017-1.513l1.194,2.682" transform="translate(-214.127 -418.846)" fill="none" stroke="#1a1818" stroke-linecap="round" stroke-linejoin="round" stroke-width="0.2"/>
  </g>
  <rect id="Rectangle_831" data-name="Rectangle 831" width="89.858" height="2.851" transform="translate(15.5 4.78)" fill="#0e282f"/>
  <rect id="Rectangle_832" data-name="Rectangle 832" width="46.868" height="2.851" transform="translate(36.647 9.628)" fill="#0e282f"/>
  <rect id="Rectangle_833" data-name="Rectangle 833" width="6.007" height="3.069" rx="0.773" transform="translate(6.972 17.579)" fill="#494949"/>
  <rect id="Rectangle_834" data-name="Rectangle 834" width="7.799" height="1.721" rx="0.352" transform="translate(6.972 24.441)" fill="#494949"/>
  <rect id="Rectangle_835" data-name="Rectangle 835" width="10.681" height="1.721" rx="0.417" transform="translate(6.972 28.194)" fill="#494949"/>
  <rect id="Rectangle_836" data-name="Rectangle 836" width="9.145" height="1.721" rx="0.368" transform="translate(6.972 31.777)" fill="#494949"/>
  <rect id="Rectangle_837" data-name="Rectangle 837" width="9.145" height="1.721" rx="0.402" transform="translate(6.972 35.83)" fill="#494949"/>
  <rect id="Rectangle_838" data-name="Rectangle 838" width="11.117" height="1.721" rx="0.408" transform="translate(6.972 50.918)" fill="#494949"/>
  <rect id="Rectangle_839" data-name="Rectangle 839" width="15.225" height="1.721" rx="0.452" transform="translate(6.972 55.959)" fill="#494949"/>
  <rect id="Rectangle_840" data-name="Rectangle 840" width="13.037" height="1.721" rx="0.291" transform="translate(6.972 60.398)" fill="#494949"/>
  <rect id="Rectangle_841" data-name="Rectangle 841" width="13.037" height="1.721" rx="0.373" transform="translate(6.972 64.596)" fill="#494949"/>
  <rect id="Rectangle_842" data-name="Rectangle 842" width="4.103" height="1.721" rx="0.467" transform="translate(12.726 39.968)" fill="#494949"/>
  <rect id="Rectangle_843" data-name="Rectangle 843" width="6.781" height="1.721" rx="0.492" transform="translate(12.726 43.007)" fill="#494949"/>
  <rect id="Rectangle_844" data-name="Rectangle 844" width="8.056" height="1.721" rx="0.456" transform="translate(12.726 45.933)" fill="#494949"/>
  <rect id="Rectangle_845" data-name="Rectangle 845" width="41.373" height="1.389" rx="0.364" transform="translate(26.529 24.441)" fill="#494949"/>
  <rect id="Rectangle_846" data-name="Rectangle 846" width="18.789" height="1.721" rx="0.33" transform="translate(26.529 28.194)" fill="#494949"/>
  <rect id="Rectangle_847" data-name="Rectangle 847" width="6.518" height="1.721" rx="0.321" transform="translate(26.529 31.777)" fill="#494949"/>
  <rect id="Rectangle_848" data-name="Rectangle 848" width="10.3" height="1.721" rx="0.372" transform="translate(26.529 35.83)" fill="#494949"/>
  <rect id="Rectangle_849" data-name="Rectangle 849" width="24.769" height="1.721" rx="0.413" transform="translate(26.529 50.918)" fill="#494949"/>
  <rect id="Rectangle_850" data-name="Rectangle 850" width="10.91" height="1.721" rx="0.465" transform="translate(26.529 55.959)" fill="#494949"/>
  <rect id="Rectangle_851" data-name="Rectangle 851" width="21.175" height="1.721" rx="0.513" transform="translate(26.529 60.398)" fill="#494949"/>
  <rect id="Rectangle_852" data-name="Rectangle 852" width="13.037" height="1.721" rx="0.403" transform="translate(26.529 64.596)" fill="#494949"/>
  <rect id="Rectangle_853" data-name="Rectangle 853" width="4.103" height="1.721" rx="0.35" transform="translate(26.529 39.968)" fill="#494949"/>
  <rect id="Rectangle_854" data-name="Rectangle 854" width="13.916" height="1.721" rx="0.384" transform="translate(26.529 43.007)" fill="#494949"/>
  <rect id="Rectangle_855" data-name="Rectangle 855" width="10.683" height="1.721" rx="0.309" transform="translate(26.529 45.933)" fill="#494949"/>
  <g id="Group_1191" data-name="Group 1191" transform="translate(25.515 17.368)">
    <path id="Path_3506" data-name="Path 3506" d="M166.931,383.785h.544v-2.092h-.534a.174.174,0,0,1-.179-.176.172.172,0,0,1,.051-.126.176.176,0,0,1,.127-.051h.889v2.446h.355v-.739a.178.178,0,0,1,.177-.176.163.163,0,0,1,.125.052.17.17,0,0,1,.053.125v.917a.17.17,0,0,1-.053.125.163.163,0,0,1-.125.052h-1.431a.168.168,0,0,1-.126-.054.177.177,0,0,1-.051-.127.162.162,0,0,1,.051-.121A.169.169,0,0,1,166.931,383.785Z" transform="translate(-166.754 -381.335)" fill="#494949"/>
    <path id="Path_3507" data-name="Path 3507" d="M171.033,384.139h-1.612v-1.224a.351.351,0,0,1,.1-.253.345.345,0,0,1,.251-.106h1.077v-.863h-1.267a.167.167,0,0,1-.126-.051.173.173,0,0,1-.05-.126.171.171,0,0,1,.05-.126.168.168,0,0,1,.126-.051h1.267a.343.343,0,0,1,.253.105.332.332,0,0,1,.105.249v.863a.343.343,0,0,1-.105.255.347.347,0,0,1-.253.1h-1.077v.87h1.258a.178.178,0,0,1,.177.177.178.178,0,0,1-.177.176Z" transform="translate(-166.37 -381.335)" fill="#494949"/>
    <path id="Path_3508" data-name="Path 3508" d="M172.074,381.672v-.152a.167.167,0,0,1,.053-.125.163.163,0,0,1,.125-.052h1.608v1.089a.181.181,0,0,1-.065.143l-.652.557v.825a.177.177,0,0,1-.051.127.18.18,0,0,1-.307-.123v-.895a.2.2,0,0,1,.063-.157l.655-.553v-.66h-1.074a.171.171,0,0,1-.176.152.165.165,0,0,1-.125-.051A.17.17,0,0,1,172.074,381.672Z" transform="translate(-165.985 -381.334)" fill="#494949"/>
    <path id="Path_3509" data-name="Path 3509" d="M176.349,384.139h-1.612v-1.224a.347.347,0,0,1,.1-.253.342.342,0,0,1,.25-.106h1.077v-.863H174.9a.169.169,0,0,1-.126-.051.178.178,0,0,1-.05-.126.175.175,0,0,1,.05-.126.17.17,0,0,1,.126-.051h1.267a.346.346,0,0,1,.254.105.335.335,0,0,1,.1.249v.863a.346.346,0,0,1-.1.255.35.35,0,0,1-.254.1h-1.077v.87h1.258a.177.177,0,0,1,.126.052.172.172,0,0,1,.051.126.169.169,0,0,1-.051.125A.173.173,0,0,1,176.349,384.139Z" transform="translate(-165.602 -381.335)" fill="#494949"/>
    <path id="Path_3510" data-name="Path 3510" d="M177.39,383.8v-2.121a.348.348,0,0,1,.342-.342h1.106a.326.326,0,0,1,.238.1.33.33,0,0,1,.1.24V383.8a.331.331,0,0,1-.1.242.326.326,0,0,1-.242.1h-1.1a.325.325,0,0,1-.243-.1A.335.335,0,0,1,177.39,383.8Zm1.435-.013v-2.092h-1.08v2.092Z" transform="translate(-165.216 -381.335)" fill="#494949"/>
    <path id="Path_3511" data-name="Path 3511" d="M180.049,383.8v-2.121a.348.348,0,0,1,.342-.342H181.5a.346.346,0,0,1,.339.342V383.8a.342.342,0,0,1-.342.341h-1.1a.326.326,0,0,1-.243-.1A.334.334,0,0,1,180.049,383.8Zm1.435-.013v-2.092H180.4v2.092Z" transform="translate(-164.832 -381.335)" fill="#494949"/>
    <path id="Path_3512" data-name="Path 3512" d="M183.862,383.963v-.74H182.8v-1.707a.181.181,0,0,1,.181-.182.171.171,0,0,1,.125.054.182.182,0,0,1,.053.128v1.349h.708v-1.038a.182.182,0,0,1,.053-.128.165.165,0,0,1,.125-.054.168.168,0,0,1,.126.054.181.181,0,0,1,.053.128v1.038a.173.173,0,0,1,.125.051.171.171,0,0,1,.051.126.174.174,0,0,1-.051.126.168.168,0,0,1-.125.05v.744a.18.18,0,0,1-.179.176.163.163,0,0,1-.125-.052A.17.17,0,0,1,183.862,383.963Z" transform="translate(-164.435 -381.335)" fill="#494949"/>
    <path id="Path_3513" data-name="Path 3513" d="M186.52,383.963v-.74h-1.067v-1.707a.183.183,0,0,1,.181-.182.171.171,0,0,1,.125.054.178.178,0,0,1,.053.128v1.349h.708v-1.038a.181.181,0,0,1,.053-.128.169.169,0,0,1,.126-.054.166.166,0,0,1,.125.054.181.181,0,0,1,.053.128v1.038a.173.173,0,0,1,.125.051.168.168,0,0,1,.051.126.17.17,0,0,1-.051.126.168.168,0,0,1-.125.05v.744a.166.166,0,0,1-.054.125.164.164,0,0,1-.124.052.167.167,0,0,1-.126-.052A.17.17,0,0,1,186.52,383.963Z" transform="translate(-164.051 -381.335)" fill="#494949"/>
    <path id="Path_3514" data-name="Path 3514" d="M188.024,381.672v-.152a.17.17,0,0,1,.053-.125.163.163,0,0,1,.125-.052h1.609v1.089a.181.181,0,0,1-.067.143l-.651.557v.825a.177.177,0,0,1-.053.127.18.18,0,0,1-.307-.123v-.895a.2.2,0,0,1,.063-.157l.655-.553v-.66h-1.072a.173.173,0,0,1-.177.152.164.164,0,0,1-.125-.051A.174.174,0,0,1,188.024,381.672Z" transform="translate(-163.679 -381.334)" fill="#494949"/>
    <path id="Path_3515" data-name="Path 3515" d="M190.682,381.672v-.152a.17.17,0,0,1,.053-.125.164.164,0,0,1,.125-.052h1.609v1.089a.182.182,0,0,1-.066.143l-.651.557v.825a.177.177,0,0,1-.053.127.162.162,0,0,1-.125.054.17.17,0,0,1-.128-.053.166.166,0,0,1-.054-.124v-.895a.2.2,0,0,1,.063-.157l.655-.553v-.66h-1.072a.172.172,0,0,1-.177.152.166.166,0,0,1-.125-.051A.174.174,0,0,1,190.682,381.672Z" transform="translate(-163.295 -381.334)" fill="#494949"/>
    <path id="Path_3516" data-name="Path 3516" d="M193.34,381.672v-.152a.171.171,0,0,1,.053-.125.167.167,0,0,1,.126-.052h1.608v1.089a.182.182,0,0,1-.066.143l-.651.557v.825a.177.177,0,0,1-.053.127.162.162,0,0,1-.125.054.172.172,0,0,1-.128-.053.165.165,0,0,1-.053-.124v-.895a.2.2,0,0,1,.062-.157l.655-.553v-.66h-1.072a.171.171,0,0,1-.176.152.169.169,0,0,1-.126-.051A.174.174,0,0,1,193.34,381.672Z" transform="translate(-162.91 -381.334)" fill="#494949"/>
    <path id="Path_3517" data-name="Path 3517" d="M197.793,381.693v.665a.513.513,0,0,1-.143.376.525.525,0,0,1,.148.358v.692a.335.335,0,0,1-.107.25.345.345,0,0,1-.253.1h-1.253a.176.176,0,0,1-.177-.176.176.176,0,0,1,.177-.177h1.25v-.692a.176.176,0,0,0-.052-.127.171.171,0,0,0-.126-.054h-.714a.176.176,0,0,1-.176-.177.174.174,0,0,1,.051-.126.17.17,0,0,1,.125-.053h.718a.172.172,0,0,0,.126-.052.169.169,0,0,0,.051-.125v-.687h-1.266a.168.168,0,0,1-.125-.051.17.17,0,0,1-.053-.126.178.178,0,0,1,.177-.177h1.266a.356.356,0,0,1,.355.354Z" transform="translate(-162.526 -381.335)" fill="#494949"/>
    <path id="Path_3518" data-name="Path 3518" d="M198.653,383.782v-.866a.339.339,0,0,1,.106-.25.344.344,0,0,1,.252-.105v-1.044a.176.176,0,0,1,.051-.126.172.172,0,0,1,.127-.051h.722a.176.176,0,0,1,.176.177v1.044a.351.351,0,0,1,.25.1.34.34,0,0,1,.105.252v.87a.338.338,0,0,1-.105.25.343.343,0,0,1-.25.1h-1.077a.33.33,0,0,1-.253-.11A.345.345,0,0,1,198.653,383.782Zm.358-.866v.87h1.077v-.87Zm.356-1.222v.867h.366v-.867Z" transform="translate(-162.142 -381.335)" fill="#494949"/>
    <path id="Path_3519" data-name="Path 3519" d="M201.312,383.782v-.866a.339.339,0,0,1,.106-.25.346.346,0,0,1,.253-.105v-1.044a.176.176,0,0,1,.05-.126.173.173,0,0,1,.127-.051h.722a.169.169,0,0,1,.125.051.172.172,0,0,1,.051.126v1.044a.351.351,0,0,1,.25.1.341.341,0,0,1,.106.252v.87a.339.339,0,0,1-.106.25.343.343,0,0,1-.25.1h-1.076a.333.333,0,0,1-.254-.11A.346.346,0,0,1,201.312,383.782Zm.359-.866v.87h1.076v-.87Zm.355-1.222v.867h.366v-.867Z" transform="translate(-161.758 -381.335)" fill="#494949"/>
    <path id="Path_3520" data-name="Path 3520" d="M205.588,384.136h-.176a.169.169,0,0,1-.125-.052.164.164,0,0,1-.053-.125.167.167,0,0,1,.053-.125.163.163,0,0,1,.125-.052V382.61h-1.25a.163.163,0,0,1-.124-.054.166.166,0,0,1-.053-.124v-.92a.181.181,0,0,1,.176-.177h1.426a.176.176,0,0,1,.126.054.17.17,0,0,1,.053.124v2.446a.167.167,0,0,1-.051.125A.171.171,0,0,1,205.588,384.136Zm-.172-1.884v-.558H204.34v.558Z" transform="translate(-161.371 -381.335)" fill="#494949"/>
    <path id="Path_3521" data-name="Path 3521" d="M208.25,384.139h-1.613v-1.224a.352.352,0,0,1,.1-.253.345.345,0,0,1,.251-.106h1.076v-.863H206.8a.167.167,0,0,1-.126-.051.173.173,0,0,1-.05-.126.171.171,0,0,1,.05-.126.168.168,0,0,1,.126-.051h1.266a.346.346,0,0,1,.254.105.332.332,0,0,1,.105.249v.863a.343.343,0,0,1-.105.255.35.35,0,0,1-.254.1h-1.076v.87h1.258a.178.178,0,0,1,.177.177.178.178,0,0,1-.177.176Z" transform="translate(-160.99 -381.335)" fill="#494949"/>
  </g>
  <rect id="Rectangle_856" data-name="Rectangle 856" width="26.38" height="34.758" transform="translate(84.893 17.253)" fill="#004782"/>
  <path id="Path_3522" data-name="Path 3522" d="M221.143,415.359c0-1.789-.009-3.579.008-5.368a4.422,4.422,0,0,1,2.257-3.953,3.5,3.5,0,0,1,1.4-.5c.259-.031.323-.146.335-.376a2.259,2.259,0,0,1,1-1.747,2.483,2.483,0,0,1,1.528-.443c.406,0,.813-.006,1.219,0,.152,0,.185-.05.2-.2a.868.868,0,0,0-.423-.9,5.593,5.593,0,0,1-2.414-4.108c-.018-.158-.063-.222-.24-.24a1.945,1.945,0,0,1-1.877-1.915A1.922,1.922,0,0,1,225.8,393.6c.255-.035.315-.115.307-.356-.017-.589-.013-1.18,0-1.77a.328.328,0,0,0-.2-.334,3.4,3.4,0,0,1-1.757-2.673c-.073-.651.045-.8.724-.88a2.43,2.43,0,0,1-.247-1.407.492.492,0,0,1,.537-.542c2.582,0,5.167-.057,7.748.023a5.356,5.356,0,0,1,4.948,4.173,6.271,6.271,0,0,1,.151,1.377c.014.7.009,1.393,0,2.09,0,.189.042.27.247.291a1.971,1.971,0,0,1,.159,3.886c-.168.037-.394,0-.494.1s-.073.322-.1.492a5.82,5.82,0,0,1-2.642,3.978c-.223.147-.136.339-.142.515-.014.4,0,.392.389.405a6.957,6.957,0,0,1,1.928.132,2.368,2.368,0,0,1,1.614,2.024.372.372,0,0,0,.359.419,4.439,4.439,0,0,1,3.64,4.416c.009,1.8,0,3.6.007,5.4h-.987a.623.623,0,0,1-.08-.446c0-1.538,0-3.075,0-4.614a3.945,3.945,0,0,0-.4-1.91,3.332,3.332,0,0,0-2.453-1.8.34.34,0,0,0-.371.163q-1.243,1.857-2.478,3.719a.852.852,0,0,0-.109.5q0,1.988,0,3.975a.582.582,0,0,1-.081.417h-.987a.681.681,0,0,1-.086-.474q0-2.943,0-5.887a.767.767,0,0,0-.037-.351,5.171,5.171,0,0,1-4.354.622,6.579,6.579,0,0,1-1.3-.608.5.5,0,0,0-.05.333q0,2.946,0,5.891a.671.671,0,0,1-.087.474h-.987a.572.572,0,0,1-.078-.415c0-1.313,0-2.627,0-3.94a1.188,1.188,0,0,0-.214-.7c-.767-1.135-1.522-2.28-2.283-3.419-.23-.344-.273-.361-.669-.265a3.276,3.276,0,0,0-1.227.564,3.66,3.66,0,0,0-1.425,3.092q0,2.319,0,4.641a.628.628,0,0,1-.084.446Z" transform="translate(-133.376 -363.347)" fill="#454545"/>
  <path id="Path_3523" data-name="Path 3523" d="M227.637,392.18a4.275,4.275,0,0,0,.459-1.205c.022-.133.088-.145.2-.145q2.841,0,5.684,0c.116,0,.163.033.188.156a4.043,4.043,0,0,0,1.725,2.477c.1.073.189.132.189.289a21.154,21.154,0,0,1-.189,3.5,4.879,4.879,0,0,1-5.085,3.964,4.233,4.233,0,0,1-1.763-.48,5.352,5.352,0,0,1-.53-1.059,8.231,8.231,0,0,1-.852-2.691,10.793,10.793,0,0,1-.09-1.5.329.329,0,0,1,.1-.289c.124-.062.246,0,.37,0a.907.907,0,0,0,.922-.472.812.812,0,0,0-.072-.949.867.867,0,0,0-.966-.355c-.114.028-.246.1-.331-.06A2.643,2.643,0,0,1,227.637,392.18Z" transform="translate(-132.45 -362.595)" fill="#fed0b9"/>
  <path id="Path_3524" data-name="Path 3524" d="M225.683,388.494l.318-.014a.494.494,0,1,0,.059-.985,1.806,1.806,0,0,1-.339-.062.954.954,0,0,1-.48-.356c-.113-.158-.239-.357-.163-.529.054-.12.283-.044.431-.044,2.135,0,4.27-.009,6.405,0a4.451,4.451,0,0,1,4.29,3.059c.066.2.1.41.159.612s.006.291-.237.286c-.908-.015-1.816-.006-2.724-.007-.077,0-.155-.008-.231-.013a51.451,51.451,0,0,1-7.133-1.742C225.91,388.663,225.746,388.659,225.683,388.494Z" transform="translate(-132.81 -363.223)" fill="#ffbe4f"/>
  <path id="Path_3525" data-name="Path 3525" d="M227.81,392.009l.011,1.247c.018.106-.07.148-.126.208a.922.922,0,0,0,.057,1.37c.062.057.141.1.145.2-.14.113-.078.271-.076.406a10.152,10.152,0,0,0,.227,2.144,11.624,11.624,0,0,0,.729,1.942,5.586,5.586,0,0,1,.435,1.032,4.554,4.554,0,0,1-2.595-3.137,15.415,15.415,0,0,1-.26-3.889.2.2,0,0,1,.106-.185A5.509,5.509,0,0,0,227.81,392.009Z" transform="translate(-132.623 -362.424)" fill="#f3b6a0"/>
  <path id="Path_3526" data-name="Path 3526" d="M225.735,388.242c1.535.539,3.113.927,4.692,1.31.894.216,1.8.393,2.7.588a.461.461,0,0,1,.1.05c-1.158,0-2.317.012-3.475.013-.947,0-1.893.008-2.839-.011a2.454,2.454,0,0,1-2.189-1.736c-.055-.195-.013-.237.173-.228C225.175,388.241,225.455,388.237,225.735,388.242Z" transform="translate(-132.862 -362.97)" fill="#f39b60"/>
  <path id="Path_3527" data-name="Path 3527" d="M225.627,394.426a6.951,6.951,0,0,0,.006.723c.026.246-.065.269-.27.218a.977.977,0,0,1-.733-.957.987.987,0,0,1,.738-.955c.158-.036.256-.017.244.189-.015.26,0,.522,0,.782Z" transform="translate(-132.872 -362.217)" fill="#f1b59f"/>
  <path id="Path_3528" data-name="Path 3528" d="M235.87,395.4c0-.623,0-1.235,0-1.847,0-.189.153-.112.236-.1a.985.985,0,0,1,.02,1.9C236.044,395.383,235.958,395.39,235.87,395.4Z" transform="translate(-131.247 -362.218)" fill="#faceb8"/>
  <path id="Path_3529" data-name="Path 3529" d="M235.109,392.332a3.227,3.227,0,0,1-.868-1.284c-.058-.165-.009-.214.167-.22.7-.022.7-.027.7.68Z" transform="translate(-131.486 -362.595)" fill="#ffbb4e"/>
  <path id="Path_3530" data-name="Path 3530" d="M226.359,392.331c0-.5,0-.924,0-1.347,0-.142.045-.188.183-.172a2.325,2.325,0,0,0,.434.019c.253-.02.323.049.221.3A3.4,3.4,0,0,1,226.359,392.331Z" transform="translate(-132.622 -362.597)" fill="#f0995f"/>
  <path id="Path_3531" data-name="Path 3531" d="M227.689,395.142a1.34,1.34,0,0,1-.1-2.352,1.356,1.356,0,0,1,1.911.721,1.243,1.243,0,0,1-.275,1.308,1.278,1.278,0,0,1-1.315.382C227.834,395.186,227.761,395.162,227.689,395.142Z" transform="translate(-132.538 -362.329)" fill="#fed0b9"/>
</svg>
