<svg xmlns="http://www.w3.org/2000/svg" width="32.771" height="32.771" viewBox="0 0 32.771 32.771"><g transform="translate(-1617.615 -63.616)"><g transform="translate(1617.613 63.616)"><path d="M29.893,7.745H15.814L13.458.657A.96.96,0,0,0,12.547,0H2.882A2.884,2.884,0,0,0,0,2.88V22.146a2.884,2.884,0,0,0,2.88,2.88h10.58L15.8,32.1a.964.964,0,0,0,.917.676H29.893a2.884,2.884,0,0,0,2.88-2.88V10.625a2.884,2.884,0,0,0-2.88-2.88ZM2.882,23.106a.961.961,0,0,1-.96-.96V2.88a.961.961,0,0,1,.96-.96h8.972L18.9,23.106Zm15.856,1.92-1.882,4.15-1.372-4.15Zm12.115,4.864a.961.961,0,0,1-.96.96H18.206l2.9-6.388a.966.966,0,0,0,.037-.7l-4.686-14.1h13.44a.961.961,0,0,1,.96.96Z"/><path d="M309.643,212.92h-2.88v-.96a.96.96,0,0,0-1.92,0v.96h-2.88a.96.96,0,1,0,0,1.92h5.577a12.068,12.068,0,0,1-1.724,3.019c-.164-.222-.327-.449-.483-.679a.96.96,0,0,0-1.588,1.08c.269.4.552.782.833,1.147-.48.556-.953,1.061-1.368,1.468a.96.96,0,1,0,1.345,1.371c.033-.033.557-.548,1.256-1.34.683.781,1.193,1.294,1.233,1.334a.96.96,0,0,0,1.358-1.358c-.01-.01-.6-.6-1.348-1.476a12.49,12.49,0,0,0,2.475-4.566h.114a.96.96,0,1,0,0-1.92Z" transform="translate(-281.734 -197.495)"/></g><text transform="translate(1624 81)" font-size="12" font-family="ProximaNova-Bold, Proxima Nova" font-weight="700" letter-spacing="0.01em"><tspan x="0" y="0">L</tspan></text></g></svg>