<svg id="a1de2c23-26f2-4958-90de-c1e18584ba3d" data-name="Artboart 1" xmlns="http://www.w3.org/2000/svg" viewBox="0 0 1080 1080"><path d="M175.28,1017.54V839.4c0-6.14,3.84-11.12,8.59-11.12H890.79c4.74,0,8.59,5,8.59,11.12v178.14" style="fill:none;stroke:#000;stroke-linecap:round;stroke-miterlimit:10;stroke-width:25px"/><path d="M261.59,589.46H218.66l-40.73,224.2c-1.35,7.47,3,14.62,9,14.62H887.76c5.94,0,10.32-7.15,9-14.62L856,589.46H809.11" style="fill:none;stroke:#000;stroke-linecap:round;stroke-miterlimit:10;stroke-width:25px"/><polygon points="218.66 589.46 177.93 813.66 65.47 701.56 119.86 472.57 218.66 589.46" style="fill:none;stroke:#000;stroke-linecap:round;stroke-miterlimit:10;stroke-width:25px"/><polygon points="854.4 589.46 895.13 813.66 1007.59 701.56 953.2 472.57 854.4 589.46" style="fill:none;stroke:#000;stroke-linecap:round;stroke-miterlimit:10;stroke-width:25px"/><path d="M454.79,276.38c11,37.29,25.79,87.46,40.53,137.56l-15.21,39.91,34.28,24.91C528,525,540,565.72,546.89,589.25c7.29,24.73-14.07,52.86-47.69,62.81l-25.38,7.51c-7.89-26.8-43.82-39.78-80.24-29s-59.55,41.24-51.66,68l-25.37,7.51c-33.63,9.95-66.8-2-74.08-26.77L96.2,182.83C88.91,158.09,110.26,130,143.89,120L326.53,66c16.82-5,33.52-4.46,46.92.38a46,46,0,0,1,27.17,26.4l16.69,56.65c2.3,7.8,11.66,39.7,14.06,47.85" style="fill:#fff;stroke:#000;stroke-linecap:round;stroke-miterlimit:10;stroke-width:25px"/><line x1="443.92" y1="464.68" x2="224.07" y2="529.74" style="fill:#fff;stroke:#000;stroke-linecap:round;stroke-miterlimit:10;stroke-width:25px;stroke-dasharray:8,0,0,20"/><path d="M418,276.61a7.12,7.12,0,0,0-4.08-3.92l-22.48-8.42.09-24a7.12,7.12,0,0,0-7.55-7.13l-24,1.46-9.68-22a7.11,7.11,0,0,0-9.79-3.44l-21.3,11.08-17.78-16.13a7.1,7.1,0,0,0-10.35.84l-15,18.78-22.81-7.5a7.11,7.11,0,0,0-9.11,5l-6,23.25-23.89,2.42a7.11,7.11,0,0,0-6.3,8.25l4,23.68-20.84,11.93a7.11,7.11,0,0,0-2.4,10.1l13.25,20-14.18,19.37a7.1,7.1,0,0,0,1.91,10.2L210,363.36l-4.86,22.43A29.24,29.24,0,1,1,245.52,428a7.12,7.12,0,0,0,2.79-.2l23.14-6.41,14,19.48a7.14,7.14,0,0,0,10.31,1.33L314.32,427,335.06,439a7.12,7.12,0,0,0,9.95-3l10.71-21.49,23.87,2.6a7.1,7.1,0,0,0,7.88-6.76l1-24,22.86-7.34a7.1,7.1,0,0,0,4.45-9.38L407,347.38l17.91-16a7.11,7.11,0,0,0,.24-10.38l-17.12-16.84,9.85-21.89A7.14,7.14,0,0,0,418,276.61ZM325.76,389.79a68.09,68.09,0,1,1,45.74-84.73A68.16,68.16,0,0,1,325.76,389.79Z" style="fill:#00cc31"/><path d="M290.85,273a53.85,53.85,0,1,0,67,36.18A53.9,53.9,0,0,0,290.85,273Zm39.22,33.83-20.48,37.94A7.1,7.1,0,0,1,300,347.6l-19-10.25a7.11,7.11,0,0,1,6.76-12.52l12.71,6.86L317.55,300a7.11,7.11,0,1,1,12.52,6.76Z" style="fill:#00cc31"/><path d="M215.18,389.34,207,391.8l2.06,6.91,2.11-3.93A22.14,22.14,0,0,1,215.18,389.34Z" style="fill:#00cc31"/><path d="M241.09,402.63a11,11,0,0,0-5.57-6.88,11.69,11.69,0,0,0-15.77,4.74l-6.56,12.21,1.37,4.56,8.15-15.18a8.23,8.23,0,0,1,4.94-4.06A8.27,8.27,0,0,1,238,403.56a8.19,8.19,0,0,1-.66,6.36l-8,14.9,2.46-.74c.71-.21,1.39-.45,2.06-.7l6.4-11.9A11.14,11.14,0,0,0,241.09,402.63Z" style="fill:#00cc31"/><path d="M214.09,396.37l-3.71,6.9,1.34,4.48,5.27-9.81a15.25,15.25,0,1,1,26.87,14.43l-4.3,8c7.25-5,10.41-13.05,8.07-20.9l0-.1c-2.14-7.18-8.2-11.9-15.95-12.81a19,19,0,0,0-6.57.78A18,18,0,0,0,214.09,396.37Z" style="fill:#00cc31"/><path d="M234.73,404.59a4.72,4.72,0,0,0-2.4-2.92,4.91,4.91,0,0,0-6.74,2l-9.69,18,1.34,4.48,11.26-21a1.49,1.49,0,0,1,2.28-.69,1.47,1.47,0,0,1,.63,2.26l-11.12,20.68,4.55-1.36,9.52-17.73A4.82,4.82,0,0,0,234.73,404.59Z" style="fill:#00cc31"/><path d="M924.85,427.3C903.62,462,875,508.57,846.46,555.09l-41.63,16.15,4.68,44c-26.34,42.89-49.6,80.75-63,102.61-14.1,23-50.88,26.1-82.16,7l-23.6-14.43c15.27-24.89.19-61.87-33.68-82.59s-73.71-17.35-89,7.54l-23.6-14.43c-31.27-19.14-45.2-53.28-31.1-76.26l283-461.23c14.1-23,50.88-26.11,82.15-7L998.36,180.39c15.64,9.57,26.94,22.89,32.57,36.69a48.07,48.07,0,0,1-1.47,39.57l-32.28,52.63-27.3,44.42" style="fill:#fff;stroke:#000;stroke-linecap:round;stroke-miterlimit:10;stroke-width:25px"/><line x1="771.09" y1="550.72" x2="566.62" y2="425.64" style="fill:#fff;stroke:#000;stroke-linecap:round;stroke-miterlimit:10;stroke-width:25px;stroke-dasharray:8,0,0,20"/><path d="M680.09,293l-3.63,6.07L680.7,298a21.38,21.38,0,0,1,6.63-.67Z" style="fill:#e74f4b"/><path d="M903.37,369.2a7,7,0,0,0,.14-5.56l-8.85-21.82L912.08,326a7,7,0,0,0,.17-10.19l-17-16.35,9.48-21.57a7,7,0,0,0,0-5.55,6.89,6.89,0,0,0-4-3.82L878.6,260.4l-.15-23.54a7,7,0,0,0-2.22-5.09,7.1,7.1,0,0,0-5.25-1.86l-23.49,1.67-9.72-21.45a6.95,6.95,0,0,0-9.64-3.3l-20.79,11.09-17.59-15.68a7,7,0,0,0-10.15.93l-14.5,18.57-22.44-7.17a7,7,0,0,0-8.91,5l-5.67,22.88L704.67,245a7,7,0,0,0-6.11,8.16l4.1,23.18-19.44,11.38A28.69,28.69,0,1,1,679.48,345a6.83,6.83,0,0,0,2,1.87l20,12.48-4.75,23.08a6.87,6.87,0,0,0,1.11,5.43,7.07,7.07,0,0,0,4.73,2.89L725.9,394l5,23a7,7,0,0,0,8.76,5.23l22.66-6.52,13.92,19a7.1,7.1,0,0,0,4.8,2.8,6.89,6.89,0,0,0,5.33-1.59l18-15.16,20.47,11.67a7,7,0,0,0,9.74-3L845,408.23l23.45,2.32a6.84,6.84,0,0,0,5.26-1.69,6.93,6.93,0,0,0,2.4-5l.82-23.56,22.35-7.39A7.08,7.08,0,0,0,903.37,369.2Zm-143,8.4A66.81,66.81,0,1,1,852,354.46,66.88,66.88,0,0,1,760.37,377.6Z" style="fill:#e74f4b"/><path d="M749.23,293.15a52.84,52.84,0,1,0,72.45-18.3A52.9,52.9,0,0,0,749.23,293.15Zm40,23.88-5.38-21.21a4.45,4.45,0,1,1,8.62-2.18l5.4,21.18L819,309.43a4.46,4.46,0,0,1,2.21,8.64L800,323.46l5.4,21.19a4.48,4.48,0,0,1-3.23,5.4,4.46,4.46,0,0,1-5.41-3.2l-5.38-21.21-21.23,5.41a4.55,4.55,0,0,1-3.37-.49,4.49,4.49,0,0,1-2-2.74,4.42,4.42,0,0,1,3.22-5.4Z" style="fill:#e74f4b"/><path d="M694.91,324.9a10.77,10.77,0,0,0,1.28-8.59,11.47,11.47,0,0,0-13.89-8.25l-13.18,3.36-2.39,4,16.39-4.18a8.08,8.08,0,0,1,6.21.88,8.14,8.14,0,0,1,2.84,11.14,8.1,8.1,0,0,1-5,3.74l-16.08,4.09,2.16,1.29c.62.37,1.25.71,1.87,1l12.85-3.27A10.92,10.92,0,0,0,694.91,324.9Z" style="fill:#e74f4b"/><path d="M701.52,327.55l.05-.09c3.77-6.31,3.16-13.82-1.33-20a18.56,18.56,0,0,0-4.91-4.23,17.69,17.69,0,0,0-13.81-2l-7.45,1.9-2.35,3.94,10.6-2.7a15,15,0,1,1,7.38,29l-8.65,2.21C689.5,337.49,697.4,334.45,701.52,327.55Z" style="fill:#e74f4b"/><path d="M689.28,321.61a4.63,4.63,0,0,0,.51-3.67,4.79,4.79,0,0,0-5.93-3.53l-19.48,5L662,323.31l22.62-5.76a1.46,1.46,0,0,1,2,1.19,1.44,1.44,0,0,1-1.21,1.95l-22.32,5.69,4,2.38,19.14-4.88A4.71,4.71,0,0,0,689.28,321.61Z" style="fill:#e74f4b"/></svg>