<svg xmlns="http://www.w3.org/2000/svg" width="57.193" height="46.915" viewBox="0 0 57.193 46.915"><path d="M8137.847,7155.075l-10.592-.022-.019,8.888,3.886-3.885A27.321,27.321,0,0,1,8137.847,7155.075Z" transform="translate(-8127.163 -7155.053)" fill="#adadad"/><g transform="translate(0 1.205)"><path d="M8163.675,7183.769a13.574,13.574,0,0,0-4.124-10.1,14.4,14.4,0,0,0-20.291,0l-12.079,12.076-.013,5.868,15.021-15.015a10.108,10.108,0,0,1,7.272-3.034,10.2,10.2,0,0,1,10.2,10.2,10.094,10.094,0,0,1-3.045,7.271l-14.738,14.734,3.167.007c.909,0,1.8-.036,2.678-.1l11.771-11.768A13.662,13.662,0,0,0,8163.675,7183.769Z" transform="translate(-8127.145 -7160.063)" fill="#e25351"/><path d="M8134.044,7163.416l-6.828,6.829-.013,5.761,9.715-9.709a18.8,18.8,0,1,1,26.58,26.587l-7.933,7.931c10.352-3.351,16.933-11.7,16.954-21.8v-.135c.019-9.225-5.445-16.948-14.276-20.775a23.248,23.248,0,0,0-8.028-1.418A22.226,22.226,0,0,0,8134.044,7163.416Z" transform="translate(-8127.154 -7156.689)" fill="#e25351"/><path d="M8155.47,7186.755a5.828,5.828,0,0,0-1.791-4.29,6.03,6.03,0,0,0-8.677,0l-17.854,17.849-.012,5.76,20.737-20.732a1.839,1.839,0,0,1,2.936,0,1.808,1.808,0,0,1-.057,2.882l-20.464,20.458,5.843.011,17.547-17.542A5.946,5.946,0,0,0,8155.47,7186.755Z" transform="translate(-8127.136 -7162.998)" fill="#e25351"/></g><g transform="translate(33.537 25.845)"><rect width="13.163" height="12.131" transform="translate(0 4.86)" fill="#adadad"/><path d="M8198.9,7200.675l-16.484-10.526V7211.2Z" transform="translate(-8175.246 -7190.149)" fill="#adadad"/></g></svg>