<svg
  xmlns="http://www.w3.org/2000/svg"
  width="210.121"
  height="135.418"
  viewBox="0 0 210.121 135.418"
>
  <g id="Group_4690" data-name="Group 4690" transform="translate(-90 -418.502)">
    <g id="Group_4698" data-name="Group 4698" transform="translate(90 419)">
      <g id="Group_4694" data-name="Group 4694" transform="translate(0 8.116)">
        <g
          id="Group_4690-2"
          data-name="Group 4690"
          transform="translate(68.238)"
        >
          <path
            id="Path_6731"
            data-name="Path 6731"
            d="M486.4,419.063l-18.019,17.019-8.646-8.9a2.492,2.492,0,1,0-3.574,3.474l10.371,10.646a2.537,2.537,0,0,0,3.524.075l19.818-18.693a2.49,2.49,0,0,0,.1-3.524A2.551,2.551,0,0,0,486.4,419.063Z"
            transform="translate(-435.718 -392.882)"
            fill="#fff"
          />
          <path
            id="Path_6732"
            data-name="Path 6732"
            d="M441.34,351.9a37.336,37.336,0,1,0,37.336,37.336A37.372,37.372,0,0,0,441.34,351.9Zm0,69.675a32.338,32.338,0,1,1,32.338-32.338A32.375,32.375,0,0,1,441.34,421.58Z"
            transform="translate(-404.004 -351.905)"
            fill="#fff"
          />
          <rect
            id="Rectangle_1757"
            data-name="Rectangle 1757"
            width="57.128"
            height="4.998"
            rx="2.499"
            transform="translate(34.837 126.803) rotate(-90)"
            fill="#fff"
          />
        </g>
        <g
          id="Group_4693"
          data-name="Group 4693"
          transform="translate(0 35.327)"
        >
          <g id="Group_4691" data-name="Group 4691">
            <path
              id="Path_6733"
              data-name="Path 6733"
              d="M290.288,502.274l-10.768,10.171-5.168-5.317a1.489,1.489,0,0,0-2.136,2.076l6.2,6.362a1.516,1.516,0,0,0,2.105.045l11.844-11.172a1.488,1.488,0,0,0,.06-2.106A1.524,1.524,0,0,0,290.288,502.274Z"
              transform="translate(-254.27 -479.67)"
              fill="#fff"
              stroke="#fff"
              stroke-miterlimit="10"
              stroke-width="2"
            />
            <path
              id="Path_6734"
              data-name="Path 6734"
              d="M254.153,444A28.042,28.042,0,1,0,282.2,472.042,28.069,28.069,0,0,0,254.153,444Zm0,52.33a24.288,24.288,0,1,1,24.288-24.288A24.316,24.316,0,0,1,254.153,496.33Z"
              transform="translate(-226.111 -444)"
              fill="#fff"
            />
            <rect
              id="Rectangle_1758"
              data-name="Rectangle 1758"
              width="39.093"
              height="3.754"
              rx="1.877"
              transform="translate(26.165 91.423) rotate(-90)"
              fill="#fff"
            />
          </g>
          <g
            id="Group_4692"
            data-name="Group 4692"
            transform="translate(154.037)"
          >
            <path
              id="Path_6735"
              data-name="Path 6735"
              d="M691.857,502.274l-10.768,10.171-5.168-5.317a1.489,1.489,0,0,0-2.136,2.076l6.2,6.362a1.517,1.517,0,0,0,2.106.045l11.844-11.172a1.488,1.488,0,0,0,.06-2.106A1.524,1.524,0,0,0,691.857,502.274Z"
              transform="translate(-655.839 -479.67)"
              fill="#fff"
              stroke="#fff"
              stroke-miterlimit="10"
              stroke-width="2"
            />
            <path
              id="Path_6736"
              data-name="Path 6736"
              d="M655.722,444a28.042,28.042,0,1,0,28.042,28.042A28.069,28.069,0,0,0,655.722,444Zm0,52.33a24.288,24.288,0,1,1,24.288-24.288A24.316,24.316,0,0,1,655.722,496.33Z"
              transform="translate(-627.68 -444)"
              fill="#fff"
            />
            <rect
              id="Rectangle_1759"
              data-name="Rectangle 1759"
              width="39.093"
              height="3.754"
              rx="1.877"
              transform="translate(26.165 91.423) rotate(-90)"
              fill="#fff"
            />
          </g>
        </g>
      </g>
      <g id="Group_4697" data-name="Group 4697" transform="translate(41.097)">
        <g id="Group_4695" data-name="Group 4695" transform="translate(96.316)">
          <path
            id="Path_6737"
            data-name="Path 6737"
            d="M619.261,353.739c-1.005-.9-2.191-1.962-3.372-3.029-.712-.644-.185-1.038.315-1.4,4.2-3.033,8.417-6.045,12.6-9.1.843-.615,1.313-.409,1.837.753a37.32,37.32,0,0,0,4.043,6.7c.764,1.04.643,1.463-.316,1.788-4.468,1.515-8.923,3.068-13.386,4.6A1.77,1.77,0,0,1,619.261,353.739Zm3.574-4.1q3.207-1.105,6.413-2.212c.893-.31.561-.9.275-1.422-.306-.555-.622-1.371-1.455-.806A18.79,18.79,0,0,0,622.835,349.639Z"
            transform="translate(-603.574 -336.373)"
            fill="#fff"
          />
          <path
            id="Path_6738"
            data-name="Path 6738"
            d="M632.545,414.74c-1.366-.916-2.943-1.432-4.375-2.236a1.454,1.454,0,0,1-.851-1.419c-.05-1.556-.079-1.555,1.429-1.293,1.665.289,3.328.591,5,.855.433.068.616.167.42.727a19.391,19.391,0,0,0-.76,2.963C633.291,414.968,632.971,415.008,632.545,414.74Zm-2.938-3.351a7.969,7.969,0,0,0,2.176,1.374c.336.153.552.11.655-.268.1-.351.071-.636-.366-.707Q630.84,411.587,629.607,411.389Z"
            transform="translate(-610.823 -379.39)"
            fill="#fff"
            stroke="#fff"
            stroke-miterlimit="10"
            stroke-width="1"
          />
          <path
            id="Path_6739"
            data-name="Path 6739"
            d="M588.6,331.594c-.591,1.535-.746,3.186-1.213,4.761a1.456,1.456,0,0,1-1.2,1.144c-1.506.393-1.5.421-1.577-1.108-.086-1.688-.159-3.377-.272-5.063-.029-.437.026-.637.616-.57a19.419,19.419,0,0,0,3.058.086C588.661,330.816,588.771,331.119,588.6,331.594Zm-2.619,3.606a7.961,7.961,0,0,0,.859-2.426c.075-.361-.014-.562-.406-.579-.363-.015-.635.071-.608.513Q585.906,333.954,585.986,335.2Z"
            transform="translate(-584.341 -330.746)"
            fill="#fff"
            stroke="#fff"
            stroke-miterlimit="10"
            stroke-width="1"
          />
        </g>
        <g id="Group_4696" data-name="Group 4696" transform="translate(0)">
          <path
            id="Path_6740"
            data-name="Path 6740"
            d="M347.45,354.05c-4.462-1.533-8.918-3.086-13.386-4.6-.959-.325-1.08-.748-.316-1.788a37.315,37.315,0,0,0,4.043-6.7c.524-1.161.994-1.367,1.837-.753,4.186,3.053,8.4,6.065,12.6,9.1.5.361,1.027.755.315,1.4-1.181,1.066-2.367,2.127-3.372,3.029A1.77,1.77,0,0,1,347.45,354.05Zm-7.083-8.851c-.833-.565-1.148.252-1.455.806-.286.519-.618,1.112.275,1.422q3.2,1.112,6.413,2.212A18.788,18.788,0,0,0,340.367,345.2Z"
            transform="translate(-333.25 -336.373)"
            fill="#fff"
          />
          <path
            id="Path_6741"
            data-name="Path 6741"
            d="M355.442,414.337a19.4,19.4,0,0,0-.76-2.963c-.2-.56-.014-.659.42-.727,1.669-.263,3.332-.566,5-.855,1.508-.262,1.479-.264,1.429,1.293a1.454,1.454,0,0,1-.851,1.419c-1.432.8-3.008,1.321-4.375,2.236C355.875,415.008,355.556,414.968,355.442,414.337Zm1.333-2.549c-.437.071-.461.356-.366.707.1.379.319.421.655.268a7.969,7.969,0,0,0,2.176-1.374Q358.007,411.588,356.775,411.788Z"
            transform="translate(-346.412 -379.39)"
            fill="#fff"
            stroke="#fff"
            stroke-miterlimit="10"
            stroke-width="1"
          />
          <path
            id="Path_6742"
            data-name="Path 6742"
            d="M405.017,330.844a19.419,19.419,0,0,0,3.058-.086c.59-.067.645.132.616.57-.112,1.686-.185,3.375-.272,5.063-.078,1.529-.07,1.5-1.577,1.108a1.456,1.456,0,0,1-1.2-1.144c-.468-1.575-.623-3.226-1.213-4.761C404.266,331.119,404.376,330.816,405.017,330.844Zm2.191,1.864c.027-.442-.245-.528-.608-.513-.392.017-.481.218-.406.579a7.961,7.961,0,0,0,.859,2.426Q407.13,333.954,407.207,332.708Z"
            transform="translate(-377.085 -330.746)"
            fill="#fff"
            stroke="#fff"
            stroke-miterlimit="10"
            stroke-width="1"
          />
        </g>
      </g>
    </g>
  </g>
</svg>
