<svg
  xmlns="http://www.w3.org/2000/svg"
  width="197.767"
  height="114.618"
  viewBox="0 0 197.767 114.618"
>
  <g
    id="Group_4616"
    data-name="Group 4616"
    transform="translate(-268.612 -193.609)"
  >
    <g
      id="Group_4606"
      data-name="Group 4606"
      transform="translate(268.612 209.461)"
    >
      <g id="Group_4602" data-name="Group 4602" transform="translate(76.058 0)">
        <g id="cZcliV.tif">
          <g id="Group_4601" data-name="Group 4601">
            <path
              id="Path_6648"
              data-name="Path 6648"
              d="M512.147,292.224q-14.336,0-28.672,0a5.92,5.92,0,0,1-5.725-3.842,5.645,5.645,0,0,1-.361-2.752c.694-6.82,1.331-13.646,2.063-20.462a23.194,23.194,0,0,1,16.917-19.606,1.406,1.406,0,0,0,1.179-1.237,14.094,14.094,0,0,1,14.1-11.382c2.645-.013,5.267.007,7.737,1.13a14.186,14.186,0,0,1,8.51,10.786,1.263,1.263,0,0,0,.968,1.107c9.454,3.359,14.717,10.15,15.972,20,.84,6.588,1.406,13.212,2.023,19.826a5.867,5.867,0,0,1-5.952,6.435q-14.381.017-28.763,0Zm-.077-3.558v.006h13.973q7.032,0,14.064,0a9.189,9.189,0,0,0,1.178-.03,2.085,2.085,0,0,0,1.879-2.162c-.651-4.728-.976-9.492-1.517-14.232a72.841,72.841,0,0,0-1.064-8.533c-2.047-8.688-9.693-15.335-18.63-15.119-3.295.08-6.593.01-9.889.014q-6.079.007-12.158.023c-.548,0-1.02.03-1.014.8.024,3.145.02,6.291.012,9.436,0,.587.254.813.825.794.665-.023,1.331-.018,2,0a1.949,1.949,0,0,1,2.167,1.845c.1.594.156,1.2.226,1.8.471,4.019.954,8.037,1.4,12.058a1.657,1.657,0,0,1-1.8,1.979q-6.487.023-12.975,0a1.719,1.719,0,0,1-1.851-2.04q.8-6.884,1.636-13.764a1.922,1.922,0,0,1,2.066-1.864,17.778,17.778,0,0,1,2-.009c.745.05,1-.229.994-.984-.034-2.691-.008-5.383-.009-8.075,0-1.059-.037-1.108-.985-.662-6.8,3.2-10.575,8.63-11.6,15.988-.471,3.377-.721,6.786-1.063,10.181-.327,3.245-.686,6.488-.948,9.738-.152,1.874.816,2.819,2.693,2.819Q497.871,288.669,512.071,288.666Zm.658-44.063c2.994,0,5.987-.012,8.98.009.678,0,.881-.16.579-.833a9.044,9.044,0,0,0-6.232-5.354,14.844,14.844,0,0,0-4.871-.248,8.885,8.885,0,0,0-7.957,5.553c-.319.714-.108.888.611.883C506.8,244.589,509.766,244.6,512.729,244.6ZM497.367,273.95c1.3,0,2.6-.018,3.893.008.578.012.8-.127.717-.774-.4-3.108-.767-6.221-1.119-9.335-.058-.515-.3-.658-.765-.65-1.687.031-3.377.12-5.058.036-.958-.048-1.082.43-1.165,1.15-.336,2.9-.678,5.805-1.051,8.7-.082.639.089.886.747.871C494.832,273.928,496.1,273.949,497.367,273.95Z"
              transform="translate(-477.354 -232.935)"
              fill="#fff"
            />
          </g>
        </g>
        <path
          id="Path_6649"
          data-name="Path 6649"
          d="M517.517,315.454l-1.16,8.705a1.782,1.782,0,0,0,1.766,2.018h8.119A1.782,1.782,0,0,0,528,324.093l-1.5-8.706a1.782,1.782,0,0,0-1.757-1.48h-5.46A1.782,1.782,0,0,0,517.517,315.454Z"
          transform="translate(-502.135 -284.404)"
          fill="#fff"
        />
      </g>
      <g id="Group_4604" data-name="Group 4604" transform="translate(0 35.81)">
        <g id="Group_4603" data-name="Group 4603">
          <path
            id="Path_6650"
            data-name="Path 6650"
            d="M320.15,394.1c-12.241,0-24.483-.02-36.724.013a25.813,25.813,0,0,1-9.63-1.668A7.708,7.708,0,0,1,269.253,382a26.282,26.282,0,0,0,1.8-9.89c-.047-7.91.858-15.7,4.534-22.9a20.305,20.305,0,0,1,4.274-5.733c1.427-1.323,2.045-1.362,3.471-.069a34.22,34.22,0,0,0,9.117,5.96c3.06,1.36,6.2,2.467,9.661,1.732a14.409,14.409,0,0,0,5.7-2.817c2.777-2.11,5.465-4.338,8.219-6.478a.981.981,0,0,0,.267-1.466c-1.475-2.758.878-6.224,2.976-7.869a5.544,5.544,0,0,1,7.328.291c11.414,9.6,23.954,17.7,35.769,26.767a7.078,7.078,0,0,0,2.894,1.084,219.8,219.8,0,0,1,29.119,9.349,5.872,5.872,0,0,1,3.555,3.915,14.468,14.468,0,0,1-.066,8.766,6.154,6.154,0,0,1-3.334,3.552c-4.987,2.631-10.419,3.861-15.856,5.1-13.114,3-26.435,2.982-39.773,2.826C332.652,394.045,326.4,394.106,320.15,394.1Zm73.506-12.468c-2.185.61-4.354,1.289-6.559,1.817a96.591,96.591,0,0,1-27.767,2.176c-5.458-.287-10.907-.7-16.329-1.416-8.206-1.079-16.351-2.538-24.518-3.873a376.767,376.767,0,0,0-42.858-4.209c-.9-.043-1.244.24-1.37,1.026a36.584,36.584,0,0,1-1.937,6.581,3.756,3.756,0,0,0,2.476,5.1c.832.3,1.7.5,2.538.777a2.667,2.667,0,0,0,2.651-.317,1.458,1.458,0,0,1,2.2.366,2.017,2.017,0,0,0,1.9.792q11.646-.019,23.293,0c.918,0,1.61-.082,1.857-1.172a1.437,1.437,0,0,1,1.558-1.055c.748-.005,1.455.258,1.608.982.269,1.281,1.112,1.293,2.1,1.24.728-.039,1.46-.029,2.188,0,.888.032,1.621-.005,1.829-1.167a1.436,1.436,0,0,1,1.547-1.077,1.454,1.454,0,0,1,1.606.989c.3,1.225,1.111,1.316,2.126,1.254a23.257,23.257,0,0,1,2.5,0c.809.037,1.389-.1,1.6-1.051a1.77,1.77,0,0,1,3.317-.038c.232,1.039.892,1.122,1.733,1.088.78-.032,1.565-.041,2.344,0,1.006.056,1.829-.033,2.137-1.252a1.738,1.738,0,0,1,3.164.082c.2,1.159.922,1.149,1.818,1.169,9.959.223,19.884-.044,29.714-1.874,6.4-1.191,12.815-2.333,18.821-5A5.416,5.416,0,0,0,393.656,381.637Zm-116.867-26.2a58.393,58.393,0,0,0-2.3,15.916c-.039,1.118.76,1.215,1.578,1.264,1.869.113,3.737.245,5.607.322,6.917.287,13.8,1.007,20.684,1.67,10.673,1.026,21.213,2.971,31.776,4.757,4.791.81,9.609,1.436,14.811,1.982a17.823,17.823,0,0,0-4.615-2.9,65.34,65.34,0,0,0-10.372-3.409c-10.6-2.671-21.406-4.369-32.1-6.6C292.406,366.472,283.408,363.536,276.788,355.437Zm19.09,6.937a28.485,28.485,0,0,0,14.894-4.414c4.366-2.732,8.63-5.63,12.895-8.519,2.5-1.692,4.91-3.512,7.367-5.265.674-.481.89-.913-.069-1.28a15.086,15.086,0,0,0-5.246-1.385c-3.259-.03-5.692,1.78-8.114,3.59-3,2.243-5.706,4.855-8.828,6.951a15.834,15.834,0,0,1-14.269,2.13,39.006,39.006,0,0,1-11.889-6.4c-.428-.324-.772-.916-1.472-.618-1.525.649-2.67,3.888-1.712,5.219C283.7,358.311,289.393,361.819,295.879,362.374Zm69.182,19.644a84.33,84.33,0,0,0,12.827-.636,67.8,67.8,0,0,0,16.056-3.806c.479-.18.961-.316.939-1.042a4.069,4.069,0,0,0-2.377-3.555,5.943,5.943,0,0,0-5.639-.22,12.614,12.614,0,0,1-2.549.713,65.557,65.557,0,0,1-12.971,1.709c-5.506.216-11.045.621-16.521-.244-5.246-.829-9.574-3.176-11.788-8.367-.316-.74-.737-.706-1.356-.435a15.775,15.775,0,0,0-5.591,4.159c-.7.8-.576,1.166.47,1.46a61.831,61.831,0,0,1,8.56,2.926c3.208,1.437,6.308,3.048,8.121,6.288a1.594,1.594,0,0,0,1.583.748C358.309,381.828,361.783,382.215,365.061,382.018Zm18.293-12.336c-2.062-.691-4.12-1.393-6.185-2.073-8.835-2.908-17.732-5.4-27.193-3.831-1.292.215-3.263-.189-3.669,1.044-.475,1.444,1.066,2.689,2.183,3.685a13.8,13.8,0,0,0,9.1,3.178c4.469.14,8.953.163,13.418-.035A41.736,41.736,0,0,0,383.354,369.682Zm-56.283-31.74.035-.44c-1.019-.79-2.022-1.6-3.064-2.361a1.949,1.949,0,0,0-2.588.073,7.283,7.283,0,0,0-1.92,2.976c-.245.652-.05,1.408.907.978A13.5,13.5,0,0,1,327.071,337.943Z"
            transform="translate(-268.612 -331.217)"
            fill="#fff"
          />
        </g>
        <path
          id="Path_6651"
          data-name="Path 6651"
          d="M314.147,380.333a28.486,28.486,0,0,0,14.894-4.414c4.366-2.732,8.63-5.63,12.895-8.519,2.5-1.692,4.91-3.512,7.367-5.265.674-.481.89-.913-.069-1.28a15.089,15.089,0,0,0-5.246-1.385c-3.259-.03-5.692,1.78-8.114,3.59-3,2.243-5.706,4.855-8.828,6.951a15.834,15.834,0,0,1-14.269,2.13,39.006,39.006,0,0,1-11.889-6.4c-.428-.324-.772-.916-1.472-.618-1.525.649-2.67,3.888-1.712,5.219C301.972,376.27,307.661,379.778,314.147,380.333Z"
          transform="translate(-286.88 -349.176)"
        />
      </g>
      <g
        id="Group_4605"
        data-name="Group 4605"
        transform="translate(125.694 21.435)"
      >
        <path
          id="Path_6652"
          data-name="Path 6652"
          d="M685.642,356.321a2.611,2.611,0,0,0-.885-1.576q-6.351-6.332-12.693-12.674-2.776-2.772-5.549-5.543a2.256,2.256,0,0,0-3.426.009,5.621,5.621,0,0,0-.536.548c-.241.313-.418.251-.665-.012-.576-.613-1.167-1.213-1.78-1.786-.266-.245-.235-.387-.022-.647a25.962,25.962,0,0,0,5.98-16.62,26.416,26.416,0,0,0-.285-3.863,26.314,26.314,0,1,0-9.489,24.258c.282-.229.433-.183.656.053.474.5.969.984,1.461,1.47.647.637.647.637,0,1.281a2.281,2.281,0,0,0,0,3.525q3.9,3.882,7.781,7.772,5.274,5.274,10.557,10.541a2.219,2.219,0,0,0,3.293.087c1.671-1.643,3.321-3.308,4.974-4.967A2.206,2.206,0,0,0,685.642,356.321Zm-45.865-16.58a21.727,21.727,0,1,1,21.786-21.687A21.713,21.713,0,0,1,639.776,339.741Zm40.115,17.193a16.272,16.272,0,0,0-1.182,1.176c-.217.235-.35.214-.57-.01q-3.751-3.765-7.518-7.518c-2.42-2.42-4.838-4.847-7.27-7.255-.288-.285-.3-.437,0-.7.418-.365.792-.78,1.186-1.173.074-.071.154-.136.223-.2.189.025.266.167.368.269q4.29,4.28,8.573,8.567c2.062,2.058,4.117,4.126,6.187,6.172C680.163,356.534,680.17,356.686,679.891,356.934Z"
          transform="translate(-613.583 -291.765)"
          fill="#fff"
        />
        <path
          id="Path_6653"
          data-name="Path 6653"
          d="M748.953,428.271l1.547-1.548L765.976,442.2l.31.309-1.857,1.857L748.644,428.58Z"
          transform="translate(-699.433 -377.55)"
          fill="#fff"
        />
      </g>
    </g>
    <path
      id="Path_6654"
      data-name="Path 6654"
      d="M426.576,287.375l-11.036-6.309,3.633-5.285,8.27,8.758Z"
      transform="translate(-93.393 -50.709)"
      fill="none"
      stroke="#e25351"
      stroke-miterlimit="10"
      stroke-width="4"
    />
    <path
      id="Path_6655"
      data-name="Path 6655"
      d="M508.8,209.408l-3.22-12.3,6.317-1.105-.465,12.036Z"
      transform="translate(-150.624 0)"
      fill="none"
      stroke="#e25351"
      stroke-miterlimit="10"
      stroke-width="4"
    />
  </g>
</svg>
