<svg xmlns="http://www.w3.org/2000/svg" width="21.992" height="21.415" viewBox="0 0 21.992 21.415">
  <g id="line-logo" transform="translate(0 -3.893)">
    <path id="Path_6891" data-name="Path 6891" d="M21.941,12.159h0l-.007-.056V12.1l-.026-.212-.018-.146-.005-.044h-.011a8.353,8.353,0,0,0-2.146-4.21A10.943,10.943,0,0,0,15.46,4.677a12.952,12.952,0,0,0-4.475-.784A12.559,12.559,0,0,0,5.107,5.316,8.908,8.908,0,0,0,.029,13.725a8.677,8.677,0,0,0,1.942,4.718,10.474,10.474,0,0,0,4.116,3.016,15.651,15.651,0,0,0,3.062.824l.124.024c.291.058.369.137.389.168a.364.364,0,0,1,0,.236c-.014.058-.028.116-.042.174a3.477,3.477,0,0,0-.139,1.468,1.024,1.024,0,0,0,1.038.954h0a3.847,3.847,0,0,0,1.723-.664l.06-.035c1.071-.629,2.079-1.338,2.838-1.886A24.679,24.679,0,0,0,20.1,18.408,8.523,8.523,0,0,0,21.941,12.159ZM6.849,15.512h-1.9a.519.519,0,0,1-.519-.519V11.011a.519.519,0,1,1,1.038,0v3.463H6.849a.519.519,0,0,1,0,1.038Zm1.979-.533a.519.519,0,0,1-1.038,0V11a.519.519,0,1,1,1.038,0Zm4.693,0a.519.519,0,0,1-.939.305l-1.869-2.575v2.27a.519.519,0,0,1-1.038,0V11.111a.519.519,0,0,1,.939-.305l1.869,2.575V11a.519.519,0,1,1,1.038,0Zm3.783.437H14.734a.519.519,0,0,1-.519-.519V10.915a.519.519,0,0,1,.519-.519h2.49a.519.519,0,0,1,0,1.038H15.253v.953h1.6a.519.519,0,1,1,0,1.038h-1.6v.953H17.3a.519.519,0,0,1,0,1.038Z" transform="translate(0 0)" fill="#e25351"/>
  </g>
</svg>