<svg xmlns="http://www.w3.org/2000/svg" width="175.275" height="139.203" viewBox="0 0 175.275 139.203"><g transform="translate(8780 -3731)"><g transform="translate(-8629.216 3743.144)"><path d="M459.737,63.772,454.492,42.36H445.7L440.46,63.772Z" transform="translate(-440.46 -42.36)" fill="#f9ef63"/></g><g transform="translate(-8774.786 3743.144)"><path d="M34.507,63.772,29.263,42.36H20.476L15.231,63.772Z" transform="translate(-15.231 -42.36)" fill="#f9ef63"/></g><g transform="translate(-8620.947 3743.144)"><path d="M470.376,42.36h-5.763l5.245,21.412h5.763Z" transform="translate(-464.613 -42.36)" fill="#f4dd45"/></g><g transform="translate(-8766.518 3743.144)"><path d="M45.147,42.36H39.384l5.245,21.412h5.763Z" transform="translate(-39.384 -42.36)" fill="#f4dd45"/></g><g transform="translate(-8627.809 3731)"><path d="M8.231,0A8.231,8.231,0,1,1,0,8.231,8.231,8.231,0,0,1,8.231,0Z" fill="#e83a38"/></g><g transform="translate(-8773.378 3731)"><circle cx="8.231" cy="8.231" r="8.231" fill="#e83a38"/></g><g transform="translate(-8627.568 3731.239)"><path d="M455.233,7.586a8.232,8.232,0,0,1-9.963,9.963,8.231,8.231,0,1,0,9.963-9.963Z" transform="translate(-445.27 -7.586)" fill="#e25351"/></g><g transform="translate(-8773.14 3731.239)"><path d="M30,7.586a8.232,8.232,0,0,1-9.963,9.963A8.231,8.231,0,1,0,30,7.586Z" transform="translate(-20.041 -7.586)" fill="#e25351"/></g><g transform="translate(-8771.422 3766.516)"><path d="M35.894,214.32H26.769a1.712,1.712,0,0,1-1.712-1.712V110.633H37.606V212.608A1.711,1.711,0,0,1,35.894,214.32Z" transform="translate(-25.057 -110.633)" fill="#dae4ea"/></g><g transform="translate(-8625.852 3766.516)"><path d="M461.123,214.32H452a1.712,1.712,0,0,1-1.712-1.712V110.633h12.549V212.608A1.711,1.711,0,0,1,461.123,214.32Z" transform="translate(-450.286 -110.633)" fill="#dae4ea"/></g><g transform="translate(-8771.422 3766.516)"><path d="M31.687,110.633v96.026a1.742,1.742,0,0,1-1.742,1.742H25.057v4.208a1.712,1.712,0,0,0,1.712,1.712h9.126a1.712,1.712,0,0,0,1.712-1.712V110.633Z" transform="translate(-25.057 -110.633)" fill="#b9c1cb"/></g><g transform="translate(-8625.853 3766.516)"><path d="M456.915,110.633v96.026a1.742,1.742,0,0,1-1.742,1.742h-4.888v4.208A1.712,1.712,0,0,0,452,214.32h9.126a1.712,1.712,0,0,0,1.712-1.712V110.633Z" transform="translate(-450.285 -110.633)" fill="#b9c1cb"/></g><g transform="translate(-8780 3758.568)"><path d="M172.536,114.722H160.8l-3.225-1.677-3.422,1.677H2.739A2.739,2.739,0,0,1,0,111.984V90.155a2.739,2.739,0,0,1,2.739-2.739h169.8a2.739,2.739,0,0,1,2.739,2.739v21.829A2.739,2.739,0,0,1,172.536,114.722Z" transform="translate(0 -87.416)"/></g><g transform="translate(-8780 3758.568)"><path d="M172.536,87.416h-5.355v16.425a2.787,2.787,0,0,1-2.787,2.787H0v5.355a2.739,2.739,0,0,0,2.739,2.739h169.8a2.739,2.739,0,0,0,2.739-2.739V90.155A2.739,2.739,0,0,0,172.536,87.416Z" transform="translate(0 -87.416)"/></g><g transform="translate(-8780 3758.568)"><path d="M45.859,87.416H23.687L0,111.1v.88a2.739,2.739,0,0,0,2.739,2.739H18.553Z" transform="translate(0 -87.416)" fill="#ffba00"/></g><g transform="translate(-8739.274 3758.568)"><path d="M141.137,114.722l27.306-27.306H146.271l-27.306,27.306Z" transform="translate(-118.965 -87.416)" fill="#ffba00"/></g><g transform="translate(-8694.93 3758.568)"><path d="M270.674,114.722l27.306-27.306H275.808L248.5,114.722Z" transform="translate(-248.502 -87.416)" fill="#ffba00"/></g><g transform="translate(-8650.585 3758.568)"><path d="M378.039,114.722h22.172L423.9,91.035v-.88a2.739,2.739,0,0,0-2.739-2.739H405.345Z" transform="translate(-378.039 -87.416)" fill="#ffba00"/></g><g transform="translate(-8650.585 3758.568)"><g transform="translate(0 19.212)"><path d="M386.133,143.538l-8.094,8.094h22.172l8.094-8.094Z" transform="translate(-378.039 -143.538)" fill="#ffba00"/></g><g transform="translate(37.766)"><path d="M493.712,87.416h-5.355V99.129l8.094-8.094v-.88A2.739,2.739,0,0,0,493.712,87.416Z" transform="translate(-488.357 -87.416)" fill="#ffba00"/></g></g><g transform="translate(-8694.93 3777.78)"><path d="M256.6,143.538l-8.094,8.094h22.172l8.094-8.094Z" transform="translate(-248.502 -143.538)" fill="#ffba00"/></g><g transform="translate(-8739.274 3777.78)"><path d="M127.059,143.538l-8.094,8.094h22.172l8.094-8.094Z" transform="translate(-118.965 -143.538)" fill="#ffba00"/></g><g transform="translate(-8780 3777.78)"><path d="M4.475,143.538,0,148.013v.88a2.739,2.739,0,0,0,2.739,2.739H18.553l8.094-8.094Z" transform="translate(0 -143.538)" fill="#ffba00"/></g><g transform="translate(-8780 3799.128)"><path d="M172.536,233.2H2.739A2.739,2.739,0,0,1,0,230.466V208.637A2.739,2.739,0,0,1,2.739,205.9h169.8a2.739,2.739,0,0,1,2.739,2.739v21.829A2.739,2.739,0,0,1,172.536,233.2Z" transform="translate(0 -205.898)"/></g><g transform="translate(-8780 3799.128)"><path d="M172.536,205.9h-5.355v16.425a2.787,2.787,0,0,1-2.787,2.787H0v5.355A2.739,2.739,0,0,0,2.739,233.2h169.8a2.739,2.739,0,0,0,2.739-2.739V208.637A2.739,2.739,0,0,0,172.536,205.9Z" transform="translate(0 -205.898)"/></g><g transform="translate(-8780 3799.128)"><path d="M45.859,205.9H23.687L0,229.585v.88A2.739,2.739,0,0,0,2.739,233.2H18.553Z" transform="translate(0 -205.898)" fill="#ffba00"/></g><g transform="translate(-8739.274 3799.128)"><path d="M141.137,233.2,168.444,205.9H146.271L118.965,233.2Z" transform="translate(-118.965 -205.898)" fill="#ffba00"/></g><g transform="translate(-8694.93 3799.128)"><path d="M270.674,233.2,297.981,205.9H275.808L248.5,233.2Z" transform="translate(-248.502 -205.898)" fill="#ffba00"/></g><g transform="translate(-8650.585 3799.128)"><path d="M378.039,233.2h22.172L423.9,209.517v-.88a2.739,2.739,0,0,0-2.739-2.739H405.345Z" transform="translate(-378.039 -205.898)" fill="#ffba00"/></g><g transform="translate(-8650.585 3799.128)"><g transform="translate(0 19.212)"><path d="M386.133,262.02l-8.094,8.094h22.172l8.094-8.094Z" transform="translate(-378.039 -262.02)" fill="#ffba00"/></g><g transform="translate(37.766)"><path d="M493.712,205.9h-5.355v11.713l8.094-8.094v-.88A2.739,2.739,0,0,0,493.712,205.9Z" transform="translate(-488.357 -205.898)" fill="#ffba00"/></g></g><g transform="translate(-8694.93 3818.341)"><path d="M256.6,262.02l-8.094,8.094h22.172l8.094-8.094Z" transform="translate(-248.502 -262.02)" fill="#ffba00"/></g><g transform="translate(-8739.274 3818.341)"><path d="M127.059,262.02l-8.094,8.094h22.172l8.094-8.094Z" transform="translate(-118.965 -262.02)" fill="#ffba00"/></g><g transform="translate(-8780 3818.341)"><path d="M4.475,262.02,0,266.495v.88a2.739,2.739,0,0,0,2.739,2.739H18.553l8.094-8.094Z" transform="translate(0 -262.02)" fill="#ffba00"/></g></g></svg>