<svg xmlns="http://www.w3.org/2000/svg" viewBox="0 0 1080 1080"><g id="a77c3860-d0d6-4922-a084-23991a30ee4e" data-name="Artboard 2"><path d="M876.31,1013.17H202.56c-39.57,0-73-24.44-78.13-57.13l-70-445.47h969.94L954.45,956C949.32,988.73,915.88,1013.17,876.31,1013.17Z" style="fill:#fff;stroke:#000;stroke-miterlimit:10;stroke-width:25px"/><path d="M50.69,490.47,202.43,335.93H886.7l142.87,154.82c7.12,7.71,1.37,19.82-9.4,19.82H59.83C48.87,510.57,43.2,498.1,50.69,490.47Z" style="fill:#fff;stroke:#000;stroke-miterlimit:10;stroke-width:25px"/><path d="M603,326.36,690.18,85.65c9.68-26.73,45-33.84,64.68-13L784.59,104a37.07,37.07,0,0,1,8.1,38.09L665.25,497" style="fill:none;stroke:#e25351;stroke-linecap:round;stroke-miterlimit:10;stroke-width:25px"/><path d="M475.88,326.36l-2.22-6.13-85-234.58c-9.68-26.73-45-33.84-64.68-13L294.29,104a37,37,0,0,0-8.1,38.09L413.63,497" style="fill:none;stroke:#e25351;stroke-linecap:round;stroke-miterlimit:10;stroke-width:25px"/><line x1="279.17" y1="516.47" x2="310.73" y2="1013.17" style="fill:none;stroke:#000;stroke-miterlimit:10;stroke-width:25px"/><line x1="804.75" y1="522.78" x2="773.19" y2="1019.48" style="fill:none;stroke:#000;stroke-miterlimit:10;stroke-width:25px"/><circle cx="668.59" cy="500.26" r="54.18" style="fill:#fff;stroke:#e25351;stroke-linecap:round;stroke-miterlimit:10;stroke-width:25px"/><circle cx="426.48" cy="500.26" r="54.18" style="fill:#fff;stroke:#e25351;stroke-linecap:round;stroke-miterlimit:10;stroke-width:25px"/><rect x="448.96" y="322.98" width="59.17" height="20.76"/><rect x="575.86" y="322.98" width="59.17" height="20.76"/><line x1="786.61" y1="682.1" x2="994.32" y2="682.1" style="fill:#fff;stroke:#000;stroke-miterlimit:10;stroke-width:25px"/><line x1="778.14" y1="861.79" x2="977.42" y2="861.79" style="fill:#fff;stroke:#000;stroke-miterlimit:10;stroke-width:25px"/><line x1="102.02" y1="862.1" x2="303.71" y2="862.1" style="fill:#fff;stroke:#000;stroke-miterlimit:10;stroke-width:25px"/><line x1="83.61" y1="682.1" x2="285.3" y2="682.1" style="fill:#fff;stroke:#000;stroke-miterlimit:10;stroke-width:25px"/><circle cx="540" cy="784.82" r="178.8" style="fill:#e25351"/><path d="M480.78,707.28a96.12,96.12,0,0,1,152.91,77.54" style="fill:none;stroke:#fff;stroke-linecap:round;stroke-linejoin:round;stroke-width:18px"/><path d="M596.56,860.71a96.11,96.11,0,0,1-155.1-75.89" style="fill:none;stroke:#fff;stroke-linecap:round;stroke-linejoin:round;stroke-width:18px"/><polyline points="409.76 806.65 440.36 758.4 480.78 806.65" style="fill:none;stroke:#fff;stroke-linecap:round;stroke-linejoin:round;stroke-width:18px"/><polyline points="599.22 758.4 629.82 806.65 670.24 758.4" style="fill:none;stroke:#fff;stroke-linecap:round;stroke-linejoin:round;stroke-width:18px"/></g></svg>