<svg xmlns="http://www.w3.org/2000/svg" width="108.508" height="84.347" viewBox="0 0 108.508 84.347"><path d="M217.068,149.259h-82.7c-3.322,0-6.013,3.083-6.013,6.885v70.577c0,3.8,2.691,6.885,6.013,6.885h82.7c3.32,0,6.013-3.083,6.013-6.885V156.144C223.081,152.342,220.388,149.259,217.068,149.259Zm0,6.885v50.078l-11.852-12.337a4.11,4.11,0,0,0-6.224.171l-12,13.731-23.652-32.344a4.154,4.154,0,0,0-6.877-.054l-22.094,29.4V156.144Zm-25.562,18.075c0-5.23,3.7-9.467,8.272-9.467s8.268,4.237,8.268,9.467-3.7,9.467-8.268,9.467S191.506,179.448,191.506,174.219Z" transform="translate(-128.359 -149.259)" fill="#e6e6e6"/><g transform="translate(73.567 35.301)" opacity="0.75"><g transform="translate(8.672)"><path d="M238.966,115.361a1.446,1.446,0,0,1-1.014-2.477l8.438-8.295,8.3,8.3a1.446,1.446,0,1,1-2.045,2.045l-6.276-6.275-6.392,6.284A1.441,1.441,0,0,1,238.966,115.361Z" transform="translate(-237.52 -104.589)" fill="#e25351"/><path d="M251.673,127.295a1.447,1.447,0,0,1-1.446-1.446V107.055a1.446,1.446,0,0,1,2.893,0v18.793A1.446,1.446,0,0,1,251.673,127.295Z" transform="translate(-242.875 -105.019)" fill="#e25351"/></g><path d="M253.673,147.56H226.114a3.587,3.587,0,0,1-3.583-3.583V133.965a1.446,1.446,0,0,1,2.893,0v10.012a.691.691,0,0,0,.69.69h27.559a.907.907,0,0,0,.907-.906v-9.8a1.446,1.446,0,0,1,2.893,0v9.8A3.8,3.8,0,0,1,253.673,147.56Z" transform="translate(-222.531 -116.36)" fill="#e25351"/></g></svg>