<svg xmlns="http://www.w3.org/2000/svg" viewBox="0 0 1080 1080"><g id="a6b1aa99-5879-4f39-9af7-9c06d7715110" data-name="Artboard 2"><rect x="187.92" y="403.45" width="784.14" height="559.42" rx="4.16" style="fill:#fff"/><path d="M963.54,975.15H196.43a20.82,20.82,0,0,1-20.79-20.8V412a20.82,20.82,0,0,1,20.79-20.8H963.54a20.82,20.82,0,0,1,20.8,20.8V954.35A20.82,20.82,0,0,1,963.54,975.15ZM200.19,950.59H959.78V415.73H200.19Z"/><rect x="117.43" y="330.32" width="925.11" height="130.59" rx="4.16" style="fill:#fff"/><path d="M1034,473.19H126a20.81,20.81,0,0,1-20.79-20.8V338.84A20.81,20.81,0,0,1,126,318.05H1034a20.82,20.82,0,0,1,20.8,20.79V452.39A20.82,20.82,0,0,1,1034,473.19ZM129.71,448.63h900.55v-106H129.71Z"/><path d="M962.88,330.32H192.79a14.37,14.37,0,0,1-12.63-21.24L280.38,124.64A14.39,14.39,0,0,1,293,117.13H862.65a14.36,14.36,0,0,1,12.63,7.51L975.51,309.08A14.37,14.37,0,0,1,962.88,330.32Z" style="fill:#fff"/><path d="M962.88,342.6H192.79a26.65,26.65,0,0,1-23.42-39.38L269.6,118.78A26.63,26.63,0,0,1,293,104.85H862.65a26.64,26.64,0,0,1,23.42,13.93L986.3,303.22a26.65,26.65,0,0,1-23.42,39.38ZM293,129.41a2.12,2.12,0,0,0-1.85,1.09L190.94,315a2.11,2.11,0,0,0,1.85,3.1H962.88a2.1,2.1,0,0,0,1.84-3.1L864.49,130.51a2.08,2.08,0,0,0-1.84-1.1Z"/><path d="M510.62,715.48H649.11a28.21,28.21,0,0,1,28.21,28.21V962.87a0,0,0,0,1,0,0H482.41a0,0,0,0,1,0,0V743.69A28.21,28.21,0,0,1,510.62,715.48Z" style="fill:#fff"/><path d="M689.6,975.15H470.13V773.21a70.1,70.1,0,0,1,70-70h79.44a70.09,70.09,0,0,1,70,70ZM494.69,950.59H665V773.21a45.5,45.5,0,0,0-45.45-45.45H540.15a45.51,45.51,0,0,0-45.46,45.45Z"/><circle cx="245.65" cy="447.61" r="208.07" style="fill:#fff"/><path d="M245.58,668.07a220.41,220.41,0,0,1-79.72-425.86c113.25-44,241.19,12.35,285.18,125.61h0C495,481.07,438.69,609,325.44,653A220.2,220.2,0,0,1,245.58,668.07Zm-.16-416.26a195.8,195.8,0,1,0,182.73,124.9C398.08,299.3,323.87,251.81,245.42,251.81Z"/><line x1="156.99" y1="655.73" x2="58.81" y2="866.16" style="fill:#fff"/><path d="M58.8,888.67a22.51,22.51,0,0,1-20.39-32l98.18-210.42a22.51,22.51,0,1,1,40.8,19L79.21,875.67A22.51,22.51,0,0,1,58.8,888.67Z"/><polygon points="390.58 447.61 373.34 476.6 376.32 510.19 348.18 528.78 336.29 560.35 302.88 564.95 278.47 588.22 246.38 577.81 214.29 588.22 189.88 564.94 156.47 560.35 144.58 528.78 116.43 510.19 119.42 476.6 102.18 447.61 119.42 418.62 116.43 385.03 144.58 366.43 156.47 334.87 189.88 330.27 214.29 307 246.38 317.41 278.47 307 302.88 330.27 336.29 334.87 348.18 366.43 376.32 385.03 373.34 418.62 390.58 447.61" style="fill:#e25351"/><polyline points="181.72 449.05 213.39 493.48 312.5 412.06" style="fill:none;stroke:#fff;stroke-linecap:round;stroke-miterlimit:10;stroke-width:9px"/></g></svg>