<svg xmlns="http://www.w3.org/2000/svg" width="135.426" height="111.311" viewBox="0 0 135.426 111.311"><g transform="translate(-117.387 -299.528)"><g transform="translate(117.387 311.475)"><path d="M177.357,149.259H131.68a3.586,3.586,0,0,0-3.321,3.8v38.983a3.586,3.586,0,0,0,3.321,3.8h45.676a3.587,3.587,0,0,0,3.321-3.8V153.062A3.587,3.587,0,0,0,177.357,149.259Zm0,3.8v27.66l-6.546-6.814a2.27,2.27,0,0,0-3.438.094l-6.626,7.584-13.064-17.865a2.3,2.3,0,0,0-3.8-.03l-12.2,16.237V153.062Zm-14.119,9.983c0-2.889,2.045-5.229,4.569-5.229s4.567,2.34,4.567,5.229-2.045,5.229-4.567,5.229S163.238,165.934,163.238,163.045Z" transform="translate(-128.359 -149.259)" fill="#e6e6e6"/><g transform="translate(40.634 19.498)" opacity="0.75"><g transform="translate(4.79)"><path d="M238.318,110.539a.8.8,0,0,1-.56-1.368l4.66-4.581,4.586,4.586a.8.8,0,0,1-1.13,1.13l-3.466-3.466-3.531,3.471A.8.8,0,0,1,238.318,110.539Z" transform="translate(-237.52 -104.589)" fill="#e25351"/><path d="M251.026,117.587a.8.8,0,0,1-.8-.8v-10.38a.8.8,0,0,1,1.6,0v10.38A.8.8,0,0,1,251.026,117.587Z" transform="translate(-246.166 -105.283)" fill="#e25351"/></g><path d="M239.732,140.827H224.51a1.981,1.981,0,0,1-1.979-1.979v-5.53a.8.8,0,1,1,1.6,0v5.53a.382.382,0,0,0,.381.381h15.222a.5.5,0,0,0,.5-.5v-5.411a.8.8,0,1,1,1.6,0v5.411A2.1,2.1,0,0,1,239.732,140.827Z" transform="translate(-222.531 -123.594)" fill="#e25351"/></g></g><g transform="translate(141.502 299.528)"><rect width="9.502" height="37.384" transform="translate(87.914 81.195) rotate(135)" fill="#bababa"/><path d="M7.759,0a7.759,7.759,0,0,1,7.759,7.759V44.742A7.759,7.759,0,0,1,7.759,52.5h0A7.759,7.759,0,0,1,0,44.742V7.759A7.759,7.759,0,0,1,7.759,0Z" transform="translate(111.311 100.338) rotate(135)" fill="#e25351"/><path d="M241.932,190.695a35.974,35.974,0,1,1,0,50.875A35.974,35.974,0,0,1,241.932,190.695ZM287.939,236.7a29.09,29.09,0,1,0-41.139,0A29.09,29.09,0,0,0,287.939,236.7Z" transform="translate(-231.395 -180.158)" fill="#bababa"/><path d="M294.645,243.408a29.09,29.09,0,1,0-41.139,0A29.09,29.09,0,0,0,294.645,243.408Z" transform="translate(-238.101 -186.864)" fill="#fff" opacity="0.2"/><ellipse cx="29.089" cy="29.089" rx="29.089" ry="29.089" transform="translate(14.235 70.9) rotate(-103.099)" fill="#ebf9ff" opacity="0.246"/><path d="M292.2,196.2a29.027,29.027,0,0,1,22.364,10.49A29.087,29.087,0,0,0,273.6,247.654,29.088,29.088,0,0,1,292.2,196.2Z" transform="translate(-256.224 -189.316)" opacity="0.1"/><g transform="translate(7.649 7.649)" opacity="0.3"><path d="M291.428,211.126a29.125,29.125,0,0,1,9.555,13.96L264.5,261.567a29.127,29.127,0,0,1-13.961-9.555Z" transform="translate(-244.9 -205.484)" fill="#fff"/><path d="M315.25,197.98a28.912,28.912,0,0,1,8.37,3.388L283.7,241.286a28.9,28.9,0,0,1-3.388-8.37Z" transform="translate(-280.314 -197.98)" fill="#fff"/></g><g transform="translate(90.034 96.419) rotate(-45)"><g transform="translate(0 0)"><path d="M2.037,0H0V1.71L.746.961A5.25,5.25,0,0,1,2.037,0Z" transform="translate(0 0)" fill="#fff"/><g transform="translate(0 0.223)"><path d="M7.019,2.741A2.612,2.612,0,0,0,6.222.8a2.771,2.771,0,0,0-3.9.007L0,3.135V4.264L2.884,1.37a1.942,1.942,0,0,1,1.4-.586A1.962,1.962,0,0,1,6.248,2.74h0a1.942,1.942,0,0,1-.583,1.4L2.835,6.981h.609c.175,0,.346-.008.515-.019L6.219,4.694A2.63,2.63,0,0,0,7.019,2.741Z" transform="translate(0 2.082)" fill="#fff"/><path d="M1.353,1.342,0,2.7V3.843L1.925,1.912A3.594,3.594,0,0,1,4.562.818,3.593,3.593,0,0,1,7.2,1.9a3.715,3.715,0,0,1,.032,5.254l-.021.022L5.641,8.754A4.557,4.557,0,0,0,9,4.422V4.395A4.445,4.445,0,0,0,6.155.278,4.613,4.613,0,0,0,4.56,0,4.411,4.411,0,0,0,1.353,1.342Z" transform="translate(0 0)" fill="#fff"/><path d="M5.443,1.177A1.123,1.123,0,0,0,5.1.353,1.159,1.159,0,0,0,3.457.326l-.03.03L0,3.8V4.9l3.981-4a.353.353,0,0,1,.564,0,.347.347,0,0,1-.01.554L.608,5.4H1.732L5.1,2.023A1.145,1.145,0,0,0,5.443,1.177Z" transform="translate(0 3.659)" fill="#fff"/></g></g></g></g></g></svg>