<svg xmlns="http://www.w3.org/2000/svg" width="42.737" height="42.738" viewBox="0 0 42.737 42.738"><path d="M163.334,234.382h-3.869a.675.675,0,0,0,0,1.35h3.869a.675.675,0,0,0,0-1.35Z" transform="translate(-145.536 -214.818)" fill="#e25351"/><path d="M402.191,465.324h3.869a.675.675,0,1,0,0-1.35h-3.869a.675.675,0,0,0,0,1.35Z" transform="translate(-368.001 -425.245)" fill="#e25351"/><path d="M144.574,64.347h3.869a.675.675,0,0,0,0-1.35h-3.869a.675.675,0,0,0,0,1.35Z" transform="translate(-131.887 -57.739)" fill="#e25351"/><path d="M163.334,261.329h-3.869a.675.675,0,0,0,0,1.35h3.869a.675.675,0,0,0,0-1.35Z" transform="translate(-145.536 -239.515)" fill="#e25351"/><path d="M159.464,434.065h3.869a.675.675,0,1,0,0-1.35h-3.869a.675.675,0,1,0,0,1.35Z" transform="translate(-145.535 -396.596)" fill="#e25351"/><path d="M159.464,461.012h3.869a.675.675,0,1,0,0-1.35h-3.869a.675.675,0,1,0,0,1.35Z" transform="translate(-145.535 -421.293)" fill="#e25351"/><path d="M41.552,33.471H36.833V26.317a.675.675,0,0,0-1.35,0v7.153H30.259a1.187,1.187,0,0,0-1.186,1.186v6.732H21.408a.108.108,0,0,1-.107-.107V16.575a.107.107,0,0,1,.107-.107h3.97v7.693a.675.675,0,0,0,1.093.529l1.921-1.518,1.921,1.518a.675.675,0,0,0,1.093-.529V16.468h3.97a.108.108,0,0,1,.108.107v7.493a.675.675,0,1,0,1.35,0V16.575a1.459,1.459,0,0,0-1.457-1.457H21.408c-.036,0-.072,0-.107.005V9.672a1.742,1.742,0,0,0-.239-.88,1.178,1.178,0,0,0,.239-.711v-6.9A1.187,1.187,0,0,0,20.115,0H8.822A1.187,1.187,0,0,0,7.636,1.186V7.917H1.754A1.756,1.756,0,0,0,0,9.672V24.248a1.744,1.744,0,0,0,.374,1.08A1.744,1.744,0,0,0,0,26.407V40.983a1.756,1.756,0,0,0,1.754,1.754H15.4a.675.675,0,0,0,0-1.35H1.754a.405.405,0,0,1-.4-.4V26.407a.405.405,0,0,1,.4-.4H7.636V33.7a.675.675,0,0,0,1.093.529l1.921-1.518,1.921,1.518a.675.675,0,0,0,1.093-.529V26h5.881a.405.405,0,0,1,.4.4V40.983a.405.405,0,0,1-.4.4H17.71a.675.675,0,1,0,0,1.35h1.836a1.744,1.744,0,0,0,.98-.3,1.447,1.447,0,0,0,.882.3H41.552a1.187,1.187,0,0,0,1.186-1.185v-6.9A1.187,1.187,0,0,0,41.552,33.471Zm-14.824-17h3.329v6.3l-1.246-.985a.675.675,0,0,0-.837,0l-1.246.985v-6.3ZM8.986,9.267h3.329v6.3l-1.246-.985a.675.675,0,0,0-.837,0l-1.246.985ZM12.315,32.3l-1.246-.985a.675.675,0,0,0-.837,0L8.986,32.3V26h3.329Zm7.636-15.726v7.672a.405.405,0,0,1-.4.4H1.754a.405.405,0,0,1-.4-.4V9.672a.405.405,0,0,1,.4-.4H7.636V16.96a.675.675,0,0,0,1.093.529l1.921-1.518,1.921,1.518a.675.675,0,0,0,1.093-.529V9.267h5.881a.405.405,0,0,1,.4.4v6.9Zm0-8.658H8.986V4.134H19.951Zm0-5.133H8.986V1.35H19.951Zm21.437,38.6H30.423V37.6H41.388v3.783Zm0-5.133H30.423V34.82H41.388v1.435Z" fill="#e25351"/></svg>