<svg
  xmlns="http://www.w3.org/2000/svg"
  xmlns:xlink="http://www.w3.org/1999/xlink"
  width="116.296"
  height="108.501"
  viewBox="0 0 116.296 108.501"
>
  <defs>
    <clipPath id="clip-path">
      <rect
        id="Rectangle_865"
        data-name="Rectangle 865"
        width="25.004"
        height="32.945"
        fill="#2b4d62"
      />
    </clipPath>
  </defs>
  <g id="Group_1212" data-name="Group 1212" transform="translate(0 0)">
    <g
      id="Group_1211"
      data-name="Group 1211"
      transform="translate(23.952 47.261)"
    >
      <rect
        id="Rectangle_861"
        data-name="Rectangle 861"
        width="92.344"
        height="60.3"
        rx="6.89"
        transform="translate(0 0.939)"
        fill="#313133"
      />
      <path
        id="Path_3540"
        data-name="Path 3540"
        d="M183.347,323.92v50.343a.281.281,0,0,1-.279.281H91.282a.28.28,0,0,1-.279-.281V323.92Z"
        transform="translate(-91.003 -323.92)"
        fill="#c9c9c9"
      />
      <g
        id="Group_1207"
        data-name="Group 1207"
        transform="translate(4.042 12.749)"
      >
        <rect
          id="Rectangle_862"
          data-name="Rectangle 862"
          width="25.004"
          height="32.945"
          fill="#2b4d62"
        />
        <g id="Group_1206" data-name="Group 1206" clip-path="url(#clip-path)">
          <path
            id="Path_3541"
            data-name="Path 3541"
            d="M113.056,451.1c0-2.095-.01-4.19.01-6.285a5.175,5.175,0,0,1,2.643-4.628,4.094,4.094,0,0,1,1.643-.591c.3-.036.377-.17.392-.44a2.645,2.645,0,0,1,1.167-2.044,2.91,2.91,0,0,1,1.789-.519c.476,0,.951-.007,1.427,0,.178,0,.217-.06.233-.233a1.019,1.019,0,0,0-.5-1.053,6.548,6.548,0,0,1-2.826-4.809c-.021-.184-.074-.259-.281-.28a2.278,2.278,0,0,1-2.2-2.243,2.251,2.251,0,0,1,1.949-2.35c.3-.041.368-.133.36-.416-.021-.69-.015-1.381,0-2.072a.385.385,0,0,0-.231-.391,3.986,3.986,0,0,1-2.056-3.129c-.086-.762.052-.934.848-1.031a2.849,2.849,0,0,1-.289-1.646.576.576,0,0,1,.628-.634c3.023,0,6.049-.067,9.07.027a6.271,6.271,0,0,1,5.793,4.886,7.387,7.387,0,0,1,.177,1.612c.015.815.01,1.631,0,2.446,0,.222.049.318.289.34a2.308,2.308,0,0,1,.186,4.55c-.2.043-.462,0-.579.116s-.086.379-.122.577a6.812,6.812,0,0,1-3.093,4.656c-.262.172-.159.4-.166.6-.016.471,0,.46.456.474a8.127,8.127,0,0,1,2.256.154,2.771,2.771,0,0,1,1.889,2.37.436.436,0,0,0,.421.491,5.2,5.2,0,0,1,4.261,5.17c.01,2.106.006,4.213.008,6.319h-1.155a.733.733,0,0,1-.094-.522c0-1.8.006-3.6-.005-5.4a4.623,4.623,0,0,0-.471-2.237,3.9,3.9,0,0,0-2.872-2.113.4.4,0,0,0-.434.191q-1.454,2.174-2.9,4.353a1.007,1.007,0,0,0-.126.587q0,2.327,0,4.653a.677.677,0,0,1-.094.488H129.3a.788.788,0,0,1-.1-.554q0-3.446,0-6.892a.9.9,0,0,0-.043-.411,6.053,6.053,0,0,1-5.1.728,7.664,7.664,0,0,1-1.525-.712.583.583,0,0,0-.059.39q0,3.449,0,6.9a.789.789,0,0,1-.1.555H121.21a.672.672,0,0,1-.091-.487c0-1.537-.006-3.074,0-4.611a1.39,1.39,0,0,0-.251-.823c-.9-1.33-1.782-2.67-2.674-4-.269-.4-.319-.422-.782-.311a3.839,3.839,0,0,0-1.437.66,4.29,4.29,0,0,0-1.669,3.619q0,2.717,0,5.434a.733.733,0,0,1-.1.521Z"
            transform="translate(-112.296 -408.927)"
            fill="#313133"
          />
          <path
            id="Path_3542"
            data-name="Path 3542"
            d="M192.987,538.852c.005-1.732.016-3.464.011-5.2a1.271,1.271,0,0,1,.23-.756q1.442-2.136,2.859-4.29a.337.337,0,0,1,.371-.153,4.16,4.16,0,0,1,3.263,2.682,5.282,5.282,0,0,1,.243,1.634q0,2.854,0,5.707c0,.124.013.247.02.371Z"
            transform="translate(-174.832 -496.684)"
            fill="#de541d"
          />
          <path
            id="Path_3543"
            data-name="Path 3543"
            d="M126.082,529.171a3.57,3.57,0,0,1,1.755-.728.322.322,0,0,1,.377.136q1.432,2.179,2.891,4.34a1.169,1.169,0,0,1,.2.694c0,1.74.007,3.481.012,5.221h-5.232a.623.623,0,0,1-.109-.451q0-4.379,0-8.759A.723.723,0,0,1,126.082,529.171Z"
            transform="translate(-122.408 -496.668)"
            fill="#de541d"
          />
          <path
            id="Path_3544"
            data-name="Path 3544"
            d="M163.244,539.984a7.425,7.425,0,0,0,1.938.24,5.946,5.946,0,0,0,3.293-1.112v8.08h-5.232a.622.622,0,0,1-.109-.45q0-3.154,0-6.309A.572.572,0,0,1,163.244,539.984Z"
            transform="translate(-151.475 -505.022)"
            fill="#e6e6e6"
          />
          <path
            id="Path_3545"
            data-name="Path 3545"
            d="M120.129,531.829q0,4.832.007,9.665h-1.767c.007-.86.009-1.719.021-2.579.02-1.426-.088-2.856.056-4.276A3.741,3.741,0,0,1,120.129,531.829Z"
            transform="translate(-116.454 -499.325)"
            fill="#cc441a"
          />
          <path
            id="Path_3546"
            data-name="Path 3546"
            d="M157.535,539.927q0,3.6,0,7.207h-1.7v-8.1A7.46,7.46,0,0,0,157.535,539.927Z"
            transform="translate(-145.766 -504.966)"
            fill="#d4d3d2"
          />
          <path
            id="Path_3547"
            data-name="Path 3547"
            d="M152.6,449.924a5,5,0,0,0,.537-1.411c.025-.155.1-.17.229-.17q3.327,0,6.653,0c.136,0,.191.039.22.181a4.726,4.726,0,0,0,2.019,2.9c.119.086.221.155.221.339a24.732,24.732,0,0,1-.221,4.092,5.712,5.712,0,0,1-5.953,4.641,4.96,4.96,0,0,1-2.064-.562,6.288,6.288,0,0,1-.62-1.239,9.654,9.654,0,0,1-1-3.151,12.7,12.7,0,0,1-.106-1.756.388.388,0,0,1,.117-.338c.144-.071.288-.005.432,0a1.062,1.062,0,0,0,1.08-.552.951.951,0,0,0-.084-1.111,1.016,1.016,0,0,0-1.131-.416c-.134.033-.288.12-.387-.07A3.1,3.1,0,0,1,152.6,449.924Z"
            transform="translate(-143.153 -434.01)"
            fill="#fed0b9"
          />
          <path
            id="Path_3548"
            data-name="Path 3548"
            d="M137.893,423.936l.372-.015a.579.579,0,1,0,.07-1.155,2.1,2.1,0,0,1-.4-.072,1.118,1.118,0,0,1-.561-.417c-.133-.185-.28-.419-.19-.619.063-.14.33-.05.5-.051,2.5,0,5-.011,7.5,0a5.21,5.21,0,0,1,5.021,3.582c.078.234.12.479.188.717.071.253.006.34-.278.335-1.063-.018-2.126-.008-3.19-.009-.09,0-.18-.009-.27-.014a60.335,60.335,0,0,1-8.35-2.04C138.158,424.134,137.966,424.13,137.893,423.936Z"
            transform="translate(-131.155 -413.073)"
            fill="#ffbe4f"
          />
          <path
            id="Path_3549"
            data-name="Path 3549"
            d="M161.552,513.634a12.4,12.4,0,0,0,.06,1.317,1.679,1.679,0,0,0,.908,1.193c.152.078.224.157.2.329a1.315,1.315,0,0,0,0,.406,1.207,1.207,0,0,1-.653,1.286,4.721,4.721,0,0,1-6.054-.353.609.609,0,0,1-.237-.56,1.474,1.474,0,0,0,0-.3.842.842,0,0,1,.454-.977,1.494,1.494,0,0,0,.7-1.352c.012-.327.01-.655.014-.983.137-.094.264-.017.385.033a4.822,4.822,0,0,0,3.83,0C161.288,513.617,161.415,513.54,161.552,513.634Z"
            transform="translate(-145.718 -485.056)"
            fill="#fed0ba"
          />
          <path
            id="Path_3550"
            data-name="Path 3550"
            d="M146.836,455.611l.013,1.46c.021.124-.081.172-.147.243a1.08,1.08,0,0,0,.067,1.6c.073.067.166.119.171.235-.164.133-.091.317-.089.476a11.9,11.9,0,0,0,.266,2.509,13.547,13.547,0,0,0,.853,2.274,6.571,6.571,0,0,1,.509,1.21,5.334,5.334,0,0,1-3.038-3.674,18.069,18.069,0,0,1-.3-4.553.235.235,0,0,1,.125-.217A6.441,6.441,0,0,0,146.836,455.611Z"
            transform="translate(-137.389 -439.697)"
            fill="#f3b6a0"
          />
          <path
            id="Path_3551"
            data-name="Path 3551"
            d="M136.176,432.345a56.976,56.976,0,0,0,5.492,1.534c1.047.254,2.106.46,3.16.689a.522.522,0,0,1,.117.059c-1.356.005-2.712.013-4.068.014-1.108,0-2.216.01-3.323-.013a2.875,2.875,0,0,1-2.562-2.033c-.065-.228-.014-.278.2-.268C135.521,432.344,135.849,432.34,136.176,432.345Z"
            transform="translate(-129.438 -421.481)"
            fill="#f39b60"
          />
          <path
            id="Path_3552"
            data-name="Path 3552"
            d="M188.851,520.6c0-1.25,0-2.4,0-3.552,0-.547-.091-.651-.635-.77-.352-.077-.5-.276-.525-.684-.03-.589-.03-.589.548-.589.43,0,.859,0,1.289,0a1.626,1.626,0,0,1,1.42,2.442c-.577.969-1.24,1.886-1.866,2.826C189.026,520.364,188.966,520.444,188.851,520.6Z"
            transform="translate(-170.68 -486.165)"
            fill="#dd541d"
          />
          <path
            id="Path_3553"
            data-name="Path 3553"
            d="M140.711,518.476c-.21-.306-.433-.6-.627-.921a1.6,1.6,0,0,1-.061-1.7A1.567,1.567,0,0,1,141.5,515c.509,0,1.018.009,1.526,0,.21-.005.288.063.265.271-.017.157,0,.318-.02.473a.6.6,0,0,1-.526.538c-.514.1-.617.226-.617.75,0,1.108,0,2.216,0,3.325,0,.023.1.271-.1.084-.085-.843-.015-1.687-.041-2.531,0-.139.076-.339-.065-.4s-.248.118-.37.192A4.064,4.064,0,0,0,140.711,518.476Z"
            transform="translate(-133.226 -486.157)"
            fill="#cc441a"
          />
          <path
            id="Path_3554"
            data-name="Path 3554"
            d="M165.79,509.069a11.452,11.452,0,0,1-1.781.493,5.038,5.038,0,0,1-2.4-.351l-.414-.142v-1.3a6.74,6.74,0,0,0,4.6-.015Z"
            transform="translate(-149.956 -480.491)"
            fill="#f3b6a0"
          />
          <path
            id="Path_3555"
            data-name="Path 3555"
            d="M143.961,526.65a1.072,1.072,0,0,1,.506-.653,3.511,3.511,0,0,1,.853-.552c0,.869.005,1.7,0,2.534a1.285,1.285,0,0,1-.048.632Z"
            transform="translate(-136.476 -494.331)"
            fill="#db531d"
          />
          <path
            id="Path_3556"
            data-name="Path 3556"
            d="M135.7,465.584a8.067,8.067,0,0,0,.007.847c.03.288-.076.315-.317.254a1.142,1.142,0,0,1-.856-1.119,1.155,1.155,0,0,1,.863-1.118c.185-.042.3-.02.286.22-.018.3,0,.611,0,.916Z"
            transform="translate(-129.102 -446.596)"
            fill="#f1b59f"
          />
          <path
            id="Path_3557"
            data-name="Path 3557"
            d="M203.725,466.679c0-.728,0-1.446,0-2.163,0-.22.179-.131.277-.111a1.152,1.152,0,0,1,.022,2.226C203.929,466.655,203.828,466.663,203.725,466.679Z"
            transform="translate(-183.232 -446.549)"
            fill="#faceb8"
          />
          <path
            id="Path_3558"
            data-name="Path 3558"
            d="M194.6,450.067a3.786,3.786,0,0,1-1.015-1.5c-.068-.193-.01-.251.2-.258.82-.026.82-.033.82.8Z"
            transform="translate(-175.277 -433.976)"
            fill="#ffbb4e"
          />
          <path
            id="Path_3559"
            data-name="Path 3559"
            d="M145.162,450.008c0-.586.005-1.082,0-1.578,0-.166.052-.219.215-.2a2.619,2.619,0,0,0,.507.022c.3-.023.378.058.259.355A3.977,3.977,0,0,1,145.162,450.008Z"
            transform="translate(-137.413 -433.919)"
            fill="#f0995f"
          />
          <path
            id="Path_3560"
            data-name="Path 3560"
            d="M195.75,551.92c0-.543-.005-1.086,0-1.628,0-.417.216-.651.569-.653a.577.577,0,0,1,.59.642q.011,1.662,0,3.325a.611.611,0,0,1-.581.665.591.591,0,0,1-.579-.654C195.746,553.051,195.751,552.485,195.75,551.92Z"
            transform="translate(-176.992 -513.259)"
            fill="#313133"
          />
          <path
            id="Path_3561"
            data-name="Path 3561"
            d="M143.566,551.95c0,.554,0,1.108,0,1.662a.591.591,0,0,1-.576.657.611.611,0,0,1-.584-.661q-.009-1.663,0-3.325a.577.577,0,0,1,.587-.645c.353,0,.567.235.572.65C143.571,550.842,143.566,551.4,143.566,551.95Z"
            transform="translate(-135.255 -513.258)"
            fill="#313133"
          />
          <path
            id="Path_3562"
            data-name="Path 3562"
            d="M149.616,462.541a1.569,1.569,0,0,1-.12-2.754,1.588,1.588,0,0,1,2.238.844,1.456,1.456,0,0,1-.321,1.531,1.5,1.5,0,0,1-1.54.448C149.786,462.592,149.7,462.565,149.616,462.541Z"
            transform="translate(-140.212 -442.848)"
            fill="#fed0b9"
          />
          <path
            id="Path_3563"
            data-name="Path 3563"
            d="M109.539,544.1v7.1h3.379v-7.1"
            transform="translate(-109.546 -508.922)"
            fill="#fed0ba"
            stroke="#313133"
            stroke-miterlimit="10"
            stroke-width="5"
          />
          <rect
            id="Rectangle_863"
            data-name="Rectangle 863"
            width="0.91"
            height="0.505"
            transform="translate(2.614 34.668)"
            fill="#fed0ba"
            stroke="#1a1818"
            stroke-miterlimit="10"
            stroke-width="2"
          />
          <rect
            id="Rectangle_864"
            data-name="Rectangle 864"
            width="3.379"
            height="4.701"
            transform="translate(-0.007 37.568)"
            fill="#de541d"
            stroke="#313133"
            stroke-miterlimit="10"
            stroke-width="5"
          />
        </g>
      </g>
      <rect
        id="Rectangle_866"
        data-name="Rectangle 866"
        width="22.792"
        height="1.2"
        transform="translate(5.451 47.01)"
        fill="#313133"
      />
      <text
        id="PASPOR"
        transform="translate(11.234 8.901)"
        fill="#0063b0"
        font-size="1"
        font-family="Gotham-Bold, Gotham"
        font-weight="700"
      ><tspan x="0" y="0">PASPOR</tspan></text>
      <text
        id="PASSPORT"
        transform="translate(12.298 11.244)"
        fill="#0063b0"
        font-size="1"
        font-family="Gotham-BoldItalic, Gotham"
        font-weight="700"
        font-style="italic"
      ><tspan x="0" y="0">PASSPORT</tspan></text>
      <rect
        id="Rectangle_867"
        data-name="Rectangle 867"
        width="27.156"
        height="1.741"
        transform="translate(32.594 1.612)"
        fill="#313133"
      />
      <rect
        id="Rectangle_868"
        data-name="Rectangle 868"
        width="19.08"
        height="1.148"
        transform="translate(36.632 3.959)"
        fill="#313133"
      />
      <rect
        id="Rectangle_869"
        data-name="Rectangle 869"
        width="7.403"
        height="0.814"
        transform="translate(33.395 8.85)"
        fill="#313133"
      />
      <rect
        id="Rectangle_870"
        data-name="Rectangle 870"
        width="8.932"
        height="0.814"
        transform="translate(33.395 18.235)"
        fill="#313133"
      />
      <rect
        id="Rectangle_871"
        data-name="Rectangle 871"
        width="11.564"
        height="0.814"
        transform="translate(33.395 24.107)"
        fill="#313133"
      />
      <rect
        id="Rectangle_872"
        data-name="Rectangle 872"
        width="7.403"
        height="0.814"
        transform="translate(33.395 29.98)"
        fill="#313133"
      />
      <rect
        id="Rectangle_873"
        data-name="Rectangle 873"
        width="14.572"
        height="0.814"
        transform="translate(74.273 29.98)"
        fill="#313133"
      />
      <rect
        id="Rectangle_874"
        data-name="Rectangle 874"
        width="19.52"
        height="0.814"
        transform="translate(69.325 35.446)"
        fill="#313133"
      />
      <rect
        id="Rectangle_875"
        data-name="Rectangle 875"
        width="14.572"
        height="0.814"
        transform="translate(74.273 40.912)"
        fill="#313133"
      />
      <rect
        id="Rectangle_876"
        data-name="Rectangle 876"
        width="12.647"
        height="0.814"
        transform="translate(33.395 35.853)"
        fill="#313133"
      />
      <rect
        id="Rectangle_877"
        data-name="Rectangle 877"
        width="3.281"
        height="0.814"
        transform="translate(33.395 41.069)"
        fill="#313133"
      />
      <rect
        id="Rectangle_878"
        data-name="Rectangle 878"
        width="15.003"
        height="0.814"
        transform="translate(50.139 8.85)"
        fill="#313133"
      />
      <rect
        id="Rectangle_879"
        data-name="Rectangle 879"
        width="11.698"
        height="0.814"
        transform="translate(75.594 8.85)"
        fill="#313133"
      />
      <rect
        id="Rectangle_880"
        data-name="Rectangle 880"
        width="1.125"
        height="1.536"
        transform="translate(33.756 10.179)"
        fill="#313133"
      />
      <rect
        id="Rectangle_881"
        data-name="Rectangle 881"
        width="13.472"
        height="1.536"
        transform="translate(33.395 19.552)"
        fill="#313133"
      />
      <rect
        id="Rectangle_882"
        data-name="Rectangle 882"
        width="8.015"
        height="1.536"
        transform="translate(33.395 26.055)"
        fill="#313133"
      />
      <rect
        id="Rectangle_883"
        data-name="Rectangle 883"
        width="7.08"
        height="1.536"
        transform="translate(33.395 31.797)"
        fill="#313133"
      />
      <rect
        id="Rectangle_884"
        data-name="Rectangle 884"
        width="7.403"
        height="0.814"
        transform="translate(55.06 29.98)"
        fill="#313133"
      />
      <rect
        id="Rectangle_885"
        data-name="Rectangle 885"
        width="2.094"
        height="1.536"
        transform="translate(55.781 31.797)"
        fill="#313133"
      />
      <rect
        id="Rectangle_886"
        data-name="Rectangle 886"
        width="2.094"
        height="1.536"
        transform="translate(59.811 31.797)"
        fill="#313133"
      />
      <rect
        id="Rectangle_887"
        data-name="Rectangle 887"
        width="5.894"
        height="1.536"
        transform="translate(82.745 31.797)"
        fill="#313133"
      />
      <rect
        id="Rectangle_888"
        data-name="Rectangle 888"
        width="5.894"
        height="1.536"
        transform="translate(82.745 42.845)"
        fill="#313133"
      />
      <rect
        id="Rectangle_889"
        data-name="Rectangle 889"
        width="7.557"
        height="1.536"
        transform="translate(81.081 37.449)"
        fill="#313133"
      />
      <rect
        id="Rectangle_890"
        data-name="Rectangle 890"
        width="9.236"
        height="1.536"
        transform="translate(33.395 37.539)"
        fill="#313133"
      />
      <rect
        id="Rectangle_891"
        data-name="Rectangle 891"
        width="12.935"
        height="1.536"
        transform="translate(33.395 43.311)"
        fill="#313133"
      />
      <rect
        id="Rectangle_892"
        data-name="Rectangle 892"
        width="2.703"
        height="1.536"
        transform="translate(50.914 10.179)"
        fill="#313133"
      />
      <g
        id="Group_1208"
        data-name="Group 1208"
        transform="translate(75.837 10.314)"
      >
        <path
          id="Path_3564"
          data-name="Path 3564"
          d="M440.447,372.412v.088a.391.391,0,0,1-.118.285.384.384,0,0,1-.284.119h-.614v-1.588h.614a.386.386,0,0,1,.284.118.391.391,0,0,1,.118.286v.085a.4.4,0,0,1-.138.3A.4.4,0,0,1,440.447,372.412Zm-.205-.609v-.082a.2.2,0,0,0-.059-.143.192.192,0,0,0-.142-.06h-.409V372h.409a.2.2,0,0,0,.2-.2Zm0,.7v-.084a.2.2,0,0,0-.059-.143.192.192,0,0,0-.142-.06h-.406v.488h.406a.2.2,0,0,0,.2-.2Z"
          transform="translate(-439.431 -371.314)"
          fill="#1a1818"
        />
        <path
          id="Path_3565"
          data-name="Path 3565"
          d="M446.211,372.7v-.49a.192.192,0,0,1,.06-.142.2.2,0,0,1,.143-.059v-.592a.1.1,0,0,1,.029-.071.1.1,0,0,1,.072-.029h.409a.1.1,0,0,1,.1.1v.592a.2.2,0,0,1,.141.058.19.19,0,0,1,.06.143v.492a.2.2,0,0,1-.2.2h-.609a.191.191,0,0,1-.144-.062A.2.2,0,0,1,446.211,372.7Zm.2-.49v.492h.609v-.492Zm.2-.692v.491h.208v-.491Z"
          transform="translate(-444.735 -371.314)"
          fill="#1a1818"
        />
        <path
          id="Path_3566"
          data-name="Path 3566"
          d="M453.954,372.891h-.1a.1.1,0,0,1-.07-.029.1.1,0,0,1-.03-.071.1.1,0,0,1,.1-.1v-.663h-.707a.1.1,0,0,1-.1-.1v-.521a.1.1,0,0,1,.1-.1h.808a.1.1,0,0,1,.1.1v1.385a.1.1,0,0,1-.1.1Zm-.1-1.067v-.316h-.61v.316Z"
          transform="translate(-450.083 -371.305)"
          fill="#1a1818"
        />
        <path
          id="Path_3567"
          data-name="Path 3567"
          d="M460.7,372.9h-.913v-.693a.2.2,0,0,1,.059-.143.192.192,0,0,1,.142-.06h.609v-.489h-.717a.1.1,0,0,1-.072-.029.1.1,0,0,1,0-.142.1.1,0,0,1,.072-.029h.717a.2.2,0,0,1,.144.059.193.193,0,0,1,.06.141v.489a.2.2,0,0,1-.06.144.2.2,0,0,1-.144.059h-.609v.492h.712a.1.1,0,0,1,.07.029.1.1,0,0,1-.07.172Z"
          transform="translate(-455.353 -371.314)"
          fill="#1a1818"
        />
        <path
          id="Path_3568"
          data-name="Path 3568"
          d="M466.6,372.7v-1.2a.2.2,0,0,1,.194-.193h.626a.183.183,0,0,1,.134.057.188.188,0,0,1,.057.136v1.2a.194.194,0,0,1-.194.194h-.624a.193.193,0,0,1-.194-.194Zm.813-.007v-1.184H466.8v1.184Z"
          transform="translate(-460.683 -371.305)"
          fill="#1a1818"
        />
        <path
          id="Path_3569"
          data-name="Path 3569"
          d="M473.387,371.514v-.086a.1.1,0,0,1,.1-.1h.911v.617a.1.1,0,0,1-.037.081l-.369.315v.467a.1.1,0,0,1-.029.072.1.1,0,0,1-.071.031.1.1,0,0,1-.073-.03.1.1,0,0,1-.03-.07V372.3a.111.111,0,0,1,.036-.089l.371-.313v-.373h-.607a.1.1,0,0,1-.1.086.1.1,0,0,1-.1-.1Z"
          transform="translate(-465.996 -371.322)"
          fill="#1a1818"
        />
        <path
          id="Path_3570"
          data-name="Path 3570"
          d="M480.267,372.7h.308v-1.184h-.3a.1.1,0,1,1,0-.2h.5V372.7h.2v-.418a.1.1,0,1,1,.2,0v.519a.1.1,0,0,1-.1.1h-.81a.094.094,0,0,1-.071-.031.1.1,0,0,1-.029-.072.093.093,0,0,1,.029-.069A.1.1,0,0,1,480.267,372.7Z"
          transform="translate(-471.301 -371.314)"
          fill="#1a1818"
        />
        <path
          id="Path_3571"
          data-name="Path 3571"
          d="M487.868,372.9h-.913v-.693a.2.2,0,0,1,.059-.143.192.192,0,0,1,.142-.06h.609v-.489h-.717a.1.1,0,0,1-.072-.029.1.1,0,0,1,0-.142.1.1,0,0,1,.072-.029h.717a.2.2,0,0,1,.143.059.193.193,0,0,1,.06.141v.489a.2.2,0,0,1-.2.2h-.609v.492h.712a.1.1,0,0,1,.07.029.1.1,0,0,1-.07.172Z"
          transform="translate(-476.606 -371.314)"
          fill="#1a1818"
        />
      </g>
      <g
        id="Group_1209"
        data-name="Group 1209"
        transform="translate(4.99 52.649)"
      >
        <path
          id="Path_3572"
          data-name="Path 3572"
          d="M113.928,565.814h.43a.513.513,0,0,1,.39.154.6.6,0,0,1,.146.426.629.629,0,0,1-.146.435.489.489,0,0,1-.382.163h-.241v.959h-.2Zm.2.962h.214q.347,0,.347-.366a.394.394,0,0,0-.094-.274.312.312,0,0,0-.243-.1h-.223Z"
          transform="translate(-113.928 -565.814)"
          fill="#fff"
          stroke="#fff"
          stroke-miterlimit="10"
          stroke-width="0.25"
        />
        <path
          id="Path_3573"
          data-name="Path 3573"
          d="M122.008,568.616l-.9-.68v-.182l.9-.674v.218l-.72.554.72.54Z"
          transform="translate(-119.547 -566.805)"
          fill="#fff"
          stroke="#fff"
          stroke-miterlimit="10"
          stroke-width="0.25"
        />
        <path
          id="Path_3574"
          data-name="Path 3574"
          d="M128.967,567.951h-.219l-.43-.875-.426.875h-.218l.541-1.089-.539-1.048h.225l.417.846.42-.846h.216l-.531,1.048Z"
          transform="translate(-124.682 -565.814)"
          fill="#fff"
          stroke="#fff"
          stroke-miterlimit="10"
          stroke-width="0.25"
        />
        <path
          id="Path_3575"
          data-name="Path 3575"
          d="M136.308,567.951h-.218l-.43-.875-.426.875h-.218l.541-1.089-.539-1.048h.225l.417.846.42-.846h.216l-.531,1.048Z"
          transform="translate(-130.426 -565.814)"
          fill="#fff"
          stroke="#fff"
          stroke-miterlimit="10"
          stroke-width="0.25"
        />
        <path
          id="Path_3576"
          data-name="Path 3576"
          d="M143.65,567.951h-.219l-.429-.875-.426.875h-.218l.541-1.089-.539-1.048h.225l.417.846.42-.846h.216l-.531,1.048Z"
          transform="translate(-136.17 -565.814)"
          fill="#fff"
          stroke="#fff"
          stroke-miterlimit="10"
          stroke-width="0.25"
        />
        <path
          id="Path_3577"
          data-name="Path 3577"
          d="M150.992,567.951h-.219l-.429-.875-.426.875H149.7l.541-1.089-.539-1.048h.226l.417.846.42-.846h.216l-.53,1.048Z"
          transform="translate(-141.914 -565.814)"
          fill="#fff"
          stroke="#fff"
          stroke-miterlimit="10"
          stroke-width="0.25"
        />
        <path
          id="Path_3578"
          data-name="Path 3578"
          d="M158.334,567.951h-.219l-.43-.875-.426.875h-.218l.541-1.089-.539-1.048h.225l.417.846.42-.846h.216l-.53,1.048Z"
          transform="translate(-147.657 -565.814)"
          fill="#fff"
          stroke="#fff"
          stroke-miterlimit="10"
          stroke-width="0.25"
        />
        <path
          id="Path_3579"
          data-name="Path 3579"
          d="M165.675,567.951h-.219l-.43-.875-.426.875h-.218l.541-1.089-.539-1.048h.226l.417.846.42-.846h.216l-.53,1.048Z"
          transform="translate(-153.4 -565.814)"
          fill="#fff"
          stroke="#fff"
          stroke-miterlimit="10"
          stroke-width="0.25"
        />
        <path
          id="Path_3580"
          data-name="Path 3580"
          d="M173.016,567.951H172.8l-.43-.875-.426.875h-.218l.541-1.089-.539-1.048h.225l.417.846.42-.846H173l-.531,1.048Z"
          transform="translate(-159.144 -565.814)"
          fill="#fff"
          stroke="#fff"
          stroke-miterlimit="10"
          stroke-width="0.25"
        />
        <path
          id="Path_3581"
          data-name="Path 3581"
          d="M180.741,568.616l-.9-.68v-.182l.9-.674v.218l-.72.554.72.54Z"
          transform="translate(-165.496 -566.805)"
          fill="#fff"
          stroke="#fff"
          stroke-miterlimit="10"
          stroke-width="0.25"
        />
        <path
          id="Path_3582"
          data-name="Path 3582"
          d="M188.083,568.616l-.9-.68v-.182l.9-.674v.218l-.72.554.72.54Z"
          transform="translate(-171.24 -566.805)"
          fill="#fff"
          stroke="#fff"
          stroke-miterlimit="10"
          stroke-width="0.25"
        />
        <path
          id="Path_3583"
          data-name="Path 3583"
          d="M195.042,567.951h-.219l-.43-.875-.426.875h-.218l.541-1.089-.539-1.048h.225l.417.846.42-.846h.216l-.53,1.048Z"
          transform="translate(-176.376 -565.814)"
          fill="#fff"
          stroke="#fff"
          stroke-miterlimit="10"
          stroke-width="0.25"
        />
        <path
          id="Path_3584"
          data-name="Path 3584"
          d="M202.384,567.951h-.219l-.43-.875-.426.875h-.218l.541-1.089-.539-1.048h.226l.417.846.42-.846h.216l-.531,1.048Z"
          transform="translate(-182.12 -565.814)"
          fill="#fff"
          stroke="#fff"
          stroke-miterlimit="10"
          stroke-width="0.25"
        />
        <path
          id="Path_3585"
          data-name="Path 3585"
          d="M209.725,567.951h-.218l-.43-.875-.426.875h-.218l.541-1.089-.539-1.048h.226l.417.846.42-.846h.216l-.531,1.048Z"
          transform="translate(-187.864 -565.814)"
          fill="#fff"
          stroke="#fff"
          stroke-miterlimit="10"
          stroke-width="0.25"
        />
        <path
          id="Path_3586"
          data-name="Path 3586"
          d="M217.067,567.951h-.219l-.429-.875-.426.875h-.218l.541-1.089-.539-1.048H216l.417.846.42-.846h.216l-.531,1.048Z"
          transform="translate(-193.608 -565.814)"
          fill="#fff"
          stroke="#fff"
          stroke-miterlimit="10"
          stroke-width="0.25"
        />
        <path
          id="Path_3587"
          data-name="Path 3587"
          d="M224.409,567.951h-.219l-.429-.875-.426.875h-.218l.541-1.089-.539-1.048h.225l.417.846.42-.846h.216l-.53,1.048Z"
          transform="translate(-199.352 -565.814)"
          fill="#fff"
          stroke="#fff"
          stroke-miterlimit="10"
          stroke-width="0.25"
        />
        <path
          id="Path_3588"
          data-name="Path 3588"
          d="M231.751,567.951h-.219l-.43-.875-.426.875h-.218l.541-1.089-.539-1.048h.225l.417.846.42-.846h.216l-.53,1.048Z"
          transform="translate(-205.095 -565.814)"
          fill="#fff"
          stroke="#fff"
          stroke-miterlimit="10"
          stroke-width="0.25"
        />
        <path
          id="Path_3589"
          data-name="Path 3589"
          d="M239.476,568.616l-.9-.68v-.182l.9-.674v.218l-.72.554.72.54Z"
          transform="translate(-211.447 -566.805)"
          fill="#fff"
          stroke="#fff"
          stroke-miterlimit="10"
          stroke-width="0.25"
        />
        <path
          id="Path_3590"
          data-name="Path 3590"
          d="M246.817,568.616l-.9-.68v-.182l.9-.674v.218l-.72.554.72.54Z"
          transform="translate(-217.191 -566.805)"
          fill="#fff"
          stroke="#fff"
          stroke-miterlimit="10"
          stroke-width="0.25"
        />
        <path
          id="Path_3591"
          data-name="Path 3591"
          d="M254.158,568.616l-.9-.68v-.182l.9-.674v.218l-.72.554.72.54Z"
          transform="translate(-222.934 -566.805)"
          fill="#fff"
          stroke="#fff"
          stroke-miterlimit="10"
          stroke-width="0.25"
        />
        <path
          id="Path_3592"
          data-name="Path 3592"
          d="M261.5,568.616l-.9-.68v-.182l.9-.674v.218l-.72.554.72.54Z"
          transform="translate(-228.678 -566.805)"
          fill="#fff"
          stroke="#fff"
          stroke-miterlimit="10"
          stroke-width="0.25"
        />
        <path
          id="Path_3593"
          data-name="Path 3593"
          d="M268.842,568.616l-.9-.68v-.182l.9-.674v.218l-.72.554.72.54Z"
          transform="translate(-234.422 -566.805)"
          fill="#fff"
          stroke="#fff"
          stroke-miterlimit="10"
          stroke-width="0.25"
        />
        <path
          id="Path_3594"
          data-name="Path 3594"
          d="M276.184,568.616l-.9-.68v-.182l.9-.674v.218l-.72.554.72.54Z"
          transform="translate(-240.166 -566.805)"
          fill="#fff"
          stroke="#fff"
          stroke-miterlimit="10"
          stroke-width="0.25"
        />
        <path
          id="Path_3595"
          data-name="Path 3595"
          d="M283.525,568.616l-.9-.68v-.182l.9-.674v.218l-.72.554.72.54Z"
          transform="translate(-245.909 -566.805)"
          fill="#fff"
          stroke="#fff"
          stroke-miterlimit="10"
          stroke-width="0.25"
        />
        <path
          id="Path_3596"
          data-name="Path 3596"
          d="M290.867,568.616l-.9-.68v-.182l.9-.674v.218l-.72.554.72.54Z"
          transform="translate(-251.653 -566.805)"
          fill="#fff"
          stroke="#fff"
          stroke-miterlimit="10"
          stroke-width="0.25"
        />
        <path
          id="Path_3597"
          data-name="Path 3597"
          d="M298.209,568.616l-.9-.68v-.182l.9-.674v.218l-.72.554.72.54Z"
          transform="translate(-257.397 -566.805)"
          fill="#fff"
          stroke="#fff"
          stroke-miterlimit="10"
          stroke-width="0.25"
        />
        <path
          id="Path_3598"
          data-name="Path 3598"
          d="M305.551,568.616l-.9-.68v-.182l.9-.674v.218l-.72.554.72.54Z"
          transform="translate(-263.141 -566.805)"
          fill="#fff"
          stroke="#fff"
          stroke-miterlimit="10"
          stroke-width="0.25"
        />
        <path
          id="Path_3599"
          data-name="Path 3599"
          d="M312.893,568.616l-.9-.68v-.182l.9-.674v.218l-.72.554.72.54Z"
          transform="translate(-268.885 -566.805)"
          fill="#fff"
          stroke="#fff"
          stroke-miterlimit="10"
          stroke-width="0.25"
        />
        <path
          id="Path_3600"
          data-name="Path 3600"
          d="M320.234,568.616l-.9-.68v-.182l.9-.674v.218l-.72.554.72.54Z"
          transform="translate(-274.628 -566.805)"
          fill="#fff"
          stroke="#fff"
          stroke-miterlimit="10"
          stroke-width="0.25"
        />
        <path
          id="Path_3601"
          data-name="Path 3601"
          d="M327.576,568.616l-.9-.68v-.182l.9-.674v.218l-.72.554.72.54Z"
          transform="translate(-280.372 -566.805)"
          fill="#fff"
          stroke="#fff"
          stroke-miterlimit="10"
          stroke-width="0.25"
        />
        <path
          id="Path_3602"
          data-name="Path 3602"
          d="M334.918,568.616l-.9-.68v-.182l.9-.674v.218l-.72.554.72.54Z"
          transform="translate(-286.116 -566.805)"
          fill="#fff"
          stroke="#fff"
          stroke-miterlimit="10"
          stroke-width="0.25"
        />
        <path
          id="Path_3603"
          data-name="Path 3603"
          d="M342.259,568.616l-.9-.68v-.182l.9-.674v.218l-.72.554.72.54Z"
          transform="translate(-291.859 -566.805)"
          fill="#fff"
          stroke="#fff"
          stroke-miterlimit="10"
          stroke-width="0.25"
        />
        <path
          id="Path_3604"
          data-name="Path 3604"
          d="M349.6,568.616l-.9-.68v-.182l.9-.674v.218l-.72.554.72.54Z"
          transform="translate(-297.603 -566.805)"
          fill="#fff"
          stroke="#fff"
          stroke-miterlimit="10"
          stroke-width="0.25"
        />
        <path
          id="Path_3605"
          data-name="Path 3605"
          d="M356.942,568.616l-.9-.68v-.182l.9-.674v.218l-.72.554.72.54Z"
          transform="translate(-303.346 -566.805)"
          fill="#fff"
          stroke="#fff"
          stroke-miterlimit="10"
          stroke-width="0.25"
        />
        <path
          id="Path_3606"
          data-name="Path 3606"
          d="M364.284,568.616l-.9-.68v-.182l.9-.674v.218l-.72.554.72.54Z"
          transform="translate(-309.09 -566.805)"
          fill="#fff"
          stroke="#fff"
          stroke-miterlimit="10"
          stroke-width="0.25"
        />
        <path
          id="Path_3607"
          data-name="Path 3607"
          d="M371.626,568.616l-.9-.68v-.182l.9-.674v.218l-.72.554.72.54Z"
          transform="translate(-314.834 -566.805)"
          fill="#fff"
          stroke="#fff"
          stroke-miterlimit="10"
          stroke-width="0.25"
        />
        <path
          id="Path_3608"
          data-name="Path 3608"
          d="M378.968,568.616l-.9-.68v-.182l.9-.674v.218l-.72.554.72.54Z"
          transform="translate(-320.578 -566.805)"
          fill="#fff"
          stroke="#fff"
          stroke-miterlimit="10"
          stroke-width="0.25"
        />
        <path
          id="Path_3609"
          data-name="Path 3609"
          d="M386.31,568.616l-.9-.68v-.182l.9-.674v.218l-.72.554.72.54Z"
          transform="translate(-326.322 -566.805)"
          fill="#fff"
          stroke="#fff"
          stroke-miterlimit="10"
          stroke-width="0.25"
        />
        <path
          id="Path_3610"
          data-name="Path 3610"
          d="M393.651,568.616l-.9-.68v-.182l.9-.674v.218l-.72.554.72.54Z"
          transform="translate(-332.066 -566.805)"
          fill="#fff"
          stroke="#fff"
          stroke-miterlimit="10"
          stroke-width="0.25"
        />
        <path
          id="Path_3611"
          data-name="Path 3611"
          d="M400.993,568.616l-.9-.68v-.182l.9-.674v.218l-.72.554.72.54Z"
          transform="translate(-337.81 -566.805)"
          fill="#fff"
          stroke="#fff"
          stroke-miterlimit="10"
          stroke-width="0.25"
        />
        <path
          id="Path_3612"
          data-name="Path 3612"
          d="M408.335,568.616l-.9-.68v-.182l.9-.674v.218l-.72.554.72.54Z"
          transform="translate(-343.554 -566.805)"
          fill="#fff"
          stroke="#fff"
          stroke-miterlimit="10"
          stroke-width="0.25"
        />
        <path
          id="Path_3613"
          data-name="Path 3613"
          d="M415.677,568.616l-.9-.68v-.182l.9-.674v.218l-.72.554.72.54Z"
          transform="translate(-349.298 -566.805)"
          fill="#fff"
          stroke="#fff"
          stroke-miterlimit="10"
          stroke-width="0.25"
        />
        <path
          id="Path_3614"
          data-name="Path 3614"
          d="M423.018,568.616l-.9-.68v-.182l.9-.674v.218l-.72.554.72.54Z"
          transform="translate(-355.041 -566.805)"
          fill="#fff"
          stroke="#fff"
          stroke-miterlimit="10"
          stroke-width="0.25"
        />
        <path
          id="Path_3615"
          data-name="Path 3615"
          d="M430.359,568.616l-.9-.68v-.182l.9-.674v.218l-.72.554.72.54Z"
          transform="translate(-360.784 -566.805)"
          fill="#fff"
          stroke="#fff"
          stroke-miterlimit="10"
          stroke-width="0.25"
        />
        <path
          id="Path_3616"
          data-name="Path 3616"
          d="M437.7,568.616l-.9-.68v-.182l.9-.674v.218l-.72.554.72.54Z"
          transform="translate(-366.528 -566.805)"
          fill="#fff"
          stroke="#fff"
          stroke-miterlimit="10"
          stroke-width="0.25"
        />
        <path
          id="Path_3617"
          data-name="Path 3617"
          d="M445.043,568.616l-.9-.68v-.182l.9-.674v.218l-.72.554.72.54Z"
          transform="translate(-372.272 -566.805)"
          fill="#fff"
          stroke="#fff"
          stroke-miterlimit="10"
          stroke-width="0.25"
        />
        <path
          id="Path_3618"
          data-name="Path 3618"
          d="M452.385,568.616l-.9-.68v-.182l.9-.674v.218l-.72.554.72.54Z"
          transform="translate(-378.016 -566.805)"
          fill="#fff"
          stroke="#fff"
          stroke-miterlimit="10"
          stroke-width="0.25"
        />
        <path
          id="Path_3619"
          data-name="Path 3619"
          d="M459.727,568.616l-.9-.68v-.182l.9-.674v.218l-.72.554.72.54Z"
          transform="translate(-383.76 -566.805)"
          fill="#fff"
          stroke="#fff"
          stroke-miterlimit="10"
          stroke-width="0.25"
        />
        <path
          id="Path_3620"
          data-name="Path 3620"
          d="M467.068,568.616l-.9-.68v-.182l.9-.674v.218l-.72.554.72.54Z"
          transform="translate(-389.503 -566.805)"
          fill="#fff"
          stroke="#fff"
          stroke-miterlimit="10"
          stroke-width="0.25"
        />
        <path
          id="Path_3621"
          data-name="Path 3621"
          d="M474.41,568.616l-.9-.68v-.182l.9-.674v.218l-.72.554.72.54Z"
          transform="translate(-395.247 -566.805)"
          fill="#fff"
          stroke="#fff"
          stroke-miterlimit="10"
          stroke-width="0.25"
        />
        <path
          id="Path_3622"
          data-name="Path 3622"
          d="M481.752,568.616l-.9-.68v-.182l.9-.674v.218l-.72.554.72.54Z"
          transform="translate(-400.991 -566.805)"
          fill="#fff"
          stroke="#fff"
          stroke-miterlimit="10"
          stroke-width="0.25"
        />
        <path
          id="Path_3623"
          data-name="Path 3623"
          d="M489.094,568.616l-.9-.68v-.182l.9-.674v.218l-.72.554.72.54Z"
          transform="translate(-406.735 -566.805)"
          fill="#fff"
          stroke="#fff"
          stroke-miterlimit="10"
          stroke-width="0.25"
        />
        <path
          id="Path_3624"
          data-name="Path 3624"
          d="M496.435,568.616l-.9-.68v-.182l.9-.674v.218l-.72.554.72.54Z"
          transform="translate(-412.478 -566.805)"
          fill="#fff"
          stroke="#fff"
          stroke-miterlimit="10"
          stroke-width="0.25"
        />
      </g>
      <g
        id="Group_1210"
        data-name="Group 1210"
        transform="translate(4.896 56.685)"
      >
        <path
          id="Path_3625"
          data-name="Path 3625"
          d="M114.343,585.51a.452.452,0,0,1-.7-.011.677.677,0,0,1-.144-.447.855.855,0,0,1,.138-.494.415.415,0,0,1,.355-.2.458.458,0,0,1,.414.306,1.775,1.775,0,0,1,.149.777,1.7,1.7,0,0,1-.175.8.524.524,0,0,1-.467.333.721.721,0,0,1-.341-.076l.031-.22a.725.725,0,0,0,.3.077.359.359,0,0,0,.319-.244A1.359,1.359,0,0,0,114.343,585.51Zm0-.214a1.288,1.288,0,0,0-.092-.505q-.092-.217-.242-.217a.248.248,0,0,0-.217.127.6.6,0,0,0-.081.329.526.526,0,0,0,.082.305.251.251,0,0,0,.216.119.427.427,0,0,0,.319-.142Z"
          transform="translate(-113.497 -584.356)"
          fill="#fff"
          stroke="#fff"
          stroke-miterlimit="10"
          stroke-width="0.25"
        />
        <path
          id="Path_3626"
          data-name="Path 3626"
          d="M121.473,585.376a.518.518,0,0,1,.268.217.661.661,0,0,1,.1.357.675.675,0,0,1-.154.466.512.512,0,0,1-.768,0,.679.679,0,0,1-.152-.462.65.65,0,0,1,.1-.357.536.536,0,0,1,.275-.22.418.418,0,0,1-.225-.175.52.52,0,0,1-.085-.29.594.594,0,0,1,.13-.373.412.412,0,0,1,.342-.168.432.432,0,0,1,.348.167.573.573,0,0,1,.138.374.511.511,0,0,1-.087.287A.431.431,0,0,1,121.473,585.376Zm-.175.109a.452.452,0,0,0-.329.456.466.466,0,0,0,.1.313.3.3,0,0,0,.234.118.292.292,0,0,0,.235-.116.479.479,0,0,0,.1-.314.542.542,0,0,0-.066-.269A.455.455,0,0,0,121.3,585.485Zm0-.212a.424.424,0,0,0,.058-.018.354.354,0,0,0,.088-.045.343.343,0,0,0,.068-.068.357.357,0,0,0,.05-.1.372.372,0,0,0,.019-.123.357.357,0,0,0-.083-.242.256.256,0,0,0-.2-.1.246.246,0,0,0-.2.1.362.362,0,0,0-.082.239.388.388,0,0,0,.029.156.325.325,0,0,0,.073.107.317.317,0,0,0,.1.064A.285.285,0,0,0,121.3,585.273Z"
          transform="translate(-119.181 -584.367)"
          fill="#fff"
          stroke="#fff"
          stroke-miterlimit="10"
          stroke-width="0.25"
        />
        <path
          id="Path_3627"
          data-name="Path 3627"
          d="M129.01,586.2H128.8v.494h-.2V586.2h-.737v-.189l.668-1.453h.265v1.426h.209Zm-.406-.217V584.8l-.537,1.181Z"
          transform="translate(-124.739 -584.515)"
          fill="#fff"
          stroke="#fff"
          stroke-miterlimit="10"
          stroke-width="0.25"
        />
        <path
          id="Path_3628"
          data-name="Path 3628"
          d="M136.6,586.547h-.931v-.18q.354-.5.46-.668a1.845,1.845,0,0,0,.172-.356,1.106,1.106,0,0,0,.066-.371.426.426,0,0,0-.086-.282.3.3,0,0,0-.241-.1.826.826,0,0,0-.319.092l-.028-.214a.8.8,0,0,1,.379-.1.458.458,0,0,1,.365.161.639.639,0,0,1,.138.431,1.072,1.072,0,0,1-.071.382,1.946,1.946,0,0,1-.183.363q-.112.174-.434.624h.713Z"
          transform="translate(-130.846 -584.367)"
          fill="#fff"
          stroke="#fff"
          stroke-miterlimit="10"
          stroke-width="0.25"
        />
        <path
          id="Path_3629"
          data-name="Path 3629"
          d="M143.986,584.736l-.671,1.959h-.2l.661-1.92h-.793v-.217h1Z"
          transform="translate(-136.564 -584.515)"
          fill="#fff"
          stroke="#fff"
          stroke-miterlimit="10"
          stroke-width="0.25"
        />
        <path
          id="Path_3630"
          data-name="Path 3630"
          d="M150.927,585.4a.479.479,0,0,1,.249.2.585.585,0,0,1,.093.325.678.678,0,0,1-.174.473.538.538,0,0,1-.411.192.612.612,0,0,1-.361-.112l.038-.2a.647.647,0,0,0,.33.1.341.341,0,0,0,.262-.12.444.444,0,0,0,.109-.31.412.412,0,0,0-.116-.3.418.418,0,0,0-.308-.116h-.052v-.2h.014a.434.434,0,0,0,.3-.11.381.381,0,0,0,.12-.3.319.319,0,0,0-.086-.237.323.323,0,0,0-.238-.086.618.618,0,0,0-.293.089l-.027-.214a.656.656,0,0,1,.329-.094.5.5,0,0,1,.374.151.53.53,0,0,1,.147.387.559.559,0,0,1-.089.3.386.386,0,0,1-.215.178Z"
          transform="translate(-142.308 -584.367)"
          fill="#fff"
          stroke="#fff"
          stroke-miterlimit="10"
          stroke-width="0.25"
        />
        <path
          id="Path_3631"
          data-name="Path 3631"
          d="M158.377,586.2h-.209v.494h-.2V586.2h-.737v-.189l.668-1.453h.265v1.426h.209Zm-.406-.217V584.8l-.538,1.181Z"
          transform="translate(-147.714 -584.515)"
          fill="#fff"
          stroke="#fff"
          stroke-miterlimit="10"
          stroke-width="0.25"
        />
        <path
          id="Path_3632"
          data-name="Path 3632"
          d="M165.523,585.376a.518.518,0,0,1,.268.217.661.661,0,0,1,.1.357.674.674,0,0,1-.154.466.512.512,0,0,1-.768,0,.678.678,0,0,1-.152-.462.65.65,0,0,1,.1-.357.536.536,0,0,1,.275-.22.417.417,0,0,1-.225-.175.52.52,0,0,1-.085-.29.594.594,0,0,1,.13-.373.411.411,0,0,1,.342-.168.432.432,0,0,1,.348.167.574.574,0,0,1,.137.374.511.511,0,0,1-.086.287A.432.432,0,0,1,165.523,585.376Zm-.175.109a.452.452,0,0,0-.329.456.465.465,0,0,0,.1.313.3.3,0,0,0,.234.118.292.292,0,0,0,.235-.116.479.479,0,0,0,.1-.314.544.544,0,0,0-.066-.269A.455.455,0,0,0,165.347,585.485Zm0-.212a.446.446,0,0,0,.058-.018.358.358,0,0,0,.088-.045.336.336,0,0,0,.068-.068.35.35,0,0,0,.051-.1.378.378,0,0,0,.019-.123.357.357,0,0,0-.083-.242.256.256,0,0,0-.2-.1.247.247,0,0,0-.2.1.362.362,0,0,0-.082.239.383.383,0,0,0,.029.156.321.321,0,0,0,.073.107.317.317,0,0,0,.1.064A.285.285,0,0,0,165.347,585.273Z"
          transform="translate(-153.643 -584.367)"
          fill="#fff"
          stroke="#fff"
          stroke-miterlimit="10"
          stroke-width="0.25"
        />
        <path
          id="Path_3633"
          data-name="Path 3633"
          d="M173.077,585.51a.451.451,0,0,1-.345.162.446.446,0,0,1-.358-.173.678.678,0,0,1-.143-.447.855.855,0,0,1,.138-.494.415.415,0,0,1,.355-.2.457.457,0,0,1,.414.306,1.775,1.775,0,0,1,.149.777,1.706,1.706,0,0,1-.175.8.524.524,0,0,1-.468.333.722.722,0,0,1-.341-.076l.031-.22a.725.725,0,0,0,.3.077.36.36,0,0,0,.319-.244A1.362,1.362,0,0,0,173.077,585.51Zm-.005-.214a1.288,1.288,0,0,0-.092-.505q-.092-.217-.242-.217a.247.247,0,0,0-.217.127.6.6,0,0,0-.081.329.526.526,0,0,0,.082.305.251.251,0,0,0,.215.119.427.427,0,0,0,.319-.142Z"
          transform="translate(-159.447 -584.356)"
          fill="#fff"
          stroke="#fff"
          stroke-miterlimit="10"
          stroke-width="0.25"
        />
        <path
          id="Path_3634"
          data-name="Path 3634"
          d="M180.741,587.36l-.9-.68V586.5l.9-.674v.218l-.72.554.72.54Z"
          transform="translate(-165.403 -585.504)"
          fill="#fff"
          stroke="#fff"
          stroke-miterlimit="10"
          stroke-width="0.25"
        />
        <path
          id="Path_3635"
          data-name="Path 3635"
          d="M188,586.547h-.931v-.18q.354-.5.459-.668a1.832,1.832,0,0,0,.172-.356,1.107,1.107,0,0,0,.066-.371.426.426,0,0,0-.086-.282.3.3,0,0,0-.241-.1.827.827,0,0,0-.319.092l-.028-.214a.8.8,0,0,1,.379-.1.458.458,0,0,1,.365.161.638.638,0,0,1,.139.431,1.077,1.077,0,0,1-.071.382,1.947,1.947,0,0,1-.183.363q-.112.174-.434.624H188Z"
          transform="translate(-171.052 -584.367)"
          fill="#fff"
          stroke="#fff"
          stroke-miterlimit="10"
          stroke-width="0.25"
        />
        <path
          id="Path_3636"
          data-name="Path 3636"
          d="M195.1,585.51a.452.452,0,0,1-.7-.011.678.678,0,0,1-.143-.447.855.855,0,0,1,.138-.494.415.415,0,0,1,.355-.2.457.457,0,0,1,.414.306,1.775,1.775,0,0,1,.149.777,1.706,1.706,0,0,1-.175.8.524.524,0,0,1-.467.333.723.723,0,0,1-.341-.076l.031-.22a.724.724,0,0,0,.3.077.359.359,0,0,0,.319-.244A1.362,1.362,0,0,0,195.1,585.51Zm-.005-.214a1.288,1.288,0,0,0-.092-.505q-.093-.217-.243-.217a.247.247,0,0,0-.217.127.6.6,0,0,0-.081.329.526.526,0,0,0,.082.305.251.251,0,0,0,.215.119.427.427,0,0,0,.319-.142Z"
          transform="translate(-176.678 -584.356)"
          fill="#fff"
          stroke="#fff"
          stroke-miterlimit="10"
          stroke-width="0.25"
        />
        <path
          id="Path_3637"
          data-name="Path 3637"
          d="M202.318,585.4a.479.479,0,0,1,.248.2.585.585,0,0,1,.094.325.678.678,0,0,1-.174.473.537.537,0,0,1-.41.192.612.612,0,0,1-.361-.112l.038-.2a.647.647,0,0,0,.33.1.341.341,0,0,0,.262-.12.444.444,0,0,0,.109-.31.412.412,0,0,0-.116-.3.418.418,0,0,0-.308-.116h-.052v-.2h.015a.434.434,0,0,0,.3-.11.382.382,0,0,0,.12-.3.318.318,0,0,0-.087-.237.323.323,0,0,0-.237-.086.617.617,0,0,0-.293.089l-.027-.214a.656.656,0,0,1,.329-.094.5.5,0,0,1,.374.151.53.53,0,0,1,.147.387.561.561,0,0,1-.089.3.387.387,0,0,1-.215.178Z"
          transform="translate(-182.513 -584.367)"
          fill="#fff"
          stroke="#fff"
          stroke-miterlimit="10"
          stroke-width="0.25"
        />
        <path
          id="Path_3638"
          data-name="Path 3638"
          d="M209.573,585.376a.518.518,0,0,1,.268.217.661.661,0,0,1,.1.357.675.675,0,0,1-.154.466.512.512,0,0,1-.768,0,.678.678,0,0,1-.152-.462.65.65,0,0,1,.1-.357.536.536,0,0,1,.275-.22.418.418,0,0,1-.225-.175.521.521,0,0,1-.084-.29.6.6,0,0,1,.13-.373.412.412,0,0,1,.342-.168.432.432,0,0,1,.347.167.573.573,0,0,1,.138.374.512.512,0,0,1-.086.287A.431.431,0,0,1,209.573,585.376Zm-.175.109a.452.452,0,0,0-.329.456.465.465,0,0,0,.1.313.3.3,0,0,0,.234.118.292.292,0,0,0,.235-.116.479.479,0,0,0,.1-.314.544.544,0,0,0-.066-.269A.455.455,0,0,0,209.4,585.485Zm0-.212a.439.439,0,0,0,.057-.018.355.355,0,0,0,.089-.045.342.342,0,0,0,.068-.068.35.35,0,0,0,.051-.1.378.378,0,0,0,.019-.123.358.358,0,0,0-.083-.242.256.256,0,0,0-.2-.1.246.246,0,0,0-.2.1.362.362,0,0,0-.082.239.384.384,0,0,0,.029.156.322.322,0,0,0,.073.107.317.317,0,0,0,.1.064A.285.285,0,0,0,209.4,585.273Z"
          transform="translate(-188.106 -584.367)"
          fill="#fff"
          stroke="#fff"
          stroke-miterlimit="10"
          stroke-width="0.25"
        />
        <path
          id="Path_3639"
          data-name="Path 3639"
          d="M216.669,584.37a.451.451,0,0,1,.414.292,1.878,1.878,0,0,1,.145.818,1.931,1.931,0,0,1-.14.809.44.44,0,0,1-.831.009,1.867,1.867,0,0,1-.145-.818,1.93,1.93,0,0,1,.141-.811A.448.448,0,0,1,216.669,584.37Zm0,2a.283.283,0,0,0,.263-.213,2.715,2.715,0,0,0,0-1.356.283.283,0,0,0-.263-.211q-.175,0-.262.216a2.683,2.683,0,0,0,0,1.348A.283.283,0,0,0,216.669,586.37Zm0-1.117a.158.158,0,0,1,.128.066.253.253,0,0,1,.052.161.275.275,0,0,1-.053.169.156.156,0,0,1-.127.07.153.153,0,0,1-.125-.07.275.275,0,0,1-.052-.169.254.254,0,0,1,.051-.162A.155.155,0,0,1,216.664,585.253Z"
          transform="translate(-193.777 -584.367)"
          fill="#fff"
          stroke="#fff"
          stroke-miterlimit="10"
          stroke-width="0.25"
        />
        <path
          id="Path_3640"
          data-name="Path 3640"
          d="M224.257,585.376a.518.518,0,0,1,.268.217.661.661,0,0,1,.1.357.675.675,0,0,1-.154.466.512.512,0,0,1-.768,0,.678.678,0,0,1-.152-.462.652.652,0,0,1,.1-.357.536.536,0,0,1,.275-.22.418.418,0,0,1-.225-.175.52.52,0,0,1-.085-.29.594.594,0,0,1,.13-.373.412.412,0,0,1,.342-.168.432.432,0,0,1,.348.167.573.573,0,0,1,.138.374.511.511,0,0,1-.087.287A.43.43,0,0,1,224.257,585.376Zm-.175.109a.452.452,0,0,0-.329.456.465.465,0,0,0,.1.313.3.3,0,0,0,.234.118.292.292,0,0,0,.235-.116.479.479,0,0,0,.1-.314.544.544,0,0,0-.066-.269A.456.456,0,0,0,224.081,585.485Zm0-.212a.425.425,0,0,0,.058-.018.354.354,0,0,0,.088-.045.343.343,0,0,0,.068-.068.351.351,0,0,0,.05-.1.371.371,0,0,0,.019-.123.357.357,0,0,0-.083-.242.255.255,0,0,0-.2-.1.246.246,0,0,0-.2.1.362.362,0,0,0-.082.239.384.384,0,0,0,.029.156.309.309,0,0,0,.174.171A.285.285,0,0,0,224.081,585.273Z"
          transform="translate(-199.593 -584.367)"
          fill="#fff"
          stroke="#fff"
          stroke-miterlimit="10"
          stroke-width="0.25"
        />
        <path
          id="Path_3641"
          data-name="Path 3641"
          d="M231.352,584.37a.45.45,0,0,1,.413.292,1.875,1.875,0,0,1,.145.818,1.936,1.936,0,0,1-.14.809.44.44,0,0,1-.831.009,1.87,1.87,0,0,1-.145-.818,1.926,1.926,0,0,1,.141-.811A.448.448,0,0,1,231.352,584.37Zm0,2a.283.283,0,0,0,.263-.213,2.72,2.72,0,0,0,0-1.356.283.283,0,0,0-.263-.211q-.175,0-.262.216a2.676,2.676,0,0,0,0,1.348A.283.283,0,0,0,231.352,586.37Zm-.005-1.117a.158.158,0,0,1,.128.066.253.253,0,0,1,.052.161.275.275,0,0,1-.053.169.155.155,0,0,1-.127.07.153.153,0,0,1-.125-.07.276.276,0,0,1-.052-.169.255.255,0,0,1,.051-.162A.155.155,0,0,1,231.347,585.253Z"
          transform="translate(-205.264 -584.367)"
          fill="#fff"
          stroke="#fff"
          stroke-miterlimit="10"
          stroke-width="0.25"
        />
        <path
          id="Path_3642"
          data-name="Path 3642"
          d="M238.478,584.559h.334a.621.621,0,0,1,.533.285,1.342,1.342,0,0,1,.2.784,1.322,1.322,0,0,1-.2.788.62.62,0,0,1-.522.279h-.342Zm.2,1.92h.139a.431.431,0,0,0,.382-.225,1.46,1.46,0,0,0,0-1.25.43.43,0,0,0-.381-.228h-.139Z"
          transform="translate(-211.275 -584.515)"
          fill="#fff"
          stroke="#fff"
          stroke-miterlimit="10"
          stroke-width="0.25"
        />
        <path
          id="Path_3643"
          data-name="Path 3643"
          d="M246.036,584.37a.451.451,0,0,1,.414.292,1.878,1.878,0,0,1,.145.818,1.931,1.931,0,0,1-.14.809.44.44,0,0,1-.831.009,1.87,1.87,0,0,1-.145-.818,1.93,1.93,0,0,1,.141-.811A.449.449,0,0,1,246.036,584.37Zm0,2a.283.283,0,0,0,.263-.213,2.715,2.715,0,0,0,0-1.356.282.282,0,0,0-.263-.211q-.175,0-.262.216a2.683,2.683,0,0,0,0,1.348A.283.283,0,0,0,246.036,586.37Zm0-1.117a.158.158,0,0,1,.128.066.253.253,0,0,1,.052.161.276.276,0,0,1-.053.169.156.156,0,0,1-.127.07.153.153,0,0,1-.125-.07.277.277,0,0,1-.052-.169.255.255,0,0,1,.051-.162A.154.154,0,0,1,246.031,585.253Z"
          transform="translate(-216.752 -584.367)"
          fill="#fff"
          stroke="#fff"
          stroke-miterlimit="10"
          stroke-width="0.25"
        />
        <path
          id="Path_3644"
          data-name="Path 3644"
          d="M253.836,585.51a.452.452,0,0,1-.7-.011.677.677,0,0,1-.143-.447.856.856,0,0,1,.137-.494.415.415,0,0,1,.355-.2.457.457,0,0,1,.414.306,1.775,1.775,0,0,1,.149.777,1.706,1.706,0,0,1-.174.8.524.524,0,0,1-.468.333.722.722,0,0,1-.341-.076l.031-.22a.725.725,0,0,0,.3.077.36.36,0,0,0,.319-.244A1.362,1.362,0,0,0,253.836,585.51Zm0-.214a1.288,1.288,0,0,0-.092-.505q-.092-.217-.242-.217a.247.247,0,0,0-.217.127.6.6,0,0,0-.081.329.526.526,0,0,0,.082.305.251.251,0,0,0,.215.119.427.427,0,0,0,.319-.142Z"
          transform="translate(-222.629 -584.356)"
          fill="#fff"
          stroke="#fff"
          stroke-miterlimit="10"
          stroke-width="0.25"
        />
        <path
          id="Path_3645"
          data-name="Path 3645"
          d="M260.719,584.37a.45.45,0,0,1,.413.292,1.875,1.875,0,0,1,.145.818,1.933,1.933,0,0,1-.14.809.44.44,0,0,1-.831.009,1.867,1.867,0,0,1-.145-.818,1.927,1.927,0,0,1,.141-.811A.448.448,0,0,1,260.719,584.37Zm0,2a.283.283,0,0,0,.263-.213,2.722,2.722,0,0,0,0-1.356.283.283,0,0,0-.263-.211q-.175,0-.262.216a2.677,2.677,0,0,0,0,1.348A.283.283,0,0,0,260.719,586.37Zm0-1.117a.158.158,0,0,1,.128.066.252.252,0,0,1,.052.161.274.274,0,0,1-.053.169.155.155,0,0,1-.127.07.153.153,0,0,1-.126-.07.277.277,0,0,1-.052-.169.255.255,0,0,1,.051-.162A.155.155,0,0,1,260.714,585.253Z"
          transform="translate(-228.239 -584.367)"
          fill="#fff"
          stroke="#fff"
          stroke-miterlimit="10"
          stroke-width="0.25"
        />
        <path
          id="Path_3646"
          data-name="Path 3646"
          d="M268.519,585.51a.452.452,0,0,1-.7-.011.678.678,0,0,1-.143-.447.854.854,0,0,1,.138-.494.415.415,0,0,1,.355-.2.457.457,0,0,1,.414.306,1.775,1.775,0,0,1,.149.777,1.706,1.706,0,0,1-.175.8.524.524,0,0,1-.467.333.723.723,0,0,1-.341-.076l.031-.22a.724.724,0,0,0,.3.077.359.359,0,0,0,.319-.244A1.362,1.362,0,0,0,268.519,585.51Zm-.005-.214a1.288,1.288,0,0,0-.092-.505q-.093-.217-.243-.217a.247.247,0,0,0-.217.127.6.6,0,0,0-.081.329.526.526,0,0,0,.082.305.251.251,0,0,0,.216.119.427.427,0,0,0,.319-.142Z"
          transform="translate(-234.116 -584.356)"
          fill="#fff"
          stroke="#fff"
          stroke-miterlimit="10"
          stroke-width="0.25"
        />
        <path
          id="Path_3647"
          data-name="Path 3647"
          d="M275.735,585.4a.479.479,0,0,1,.248.2.585.585,0,0,1,.094.325.678.678,0,0,1-.174.473.537.537,0,0,1-.41.192.612.612,0,0,1-.361-.112l.038-.2a.647.647,0,0,0,.33.1.341.341,0,0,0,.262-.12.444.444,0,0,0,.109-.31.412.412,0,0,0-.116-.3.418.418,0,0,0-.308-.116h-.052v-.2h.015a.434.434,0,0,0,.3-.11.382.382,0,0,0,.12-.3.318.318,0,0,0-.087-.237.323.323,0,0,0-.237-.086.617.617,0,0,0-.293.089l-.027-.214a.656.656,0,0,1,.329-.094.5.5,0,0,1,.374.151.53.53,0,0,1,.147.387.562.562,0,0,1-.089.3.387.387,0,0,1-.215.178Z"
          transform="translate(-239.951 -584.367)"
          fill="#fff"
          stroke="#fff"
          stroke-miterlimit="10"
          stroke-width="0.25"
        />
        <path
          id="Path_3648"
          data-name="Path 3648"
          d="M283.088,586.128a.725.725,0,0,1-.122.451.424.424,0,0,1-.357.158.671.671,0,0,1-.373-.109l.059-.2a.58.58,0,0,0,.315.089.241.241,0,0,0,.215-.1.568.568,0,0,0,.066-.31v-1.551h.2Z"
          transform="translate(-245.509 -584.515)"
          fill="#fff"
          stroke="#fff"
          stroke-miterlimit="10"
          stroke-width="0.25"
        />
        <path
          id="Path_3649"
          data-name="Path 3649"
          d="M289.87,584.559h.334a.621.621,0,0,1,.533.285,1.343,1.343,0,0,1,.2.784,1.323,1.323,0,0,1-.2.788.62.62,0,0,1-.522.279h-.342Zm.2,1.92h.139a.431.431,0,0,0,.382-.225,1.458,1.458,0,0,0,0-1.25.43.43,0,0,0-.381-.228h-.139Z"
          transform="translate(-251.482 -584.515)"
          fill="#fff"
          stroke="#fff"
          stroke-miterlimit="10"
          stroke-width="0.25"
        />
        <path
          id="Path_3650"
          data-name="Path 3650"
          d="M297.674,585.376a.518.518,0,0,1,.268.217.661.661,0,0,1,.1.357.675.675,0,0,1-.154.466.512.512,0,0,1-.768,0,.678.678,0,0,1-.152-.462.652.652,0,0,1,.1-.357.536.536,0,0,1,.275-.22.417.417,0,0,1-.225-.175.519.519,0,0,1-.085-.29.594.594,0,0,1,.13-.373.412.412,0,0,1,.342-.168.432.432,0,0,1,.348.167.573.573,0,0,1,.138.374.511.511,0,0,1-.087.287A.43.43,0,0,1,297.674,585.376Zm-.175.109a.452.452,0,0,0-.329.456.465.465,0,0,0,.1.313.3.3,0,0,0,.234.118.292.292,0,0,0,.235-.116.479.479,0,0,0,.1-.314.544.544,0,0,0-.066-.269A.456.456,0,0,0,297.5,585.485Zm0-.212a.428.428,0,0,0,.058-.018.353.353,0,0,0,.088-.045.343.343,0,0,0,.068-.068.35.35,0,0,0,.05-.1.373.373,0,0,0,.019-.123.357.357,0,0,0-.083-.242.256.256,0,0,0-.2-.1.247.247,0,0,0-.2.1.363.363,0,0,0-.082.239.385.385,0,0,0,.029.156.308.308,0,0,0,.174.171A.284.284,0,0,0,297.5,585.273Z"
          transform="translate(-257.031 -584.367)"
          fill="#fff"
          stroke="#fff"
          stroke-miterlimit="10"
          stroke-width="0.25"
        />
        <path
          id="Path_3651"
          data-name="Path 3651"
          d="M305.211,586.2H305v.494h-.2V586.2h-.737v-.189l.668-1.453H305v1.426h.209Zm-.406-.217V584.8l-.538,1.181Z"
          transform="translate(-262.589 -584.515)"
          fill="#fff"
          stroke="#fff"
          stroke-miterlimit="10"
          stroke-width="0.25"
        />
        <path
          id="Path_3652"
          data-name="Path 3652"
          d="M312.844,584.736l-.671,1.959h-.2l.661-1.92h-.793v-.217h1Z"
          transform="translate(-268.67 -584.515)"
          fill="#fff"
          stroke="#fff"
          stroke-miterlimit="10"
          stroke-width="0.25"
        />
        <path
          id="Path_3653"
          data-name="Path 3653"
          d="M319.912,585.51a.451.451,0,0,1-.345.162.446.446,0,0,1-.358-.173.678.678,0,0,1-.143-.447.855.855,0,0,1,.138-.494.415.415,0,0,1,.355-.2.457.457,0,0,1,.414.306,1.775,1.775,0,0,1,.149.777,1.706,1.706,0,0,1-.174.8.524.524,0,0,1-.468.333.722.722,0,0,1-.341-.076l.031-.22a.725.725,0,0,0,.3.077.36.36,0,0,0,.319-.244A1.362,1.362,0,0,0,319.912,585.51Zm-.005-.214a1.288,1.288,0,0,0-.092-.505q-.092-.217-.242-.217a.247.247,0,0,0-.217.127.6.6,0,0,0-.081.329.526.526,0,0,0,.082.305.251.251,0,0,0,.215.119.427.427,0,0,0,.319-.142Z"
          transform="translate(-274.323 -584.356)"
          fill="#fff"
          stroke="#fff"
          stroke-miterlimit="10"
          stroke-width="0.25"
        />
        <path
          id="Path_3654"
          data-name="Path 3654"
          d="M326.917,585.421a.5.5,0,0,1,.16-.027.449.449,0,0,1,.379.185.749.749,0,0,1,.139.463.764.764,0,0,1-.162.493.491.491,0,0,1-.4.2.69.69,0,0,1-.372-.094l.04-.211a.71.71,0,0,0,.337.086.3.3,0,0,0,.25-.126.57.57,0,0,0,.1-.351.524.524,0,0,0-.09-.329.282.282,0,0,0-.232-.115.452.452,0,0,0-.2.05l-.118-.068v-1.02h.774v.217h-.6Z"
          transform="translate(-280.269 -584.515)"
          fill="#fff"
          stroke="#fff"
          stroke-miterlimit="10"
          stroke-width="0.25"
        />
        <path
          id="Path_3655"
          data-name="Path 3655"
          d="M334.6,585.51a.452.452,0,0,1-.7-.011.677.677,0,0,1-.144-.447.855.855,0,0,1,.138-.494.415.415,0,0,1,.355-.2.457.457,0,0,1,.414.306,1.772,1.772,0,0,1,.149.777,1.705,1.705,0,0,1-.175.8.524.524,0,0,1-.467.333.723.723,0,0,1-.341-.076l.031-.22a.725.725,0,0,0,.3.077.359.359,0,0,0,.319-.244A1.362,1.362,0,0,0,334.6,585.51Zm0-.214a1.289,1.289,0,0,0-.092-.505q-.092-.217-.242-.217a.247.247,0,0,0-.217.127.6.6,0,0,0-.081.329.526.526,0,0,0,.082.305.251.251,0,0,0,.216.119.427.427,0,0,0,.319-.142Z"
          transform="translate(-285.81 -584.356)"
          fill="#fff"
          stroke="#fff"
          stroke-miterlimit="10"
          stroke-width="0.25"
        />
        <path
          id="Path_3656"
          data-name="Path 3656"
          d="M342.419,584.776h-.7v.7h.639v.217h-.639V586.7h-.2v-2.136h.9Z"
          transform="translate(-291.891 -584.515)"
          fill="#fff"
          stroke="#fff"
          stroke-miterlimit="10"
          stroke-width="0.25"
        />
        <path
          id="Path_3657"
          data-name="Path 3657"
          d="M349.511,586.7h-.218l-.607-1.687V586.7h-.2v-2.136h.219l.61,1.672v-1.672h.193Z"
          transform="translate(-297.341 -584.515)"
          fill="#fff"
          stroke="#fff"
          stroke-miterlimit="10"
          stroke-width="0.25"
        />
        <path
          id="Path_3658"
          data-name="Path 3658"
          d="M356.284,585.421a.5.5,0,0,1,.16-.027.449.449,0,0,1,.379.185.75.75,0,0,1,.139.463.764.764,0,0,1-.162.493.491.491,0,0,1-.395.2.689.689,0,0,1-.372-.094l.04-.211a.71.71,0,0,0,.337.086.3.3,0,0,0,.25-.126.569.569,0,0,0,.1-.351.524.524,0,0,0-.09-.329.282.282,0,0,0-.232-.115.452.452,0,0,0-.2.05l-.118-.068v-1.02h.774v.217h-.6Z"
          transform="translate(-303.244 -584.515)"
          fill="#fff"
          stroke="#fff"
          stroke-miterlimit="10"
          stroke-width="0.25"
        />
        <path
          id="Path_3659"
          data-name="Path 3659"
          d="M363.749,585.376a.519.519,0,0,1,.268.217.661.661,0,0,1,.1.357.675.675,0,0,1-.154.466.512.512,0,0,1-.768,0,.678.678,0,0,1-.152-.462.65.65,0,0,1,.1-.357.535.535,0,0,1,.275-.22.419.419,0,0,1-.225-.175.52.52,0,0,1-.085-.29.6.6,0,0,1,.13-.373.412.412,0,0,1,.342-.168.432.432,0,0,1,.348.167.573.573,0,0,1,.138.374.512.512,0,0,1-.086.287A.431.431,0,0,1,363.749,585.376Zm-.175.109a.452.452,0,0,0-.329.456.465.465,0,0,0,.1.313.3.3,0,0,0,.234.118.292.292,0,0,0,.235-.116.48.48,0,0,0,.1-.314.544.544,0,0,0-.066-.269A.455.455,0,0,0,363.573,585.485Zm0-.212a.423.423,0,0,0,.058-.018.353.353,0,0,0,.088-.045.337.337,0,0,0,.068-.068.344.344,0,0,0,.05-.1.372.372,0,0,0,.019-.123.357.357,0,0,0-.083-.242.255.255,0,0,0-.2-.1.246.246,0,0,0-.2.1.362.362,0,0,0-.082.239.384.384,0,0,0,.029.156.323.323,0,0,0,.073.107.316.316,0,0,0,.1.064A.285.285,0,0,0,363.573,585.273Z"
          transform="translate(-308.724 -584.367)"
          fill="#fff"
          stroke="#fff"
          stroke-miterlimit="10"
          stroke-width="0.25"
        />
        <path
          id="Path_3660"
          data-name="Path 3660"
          d="M371.578,584.736l-.671,1.959h-.2l.661-1.92h-.793v-.217h1Z"
          transform="translate(-314.62 -584.515)"
          fill="#fff"
          stroke="#fff"
          stroke-miterlimit="10"
          stroke-width="0.25"
        />
        <path
          id="Path_3661"
          data-name="Path 3661"
          d="M378.064,585.435a.476.476,0,0,1,.345-.162.446.446,0,0,1,.358.173.679.679,0,0,1,.144.448.9.9,0,0,1-.127.5.388.388,0,0,1-.34.2.48.48,0,0,1-.43-.314,1.694,1.694,0,0,1-.158-.768,1.78,1.78,0,0,1,.165-.81.5.5,0,0,1,.452-.326.735.735,0,0,1,.342.074l-.031.221a.73.73,0,0,0-.3-.078.338.338,0,0,0-.3.236A1.461,1.461,0,0,0,378.064,585.435Zm.006.213a1.186,1.186,0,0,0,.1.5q.1.224.257.224a.221.221,0,0,0,.2-.121.665.665,0,0,0,.071-.335.541.541,0,0,0-.078-.31.25.25,0,0,0-.22-.114A.453.453,0,0,0,378.07,585.648Z"
          transform="translate(-320.316 -584.367)"
          fill="#fff"
          stroke="#fff"
          stroke-miterlimit="10"
          stroke-width="0.25"
        />
        <path
          id="Path_3662"
          data-name="Path 3662"
          d="M386.262,584.736l-.671,1.959h-.2l.661-1.92h-.793v-.217h1Z"
          transform="translate(-326.107 -584.515)"
          fill="#fff"
          stroke="#fff"
          stroke-miterlimit="10"
          stroke-width="0.25"
        />
        <path
          id="Path_3663"
          data-name="Path 3663"
          d="M393.6,584.736l-.671,1.959h-.2l.661-1.92H392.6v-.217h1Z"
          transform="translate(-331.851 -584.515)"
          fill="#fff"
          stroke="#fff"
          stroke-miterlimit="10"
          stroke-width="0.25"
        />
        <path
          id="Path_3664"
          data-name="Path 3664"
          d="M400.545,585.4a.479.479,0,0,1,.249.2.585.585,0,0,1,.094.325.678.678,0,0,1-.174.473.537.537,0,0,1-.41.192.612.612,0,0,1-.361-.112l.038-.2a.646.646,0,0,0,.33.1.34.34,0,0,0,.262-.12.444.444,0,0,0,.109-.31.411.411,0,0,0-.116-.3.418.418,0,0,0-.308-.116H400.2v-.2h.014a.434.434,0,0,0,.3-.11.382.382,0,0,0,.12-.3.318.318,0,0,0-.086-.237.323.323,0,0,0-.238-.086.618.618,0,0,0-.293.089l-.027-.214a.657.657,0,0,1,.329-.094.5.5,0,0,1,.374.151.53.53,0,0,1,.147.387.56.56,0,0,1-.089.3.386.386,0,0,1-.215.178Z"
          transform="translate(-337.595 -584.367)"
          fill="#fff"
          stroke="#fff"
          stroke-miterlimit="10"
          stroke-width="0.25"
        />
        <path
          id="Path_3665"
          data-name="Path 3665"
          d="M408.012,585.51a.452.452,0,0,1-.7-.011.677.677,0,0,1-.144-.447.855.855,0,0,1,.138-.494.415.415,0,0,1,.355-.2.457.457,0,0,1,.414.306,1.772,1.772,0,0,1,.149.777,1.706,1.706,0,0,1-.175.8.524.524,0,0,1-.467.333.723.723,0,0,1-.341-.076l.031-.22a.725.725,0,0,0,.3.077.359.359,0,0,0,.319-.244A1.362,1.362,0,0,0,408.012,585.51Zm0-.214a1.289,1.289,0,0,0-.092-.505q-.092-.217-.242-.217a.247.247,0,0,0-.217.127.6.6,0,0,0-.081.329.526.526,0,0,0,.082.305.251.251,0,0,0,.216.119.427.427,0,0,0,.319-.142Z"
          transform="translate(-343.248 -584.356)"
          fill="#fff"
          stroke="#fff"
          stroke-miterlimit="10"
          stroke-width="0.25"
        />
        <path
          id="Path_3666"
          data-name="Path 3666"
          d="M415.354,585.51a.452.452,0,0,1-.7-.011.678.678,0,0,1-.143-.447.855.855,0,0,1,.138-.494.415.415,0,0,1,.355-.2.457.457,0,0,1,.414.306,1.774,1.774,0,0,1,.149.777,1.706,1.706,0,0,1-.175.8.524.524,0,0,1-.467.333.723.723,0,0,1-.341-.076l.031-.22a.724.724,0,0,0,.3.077.359.359,0,0,0,.319-.244A1.363,1.363,0,0,0,415.354,585.51Zm0-.214a1.288,1.288,0,0,0-.092-.505q-.093-.217-.243-.217a.247.247,0,0,0-.217.127.6.6,0,0,0-.081.329.526.526,0,0,0,.082.305.251.251,0,0,0,.215.119.427.427,0,0,0,.319-.142Z"
          transform="translate(-348.992 -584.356)"
          fill="#fff"
          stroke="#fff"
          stroke-miterlimit="10"
          stroke-width="0.25"
        />
        <path
          id="Path_3667"
          data-name="Path 3667"
          d="M422.7,585.51a.451.451,0,0,1-.345.162.446.446,0,0,1-.358-.173.678.678,0,0,1-.143-.447.854.854,0,0,1,.138-.494.415.415,0,0,1,.355-.2.457.457,0,0,1,.414.306,1.776,1.776,0,0,1,.149.777,1.706,1.706,0,0,1-.175.8.524.524,0,0,1-.467.333.722.722,0,0,1-.341-.076l.031-.22a.723.723,0,0,0,.3.077.359.359,0,0,0,.319-.244A1.362,1.362,0,0,0,422.7,585.51Zm-.005-.214a1.284,1.284,0,0,0-.092-.505q-.092-.217-.242-.217a.247.247,0,0,0-.217.127.6.6,0,0,0-.081.329.526.526,0,0,0,.082.305.25.25,0,0,0,.215.119.427.427,0,0,0,.319-.142Z"
          transform="translate(-354.736 -584.356)"
          fill="#fff"
          stroke="#fff"
          stroke-miterlimit="10"
          stroke-width="0.25"
        />
        <path
          id="Path_3668"
          data-name="Path 3668"
          d="M429.578,584.37a.451.451,0,0,1,.414.292,1.878,1.878,0,0,1,.145.818,1.932,1.932,0,0,1-.14.809.44.44,0,0,1-.831.009,1.869,1.869,0,0,1-.145-.818,1.929,1.929,0,0,1,.141-.811A.449.449,0,0,1,429.578,584.37Zm0,2a.283.283,0,0,0,.263-.213,2.714,2.714,0,0,0,0-1.356.282.282,0,0,0-.263-.211q-.175,0-.262.216a2.683,2.683,0,0,0,0,1.348A.283.283,0,0,0,429.578,586.37Zm0-1.117a.158.158,0,0,1,.128.066.253.253,0,0,1,.052.161.275.275,0,0,1-.053.169.155.155,0,0,1-.127.07.153.153,0,0,1-.125-.07.276.276,0,0,1-.052-.169.255.255,0,0,1,.051-.162A.155.155,0,0,1,429.573,585.253Z"
          transform="translate(-360.345 -584.367)"
          fill="#fff"
          stroke="#fff"
          stroke-miterlimit="10"
          stroke-width="0.25"
        />
        <path
          id="Path_3669"
          data-name="Path 3669"
          d="M437.963,586.652h-.89v-.217h.359v-1.66l-.339.214v-.248l.366-.238h.169v1.932h.335Z"
          transform="translate(-366.645 -584.471)"
          fill="#fff"
          stroke="#fff"
          stroke-miterlimit="10"
          stroke-width="0.25"
        />
        <path
          id="Path_3670"
          data-name="Path 3670"
          d="M444.508,585.376a.518.518,0,0,1,.268.217.661.661,0,0,1,.1.357.675.675,0,0,1-.154.466.512.512,0,0,1-.768,0,.678.678,0,0,1-.152-.462.651.651,0,0,1,.1-.357.537.537,0,0,1,.275-.22.418.418,0,0,1-.225-.175.52.52,0,0,1-.085-.29.594.594,0,0,1,.13-.373.412.412,0,0,1,.342-.168.432.432,0,0,1,.348.167.573.573,0,0,1,.138.374.511.511,0,0,1-.087.287A.43.43,0,0,1,444.508,585.376Zm-.175.109a.452.452,0,0,0-.329.456.465.465,0,0,0,.1.313.3.3,0,0,0,.234.118.293.293,0,0,0,.235-.116.48.48,0,0,0,.1-.314.544.544,0,0,0-.066-.269A.456.456,0,0,0,444.332,585.485Zm0-.212a.424.424,0,0,0,.058-.018.354.354,0,0,0,.088-.045.342.342,0,0,0,.068-.068.352.352,0,0,0,.05-.1.373.373,0,0,0,.019-.123.358.358,0,0,0-.083-.242.255.255,0,0,0-.2-.1.246.246,0,0,0-.2.1.362.362,0,0,0-.082.239.384.384,0,0,0,.029.156.308.308,0,0,0,.174.171A.285.285,0,0,0,444.332,585.273Z"
          transform="translate(-371.906 -584.367)"
          fill="#fff"
          stroke="#fff"
          stroke-miterlimit="10"
          stroke-width="0.25"
        />
        <path
          id="Path_3671"
          data-name="Path 3671"
          d="M452.3,586.547h-.931v-.18q.354-.5.459-.668a1.83,1.83,0,0,0,.172-.356,1.106,1.106,0,0,0,.066-.371.426.426,0,0,0-.086-.282.3.3,0,0,0-.241-.1.826.826,0,0,0-.319.092l-.028-.214a.8.8,0,0,1,.379-.1.459.459,0,0,1,.366.161.638.638,0,0,1,.139.431,1.072,1.072,0,0,1-.072.382,1.946,1.946,0,0,1-.183.363q-.112.174-.434.624h.713Z"
          transform="translate(-377.827 -584.367)"
          fill="#fff"
          stroke="#fff"
          stroke-miterlimit="10"
          stroke-width="0.25"
        />
        <path
          id="Path_3672"
          data-name="Path 3672"
          d="M459.387,586.2h-.209v.494h-.2V586.2h-.737v-.189l.668-1.453h.265v1.426h.209Zm-.406-.217V584.8l-.537,1.181Z"
          transform="translate(-383.208 -584.515)"
          fill="#fff"
          stroke="#fff"
          stroke-miterlimit="10"
          stroke-width="0.25"
        />
        <path
          id="Path_3673"
          data-name="Path 3673"
          d="M466.62,585.4a.479.479,0,0,1,.249.2.585.585,0,0,1,.094.325.678.678,0,0,1-.174.473.537.537,0,0,1-.411.192.612.612,0,0,1-.361-.112l.038-.2a.646.646,0,0,0,.33.1.341.341,0,0,0,.262-.12.444.444,0,0,0,.109-.31.411.411,0,0,0-.116-.3.418.418,0,0,0-.308-.116h-.052v-.2h.014a.434.434,0,0,0,.3-.11.382.382,0,0,0,.12-.3.318.318,0,0,0-.087-.237.323.323,0,0,0-.238-.086.617.617,0,0,0-.293.089l-.027-.214a.656.656,0,0,1,.329-.094.5.5,0,0,1,.374.151.53.53,0,0,1,.147.387.561.561,0,0,1-.089.3.387.387,0,0,1-.216.178Z"
          transform="translate(-389.289 -584.367)"
          fill="#fff"
          stroke="#fff"
          stroke-miterlimit="10"
          stroke-width="0.25"
        />
        <path
          id="Path_3674"
          data-name="Path 3674"
          d="M474.322,586.547h-.931v-.18q.354-.5.46-.668a1.82,1.82,0,0,0,.172-.356,1.1,1.1,0,0,0,.066-.371.428.428,0,0,0-.086-.282.3.3,0,0,0-.241-.1.828.828,0,0,0-.319.092l-.028-.214a.8.8,0,0,1,.38-.1.458.458,0,0,1,.365.161.638.638,0,0,1,.139.431,1.072,1.072,0,0,1-.071.382,1.947,1.947,0,0,1-.183.363q-.112.174-.434.624h.713Z"
          transform="translate(-395.059 -584.367)"
          fill="#fff"
          stroke="#fff"
          stroke-miterlimit="10"
          stroke-width="0.25"
        />
        <path
          id="Path_3675"
          data-name="Path 3675"
          d="M481.664,586.547h-.931v-.18q.354-.5.46-.668a1.836,1.836,0,0,0,.172-.356,1.106,1.106,0,0,0,.066-.371.426.426,0,0,0-.086-.282.3.3,0,0,0-.241-.1.827.827,0,0,0-.319.092l-.028-.214a.8.8,0,0,1,.379-.1.458.458,0,0,1,.365.161.638.638,0,0,1,.139.431,1.077,1.077,0,0,1-.071.382,1.945,1.945,0,0,1-.183.363q-.112.174-.434.624h.713Z"
          transform="translate(-400.803 -584.367)"
          fill="#fff"
          stroke="#fff"
          stroke-miterlimit="10"
          stroke-width="0.25"
        />
        <path
          id="Path_3676"
          data-name="Path 3676"
          d="M488.771,585.51a.452.452,0,0,1-.7-.011.678.678,0,0,1-.143-.447.855.855,0,0,1,.138-.494.415.415,0,0,1,.355-.2.457.457,0,0,1,.414.306,1.775,1.775,0,0,1,.149.777,1.706,1.706,0,0,1-.175.8.524.524,0,0,1-.467.333A.723.723,0,0,1,488,586.5l.031-.22a.724.724,0,0,0,.3.077.359.359,0,0,0,.319-.244A1.362,1.362,0,0,0,488.771,585.51Zm0-.214a1.288,1.288,0,0,0-.092-.505q-.093-.217-.243-.217a.247.247,0,0,0-.217.127.6.6,0,0,0-.081.329.526.526,0,0,0,.082.305.251.251,0,0,0,.215.119.427.427,0,0,0,.319-.142Z"
          transform="translate(-406.429 -584.356)"
          fill="#fff"
          stroke="#fff"
          stroke-miterlimit="10"
          stroke-width="0.25"
        />
        <path
          id="Path_3677"
          data-name="Path 3677"
          d="M495.987,585.4a.479.479,0,0,1,.248.2.585.585,0,0,1,.094.325.678.678,0,0,1-.174.473.537.537,0,0,1-.41.192.612.612,0,0,1-.361-.112l.038-.2a.647.647,0,0,0,.33.1.341.341,0,0,0,.262-.12.444.444,0,0,0,.109-.31.412.412,0,0,0-.116-.3.418.418,0,0,0-.308-.116h-.052v-.2h.015a.434.434,0,0,0,.3-.11.382.382,0,0,0,.12-.3.318.318,0,0,0-.087-.237.323.323,0,0,0-.237-.086.618.618,0,0,0-.293.089l-.027-.214a.656.656,0,0,1,.329-.094.5.5,0,0,1,.374.151.53.53,0,0,1,.147.387.562.562,0,0,1-.089.3.387.387,0,0,1-.215.178Z"
          transform="translate(-412.264 -584.367)"
          fill="#fff"
          stroke="#fff"
          stroke-miterlimit="10"
          stroke-width="0.25"
        />
      </g>
      <line
        id="Line_470"
        data-name="Line 470"
        x1="0.859"
        y2="2.327"
        transform="translate(58.322 31.487)"
        fill="none"
        stroke="#313133"
        stroke-linecap="round"
        stroke-miterlimit="10"
        stroke-width="1"
      />
    </g>
    <path
      id="Path_3678"
      data-name="Path 3678"
      d="M97.123,153.811v.231H4.909l-23.454-41.566a3.819,3.819,0,0,1,3.326-5.7H63.809a11.607,11.607,0,0,1,10.108,5.9Z"
      transform="translate(19.043 -106.78)"
      fill="#313133"
    />
    <line
      id="Line_471"
      data-name="Line 471"
      x1="23.282"
      transform="translate(89.629 0)"
      fill="none"
    />
  </g>
</svg>
