<svg xmlns="http://www.w3.org/2000/svg" width="47.062" height="27.239" viewBox="0 0 47.062 27.239"><g transform="translate(0.295 0.518)"><g transform="translate(1.976 1.04)"><path d="M4046.736,9036.378a2.41,2.41,0,0,1,1.706-.366,77.727,77.727,0,0,0,14.473-7.528,2.553,2.553,0,0,0,1.74.81s1.426,1.146.873,1.658c-5.881,5.466-11.4,6.852-21.108,10.031s-16.329,2.264-18.887,1.928-2.366-1.938-2.366-1.938c.993.712,4.682.613,10.793-.211a35.269,35.269,0,0,0,7.971-2.2C4044.524,9037.54,4046.391,9036.543,4046.736,9036.378Z" transform="translate(-4023.064 -9019.537)" fill="#1a1a1a"/><path d="M4075.155,9022.265c.78.474,4.017,3.2,4.017,3.2h0q.142.249.276.513a77.727,77.727,0,0,1-14.473,7.528s.027-.891,1.485-1.783,3.468-2.318,3.8-4.047c.027-.139.053-.275.077-.41.3-1.548.566-2.834,1.708-3.646C4073.288,9022.734,4074.373,9021.791,4075.155,9022.265Z" transform="translate(-4039.598 -9017.027)" fill="#1a1a1a"/><path d="M4072.191,9013.9a1.445,1.445,0,0,1,2.113.859c.068.751-1.421,1.544-1.2,2.272.215.692,2.89,1.939,4.687,5.084h0s-3.237-2.723-4.017-3.2-1.867.47-3.108,1.353c-1.142.812-1.413,2.1-1.708,3.646,0,0-.9.563-1.627.979a13.106,13.106,0,0,0-3.747-1.873c-1.559-.313-2.092-2.381-2.092-2.381a3.555,3.555,0,0,0,.583-1.667c.324.121.659.246,1,.366h0c1.667.593,3.457,1.089,4.641.661a4.285,4.285,0,0,0,3.021-2.785c.03-.1.064-.193.1-.287h0a4.99,4.99,0,0,1,.439-.855h0A3.931,3.931,0,0,1,4072.191,9013.9Z" transform="translate(-4038.222 -9013.686)" fill="#1a1a1a"/><path d="M4071.877,9019.058c-.037.093-.071.189-.1.287a4.284,4.284,0,0,1-3.021,2.784c-1.185.428-2.974-.068-4.641-.66C4064.216,9021.472,4070.644,9021.7,4071.877,9019.058Z" transform="translate(-4039.258 -9015.81)" fill="#1a1a1a"/><path d="M4062.588,9025.622c-.478.148-5.229-2.371-5.7-2.634s-.733-2.177-.905-2.907-1.585-.487-1.962-.37a21.829,21.829,0,0,0-2.436,2.714c1.347-3.2,1.048-5.23.9-5.708s-.384-1.59.477-2.105,1.415.387,1.585,1.023a4.762,4.762,0,0,0,2.8,3.346c.259.1.53.2.808.3a3.555,3.555,0,0,1-.583,1.667s.533,2.067,2.092,2.381a13.125,13.125,0,0,1,3.747,1.874A5.868,5.868,0,0,1,4062.588,9025.622Z" transform="translate(-4034.305 -9013.99)" fill="#1a1a1a"/><path d="M4063.909,9032.285l-1.827,1.039-7.138-3.678,1.223-.99Z" transform="translate(-4035.631 -9019.606)" fill="#1a1a1a"/><path d="M4059.127,9035.011l-2.591,1.476-6.446-3.36,2.088-1.694Z" transform="translate(-4033.712 -9020.702)" fill="#1a1a1a"/><path d="M4053.19,9026.336c.466.262,5.217,2.781,5.7,2.633a5.714,5.714,0,0,0,.83-.418c.731-.414,1.626-.979,1.626-.979-.024.135-.051.271-.077.41-.332,1.729-2.341,3.151-3.8,4.047s-1.485,1.783-1.485,1.783a2.415,2.415,0,0,0-1.706.365c-.344.166-2.212,1.164-4.805,2.187h0s-.052-.787-1.367-1.563-4.973-2.7-5.27-2.854-.9-.593-.435-.932c2.355-1.566,4.746-3.476,5.49-5.241a21.743,21.743,0,0,1,2.436-2.714c.376-.117,1.789-.363,1.962.368S4052.724,9026.072,4053.19,9026.336Zm3.863,4.721,1.827-1.038-7.743-3.63-1.223.991Zm-3.626,2.064,2.591-1.475-6.949-3.58-2.087,1.7Zm-3.248,1.888,2.067-1.177-6.233-3.209-1.327,1.077Z" transform="translate(-4030.603 -9017.338)" fill="#1a1a1a"/><path d="M4053.854,9038.868l-2.067,1.177-5.493-3.31,1.327-1.077Z" transform="translate(-4032.21 -9022.374)" fill="#1a1a1a"/><path d="M4035.229,9037.238c.3.156,3.953,2.079,5.269,2.854s1.368,1.563,1.368,1.563h0a35.219,35.219,0,0,1-7.971,2.2c-6.11.824-9.8.923-10.793.211,0,0-.49-1.666.672-2.274a43.677,43.677,0,0,0,6.246-2.6c.963-.56,2.857-1.607,4.774-2.882C4034.327,9036.645,4034.936,9037.084,4035.229,9037.238Z" transform="translate(-4022.999 -9022.631)" fill="#1a1a1a"/></g><path d="M4019.9,9039.253s-.191,1.6,2.366,1.938,9.182,1.254,18.886-1.927,15.228-4.567,21.109-10.031c.552-.515-.874-1.659-.874-1.659a2.552,2.552,0,0,1-1.74-.81,77.738,77.738,0,0,1-14.473,7.528,2.413,2.413,0,0,0-1.706.365c-.345.165-2.212,1.164-4.805,2.186a35.271,35.271,0,0,1-7.971,2.2C4024.58,9039.864,4020.89,9039.963,4019.9,9039.253Z" transform="translate(-4019.795 -9017.817)" fill="none" stroke="#e6e6e6" stroke-linecap="round" stroke-linejoin="round" stroke-width="0.5"/><path d="M4074.414,9015.2a5.307,5.307,0,0,1,.936-1.105" transform="translate(-4041.354 -9012.806)" fill="none" stroke="#e6e6e6" stroke-linecap="round" stroke-linejoin="round" stroke-width="1"/><path d="M4073.687,9016.777a4.892,4.892,0,0,1,.439-.854" transform="translate(-4041.066 -9013.531)" fill="none" stroke="#e6e6e6" stroke-linecap="round" stroke-linejoin="round" stroke-width="1"/><path d="M4060.845,9019.75c1.668.592,3.457,1.089,4.641.661a4.285,4.285,0,0,0,3.021-2.785c.031-.1.065-.193.1-.286" transform="translate(-4035.988 -9014.092)" fill="none" stroke="#e6e6e6" stroke-linecap="round" stroke-linejoin="round" stroke-width="1"/><path d="M4019.833,9033.708s-.49-1.667.671-2.276a43.437,43.437,0,0,0,6.246-2.6c.964-.558,2.858-1.605,4.774-2.88,2.356-1.566,4.747-3.477,5.49-5.242,1.348-3.2,1.048-5.23.9-5.709s-.383-1.589.477-2.1,1.415.386,1.585,1.022a4.764,4.764,0,0,0,2.8,3.347c.258.095.529.2.809.3.323.122.658.247,1,.366" transform="translate(-4019.73 -9012.271)" fill="none" stroke="#e6e6e6" stroke-linecap="round" stroke-linejoin="round" stroke-width="0.5"/><path d="M4060.843,9019.748h0c.1,0,6.53.229,7.763-2.411v0" transform="translate(-4035.987 -9014.089)" fill="none" stroke="#e6e6e6" stroke-linecap="round" stroke-linejoin="round" stroke-width="1"/><path d="M4074.413,9014.357h0a3.936,3.936,0,0,1,.908-2.172,1.445,1.445,0,0,1,2.114.858c.068.75-1.422,1.543-1.2,2.273.215.692,2.89,1.938,4.687,5.082.094.167.187.337.276.514" transform="translate(-4041.354 -9011.966)" fill="none" stroke="#e6e6e6" stroke-linecap="round" stroke-linejoin="round" stroke-width="1"/><path d="M4061.706,9031.783s.026-.89,1.485-1.784,3.468-2.318,3.8-4.047q.04-.208.078-.41c.294-1.548.567-2.834,1.708-3.645,1.242-.882,2.327-1.826,3.108-1.352s4.018,3.2,4.018,3.2" transform="translate(-4036.329 -9015.309)" fill="none" stroke="#e6e6e6" stroke-linecap="round" stroke-linejoin="round" stroke-width="1"/><path d="M4046.2,9039.928s-.052-.788-1.368-1.563-4.973-2.7-5.269-2.855-.9-.592-.436-.931l.02-.015" transform="translate(-4027.333 -9020.902)" fill="none" stroke="#e6e6e6" stroke-linecap="round" stroke-linejoin="round" stroke-width="0.5"/><path d="M4048.32,9024.053a21.894,21.894,0,0,1,2.436-2.715c.377-.116,1.789-.361,1.962.37s.439,2.646.9,2.908,5.218,2.781,5.7,2.634a5.927,5.927,0,0,0,.831-.418c.732-.415,1.627-.979,1.627-.979" transform="translate(-4031.035 -9015.618)" fill="none" stroke="#e6e6e6" stroke-linecap="round" stroke-linejoin="round" stroke-width="1"/><path d="M4058.81,9020.719a3.555,3.555,0,0,1-.583,1.667s.533,2.066,2.092,2.381a13.123,13.123,0,0,1,3.747,1.874" transform="translate(-4034.953 -9015.428)" fill="none" stroke="#e6e6e6" stroke-linecap="round" stroke-linejoin="round" stroke-width="1"/><path d="M4043.025,9035.018l5.493,3.309,2.067-1.177-6.232-3.209Z" transform="translate(-4028.941 -9020.656)" fill="none" stroke="#e6e6e6" stroke-linecap="round" stroke-linejoin="round" stroke-width="0.5"/><path d="M4060.639,9030.566l-7.742-3.63-1.223.992,7.139,3.677Z" transform="translate(-4032.362 -9017.887)" fill="none" stroke="#e6e6e6" stroke-linecap="round" stroke-linejoin="round" stroke-width="1"/><path d="M4055.858,9033.293l-6.949-3.579-2.088,1.694,6.446,3.359Z" transform="translate(-4030.443 -9018.984)" fill="none" stroke="#e6e6e6" stroke-linecap="round" stroke-linejoin="round" stroke-width="0.5"/><g transform="translate(20.425 0.374)"><g transform="translate(0 0)"><path d="M4078.9,9034.751l-4.373-4.376a2.082,2.082,0,0,0-2.436-.284l-1.2-1.206a9.874,9.874,0,1,0-1.075,1.077l1.2,1.2a2.081,2.081,0,0,0,.289,2.438l4.373,4.376a2.292,2.292,0,0,0,3.225-3.226Zm-10.669-7.453a6.842,6.842,0,1,1,0-9.675A6.848,6.848,0,0,1,4068.231,9027.3Z" transform="translate(-4053.515 -9012.583)" fill="#e25351" stroke="#d1d1d1" stroke-width="0.5"/></g><circle cx="6.878" cy="6.878" r="6.878" transform="translate(2.892 3.071)" fill="#fff" opacity="0.69"/></g><path d="M4064.2,9027.59l2.692,1.755,5.012-5.009" transform="translate(-4037.317 -9016.857)" fill="none" stroke="#e25351" stroke-linecap="round" stroke-miterlimit="10" stroke-width="1"/></g></svg>