<svg
  xmlns="http://www.w3.org/2000/svg"
  width="46.125"
  height="40.849"
  viewBox="0 0 46.125 40.849"
><rect width="30.805" height="38.289" rx="1.519" fill="#bababa" /><path
    d="M1.519,0h26.9a1.519,1.519,0,0,1,1.519,1.519V35.688a1.519,1.519,0,0,1-1.519,1.519H1.519A1.519,1.519,0,0,1,0,35.688V1.519A1.519,1.519,0,0,1,1.519,0Z"
    transform="translate(0.447 0.504)"
    fill="#1a1a1a"
  /><rect
    width="12.653"
    height="0.5"
    transform="translate(10.157 25.79)"
    fill="#efefef"
  /><rect
    width="12.653"
    height="0.5"
    transform="translate(10.156 28.163)"
    fill="#efefef"
  /><path
    d="M4054.008,8759.227a7.905,7.905,0,1,0,7.892,7.911A7.915,7.915,0,0,0,4054.008,8759.227Zm-1.538,1.31c-.107.114-.214.226-.318.342a8.681,8.681,0,0,0-1.395,2.126.115.115,0,0,1-.125.08q-.991,0-1.983,0a.125.125,0,0,1-.085-.013A6.743,6.743,0,0,1,4052.471,8760.536Zm1.15,6.149c0,.059-.017.071-.073.071-.481,0-.961,0-1.442,0h-1.383c-.119,0-.119,0-.114-.117a8.925,8.925,0,0,1,.574-2.731.1.1,0,0,1,.11-.073q1.128,0,2.255,0c.055,0,.074.01.074.07Q4053.617,8765.294,4053.621,8766.686Zm-6.392,0a6.731,6.731,0,0,1,.817-2.808.076.076,0,0,1,.079-.045h2.225c.051,0,.062.009.044.06a9.54,9.54,0,0,0-.507,2.309c-.015.161-.026.321-.032.481,0,.056-.016.073-.073.072-.415,0-.83,0-1.244,0s-.83,0-1.245,0C4047.237,8766.754,4047.224,8766.741,4047.229,8766.686Zm.908,3.741a.088.088,0,0,1-.095-.047,6.759,6.759,0,0,1-.814-2.8c0-.062.01-.076.072-.075.412,0,.825,0,1.236,0s.825,0,1.237,0c.057,0,.077.009.08.072a9.677,9.677,0,0,0,.528,2.771c.027.079.027.079-.057.079Zm.428.768c.015-.03.038-.019.054-.019h2.036a.079.079,0,0,1,.085.049,8.641,8.641,0,0,0,1.709,2.481c.006.007.012.016.03.038A6.838,6.838,0,0,1,4048.565,8771.194Zm5.05,2.519-.005.028a7.744,7.744,0,0,1-2.065-2.565h1.333c.226,0,.453,0,.68,0,.043,0,.06.008.06.057Q4053.616,8772.472,4053.616,8773.713Zm0-3.354c0,.053-.011.07-.067.07q-1.143,0-2.284,0a.07.07,0,0,1-.08-.054,9.042,9.042,0,0,1-.584-2.817c0-.063.033-.051.067-.051h1.45c.475,0,.951,0,1.427,0,.057,0,.072.015.072.073Q4053.616,8768.968,4053.62,8770.359Zm-.074-7.274c-.64,0-1.279,0-1.918,0-.049,0-.081,0-.045-.062a7.728,7.728,0,0,1,1.974-2.448l.065-.052v.082q0,1.2,0,2.407C4053.622,8763.071,4053.606,8763.085,4053.546,8763.085Zm6.308.751a.088.088,0,0,1,.094.049,6.754,6.754,0,0,1,.813,2.8c0,.06-.01.073-.069.072q-1.244,0-2.488,0c-.046,0-.066-.006-.069-.061a9.685,9.685,0,0,0-.535-2.8.087.087,0,0,1-.011-.062h2.265Zm-.431-.767c-.022.023-.043.016-.06.016-.675,0-1.351,0-2.026,0a.088.088,0,0,1-.094-.059,8.661,8.661,0,0,0-1.693-2.457c-.01-.01-.019-.022-.028-.032A6.74,6.74,0,0,1,4059.423,8763.069Zm-5.051-2.5c0-.011,0-.02,0-.042a6.691,6.691,0,0,1,.618.552,7.874,7.874,0,0,1,1.411,1.938c.029.056.029.071-.04.071-.642,0-1.284,0-1.926,0-.043,0-.07,0-.07-.059Q4054.374,8761.8,4054.372,8760.566Zm0,3.338c0-.06.018-.07.073-.07q1.135,0,2.27,0a.078.078,0,0,1,.09.059,9.005,9.005,0,0,1,.584,2.811c0,.064-.033.052-.067.052h-1.442c-.478,0-.956,0-1.435,0-.054,0-.073-.01-.073-.07Q4054.373,8765.3,4054.37,8763.9Zm.077,3.6c.479,0,.957,0,1.435,0h1.435c.039,0,.073-.009.07.057a9.023,9.023,0,0,1-.582,2.8.09.09,0,0,1-.1.07q-1.13,0-2.261,0c-.061,0-.076-.016-.076-.076q0-1.387,0-2.773C4054.369,8767.515,4054.389,8767.5,4054.446,8767.506Zm-.006,6.18a.155.155,0,0,1-.065.045.123.123,0,0,1-.007-.071c0-.8,0-1.6,0-2.4,0-.069.021-.084.085-.084.635,0,1.268,0,1.9,0,.084,0,.084,0,.045.074A7.689,7.689,0,0,1,4054.441,8773.686Zm1.067.059a.59.59,0,0,1,.043-.053,8.657,8.657,0,0,0,1.683-2.439.111.111,0,0,1,.12-.076c.664,0,1.327,0,1.991,0h.091A6.863,6.863,0,0,1,4055.508,8773.744Zm5.253-6.163a6.743,6.743,0,0,1-.816,2.8.079.079,0,0,1-.077.05c-.75,0-1.5,0-2.247,0a.409.409,0,0,1-.041,0c.069-.205.136-.405.194-.609a9.72,9.72,0,0,0,.36-2.232c0-.06.016-.077.077-.076q1.241,0,2.48,0C4060.751,8767.507,4060.764,8767.522,4060.76,8767.581Z"
    transform="translate(-4037.954 -8753.338)"
    fill="#e25351"
  /><rect
    width="26.661"
    height="18.946"
    rx="1.244"
    transform="translate(19.464 21.904)"
    fill="#bababa"
  /><rect
    width="25.522"
    height="13.319"
    rx="0.839"
    transform="translate(20.053 26.886)"
    fill="#fff"
  /><g transform="translate(22.528 29.927)"><path
      d="M4064.385,8789.878h.053a1.505,1.505,0,0,0,1.151-.5,2.985,2.985,0,0,0,.513-2.038,1.663,1.663,0,0,0-.791-1.48,1.813,1.813,0,0,0-.877-.23h-.027a1.816,1.816,0,0,0-.879.224,1.664,1.664,0,0,0-.8,1.486,2.991,2.991,0,0,0,.511,2.038A1.5,1.5,0,0,0,4064.385,8789.878Zm-1.224-2.5,0-.01a1.187,1.187,0,0,1,1.24-1.3h.02a1.192,1.192,0,0,1,1.24,1.295l0,.014a2.584,2.584,0,0,1-.4,1.705,1.079,1.079,0,0,1-.841.35h-.016a1.07,1.07,0,0,1-.838-.351A2.593,2.593,0,0,1,4063.161,8787.383Z"
      transform="translate(-4061.062 -8785.632)"
      fill="#e25351"
    /><path
      d="M4067.6,8792.31v0c0-.013,0-.026,0-.041a1.281,1.281,0,0,0-.739-1.32l-.016,0a4.751,4.751,0,0,1-1.354-.617.22.22,0,1,0-.253.359,5.038,5.038,0,0,0,1.49.681c.38.136.423.543.434.915a.3.3,0,0,0,0,.04,2.933,2.933,0,0,1-.035.5,6.518,6.518,0,0,1-5.756,0,2.859,2.859,0,0,1-.033-.5c0-.014,0-.025,0-.041.012-.372.054-.777.434-.914a5.108,5.108,0,0,0,1.49-.68.22.22,0,0,0-.253-.36,4.661,4.661,0,0,1-1.354.616l-.016.006a1.28,1.28,0,0,0-.739,1.318.262.262,0,0,1,0,.041v.006a2.5,2.5,0,0,0,.083.739.21.21,0,0,0,.084.1,6.894,6.894,0,0,0,6.372,0,.221.221,0,0,0,.084-.1A2.613,2.613,0,0,0,4067.6,8792.31Z"
      transform="translate(-4060.899 -8786.049)"
      fill="#e25351"
    /></g><path
    d="M.839,0H24.683a.839.839,0,0,1,.839.839v3.95H0V.839A.839.839,0,0,1,.839,0Z"
    transform="translate(20.056 22.55)"
    fill="#1a1a1a"
  /><rect
    width="12.653"
    height="0.357"
    transform="translate(31.125 31.639)"
  /><rect
    width="12.653"
    height="0.357"
    transform="translate(31.125 33.941)"
  /><rect
    width="12.653"
    height="0.357"
    transform="translate(31.124 36.243)"
  /></svg>
