<svg xmlns="http://www.w3.org/2000/svg" width="161" height="210" viewBox="0 0 161 210"><g transform="translate(-121 -1093)"><g transform="translate(121 1093)" fill="none" stroke="#fff" stroke-width="3"><rect width="161" height="210" rx="4" stroke="none"/><rect x="1.5" y="1.5" width="158" height="207" rx="2.5" fill="none"/></g><g transform="translate(153.58 -2951.591)"><g transform="translate(27.821 4070.046)"><path d="M37.21,4070.049l-9.376,0,0,7.868,3.433-3.445A24.2,24.2,0,0,1,37.21,4070.049Z" transform="translate(-27.819 -4070.045)" fill="#fff"/><g transform="translate(0 1.032)"><path d="M60.126,4090.525a12.012,12.012,0,0,0-3.667-8.932,12.229,12.229,0,0,0-8.984-3.687,12.108,12.108,0,0,0-8.977,3.713l-10.673,10.708,0,5.195L41.1,4084.208a8.944,8.944,0,0,1,6.431-2.7,9.028,9.028,0,0,1,9.047,9.013,8.941,8.941,0,0,1-2.685,6.441l-13.024,13.065h2.8c.8,0,1.594-.033,2.369-.088l10.4-10.433A12.1,12.1,0,0,0,60.126,4090.525Z" transform="translate(-27.82 -4069.563)" fill="#fff"/><path d="M33.864,4076.888l-6.034,6.055,0,5.1,8.585-8.61a16.014,16.014,0,0,1,11.759-4.873,16.606,16.606,0,0,1,11.807,28.367l-7.01,7.032c9.158-2.981,14.972-10.383,14.975-19.319v-.12c0-8.165-4.846-14.994-12.668-18.367a20.563,20.563,0,0,0-7.109-1.242A19.668,19.668,0,0,0,33.864,4076.888Z" transform="translate(-27.82 -4070.912)" fill="#fff"/><path d="M52.871,4089.411a5.153,5.153,0,0,0-1.592-3.794,5.336,5.336,0,0,0-7.68.011l-15.777,15.827v5.1l18.323-18.384a1.628,1.628,0,0,1,2.6-.007,1.6,1.6,0,0,1-.045,2.55l-18.083,18.14h5.173l15.5-15.555A5.258,5.258,0,0,0,52.871,4089.411Z" transform="translate(-27.821 -4068.389)" fill="#fff"/></g></g></g><g transform="translate(0 10)"><rect width="126" height="25" rx="2" transform="translate(140 1247)" fill="#e25351"/><g transform="translate(3 259.5)"><text transform="translate(200 1004.5)" fill="#fff" font-size="13" font-family="NeueHaasDisplay-Mediu, Neue Haas Grotesk Display Pro" letter-spacing="0.025em"><tspan x="-24.999" y="0">Register</tspan></text></g></g><line x2="17.403" transform="translate(140.473 1181.216)" fill="none" stroke="#fff" stroke-width="4"/><line x2="100.668" transform="translate(165.332 1181.216)" fill="none" stroke="#fff" stroke-width="4"/><line x2="17.403" transform="translate(266 1201.216) rotate(180)" fill="none" stroke="#fff" stroke-width="4"/><line x2="100.668" transform="translate(241.141 1201.216) rotate(180)" fill="none" stroke="#fff" stroke-width="4"/><line x2="17.403" transform="translate(266 1221.216) rotate(180)" fill="none" stroke="#fff" stroke-width="4"/><line x2="100.668" transform="translate(241.141 1221.216) rotate(180)" fill="none" stroke="#fff" stroke-width="4"/><line x2="17.403" transform="translate(266 1241.216) rotate(180)" fill="none" stroke="#fff" stroke-width="4"/><line x2="100.668" transform="translate(241.141 1241.216) rotate(180)" fill="none" stroke="#fff" stroke-width="4"/></g></svg>