<svg xmlns="http://www.w3.org/2000/svg" width="206.431" height="136.474" viewBox="0 0 206.431 136.474"><g transform="translate(-92.382 -1084.507)"><g transform="translate(181.982 1086.007)"><g transform="translate(0)"><path d="M6,9.477v74.8a3.078,3.078,0,0,0,3.078,3.078H91.945l16.07,17.563a1.266,1.266,0,0,0,2.2-.855V87.353h8.039a3.078,3.078,0,0,0,3.078-3.078V9.477A3.078,3.078,0,0,0,118.253,6.4H9.078A3.078,3.078,0,0,0,6,9.477Z" transform="translate(-6 -6.399)" fill="none" stroke="#fff" stroke-miterlimit="10" stroke-width="3"/></g><line x2="77.069" transform="translate(17.651 18.646)" fill="none" stroke="#fff" stroke-width="4"/><line x2="17.403" transform="translate(17.651 38.535)" fill="none" stroke="#fff" stroke-width="4"/><line x2="52.208" transform="translate(42.511 38.535)" fill="none" stroke="#fff" stroke-width="4"/><line x2="17.403" transform="translate(94.72 58.423) rotate(180)" fill="none" stroke="#fff" stroke-width="4"/><line x2="52.208" transform="translate(69.86 58.423) rotate(180)" fill="none" stroke="#fff" stroke-width="4"/></g><g transform="translate(93.882 1117.699)"><path d="M390.061,73.516v76.927a3.165,3.165,0,0,1-3.165,3.165H301.67l-16.527,18.063a1.3,1.3,0,0,1-2.262-.879V153.609h-8.267a3.165,3.165,0,0,1-3.165-3.165V73.516a3.165,3.165,0,0,1,3.165-3.165H386.9A3.165,3.165,0,0,1,390.061,73.516Z" transform="translate(-271.448 -70.351)" stroke="#e25351" stroke-miterlimit="10" stroke-width="3"/><line x2="77.069" transform="translate(98.973 59.939) rotate(180)" fill="none" stroke="#fff" stroke-width="4"/><line x2="52.208" transform="translate(74.113 40.05) rotate(180)" fill="none" stroke="#fff" stroke-width="4"/><line x2="17.403" transform="translate(21.905 20.161)" fill="none" stroke="#fff" stroke-width="4"/><line x2="52.208" transform="translate(46.765 20.161)" fill="none" stroke="#fff" stroke-width="4"/><line x2="17.403" transform="translate(98.973 40.05) rotate(180)" fill="none" stroke="#fff" stroke-width="4"/></g></g></svg>