<svg id="abf9a1c0-a96b-4e2c-a8c1-600b1ebce56e" data-name="Layer 1" xmlns="http://www.w3.org/2000/svg" viewBox="0 0 1080 1080"><rect x="236.76" y="289" width="612.07" height="382.88" rx="16.65" style="fill:none;stroke:#000;stroke-miterlimit:10;stroke-width:12px"/><rect x="185.41" y="777.39" width="709.18" height="13.61" rx="3.13"/><rect x="508.76" y="671.88" width="66.37" height="112.31" style="fill:none;stroke:#000;stroke-miterlimit:10;stroke-width:12px"/><path d="M609.6,550.4a140.25,140.25,0,0,0,25.5-80.85V404.73a6.85,6.85,0,0,0-5.35-6.67l-88.26-19.68a7.13,7.13,0,0,0-3,0l-88.26,19.68a6.85,6.85,0,0,0-5.35,6.67v64.82A140.92,140.92,0,0,0,537.67,602a6.83,6.83,0,0,0,4.66,0A140.27,140.27,0,0,0,609.6,550.4ZM540,596.24A137.59,137.59,0,0,1,452,467.88V403.71L540,384.08l88,19.63v64.17a137.59,137.59,0,0,1-88,128.36Z"/><path d="M519.2,439H498.63v17.26l7.53-7.56A53,53,0,0,1,519.2,439Z" style="fill:#e91f27"/><path d="M569.49,487.23a26.31,26.31,0,0,0-8-19.59,28,28,0,0,0-39.4.07l-23.41,23.5v11.4l29.11-29.22a19.56,19.56,0,0,1,14.11-5.92,19.8,19.8,0,0,1,19.85,19.77,19.59,19.59,0,0,1-5.88,14.13L527.25,530h6.16c1.76,0,3.49-.07,5.2-.19L561.42,507A26.52,26.52,0,0,0,569.49,487.23Z"/><path d="M511.86,454.38l-13.23,13.29v11.19L517.45,460a36.51,36.51,0,1,1,51.73,51.53l-15.37,15.43c20.09-6.55,32.84-22.79,32.84-42.4v-.26c0-17.92-10.65-32.89-27.81-40.29a45,45,0,0,0-15.6-2.72A43.1,43.1,0,0,0,511.86,454.38Z"/><path d="M553.58,487.37a11.36,11.36,0,0,0-3.5-8.33,11.7,11.7,0,0,0-16.85,0l-34.6,34.73V525l40.19-40.35c1.9-1.89,3.79-1.91,5.7,0s1.79,3.69-.1,5.6L504.76,530h11.35l34-34.14A11.51,11.51,0,0,0,553.58,487.37Z"/><path d="M254,293.77H833a10,10,0,0,1,10,10V327a0,0,0,0,1,0,0H242a0,0,0,0,1,0,0V305.77A12,12,0,0,1,254,293.77Z" style="fill:#666"/><rect x="378.91" y="306.48" width="320.25" height="7.58" rx="3.5" style="fill:#fff"/><rect x="447.5" y="646" width="185" height="7" rx="3" style="fill:#e25351"/><polygon points="816.53 243.69 810.25 255.35 797.69 262.53 797.69 277.78 790.51 288.55 798.59 301.11 797.69 315.46 809.36 320.84 816.53 335.2 831.79 335.2 843.45 341.48 856.01 333.4 869.47 335.2 875.75 322.64 888.31 315.46 888.31 300.21 895.49 288.55 888.31 277.78 888.31 262.53 875.75 255.35 869.47 243.69 854.22 243.69 843.45 236.51 829.99 243.69 816.53 243.69" style="fill:#fff"/><path d="M892.74,275.64l.8-14.34a2.4,2.4,0,0,0-1.33-2.29l-12.77-6.46L873,239.78a2.43,2.43,0,0,0-2.29-1.33l-14.37.77-12-7.91a2.42,2.42,0,0,0-2.66,0l-12,7.91-14.34-.79a2.39,2.39,0,0,0-2.3,1.33l-6.46,12.77L793.85,259a2.48,2.48,0,0,0-1.33,2.3l.8,14.34-7.91,12a2.42,2.42,0,0,0,0,2.66l7.89,12-.8,14.34a2.4,2.4,0,0,0,1.33,2.3l12.77,6.45,6.45,12.77a2.44,2.44,0,0,0,2.3,1.33l14.34-.8,12,7.91a2.35,2.35,0,0,0,2.66,0l12-7.91,14.34.8a2.4,2.4,0,0,0,2.29-1.33l6.46-12.77,12.77-6.45a2.44,2.44,0,0,0,1.33-2.3l-.8-14.34,7.91-12a2.42,2.42,0,0,0,0-2.66Zm-4.5,24.62a2.29,2.29,0,0,0-.38,1.48l.75,13.57-12.07,6.09a2.41,2.41,0,0,0-1.07,1.07l-6.09,12.06-13.57-.75a2.62,2.62,0,0,0-1.47.39L843,341.64l-11.32-7.47a2.35,2.35,0,0,0-1.33-.41h-.12l-13.57.75-6.09-12.07a2.39,2.39,0,0,0-1.07-1.06l-12.09-6.07.75-13.57a2.59,2.59,0,0,0-.39-1.48L790.32,289l7.47-11.32a2.23,2.23,0,0,0,.39-1.48l-.75-13.56,12.07-6.1a2.36,2.36,0,0,0,1.06-1.06l6.1-12.07,13.57.75a2.64,2.64,0,0,0,1.47-.39L843,236.25l11.32,7.47a2.26,2.26,0,0,0,1.47.39l13.57-.75,6.09,12.07a2.39,2.39,0,0,0,1.07,1.06l12.07,6.1-.75,13.56a2.66,2.66,0,0,0,.38,1.48L895.72,289Z"/><path d="M854.08,279.73l-14.91,14.08L832,286.45a2.06,2.06,0,0,0-3,2.87l8.58,8.81a2.11,2.11,0,0,0,2.92.07L857,282.73a2.09,2.09,0,0,0,.64-1.44,2,2,0,0,0-.56-1.48A2.11,2.11,0,0,0,854.08,279.73Z" style="fill:#e15351"/><circle cx="843.01" cy="288.98" r="28.58" style="fill:none;stroke:#e15351;stroke-miterlimit:10;stroke-width:4px"/></svg>