<svg xmlns="http://www.w3.org/2000/svg" width="47.353" height="47.109" viewBox="0 0 47.353 47.109"><g transform="translate(0)" opacity="0.8"><path d="M6612.515,733.215a1.394,1.394,0,0,0-.545-.965l-3.75-2.842,1.364-4.5a1.4,1.4,0,0,0-1.018-1.763l-4.583-1.07-.583-4.669a1.4,1.4,0,0,0-1.647-1.2l-4.62.886-2.435-4.027a1.4,1.4,0,0,0-1.991-.423l-3.86,2.689-3.861-2.689a1.394,1.394,0,0,0-1.99.423l-2.434,4.027-4.621-.886a1.395,1.395,0,0,0-1.646,1.2l-.585,4.668-4.583,1.07a1.393,1.393,0,0,0-1.017,1.763l1.364,4.5-3.751,2.841a1.393,1.393,0,0,0-.213,2.023l3.079,3.56-2.17,3.94a5.731,5.731,0,1,1,5.215,10.2,1.4,1.4,0,0,0,.535.12l4.705.094,1.542,4.445a1.4,1.4,0,0,0,1.86.828l4.335-1.828,3.217,3.433a1.4,1.4,0,0,0,2.035,0l3.217-3.433,4.336,1.828a1.393,1.393,0,0,0,1.858-.828l1.544-4.445,4.7-.094a1.393,1.393,0,0,0,1.362-1.512l-.4-4.689,4.259-2a1.4,1.4,0,0,0,.629-1.936l-2.271-4.123,3.079-3.559A1.4,1.4,0,0,0,6612.515,733.215Zm-23.668,16.078a13.344,13.344,0,1,1,13.343-13.345A13.36,13.36,0,0,1,6588.847,749.293Z" transform="translate(-6565.17 -712.394)" fill="#d1d1d1"/><path d="M6597.636,734.1a10.555,10.555,0,1,0,10.554,10.554A10.567,10.567,0,0,0,6597.636,734.1Zm5.466,8.554-5.975,5.975a1.392,1.392,0,0,1-1.971,0l-2.987-2.988a1.394,1.394,0,0,1,1.972-1.971l2,2,4.988-4.988a1.394,1.394,0,0,1,1.972,1.972Z" transform="translate(-6573.959 -721.101)" fill="#d1d1d1"/><g transform="translate(1.253 30.609)"><path d="M6568.948,763.506h-1.686v1.413l.616-.619A4.307,4.307,0,0,1,6568.948,763.506Z" transform="translate(-6567.263 -763.506)" fill="#d1d1d1"/><g transform="translate(0 0.184)"><path d="M6573.064,768.583a2.16,2.16,0,0,0-.658-1.6,2.291,2.291,0,0,0-3.228.006l-1.916,1.925v.933l2.383-2.393a1.611,1.611,0,0,1,1.156-.485,1.622,1.622,0,0,1,1.626,1.619,1.607,1.607,0,0,1-.482,1.157l-2.339,2.348h.5c.144,0,.286-.007.426-.016l1.869-1.875A2.174,2.174,0,0,0,6573.064,768.583Z" transform="translate(-6567.263 -764.817)" fill="#d1d1d1"/><path d="M6568.346,764.889l-1.083,1.088v.916l1.541-1.547a2.99,2.99,0,1,1,4.236,4.22l-1.259,1.264a3.654,3.654,0,0,0,2.688-3.472v-.022a3.562,3.562,0,0,0-2.277-3.3,3.691,3.691,0,0,0-1.277-.223A3.532,3.532,0,0,0,6568.346,764.889Z" transform="translate(-6567.263 -763.813)" fill="#d1d1d1"/><path d="M6571.762,769.467a.921.921,0,0,0-.286-.681.959.959,0,0,0-1.38,0l-2.833,2.844v.916l3.291-3.3a.293.293,0,0,1,.467,0,.287.287,0,0,1-.009.458l-3.247,3.26h.929l2.784-2.8A.945.945,0,0,0,6571.762,769.467Z" transform="translate(-6567.263 -765.691)" fill="#d1d1d1"/></g></g></g></svg>