<svg
  id="Group_427"
  data-name="Group 427"
  xmlns="http://www.w3.org/2000/svg"
  width="40.565"
  height="47.965"
  viewBox="0 0 40.565 47.965"
>
  <path
    id="Path_1218"
    data-name="Path 1218"
    d="M4061,9129.953q6.377,3.1,12.755,6.2c1.922.933,3.84,1.875,5.775,2.78a2.036,2.036,0,0,1,1.329,2.113c-.114,3.436.175,6.881-.215,10.312a32.9,32.9,0,0,1-18.936,26.257,2.29,2.29,0,0,1-2.008.129c-11.487-4.888-19.616-17.388-19.368-29.786a1.581,1.581,0,0,1,1.006-1.669,1.519,1.519,0,0,1,1.8.5,2.215,2.215,0,0,1,.4,1.514,28.619,28.619,0,0,0,4.22,14.742,29.522,29.522,0,0,0,12.223,11.241,1.171,1.171,0,0,0,1.208-.021c9.418-4.977,14.905-12.7,16.266-23.295a85.066,85.066,0,0,0,.2-8.808.8.8,0,0,0-.546-.834q-8.032-3.863-16.049-7.758a1.045,1.045,0,0,0-1.023.033q-7.932,3.842-15.88,7.652a.987.987,0,0,0-.657.97,1.549,1.549,0,0,1-1.661,1.615c-.946-.026-1.468-.635-1.5-1.746a5.837,5.837,0,0,0-.007-.7c-.2-1.379.462-2.11,1.683-2.686,5.709-2.688,11.382-5.452,17.064-8.2.321-.155.708-.215.919-.559Z"
    transform="translate(-4040.294 -9129.952)"
    fill="#1a1a1a"
  />
  <path
    id="Path_1219"
    data-name="Path 1219"
    d="M4072.794,9149.083a1.86,1.86,0,0,1-.6,1.283q-6.077,5.818-12.16,11.627a1.54,1.54,0,0,1-2.322-.032q-2.892-2.843-5.734-5.738a1.575,1.575,0,0,1-.145-2.388,1.609,1.609,0,0,1,2.4.143c1.383,1.354,2.76,2.716,4.1,4.112.447.466.7.478,1.179.014,3.43-3.319,6.9-6.6,10.346-9.9a1.645,1.645,0,0,1,2.944.881Z"
    transform="translate(-4041.285 -9131.53)"
    fill="#e25351"
  />
</svg>
