<svg
  xmlns="http://www.w3.org/2000/svg"
  xmlns:xlink="http://www.w3.org/1999/xlink"
  width="109.186"
  height="146.59"
  viewBox="0 0 109.186 146.59"
>
  <defs>
    <clipPath id="clip-path">
      <rect
        id="Rectangle_828"
        data-name="Rectangle 828"
        width="7.028"
        height="9.261"
        fill="#2b4d62"
      />
    </clipPath>
  </defs>
  <g
    id="Group_4185"
    data-name="Group 4185"
    transform="translate(-139.329 -101.788)"
  >
    <path
      id="Path_3469"
      data-name="Path 3469"
      d="M184.861,226.773c.007-7.521-.036-15.042.037-22.563a18.578,18.578,0,0,1,9.487-16.614,14.688,14.688,0,0,1,5.9-2.123c1.085-.128,1.353-.609,1.406-1.579a9.5,9.5,0,0,1,4.189-7.339,10.451,10.451,0,0,1,6.423-1.863c1.707,0,3.415-.023,5.122.011.64.013.78-.214.837-.836a3.658,3.658,0,0,0-1.783-3.78,23.5,23.5,0,0,1-10.144-17.265c-.075-.661-.264-.931-1.008-1.007-4.614-.471-7.667-3.475-7.892-8.051a8.082,8.082,0,0,1,7-8.438c1.073-.146,1.323-.478,1.292-1.493-.075-2.478-.052-4.959-.014-7.439a1.384,1.384,0,0,0-.831-1.4A14.311,14.311,0,0,1,197.5,113.76c-.31-2.738.188-3.355,3.044-3.7-1.14-1.849-1.086-3.882-1.039-5.911a2.068,2.068,0,0,1,2.256-2.276c10.855,0,21.718-.241,32.562.1,9.712.3,18.342,7.41,20.8,17.54a26.594,26.594,0,0,1,.637,5.789c.055,2.926.035,5.854-.009,8.781-.012.8.176,1.14,1.04,1.222a8.286,8.286,0,0,1,.668,16.335c-.707.152-1.658,0-2.078.416s-.31,1.36-.439,2.072a24.455,24.455,0,0,1-11.1,16.715c-.94.616-.571,1.425-.6,2.166-.058,1.689-.017,1.65,1.636,1.7,2.7.081,5.427-.282,8.1.554a9.949,9.949,0,0,1,6.783,8.509,1.567,1.567,0,0,0,1.513,1.764,18.657,18.657,0,0,1,15.3,18.559c.037,7.561.021,15.123.029,22.685h-4.147a2.628,2.628,0,0,1-.338-1.873c-.009-6.463.022-12.926-.018-19.389a16.6,16.6,0,0,0-1.691-8.031,14,14,0,0,0-10.31-7.585,1.426,1.426,0,0,0-1.558.685q-5.222,7.8-10.416,15.626a3.612,3.612,0,0,0-.454,2.109q0,8.354,0,16.707a2.432,2.432,0,0,1-.339,1.751h-4.147a2.827,2.827,0,0,1-.36-1.99q-.013-12.372-.01-24.744a3.251,3.251,0,0,0-.154-1.476,21.732,21.732,0,0,1-18.3,2.613,27.456,27.456,0,0,1-5.474-2.556,2.094,2.094,0,0,0-.212,1.4q-.013,12.381-.012,24.762a2.832,2.832,0,0,1-.363,1.991h-4.147a2.413,2.413,0,0,1-.328-1.749c-.009-5.518-.022-11.036.009-16.553a4.993,4.993,0,0,0-.9-2.953c-3.223-4.775-6.4-9.584-9.6-14.372-.967-1.445-1.145-1.516-2.806-1.116a13.792,13.792,0,0,0-5.159,2.37c-4.264,3.287-5.993,7.739-5.99,12.993q.005,9.755,0,19.51a2.634,2.634,0,0,1-.352,1.87Z"
      transform="translate(-28.075 0)"
      fill="#8e8e8e"
    />
    <path
      id="Path_3470"
      data-name="Path 3470"
      d="M389.675,426.55c.019-6.218.057-12.436.039-18.654a4.565,4.565,0,0,1,.825-2.713q5.179-7.67,10.264-15.4a1.21,1.21,0,0,1,1.333-.548c4.919.448,10.163,4.81,11.716,9.629a18.97,18.97,0,0,1,.873,5.867q.008,10.244.005,20.489c0,.444.048.889.073,1.333Z"
      transform="translate(-170.435 -199.777)"
      fill="#e5524d"
    />
    <path
      id="Path_3471"
      data-name="Path 3471"
      d="M218.344,391.816a12.811,12.811,0,0,1,6.3-2.612,1.154,1.154,0,0,1,1.355.49q5.141,7.822,10.38,15.581a4.2,4.2,0,0,1,.734,2.492c-.009,6.249.024,12.5.043,18.746H218.369a2.233,2.233,0,0,1-.391-1.617q-.012-15.723,0-31.445A2.59,2.59,0,0,1,218.344,391.816Z"
      transform="translate(-51.093 -199.739)"
      fill="#e5524d"
    />
    <path
      id="Path_3472"
      data-name="Path 3472"
      d="M313.574,419.658a26.672,26.672,0,0,0,6.959.861,21.353,21.353,0,0,0,11.822-3.995v29.007H313.571a2.233,2.233,0,0,1-.391-1.616q-.012-11.324,0-22.649A2.054,2.054,0,0,1,313.574,419.658Z"
      transform="translate(-117.263 -218.757)"
      fill="#e6e6e6"
    />
    <path
      id="Path_3473"
      data-name="Path 3473"
      d="M204.792,397.866q.013,17.348.026,34.7h-6.343c.024-3.086.033-6.173.076-9.258.072-5.118-.316-10.252.2-15.35A13.432,13.432,0,0,1,204.792,397.866Z"
      transform="translate(-37.542 -205.789)"
      fill="#cc441a"
    />
    <path
      id="Path_3474"
      data-name="Path 3474"
      d="M300.578,419.53q0,12.936,0,25.873h-6.1V416.34A26.835,26.835,0,0,0,300.578,419.53Z"
      transform="translate(-104.266 -218.63)"
      fill="#d4d3d2"
    />
    <path
      id="Path_3475"
      data-name="Path 3475"
      d="M286.293,189.619a17.957,17.957,0,0,0,1.929-5.067c.091-.557.372-.611.823-.61q11.943.011,23.887,0c.489,0,.685.141.79.652.93,4.5,3.626,7.783,7.25,10.41.428.31.791.556.793,1.218a88.777,88.777,0,0,1-.793,14.69c-1.631,9.931-11.305,17.45-21.372,16.662a17.8,17.8,0,0,1-7.411-2.015,22.612,22.612,0,0,1-2.226-4.45,34.644,34.644,0,0,1-3.58-11.313,45.432,45.432,0,0,1-.381-6.305,1.392,1.392,0,0,1,.42-1.214c.518-.257,1.035-.019,1.553.012a3.814,3.814,0,0,0,3.879-1.981,3.415,3.415,0,0,0-.3-3.988,3.647,3.647,0,0,0-4.061-1.494c-.482.118-1.034.43-1.39-.253A11.119,11.119,0,0,1,286.293,189.619Z"
      transform="translate(-98.318 -57.099)"
      fill="#fed0b9"
    />
    <path
      id="Path_3476"
      data-name="Path 3476"
      d="M249.255,123.825l1.336-.054a2.077,2.077,0,1,0,.252-4.145,7.552,7.552,0,0,1-1.426-.257,4.009,4.009,0,0,1-2.014-1.5c-.479-.662-1.006-1.5-.682-2.224.225-.5,1.184-.181,1.81-.182,8.974-.015,17.949-.04,26.924,0a18.7,18.7,0,0,1,18.025,12.86c.282.839.432,1.721.673,2.575.257.91.022,1.22-1,1.2-3.816-.065-7.634-.027-11.452-.032-.323,0-.647-.033-.97-.05a216.649,216.649,0,0,1-29.978-7.322C250.208,124.533,249.518,124.519,249.255,123.825Z"
      transform="translate(-71.006 -9.437)"
      fill="#ffbe4f"
    />
    <path
      id="Path_3477"
      data-name="Path 3477"
      d="M315.063,351.289c.176,1.57-.129,3.157.215,4.727a6.029,6.029,0,0,0,3.26,4.283c.545.279.8.564.733,1.181a4.7,4.7,0,0,0,0,1.457c.458,2.185-.756,3.453-2.344,4.615a16.951,16.951,0,0,1-21.735-1.267,2.187,2.187,0,0,1-.852-2.011,5.267,5.267,0,0,0,0-1.094c-.1-1.47-.043-2.633,1.631-3.508,1.752-.915,2.448-2.838,2.52-4.855.042-1.175.035-2.352.051-3.528.492-.339.947-.06,1.381.119a17.313,17.313,0,0,0,13.751,0C314.117,351.229,314.572,350.95,315.063,351.289Z"
      transform="translate(-104.157 -173.305)"
      fill="#fed0ba"
    />
    <path
      id="Path_3478"
      data-name="Path 3478"
      d="M273.172,202.565l.046,5.24c.077.445-.292.619-.529.874a3.876,3.876,0,0,0,.241,5.757c.262.241.6.428.614.844-.587.477-.327,1.138-.318,1.709A42.7,42.7,0,0,0,274.18,226a48.643,48.643,0,0,0,3.061,8.164,23.593,23.593,0,0,1,1.828,4.343,19.156,19.156,0,0,1-10.906-13.19c-1.352-5.342-1.119-10.868-1.092-16.344a.846.846,0,0,1,.449-.779A23.125,23.125,0,0,0,273.172,202.565Z"
      transform="translate(-85.197 -70.045)"
      fill="#f3b6a0"
    />
    <path
      id="Path_3479"
      data-name="Path 3479"
      d="M245.348,142.966a204.633,204.633,0,0,0,19.716,5.508c3.76.913,7.562,1.651,11.344,2.475a1.859,1.859,0,0,1,.419.213c-4.869.018-9.737.046-14.606.051-3.977,0-7.955.035-11.931-.046a10.32,10.32,0,0,1-9.2-7.3c-.234-.819-.051-1,.728-.96C243,142.964,244.172,142.95,245.348,142.966Z"
      transform="translate(-67.098 -28.578)"
      fill="#f39b60"
    />
    <path
      id="Path_3480"
      data-name="Path 3480"
      d="M380.28,374.857c0-4.487.006-8.62,0-12.753,0-1.963-.326-2.337-2.281-2.766-1.263-.277-1.811-.992-1.885-2.457-.106-2.114-.106-2.115,1.969-2.114,1.542,0,3.085-.017,4.628.009a5.839,5.839,0,0,1,5.1,8.769c-2.072,3.478-4.453,6.773-6.7,10.147C380.908,373.992,380.691,374.279,380.28,374.857Z"
      transform="translate(-160.982 -175.83)"
      fill="#e5524d"
    />
    <path
      id="Path_3481"
      data-name="Path 3481"
      d="M256.65,367.225c-.754-1.1-1.553-2.172-2.252-3.306a5.746,5.746,0,0,1-.217-6.114,5.627,5.627,0,0,1,5.29-3.051c1.827,0,3.655.031,5.481-.017.755-.02,1.033.226.952.973-.061.562.011,1.141-.071,1.7a2.137,2.137,0,0,1-1.888,1.931c-1.845.351-2.214.812-2.216,2.691,0,3.979.008,7.957-.009,11.936,0,.082.353.974-.372.3-.3-3.025-.055-6.058-.149-9.086-.016-.5.272-1.216-.231-1.446-.462-.211-.889.423-1.328.687A14.579,14.579,0,0,0,256.65,367.225Z"
      transform="translate(-75.72 -175.811)"
      fill="#e5524d"
    />
    <path
      id="Path_3482"
      data-name="Path 3482"
      d="M324.713,340.9a41.1,41.1,0,0,1-6.394,1.772c-3.051.447-5.835-.306-8.632-1.26-.5-.169-.991-.341-1.486-.511v-4.666a24.2,24.2,0,0,0,16.512-.054Z"
      transform="translate(-113.807 -162.913)"
      fill="#f3b6a0"
    />
    <path
      id="Path_3483"
      data-name="Path 3483"
      d="M264.05,385.833a3.845,3.845,0,0,1,1.817-2.345,12.6,12.6,0,0,1,3.063-1.98c0,3.121.018,6.11-.013,9.1a4.612,4.612,0,0,1-.172,2.268Z"
      transform="translate(-83.119 -194.42)"
      fill="#e5524d"
    />
    <path
      id="Path_3484"
      data-name="Path 3484"
      d="M244.085,229.307a29.023,29.023,0,0,0,.023,3.04c.109,1.034-.272,1.129-1.138.91a4.1,4.1,0,0,1-3.074-4.017,4.145,4.145,0,0,1,3.1-4.013c.664-.15,1.078-.073,1.026.791-.065,1.093-.016,2.192-.016,3.289Z"
      transform="translate(-66.331 -85.754)"
      fill="#f1b59f"
    />
    <path
      id="Path_3485"
      data-name="Path 3485"
      d="M417.19,233.3c0-2.615-.015-5.191.009-7.766.008-.79.642-.471.993-.4a4.137,4.137,0,0,1,.079,7.993C417.923,233.213,417.559,233.243,417.19,233.3Z"
      transform="translate(-189.556 -85.646)"
      fill="#faceb8"
    />
    <path
      id="Path_3486"
      data-name="Path 3486"
      d="M394.876,190.178a13.587,13.587,0,0,1-3.645-5.4c-.243-.692-.037-.9.7-.925,2.944-.093,2.943-.117,2.943,2.858Z"
      transform="translate(-171.449 -57.024)"
      fill="#ffbb4e"
    />
    <path
      id="Path_3487"
      data-name="Path 3487"
      d="M267.129,190.041c0-2.1.02-3.884-.011-5.665-.01-.594.188-.788.771-.721a9.446,9.446,0,0,0,1.819.078c1.067-.085,1.359.208.929,1.275A14.274,14.274,0,0,1,267.129,190.041Z"
      transform="translate(-85.252 -56.893)"
      fill="#f0995f"
    />
    <path
      id="Path_3490"
      data-name="Path 3490"
      d="M279.444,223.307c-4.045-2.763-4.216-6.689-.431-9.886,3.824-1.316,6.945-.145,8.034,3.03a5.229,5.229,0,0,1-1.153,5.5,5.374,5.374,0,0,1-5.529,1.609C280.056,223.489,279.751,223.392,279.444,223.307Z"
      transform="translate(-91.626 -77.222)"
      fill="#fed0b9"
    />
    <g
      id="Group_1192"
      data-name="Group 1192"
      transform="translate(144.462 182.408)"
    >
      <rect
        id="Rectangle_826"
        data-name="Rectangle 826"
        width="31.272"
        height="19.253"
        rx="2"
        fill="#72c5e6"
      />
      <g
        id="Group_1189"
        data-name="Group 1189"
        transform="translate(22.618 4.597)"
      >
        <rect
          id="Rectangle_827"
          data-name="Rectangle 827"
          width="7.028"
          height="9.261"
          fill="#2b4d62"
        />
        <g id="Group_1188" data-name="Group 1188" clip-path="url(#clip-path)">
          <path
            id="Path_3491"
            data-name="Path 3491"
            d="M214.854,404.74l1.021-.7,2.283-1.231,2.594-.421,2.4.829.6,3.441-8.64-.392Z"
            transform="translate(-216.006 -395.94)"
            fill="#fcfcfc"
          />
          <g
            id="Group_1187"
            data-name="Group 1187"
            transform="translate(-0.222 1.337)"
          >
            <g id="Group_1186" data-name="Group 1186">
              <path
                id="Path_3492"
                data-name="Path 3492"
                d="M220.279,391.154c-.689.518-1.509.836-2.19,1.377-.051.041-.109.1-.162.031s.014-.134.069-.177c.074-.058.15-.114.227-.168.265-.185.544-.349.825-.508a8.871,8.871,0,0,0,1.2-.756.652.652,0,0,0,.162-.875,2.609,2.609,0,0,1-.368-.776.284.284,0,0,0-.112-.147.9.9,0,0,1-.26-1.072c.011-.029.038-.053.017-.087-.216-.343-.035-.683.018-1.019a1.348,1.348,0,0,1,.887-1.079.392.392,0,0,0,.089-.035c.335-.247.748-.126,1.111-.24.015,0,.038-.009.047,0,.157.137.376.2.505.347a.918.918,0,0,0,.273.262c.27.129.278.4.31.64a3.276,3.276,0,0,1,.029.722.516.516,0,0,0,.147.517.553.553,0,0,1-.035.734,4.033,4.033,0,0,0-.432.831.832.832,0,0,0,.02.771.3.3,0,0,0,.258.206,2.626,2.626,0,0,1,.432.19c.513.18,1.03.349,1.545.523.068.023.135.051.2.081.047.021.084.056.065.112-.025.075-.088.063-.14.041-.641-.27-1.335-.4-1.962-.7-.106-.052-.125-.013-.174.057a8.43,8.43,0,0,1-.978,1.252c-.337.331-.518.33-.848-.013A5.638,5.638,0,0,1,220.279,391.154Z"
                transform="translate(-217.906 -385.618)"
                fill="#1b1312"
              />
              <path
                id="Path_3493"
                data-name="Path 3493"
                d="M224.887,394.772a.244.244,0,0,1,.168.124.547.547,0,0,0,.957-.1c.034-.068.044-.15.158-.144a.189.189,0,0,1,.178.126.513.513,0,0,0,.557.287.456.456,0,0,0,.414-.375c.032-.122.113-.162.243-.164a3.318,3.318,0,0,1-.189,1.18,1.222,1.222,0,0,1-.968.741,1.206,1.206,0,0,1-.785-.144,1.233,1.233,0,0,1-.51-.691C225.019,395.339,224.962,395.058,224.887,394.772Z"
                transform="translate(-222.758 -391.807)"
                fill="#fcfbfa"
              />
              <path
                id="Path_3494"
                data-name="Path 3494"
                d="M226.644,400.71a1.287,1.287,0,0,0,1.7-.23,1.448,1.448,0,0,0,.327.653c.046.045.024.081,0,.121a8.02,8.02,0,0,1-.991,1.239.263.263,0,0,1-.413.009,4.817,4.817,0,0,1-.728-.892.107.107,0,0,1-.017-.132A1.29,1.29,0,0,0,226.644,400.71Z"
                transform="translate(-223.879 -395.948)"
                fill="#fcfcfc"
              />
              <path
                id="Path_3495"
                data-name="Path 3495"
                d="M224.968,390.846a1.386,1.386,0,0,1,.446-1.225c.038-.038.092-.1.139-.054.167.179.284.047.41-.051.025-.019.064-.057.076-.05.329.183.7.027,1.039.135.027.009.069.036.069.053-.01.32.259.506.362.772.011.03.035.058.036.088,0,.078.125.165,0,.231a.233.233,0,0,1-.286-.04.5.5,0,0,0-.87.116c-.117.178-.21.2-.356.035a1.292,1.292,0,0,0-.3-.235.43.43,0,0,0-.6.113A.229.229,0,0,1,224.968,390.846Z"
                transform="translate(-222.803 -388.292)"
                fill="#fefefe"
              />
              <path
                id="Path_3496"
                data-name="Path 3496"
                d="M226.21,394.066c.213.057.205.2.124.353a.4.4,0,0,1-.539.145.383.383,0,0,1-.192-.363c.045-.195.26-.131.405-.168a.062.062,0,0,1,.016.042c0,.063-.1.15,0,.18s.058-.087.074-.141S226.159,394.049,226.21,394.066Z"
                transform="translate(-223.252 -391.467)"
                fill="#f4f0ee"
              />
              <path
                id="Path_3497"
                data-name="Path 3497"
                d="M230.4,393.854c.113.062.338-.056.335.213a.346.346,0,0,1-.328.37.382.382,0,0,1-.395-.343C230.024,393.857,230.227,393.886,230.4,393.854Z"
                transform="translate(-226.318 -391.342)"
                fill="#f6f2f0"
              />
              <path
                id="Path_3498"
                data-name="Path 3498"
                d="M234.139,393.92c.181.217.161.411-.072.729Z"
                transform="translate(-229.139 -391.388)"
                fill="#dbd5d5"
              />
              <path
                id="Path_3499"
                data-name="Path 3499"
                d="M226.865,394.051c-.047.008-.092,0-.048.081a.145.145,0,0,1-.24.161c-.077-.093-.019-.158.044-.222.016-.016.028-.034.043-.052C226.732,394.016,226.805,393.992,226.865,394.051Z"
                transform="translate(-223.907 -391.452)"
                fill="#201c1b"
              />
              <path
                id="Path_3500"
                data-name="Path 3500"
                d="M224.116,394.838a.7.7,0,0,1-.155-.629A1.9,1.9,0,0,1,224.116,394.838Z"
                transform="translate(-222.102 -391.589)"
                fill="#d4cbca"
              />
              <path
                id="Path_3501"
                data-name="Path 3501"
                d="M227.9,397.421a.506.506,0,0,1,.558.156c.041.038.1.062.076.131s-.083.068-.139.076a5.949,5.949,0,0,1-.947.035c-.137,0-.194-.062-.088-.17.08-.082.093-.26.273-.221.021,0,.056.008.046-.021-.108-.345.24-.082.3-.218.008-.018.083.016.085.057C228.065,397.346,227.976,397.363,227.9,397.421Z"
                transform="translate(-224.439 -393.656)"
                fill="#1d1716"
              />
              <path
                id="Path_3502"
                data-name="Path 3502"
                d="M229.2,403.158c0,.042-.012.079-.062.087-.073.012-.367-.252-.361-.325,0-.048.038-.067.081-.07A.818.818,0,0,1,229.2,403.158Z"
                transform="translate(-225.458 -397.594)"
                fill="#221e1e"
              />
              <path
                id="Path_3503"
                data-name="Path 3503"
                d="M230.884,393.985a.141.141,0,0,1,.141.156.14.14,0,0,1-.17.147.152.152,0,0,1,.029-.3Z"
                transform="translate(-226.817 -391.433)"
                fill="#403a3a"
              />
            </g>
          </g>
        </g>
      </g>
      <rect
        id="Rectangle_829"
        data-name="Rectangle 829"
        width="5.344"
        height="0.353"
        transform="translate(23.513 14.197)"
        fill="#0e282f"
      />
      <rect
        id="Rectangle_830"
        data-name="Rectangle 830"
        width="2.787"
        height="0.353"
        transform="translate(24.827 14.797)"
        fill="#0e282f"
      />
      <g
        id="Group_1190"
        data-name="Group 1190"
        transform="translate(21.7 16.075)"
      >
        <path
          id="Path_3504"
          data-name="Path 3504"
          d="M215.623,421.6a1.575,1.575,0,0,0,.288-.092,15.256,15.256,0,0,0,2.79-1.447,3.878,3.878,0,0,0,.77-.62.279.279,0,0,0,.1-.218c-.021-.125-.178-.165-.3-.17a2.844,2.844,0,0,0-1.682.476,1.768,1.768,0,0,0,.524-.513c.133-.174-.183-.152-.355-.109a.233.233,0,0,0-.183.223"
          transform="translate(-215.623 -418.876)"
          fill="none"
          stroke="#1a1818"
          stroke-linecap="round"
          stroke-linejoin="round"
          stroke-width="0.2"
        />
        <path
          id="Path_3505"
          data-name="Path 3505"
          d="M225.969,420.3q.321-.215.637-.438a.594.594,0,0,1,0,.156.143.143,0,0,0,.062.135.149.149,0,0,0,.12-.007.531.531,0,0,0,.244-.194c.035.08.152.067.233.034a1.965,1.965,0,0,0,.593-.37c.037.062-.011.173.058.195a.088.088,0,0,0,.054-.005c.107-.036.195-.119.3-.149a.209.209,0,0,1,.086-.008.443.443,0,0,1,.088.03.869.869,0,0,0,.505-.02,11.1,11.1,0,0,0-1.51.306,1.926,1.926,0,0,0,.816-.043,15.819,15.819,0,0,0,1.974-.6l-.137.181a.074.074,0,0,0,.091-.043.156.156,0,0,1-.12-.139.4.4,0,0,0,.038.167,3.177,3.177,0,0,0,0-.4l.318.715"
          transform="translate(-222.814 -419.02)"
          fill="none"
          stroke="#1a1818"
          stroke-linecap="round"
          stroke-linejoin="round"
          stroke-width="0.2"
        />
      </g>
      <rect
        id="Rectangle_831"
        data-name="Rectangle 831"
        width="23.941"
        height="0.76"
        transform="translate(4.13 1.274)"
        fill="#0e282f"
      />
      <rect
        id="Rectangle_832"
        data-name="Rectangle 832"
        width="12.487"
        height="0.76"
        transform="translate(9.764 2.565)"
        fill="#0e282f"
      />
      <rect
        id="Rectangle_833"
        data-name="Rectangle 833"
        width="1.601"
        height="0.818"
        rx="0.409"
        transform="translate(1.857 4.684)"
        fill="#494949"
      />
      <rect
        id="Rectangle_834"
        data-name="Rectangle 834"
        width="2.078"
        height="0.459"
        rx="0.229"
        transform="translate(1.857 6.512)"
        fill="#494949"
      />
      <rect
        id="Rectangle_835"
        data-name="Rectangle 835"
        width="2.846"
        height="0.459"
        rx="0.229"
        transform="translate(1.857 7.512)"
        fill="#494949"
      />
      <rect
        id="Rectangle_836"
        data-name="Rectangle 836"
        width="2.437"
        height="0.459"
        rx="0.229"
        transform="translate(1.857 8.466)"
        fill="#494949"
      />
      <rect
        id="Rectangle_837"
        data-name="Rectangle 837"
        width="2.437"
        height="0.459"
        rx="0.229"
        transform="translate(1.857 9.546)"
        fill="#494949"
      />
      <rect
        id="Rectangle_838"
        data-name="Rectangle 838"
        width="2.962"
        height="0.459"
        rx="0.229"
        transform="translate(1.857 13.566)"
        fill="#494949"
      />
      <rect
        id="Rectangle_839"
        data-name="Rectangle 839"
        width="4.057"
        height="0.459"
        rx="0.229"
        transform="translate(1.857 14.909)"
        fill="#494949"
      />
      <rect
        id="Rectangle_840"
        data-name="Rectangle 840"
        width="3.473"
        height="0.459"
        rx="0.229"
        transform="translate(1.857 16.092)"
        fill="#494949"
      />
      <rect
        id="Rectangle_841"
        data-name="Rectangle 841"
        width="3.473"
        height="0.459"
        rx="0.229"
        transform="translate(1.857 17.21)"
        fill="#494949"
      />
      <rect
        id="Rectangle_842"
        data-name="Rectangle 842"
        width="1.093"
        height="0.459"
        rx="0.229"
        transform="translate(3.391 10.649)"
        fill="#494949"
      />
      <rect
        id="Rectangle_843"
        data-name="Rectangle 843"
        width="1.807"
        height="0.459"
        rx="0.229"
        transform="translate(3.391 11.458)"
        fill="#494949"
      />
      <rect
        id="Rectangle_844"
        data-name="Rectangle 844"
        width="2.146"
        height="0.459"
        rx="0.229"
        transform="translate(3.391 12.238)"
        fill="#494949"
      />
      <rect
        id="Rectangle_845"
        data-name="Rectangle 845"
        width="11.023"
        height="0.37"
        rx="0.185"
        transform="translate(7.068 6.512)"
        fill="#494949"
      />
      <rect
        id="Rectangle_846"
        data-name="Rectangle 846"
        width="5.006"
        height="0.459"
        rx="0.229"
        transform="translate(7.068 7.512)"
        fill="#494949"
      />
      <rect
        id="Rectangle_847"
        data-name="Rectangle 847"
        width="1.737"
        height="0.459"
        rx="0.229"
        transform="translate(7.068 8.466)"
        fill="#494949"
      />
      <rect
        id="Rectangle_848"
        data-name="Rectangle 848"
        width="2.744"
        height="0.459"
        rx="0.229"
        transform="translate(7.068 9.546)"
        fill="#494949"
      />
      <rect
        id="Rectangle_849"
        data-name="Rectangle 849"
        width="6.599"
        height="0.459"
        rx="0.229"
        transform="translate(7.068 13.566)"
        fill="#494949"
      />
      <rect
        id="Rectangle_850"
        data-name="Rectangle 850"
        width="2.907"
        height="0.459"
        rx="0.229"
        transform="translate(7.068 14.909)"
        fill="#494949"
      />
      <rect
        id="Rectangle_851"
        data-name="Rectangle 851"
        width="5.642"
        height="0.459"
        rx="0.229"
        transform="translate(7.068 16.092)"
        fill="#494949"
      />
      <rect
        id="Rectangle_852"
        data-name="Rectangle 852"
        width="3.473"
        height="0.459"
        rx="0.229"
        transform="translate(7.068 17.21)"
        fill="#494949"
      />
      <rect
        id="Rectangle_853"
        data-name="Rectangle 853"
        width="1.093"
        height="0.459"
        rx="0.229"
        transform="translate(7.068 10.649)"
        fill="#494949"
      />
      <rect
        id="Rectangle_854"
        data-name="Rectangle 854"
        width="3.708"
        height="0.459"
        rx="0.229"
        transform="translate(7.068 11.458)"
        fill="#494949"
      />
      <rect
        id="Rectangle_855"
        data-name="Rectangle 855"
        width="2.846"
        height="0.459"
        rx="0.229"
        transform="translate(7.068 12.238)"
        fill="#494949"
      />
      <g
        id="Group_1191"
        data-name="Group 1191"
        transform="translate(6.798 4.627)"
      >
        <path
          id="Path_3506"
          data-name="Path 3506"
          d="M166.8,381.991h.145v-.557H166.8a.046.046,0,0,1-.048-.047.046.046,0,0,1,.014-.034.047.047,0,0,1,.034-.014h.237v.652h.095v-.2a.047.047,0,0,1,.047-.047.044.044,0,0,1,.033.014.045.045,0,0,1,.014.033v.244a.045.045,0,0,1-.014.033.044.044,0,0,1-.033.014H166.8a.045.045,0,0,1-.034-.014.047.047,0,0,1-.014-.034.043.043,0,0,1,.014-.032A.045.045,0,0,1,166.8,381.991Z"
          transform="translate(-166.754 -381.338)"
          fill="#494949"
        />
        <path
          id="Path_3507"
          data-name="Path 3507"
          d="M169.842,382.085h-.429v-.326a.093.093,0,0,1,.027-.067.092.092,0,0,1,.067-.028h.287v-.23h-.338a.045.045,0,0,1-.034-.013.046.046,0,0,1-.013-.034.045.045,0,0,1,.013-.034.045.045,0,0,1,.034-.014h.338a.091.091,0,0,1,.067.028.088.088,0,0,1,.028.066v.23a.091.091,0,0,1-.028.068.092.092,0,0,1-.067.028h-.287v.232h.335a.047.047,0,0,1,.047.047.047.047,0,0,1-.047.047Z"
          transform="translate(-168.599 -381.338)"
          fill="#494949"
        />
        <path
          id="Path_3508"
          data-name="Path 3508"
          d="M172.074,381.43v-.041a.044.044,0,0,1,.014-.033.044.044,0,0,1,.033-.014h.428v.29a.048.048,0,0,1-.017.038l-.174.148v.22a.047.047,0,0,1-.014.034.048.048,0,0,1-.082-.033V381.8a.052.052,0,0,1,.017-.042l.174-.147v-.176h-.286a.046.046,0,0,1-.047.041.044.044,0,0,1-.033-.014A.045.045,0,0,1,172.074,381.43Z"
          transform="translate(-170.452 -381.34)"
          fill="#494949"
        />
        <path
          id="Path_3509"
          data-name="Path 3509"
          d="M175.158,382.085h-.429v-.326a.092.092,0,0,1,.028-.067.091.091,0,0,1,.066-.028h.287v-.23h-.338a.045.045,0,0,1-.034-.013.047.047,0,0,1-.013-.034.047.047,0,0,1,.013-.034.045.045,0,0,1,.034-.014h.338a.092.092,0,0,1,.068.028.089.089,0,0,1,.028.066v.23a.095.095,0,0,1-.1.1h-.287v.232h.335a.047.047,0,0,1,.034.014.046.046,0,0,1,.014.034.045.045,0,0,1-.014.033A.046.046,0,0,1,175.158,382.085Z"
          transform="translate(-172.294 -381.338)"
          fill="#494949"
        />
        <path
          id="Path_3510"
          data-name="Path 3510"
          d="M177.39,381.991v-.565a.093.093,0,0,1,.091-.091h.295a.087.087,0,0,1,.063.027.088.088,0,0,1,.027.064v.565a.088.088,0,0,1-.027.064.087.087,0,0,1-.064.027h-.294a.087.087,0,0,1-.065-.027A.089.089,0,0,1,177.39,381.991Zm.382,0v-.557h-.288v.557Z"
          transform="translate(-174.147 -381.335)"
          fill="#494949"
        />
        <path
          id="Path_3511"
          data-name="Path 3511"
          d="M180.049,381.991v-.565a.093.093,0,0,1,.091-.091h.295a.092.092,0,0,1,.09.091v.565a.091.091,0,0,1-.091.091h-.294a.087.087,0,0,1-.065-.027A.089.089,0,0,1,180.049,381.991Zm.382,0v-.557h-.288v.557Z"
          transform="translate(-175.995 -381.335)"
          fill="#494949"
        />
        <path
          id="Path_3512"
          data-name="Path 3512"
          d="M183.079,382.035v-.2H182.8v-.455a.047.047,0,0,1,.014-.034.048.048,0,0,1,.034-.014.046.046,0,0,1,.033.014.048.048,0,0,1,.014.034v.359h.189v-.277a.048.048,0,0,1,.014-.034.044.044,0,0,1,.033-.014.045.045,0,0,1,.034.014.048.048,0,0,1,.014.034v.277a.046.046,0,0,1,.033.014.046.046,0,0,1,.014.034.046.046,0,0,1-.014.034.045.045,0,0,1-.033.013v.2a.048.048,0,0,1-.048.047.043.043,0,0,1-.033-.014A.045.045,0,0,1,183.079,382.035Z"
          transform="translate(-177.903 -381.335)"
          fill="#494949"
        />
        <path
          id="Path_3513"
          data-name="Path 3513"
          d="M185.737,382.035v-.2h-.284v-.455a.049.049,0,0,1,.048-.048.046.046,0,0,1,.033.014.047.047,0,0,1,.014.034v.359h.189v-.277a.048.048,0,0,1,.014-.034.045.045,0,0,1,.034-.014.044.044,0,0,1,.033.014.048.048,0,0,1,.014.034v.277a.046.046,0,0,1,.033.014.045.045,0,0,1,.014.034.045.045,0,0,1-.014.034.045.045,0,0,1-.033.013v.2a.044.044,0,0,1-.014.033.044.044,0,0,1-.033.014.044.044,0,0,1-.034-.014A.045.045,0,0,1,185.737,382.035Z"
          transform="translate(-179.751 -381.335)"
          fill="#494949"
        />
        <path
          id="Path_3514"
          data-name="Path 3514"
          d="M188.024,381.43v-.041a.045.045,0,0,1,.014-.033.043.043,0,0,1,.033-.014h.429v.29a.048.048,0,0,1-.018.038l-.173.148v.22a.047.047,0,0,1-.014.034.048.048,0,0,1-.082-.033V381.8a.052.052,0,0,1,.017-.042l.174-.147v-.176h-.286a.046.046,0,0,1-.047.041.044.044,0,0,1-.033-.014A.046.046,0,0,1,188.024,381.43Z"
          transform="translate(-181.538 -381.34)"
          fill="#494949"
        />
        <path
          id="Path_3515"
          data-name="Path 3515"
          d="M190.682,381.43v-.041a.045.045,0,0,1,.014-.033.044.044,0,0,1,.033-.014h.429v.29a.048.048,0,0,1-.018.038l-.174.148v.22a.047.047,0,0,1-.014.034.043.043,0,0,1-.033.014.045.045,0,0,1-.034-.014.044.044,0,0,1-.014-.033V381.8a.052.052,0,0,1,.017-.042l.174-.147v-.176h-.286a.046.046,0,0,1-.047.041.044.044,0,0,1-.033-.014A.046.046,0,0,1,190.682,381.43Z"
          transform="translate(-183.385 -381.34)"
          fill="#494949"
        />
        <path
          id="Path_3516"
          data-name="Path 3516"
          d="M193.34,381.43v-.041a.046.046,0,0,1,.014-.033.045.045,0,0,1,.034-.014h.428v.29a.048.048,0,0,1-.018.038l-.174.148v.22a.047.047,0,0,1-.014.034.043.043,0,0,1-.033.014.046.046,0,0,1-.034-.014.044.044,0,0,1-.014-.033V381.8a.052.052,0,0,1,.016-.042l.174-.147v-.176h-.286a.046.046,0,0,1-.047.041.045.045,0,0,1-.034-.014A.046.046,0,0,1,193.34,381.43Z"
          transform="translate(-185.233 -381.34)"
          fill="#494949"
        />
        <path
          id="Path_3517"
          data-name="Path 3517"
          d="M196.474,381.433v.177a.137.137,0,0,1-.038.1.14.14,0,0,1,.039.1v.184a.089.089,0,0,1-.028.066.092.092,0,0,1-.067.028h-.334a.047.047,0,0,1-.047-.047.047.047,0,0,1,.047-.047h.333v-.184a.047.047,0,0,0-.014-.034.046.046,0,0,0-.034-.014h-.19a.047.047,0,0,1-.047-.047.046.046,0,0,1,.014-.034.045.045,0,0,1,.033-.014h.191a.046.046,0,0,0,.034-.014.045.045,0,0,0,.014-.033v-.183h-.337a.045.045,0,0,1-.033-.013.045.045,0,0,1-.014-.034.047.047,0,0,1,.047-.047h.337a.095.095,0,0,1,.095.094Z"
          transform="translate(-187.078 -381.338)"
          fill="#494949"
        />
        <path
          id="Path_3518"
          data-name="Path 3518"
          d="M198.653,381.99v-.231a.09.09,0,0,1,.028-.066.092.092,0,0,1,.067-.028v-.278a.047.047,0,0,1,.014-.034.046.046,0,0,1,.034-.014h.192a.047.047,0,0,1,.047.047v.278a.093.093,0,0,1,.066.027.09.09,0,0,1,.028.067v.232a.09.09,0,0,1-.028.066.091.091,0,0,1-.066.028h-.287a.088.088,0,0,1-.067-.029A.092.092,0,0,1,198.653,381.99Zm.1-.231v.232h.287v-.232Zm.095-.326v.231h.1v-.231Z"
          transform="translate(-188.925 -381.338)"
          fill="#494949"
        />
        <path
          id="Path_3519"
          data-name="Path 3519"
          d="M201.312,381.99v-.231a.09.09,0,0,1,.028-.066.092.092,0,0,1,.067-.028v-.278a.047.047,0,0,1,.013-.034.046.046,0,0,1,.034-.014h.192a.045.045,0,0,1,.033.014.046.046,0,0,1,.014.034v.278a.094.094,0,0,1,.066.027.091.091,0,0,1,.028.067v.232a.09.09,0,0,1-.028.066.091.091,0,0,1-.066.028h-.287a.089.089,0,0,1-.068-.029A.092.092,0,0,1,201.312,381.99Zm.1-.231v.232h.287v-.232Zm.095-.326v.231h.1v-.231Z"
          transform="translate(-190.774 -381.338)"
          fill="#494949"
        />
        <path
          id="Path_3520"
          data-name="Path 3520"
          d="M204.413,382.081h-.047a.045.045,0,0,1-.033-.014.044.044,0,0,1-.014-.033.044.044,0,0,1,.014-.033.044.044,0,0,1,.033-.014v-.312h-.333a.043.043,0,0,1-.033-.014.044.044,0,0,1-.014-.033v-.245a.044.044,0,0,1,.014-.033.045.045,0,0,1,.033-.014h.38a.047.047,0,0,1,.034.014.045.045,0,0,1,.014.033v.652a.045.045,0,0,1-.014.033A.046.046,0,0,1,204.413,382.081Zm-.046-.5v-.149h-.287v.149Z"
          transform="translate(-192.632 -381.335)"
          fill="#494949"
        />
        <path
          id="Path_3521"
          data-name="Path 3521"
          d="M207.059,382.085h-.43v-.326a.094.094,0,0,1,.028-.067.092.092,0,0,1,.067-.028h.287v-.23h-.337a.045.045,0,0,1-.034-.013.046.046,0,0,1-.013-.034.045.045,0,0,1,.013-.034.045.045,0,0,1,.034-.014h.337a.092.092,0,0,1,.068.028.088.088,0,0,1,.028.066v.23a.091.091,0,0,1-.028.068.093.093,0,0,1-.068.028h-.287v.232h.335a.047.047,0,0,1,.047.047.047.047,0,0,1-.047.047Z"
          transform="translate(-194.467 -381.338)"
          fill="#494949"
        />
      </g>
      <rect
        id="Rectangle_856"
        data-name="Rectangle 856"
        width="7.028"
        height="9.261"
        transform="translate(22.618 4.597)"
        fill="#004782"
      />
      <path
        id="Path_3522"
        data-name="Path 3522"
        d="M221.142,393.544c0-.477,0-.954,0-1.43a1.178,1.178,0,0,1,.6-1.053.932.932,0,0,1,.374-.134c.069-.008.086-.039.089-.1a.6.6,0,0,1,.265-.465.662.662,0,0,1,.407-.118c.108,0,.217,0,.325,0,.041,0,.049-.013.053-.053a.231.231,0,0,0-.113-.239,1.49,1.49,0,0,1-.643-1.094c0-.042-.017-.059-.064-.064a.518.518,0,0,1-.5-.51.512.512,0,0,1,.444-.535c.068-.009.084-.031.082-.095,0-.157,0-.314,0-.471a.087.087,0,0,0-.052-.089.906.906,0,0,1-.468-.712c-.02-.173.012-.213.193-.234a.647.647,0,0,1-.066-.375.131.131,0,0,1,.143-.144c.688,0,1.377-.015,2.064.006a1.427,1.427,0,0,1,1.318,1.112,1.671,1.671,0,0,1,.04.367c0,.185,0,.371,0,.557,0,.05.011.072.066.077a.525.525,0,0,1,.042,1.035c-.045.01-.1,0-.132.027s-.02.086-.028.131a1.551,1.551,0,0,1-.7,1.06c-.059.039-.036.09-.038.137,0,.107,0,.1.1.108a1.853,1.853,0,0,1,.514.035.631.631,0,0,1,.43.539.1.1,0,0,0,.1.112,1.183,1.183,0,0,1,.97,1.176c0,.479,0,.959,0,1.438h-.263a.166.166,0,0,1-.021-.119c0-.41,0-.819,0-1.229a1.051,1.051,0,0,0-.107-.509.888.888,0,0,0-.654-.481.091.091,0,0,0-.1.043q-.331.495-.66.991a.227.227,0,0,0-.029.134q0,.53,0,1.059a.155.155,0,0,1-.022.111h-.263a.181.181,0,0,1-.023-.126q0-.784,0-1.568a.2.2,0,0,0-.01-.094,1.378,1.378,0,0,1-1.16.166,1.752,1.752,0,0,1-.347-.162.133.133,0,0,0-.013.089q0,.785,0,1.57a.179.179,0,0,1-.023.126H223a.152.152,0,0,1-.021-.111c0-.35,0-.7,0-1.05a.317.317,0,0,0-.057-.187c-.2-.3-.406-.607-.608-.911-.061-.092-.073-.1-.178-.071a.873.873,0,0,0-.327.15.975.975,0,0,0-.38.824q0,.618,0,1.237a.167.167,0,0,1-.022.119Z"
        transform="translate(-197.758 -379.686)"
        fill="#454545"
      />
      <path
        id="Path_3523"
        data-name="Path 3523"
        d="M227.572,391.188a1.139,1.139,0,0,0,.122-.321c.006-.035.023-.039.052-.039h1.514c.031,0,.043.009.05.041a1.077,1.077,0,0,0,.46.66c.027.019.05.035.05.077a5.635,5.635,0,0,1-.05.931,1.3,1.3,0,0,1-1.355,1.056,1.128,1.128,0,0,1-.47-.128,1.426,1.426,0,0,1-.141-.282,2.193,2.193,0,0,1-.227-.717,2.877,2.877,0,0,1-.024-.4.088.088,0,0,1,.027-.077c.033-.016.066,0,.1,0a.241.241,0,0,0,.246-.126.216.216,0,0,0-.019-.253.231.231,0,0,0-.257-.095c-.03.007-.066.027-.088-.016A.7.7,0,0,1,227.572,391.188Z"
        transform="translate(-202.211 -383.306)"
        fill="#fed0b9"
      />
      <path
        id="Path_3524"
        data-name="Path 3524"
        d="M225.223,387.017l.085,0a.132.132,0,1,0,.016-.263.479.479,0,0,1-.09-.016.254.254,0,0,1-.128-.095c-.03-.042-.064-.1-.043-.141s.075-.012.115-.012c.569,0,1.138,0,1.706,0a1.186,1.186,0,0,1,1.143.815c.018.053.027.109.042.163s0,.077-.063.076c-.242,0-.484,0-.726,0-.02,0-.041,0-.062,0a13.706,13.706,0,0,1-1.9-.464C225.284,387.062,225.24,387.061,225.223,387.017Z"
        transform="translate(-200.479 -380.284)"
        fill="#ffbe4f"
      />
      <path
        id="Path_3525"
        data-name="Path 3525"
        d="M226.74,392.009l0,.332c0,.028-.019.039-.034.056a.246.246,0,0,0,.015.365c.016.015.038.027.039.053-.037.03-.021.072-.02.108a2.7,2.7,0,0,0,.06.571,3.1,3.1,0,0,0,.194.518,1.49,1.49,0,0,1,.116.275,1.213,1.213,0,0,1-.691-.836,4.107,4.107,0,0,1-.069-1.036.054.054,0,0,1,.028-.049A1.468,1.468,0,0,0,226.74,392.009Z"
        transform="translate(-201.379 -384.127)"
        fill="#f3b6a0"
      />
      <path
        id="Path_3526"
        data-name="Path 3526"
        d="M224.976,388.231c.409.144.829.247,1.25.349.238.058.479.1.719.157a.124.124,0,0,1,.027.013l-.926,0c-.252,0-.5,0-.756,0a.654.654,0,0,1-.583-.463c-.015-.052,0-.063.046-.061C224.827,388.231,224.9,388.23,224.976,388.231Z"
        transform="translate(-200.232 -381.498)"
        fill="#f39b60"
      />
      <path
        id="Path_3527"
        data-name="Path 3527"
        d="M224.9,393.7a1.848,1.848,0,0,0,0,.193c.007.066-.017.072-.072.058a.26.26,0,0,1-.2-.255.263.263,0,0,1,.2-.254c.042-.009.068,0,.065.05s0,.139,0,.208Z"
        transform="translate(-200.183 -385.122)"
        fill="#f1b59f"
      />
      <path
        id="Path_3528"
        data-name="Path 3528"
        d="M235.869,393.957c0-.166,0-.329,0-.492,0-.05.041-.03.063-.026a.262.262,0,0,1,.005.507C235.916,393.952,235.893,393.954,235.869,393.957Z"
        transform="translate(-207.995 -385.115)"
        fill="#faceb8"
      />
      <path
        id="Path_3529"
        data-name="Path 3529"
        d="M234.455,391.224a.86.86,0,0,1-.231-.342c-.016-.044,0-.057.045-.059.187-.006.187-.007.187.181Z"
        transform="translate(-206.847 -383.301)"
        fill="#ffbb4e"
      />
      <path
        id="Path_3530"
        data-name="Path 3530"
        d="M226.357,391.215c0-.133,0-.246,0-.359,0-.038.012-.05.049-.046a.617.617,0,0,0,.116,0c.067-.005.086.013.059.081A.905.905,0,0,1,226.357,391.215Z"
        transform="translate(-201.382 -383.293)"
        fill="#f0995f"
      />
      <path
        id="Path_3531"
        data-name="Path 3531"
        d="M227.138,393.324a.357.357,0,0,1-.027-.627.361.361,0,0,1,.509.192.331.331,0,0,1-.073.349.341.341,0,0,1-.35.1C227.176,393.335,227.157,393.329,227.138,393.324Z"
        transform="translate(-201.787 -384.581)"
        fill="#fed0b9"
      />
    </g>
    <path
      id="Path_3532"
      data-name="Path 3532"
      d="M175.848,429.3v24.378h12.129V429.3"
      transform="translate(-21.815 -227.635)"
      fill="#fed0ba"
      stroke="#8e8e8e"
      stroke-miterlimit="10"
      stroke-width="3"
    />
    <path
      id="Path_3533"
      data-name="Path 3533"
      d="M185.315,368.541H169.409v-3.057a.682.682,0,0,1,.682-.682h14.541a.682.682,0,0,1,.682.682Z"
      transform="translate(-17.339 -182.808)"
      fill="#fed0ba"
      stroke="#747474"
      stroke-miterlimit="10"
      stroke-width="1"
    />
    <line
      id="Line_466"
      data-name="Line 466"
      y1="2.184"
      transform="translate(160.657 181.994)"
      fill="#fed0ba"
      stroke="#747474"
      stroke-miterlimit="10"
      stroke-width="1"
    />
    <line
      id="Line_467"
      data-name="Line 467"
      y1="2.184"
      transform="translate(156.365 181.994)"
      fill="#fed0ba"
      stroke="#747474"
      stroke-miterlimit="10"
      stroke-width="1"
    />
    <line
      id="Line_468"
      data-name="Line 468"
      y1="2.184"
      transform="translate(164.703 181.994)"
      fill="#fed0ba"
      stroke="#747474"
      stroke-miterlimit="10"
      stroke-width="1"
    />
    <path
      id="Rectangle_857"
      data-name="Rectangle 857"
      d="M.754,0h1.76a.754.754,0,0,1,.754.754v1.4A1.634,1.634,0,0,1,1.634,3.79h0A1.634,1.634,0,0,1,0,2.156V.754A.754.754,0,0,1,.754,0Z"
      transform="translate(162.851 198.133)"
      fill="#fed0ba"
      stroke="#747474"
      stroke-miterlimit="10"
      stroke-width="1"
    />
    <path
      id="Path_3534"
      data-name="Path 3534"
      d="M0,0H20.726V16.875H0Z"
      transform="translate(149.243 209.164)"
      fill="#e5524d"
      stroke="#8e8e8e"
      stroke-width="3"
    />
  </g>
</svg>
