<svg
  xmlns="http://www.w3.org/2000/svg"
  xmlns:xlink="http://www.w3.org/1999/xlink"
  width="104.663"
  height="120.411"
  viewBox="0 0 104.663 120.411"
>
  <defs>
    <clipPath id="clip-path">
      <rect
        id="Rectangle_901"
        data-name="Rectangle 901"
        width="8.056"
        height="10.614"
        fill="#2b4d62"
      />
    </clipPath>
  </defs>
  <g
    id="Group_2914"
    data-name="Group 2914"
    transform="translate(-115.705 -79.082)"
  >
    <path
      id="Path_3679"
      data-name="Path 3679"
      d="M175.451,197.651c.007-7.135-.034-14.27.035-21.4a17.625,17.625,0,0,1,9-15.761,13.936,13.936,0,0,1,5.595-2.014c1.029-.122,1.284-.578,1.334-1.5a9.008,9.008,0,0,1,3.974-6.962,9.916,9.916,0,0,1,6.093-1.767c1.62,0,3.24-.022,4.859.011.607.012.74-.2.794-.793a3.471,3.471,0,0,0-1.691-3.586A22.3,22.3,0,0,1,195.82,127.5c-.071-.627-.251-.883-.956-.955-4.377-.447-7.274-3.3-7.487-7.638a7.667,7.667,0,0,1,6.639-8c1.017-.139,1.255-.454,1.226-1.416-.071-2.35-.049-4.705-.013-7.057a1.313,1.313,0,0,0-.788-1.33,13.576,13.576,0,0,1-7-10.657c-.294-2.6.178-3.183,2.888-3.51-1.082-1.754-1.03-3.682-.986-5.608a1.962,1.962,0,0,1,2.14-2.159c10.3,0,20.6-.229,30.89.09,9.213.286,17.4,7.03,19.729,16.639a25.215,25.215,0,0,1,.6,5.492c.052,2.776.033,5.554-.009,8.33-.011.756.167,1.081.986,1.159a7.861,7.861,0,0,1,.634,15.5c-.67.145-1.573,0-1.972.4s-.294,1.29-.416,1.965a23.2,23.2,0,0,1-10.533,15.856c-.892.584-.542,1.352-.566,2.055-.055,1.6-.016,1.565,1.552,1.613,2.565.077,5.148-.268,7.682.526a9.438,9.438,0,0,1,6.435,8.073,1.486,1.486,0,0,0,1.435,1.673,17.7,17.7,0,0,1,14.511,17.606c.035,7.173.02,14.347.027,21.52h-3.934a2.494,2.494,0,0,1-.32-1.777c-.009-6.132.021-12.263-.017-18.394a15.746,15.746,0,0,0-1.6-7.618,13.282,13.282,0,0,0-9.781-7.2,1.352,1.352,0,0,0-1.478.65q-4.953,7.4-9.881,14.824a3.427,3.427,0,0,0-.431,2q0,7.924,0,15.849a2.308,2.308,0,0,1-.321,1.661h-3.934a2.686,2.686,0,0,1-.341-1.888q-.012-11.737-.009-23.473a3.08,3.08,0,0,0-.146-1.4,20.615,20.615,0,0,1-17.361,2.479,26.068,26.068,0,0,1-5.192-2.424,1.988,1.988,0,0,0-.2,1.328q-.012,11.745-.011,23.49a2.684,2.684,0,0,1-.344,1.889h-3.934a2.288,2.288,0,0,1-.31-1.659c-.008-5.234-.021-10.469.009-15.7a4.736,4.736,0,0,0-.853-2.8c-3.057-4.53-6.068-9.092-9.107-13.634-.917-1.371-1.086-1.438-2.661-1.059a13.089,13.089,0,0,0-4.894,2.249c-4.045,3.118-5.685,7.341-5.682,12.326q0,9.254,0,18.508a2.5,2.5,0,0,1-.334,1.775Z"
      transform="translate(-42.102 0)"
      fill="#8e8e8e"
    />
    <path
      id="Path_3680"
      data-name="Path 3680"
      d="M380.265,401.928c.018-5.9.055-11.8.038-17.7a4.326,4.326,0,0,1,.783-2.574q4.913-7.276,9.737-14.611a1.147,1.147,0,0,1,1.264-.52c4.667.425,9.641,4.563,11.114,9.135a18,18,0,0,1,.828,5.565q.007,9.719,0,19.437c0,.421.045.843.069,1.265Z"
      transform="translate(-187.669 -204.277)"
      fill="#de541d"
    />
    <path
      id="Path_3681"
      data-name="Path 3681"
      d="M208.915,368.974a12.152,12.152,0,0,1,5.976-2.478,1.1,1.1,0,0,1,1.285.464q4.878,7.421,9.847,14.781a3.984,3.984,0,0,1,.7,2.364c-.009,5.928.022,11.856.04,17.784H208.94a2.12,2.12,0,0,1-.371-1.535q-.011-14.915,0-29.831A2.457,2.457,0,0,1,208.915,368.974Z"
      transform="translate(-65.64 -204.238)"
      fill="#de541d"
    />
    <path
      id="Path_3682"
      data-name="Path 3682"
      d="M304.144,396.791a25.314,25.314,0,0,0,6.6.816,20.251,20.251,0,0,0,11.215-3.789v27.518H304.14a2.118,2.118,0,0,1-.37-1.533q-.012-10.743,0-21.486A1.947,1.947,0,0,1,304.144,396.791Z"
      transform="translate(-133.3 -223.685)"
      fill="#e6e6e6"
    />
    <path
      id="Path_3683"
      data-name="Path 3683"
      d="M195.058,375.16q.012,16.458.024,32.915h-6.017c.023-2.928.031-5.856.072-8.783.068-4.855-.3-9.726.19-14.562A12.742,12.742,0,0,1,195.058,375.16Z"
      transform="translate(-51.782 -210.425)"
      fill="#cc441a"
    />
    <path
      id="Path_3684"
      data-name="Path 3684"
      d="M290.855,396.661q0,12.272,0,24.544h-5.786V393.634A25.448,25.448,0,0,0,290.855,396.661Z"
      transform="translate(-120.01 -223.554)"
      fill="#d4d3d2"
    />
    <path
      id="Path_3685"
      data-name="Path 3685"
      d="M276.864,166.622a17.047,17.047,0,0,0,1.83-4.807c.086-.529.353-.579.781-.579q11.33.01,22.661,0c.464,0,.649.133.75.618.882,4.267,3.439,7.383,6.878,9.876.406.294.751.528.752,1.156a84.21,84.21,0,0,1-.752,13.936,19.452,19.452,0,0,1-20.275,15.807,16.9,16.9,0,0,1-7.031-1.912,21.472,21.472,0,0,1-2.112-4.221,32.859,32.859,0,0,1-3.4-10.732,43.152,43.152,0,0,1-.361-5.981,1.322,1.322,0,0,1,.4-1.152c.492-.244.982-.018,1.473.011a3.618,3.618,0,0,0,3.68-1.879,3.238,3.238,0,0,0-.288-3.783A3.459,3.459,0,0,0,278,171.559c-.457.112-.981.408-1.318-.24A10.544,10.544,0,0,1,276.864,166.622Z"
      transform="translate(-113.928 -58.386)"
      fill="#fed0b9"
    />
    <path
      id="Path_3686"
      data-name="Path 3686"
      d="M239.71,100.685l1.267-.051a1.97,1.97,0,1,0,.239-3.932,7.194,7.194,0,0,1-1.353-.244,3.8,3.8,0,0,1-1.91-1.421c-.454-.628-.954-1.426-.647-2.11.214-.476,1.123-.172,1.717-.173,8.514-.014,17.028-.038,25.541,0a17.744,17.744,0,0,1,17.1,12.2c.267.8.41,1.633.639,2.443.244.863.021,1.157-.945,1.141-3.62-.062-7.242-.025-10.863-.03-.307,0-.614-.031-.92-.048a205.587,205.587,0,0,1-28.439-6.946C240.614,101.356,239.96,101.344,239.71,100.685Z"
      transform="translate(-86 -9.65)"
      fill="#ffbe4f"
    />
    <path
      id="Path_3687"
      data-name="Path 3687"
      d="M304.589,328.576c.167,1.49-.122,2.994.2,4.485a5.719,5.719,0,0,0,3.093,4.063c.517.265.761.535.7,1.12a4.468,4.468,0,0,0,0,1.382c.434,2.072-.717,3.276-2.223,4.378a16.081,16.081,0,0,1-20.619-1.2,2.074,2.074,0,0,1-.808-1.908,5.007,5.007,0,0,0,0-1.038c-.1-1.394-.041-2.5,1.548-3.328,1.662-.868,2.322-2.692,2.391-4.605.04-1.115.034-2.231.048-3.347.466-.322.9-.057,1.309.113a16.425,16.425,0,0,0,13.045,0C303.691,328.519,304.122,328.254,304.589,328.576Z"
      transform="translate(-119.898 -177.209)"
      fill="#fed0ba"
    />
    <path
      id="Path_3688"
      data-name="Path 3688"
      d="M263.448,179.86l.044,4.971c.073.422-.277.588-.5.829a3.676,3.676,0,0,0,.228,5.462c.248.229.565.405.582.8-.557.452-.31,1.08-.3,1.621a40.487,40.487,0,0,0,.9,8.544,46.107,46.107,0,0,0,2.9,7.744,22.4,22.4,0,0,1,1.733,4.12A18.173,18.173,0,0,1,258.7,201.439c-1.282-5.068-1.061-10.31-1.036-15.5a.8.8,0,0,1,.426-.739A21.929,21.929,0,0,0,263.448,179.86Z"
      transform="translate(-100.512 -71.624)"
      fill="#f3b6a0"
    />
    <path
      id="Path_3689"
      data-name="Path 3689"
      d="M235.715,120.258a194.2,194.2,0,0,0,18.7,5.226c3.567.866,7.174,1.566,10.762,2.348a1.754,1.754,0,0,1,.4.2c-4.618.017-9.237.044-13.855.049-3.773,0-7.547.033-11.318-.044a9.79,9.79,0,0,1-8.724-6.923c-.222-.777-.048-.945.691-.911C233.483,120.256,234.6,120.243,235.715,120.258Z"
      transform="translate(-82.005 -29.222)"
      fill="#f39b60"
    />
    <path
      id="Path_3690"
      data-name="Path 3690"
      d="M370.654,351.121c0-4.257.006-8.177,0-12.1,0-1.862-.309-2.217-2.164-2.624-1.2-.263-1.718-.941-1.788-2.33-.1-2.006-.1-2.006,1.868-2.005,1.464,0,2.927-.016,4.39.008a5.539,5.539,0,0,1,4.837,8.319c-1.966,3.3-4.224,6.425-6.355,9.625C371.25,350.3,371.045,350.572,370.654,351.121Z"
      transform="translate(-178.004 -179.791)"
      fill="#dd541d"
    />
    <path
      id="Path_3691"
      data-name="Path 3691"
      d="M247.074,343.879c-.715-1.044-1.474-2.061-2.136-3.137a5.451,5.451,0,0,1-.206-5.8,5.337,5.337,0,0,1,5.018-2.895c1.733,0,3.467.03,5.2-.016.717-.019.98.214.9.923-.058.533.011,1.082-.068,1.611a2.027,2.027,0,0,1-1.791,1.832c-1.75.333-2.1.771-2.1,2.553,0,3.775.007,7.549-.009,11.323,0,.078.335.924-.353.285-.289-2.87-.052-5.747-.142-8.619-.015-.474.258-1.154-.22-1.372-.438-.2-.844.4-1.26.652A13.824,13.824,0,0,0,247.074,343.879Z"
      transform="translate(-90.821 -179.772)"
      fill="#cc441a"
    />
    <path
      id="Path_3692"
      data-name="Path 3692"
      d="M314.456,317.95a39.048,39.048,0,0,1-6.066,1.681,17.163,17.163,0,0,1-8.189-1.2c-.47-.16-.94-.323-1.409-.485v-4.426a22.955,22.955,0,0,0,15.664-.051Z"
      transform="translate(-129.766 -166.583)"
      fill="#f3b6a0"
    />
    <path
      id="Path_3693"
      data-name="Path 3693"
      d="M254.641,362.905a3.646,3.646,0,0,1,1.724-2.225,11.95,11.95,0,0,1,2.906-1.879c0,2.96.017,5.8-.012,8.631a4.377,4.377,0,0,1-.163,2.152Z"
      transform="translate(-98.388 -198.799)"
      fill="#db531d"
    />
    <path
      id="Path_3694"
      data-name="Path 3694"
      d="M234.461,206.389a27.643,27.643,0,0,0,.022,2.884c.1.98-.258,1.071-1.079.863a3.891,3.891,0,0,1-2.916-3.811,3.933,3.933,0,0,1,2.94-3.807c.63-.142,1.023-.069.974.751-.062,1.037-.015,2.079-.015,3.12Z"
      transform="translate(-81.221 -87.686)"
      fill="#f1b59f"
    />
    <path
      id="Path_3695"
      data-name="Path 3695"
      d="M407.78,210.169c0-2.481-.014-4.925.009-7.368.007-.749.609-.447.942-.38a3.925,3.925,0,0,1,.075,7.583C408.475,210.086,408.131,210.114,407.78,210.169Z"
      transform="translate(-207.222 -87.575)"
      fill="#faceb8"
    />
    <path
      id="Path_3696"
      data-name="Path 3696"
      d="M385.274,167.146a12.887,12.887,0,0,1-3.458-5.118c-.231-.657-.035-.856.666-.878,2.793-.088,2.792-.111,2.792,2.712Z"
      transform="translate(-188.706 -58.308)"
      fill="#ffbb4e"
    />
    <path
      id="Path_3697"
      data-name="Path 3697"
      d="M257.72,167.007c0-1.995.019-3.685-.011-5.374-.01-.564.178-.747.731-.684a8.961,8.961,0,0,0,1.726.074c1.013-.081,1.289.2.882,1.21A13.546,13.546,0,0,1,257.72,167.007Z"
      transform="translate(-100.568 -58.175)"
      fill="#f0995f"
    />
    <path
      id="Path_3698"
      data-name="Path 3698"
      d="M387.346,428.565c0-1.849-.017-3.7.005-5.546.017-1.42.736-2.216,1.939-2.223a1.964,1.964,0,0,1,2.009,2.186q.037,5.661,0,11.323a2.081,2.081,0,0,1-1.978,2.264,2.013,2.013,0,0,1-1.972-2.227C387.332,432.417,387.347,430.491,387.346,428.565Z"
      transform="translate(-192.698 -242.859)"
      fill="#8e8e8e"
    />
    <path
      id="Path_3699"
      data-name="Path 3699"
      d="M254.612,428.669c0,1.887.015,3.775-.005,5.661a2.012,2.012,0,0,1-1.962,2.237,2.079,2.079,0,0,1-1.988-2.253q-.032-5.661,0-11.323a1.967,1.967,0,0,1,2-2.2c1.2,0,1.932.8,1.949,2.213C254.629,424.895,254.612,426.782,254.612,428.669Z"
      transform="translate(-95.545 -242.858)"
      fill="#8e8e8e"
    />
    <path
      id="Path_3700"
      data-name="Path 3700"
      d="M269.872,200.067c-3.837-2.621-4-6.345-.408-9.378,3.628-1.248,6.589-.137,7.622,2.875a4.96,4.96,0,0,1-1.094,5.215,5.1,5.1,0,0,1-5.245,1.527C270.452,200.239,270.164,200.147,269.872,200.067Z"
      transform="translate(-107.085 -78.961)"
      fill="#fed0b9"
    />
    <path
      id="Path_3701"
      data-name="Path 3701"
      d="M166.439,406.591v24.165h11.507V406.591"
      transform="translate(-35.702 -232.763)"
      fill="#fed0ba"
      stroke="#8e8e8e"
      stroke-miterlimit="10"
      stroke-width="3"
    />
    <path
      id="Path_3702"
      data-name="Path 3702"
      d="M119.752,328.63v10.663H116.2V328.63Z"
      transform="translate(0 -177.355)"
      fill="#fed0ba"
      stroke="#8e8e8e"
      stroke-miterlimit="10"
      stroke-width="1"
    />
    <line
      id="Line_472"
      data-name="Line 472"
      x1="2.072"
      transform="translate(116.205 158.92)"
      fill="#fed0ba"
      stroke="#8e8e8e"
      stroke-miterlimit="10"
      stroke-width="2"
    />
    <line
      id="Line_473"
      data-name="Line 473"
      x1="2.072"
      transform="translate(116.205 154.998)"
      fill="#fed0ba"
      stroke="#8e8e8e"
      stroke-miterlimit="10"
      stroke-width="2"
    />
    <rect
      id="Rectangle_893"
      data-name="Rectangle 893"
      width="3.1"
      height="1.721"
      transform="translate(146.869 156.998) rotate(-90)"
      fill="#fed0ba"
      stroke="#8e8e8e"
      stroke-miterlimit="10"
      stroke-width="2"
    />
    <rect
      id="Rectangle_894"
      data-name="Rectangle 894"
      width="11.507"
      height="16.009"
      transform="translate(130.737 181.985)"
      fill="#de541d"
      stroke="#8e8e8e"
      stroke-miterlimit="10"
      stroke-width="3"
    />
    <g
      id="Group_1219"
      data-name="Group 1219"
      transform="translate(117.937 135.718)"
    >
      <path
        id="Rectangle_895"
        data-name="Rectangle 895"
        d="M5.085,0H24.666a5.085,5.085,0,0,1,5.085,5.085V19.427a0,0,0,0,1,0,0H0a0,0,0,0,1,0,0V5.085A5.085,5.085,0,0,1,5.085,0Z"
        transform="translate(0 0)"
        fill="#313133"
      />
      <g
        id="Group_1218"
        data-name="Group 1218"
        transform="translate(0.042 19.427)"
      >
        <rect
          id="Rectangle_896"
          data-name="Rectangle 896"
          width="29.751"
          height="19.427"
          rx="2"
          transform="translate(0 0.302)"
          fill="#313133"
        />
        <rect
          id="Rectangle_897"
          data-name="Rectangle 897"
          width="29.751"
          height="16.309"
          fill="#c9c9c9"
        />
        <g
          id="Group_1214"
          data-name="Group 1214"
          transform="translate(1.302 4.107)"
        >
          <rect
            id="Rectangle_898"
            data-name="Rectangle 898"
            width="8.056"
            height="10.614"
            fill="#2b4d62"
          />
          <g id="Group_1213" data-name="Group 1213" clip-path="url(#clip-path)">
            <path
              id="Path_3703"
              data-name="Path 3703"
              d="M127.682,375.615c0-.675,0-1.35,0-2.025a1.668,1.668,0,0,1,.851-1.491,1.32,1.32,0,0,1,.529-.19c.1-.012.121-.055.126-.142a.853.853,0,0,1,.376-.659.94.94,0,0,1,.577-.167c.153,0,.306,0,.46,0,.057,0,.07-.019.075-.075a.328.328,0,0,0-.16-.339,2.109,2.109,0,0,1-.91-1.549c-.007-.059-.024-.084-.091-.09a.734.734,0,0,1-.708-.723.725.725,0,0,1,.628-.757c.1-.013.119-.043.116-.134-.007-.223,0-.445,0-.668a.124.124,0,0,0-.075-.126,1.284,1.284,0,0,1-.663-1.008c-.028-.246.017-.3.273-.332a.919.919,0,0,1-.093-.531.186.186,0,0,1,.2-.2c.974,0,1.949-.022,2.922.008a2.02,2.02,0,0,1,1.866,1.574,2.367,2.367,0,0,1,.057.52c0,.263,0,.525,0,.788,0,.072.016.1.093.11a.744.744,0,0,1,.06,1.466c-.063.014-.149,0-.187.037s-.028.122-.039.186a2.194,2.194,0,0,1-1,1.5c-.085.055-.051.128-.054.194-.005.152,0,.148.147.152a2.616,2.616,0,0,1,.727.05.893.893,0,0,1,.609.764.14.14,0,0,0,.136.158,1.674,1.674,0,0,1,1.373,1.666c0,.679,0,1.357,0,2.036h-.372a.236.236,0,0,1-.03-.168c0-.58,0-1.16,0-1.74a1.488,1.488,0,0,0-.152-.721,1.256,1.256,0,0,0-.925-.681.127.127,0,0,0-.14.061q-.469.7-.935,1.4a.324.324,0,0,0-.04.189q0,.75,0,1.5a.219.219,0,0,1-.03.157h-.372a.253.253,0,0,1-.032-.178q0-1.111,0-2.221a.294.294,0,0,0-.014-.132,1.952,1.952,0,0,1-1.642.235,2.469,2.469,0,0,1-.491-.229.187.187,0,0,0-.019.126q0,1.111,0,2.222a.254.254,0,0,1-.032.179h-.372a.215.215,0,0,1-.029-.157c0-.5,0-.991,0-1.486a.449.449,0,0,0-.081-.265c-.289-.429-.574-.86-.861-1.29-.087-.13-.1-.136-.252-.1a1.234,1.234,0,0,0-.463.213,1.382,1.382,0,0,0-.538,1.166q0,.875,0,1.751a.237.237,0,0,1-.032.168Z"
              transform="translate(-127.437 -362.029)"
              fill="#313133"
            />
            <path
              id="Path_3704"
              data-name="Path 3704"
              d="M147.057,394.939c0-.558,0-1.116,0-1.674a.408.408,0,0,1,.074-.243q.465-.688.921-1.382a.108.108,0,0,1,.119-.049,1.34,1.34,0,0,1,1.051.864,1.7,1.7,0,0,1,.078.527q0,.919,0,1.839c0,.04,0,.08.006.119Z"
              transform="translate(-141.208 -381.353)"
              fill="#de541d"
            />
            <path
              id="Path_3705"
              data-name="Path 3705"
              d="M130.847,391.822a1.149,1.149,0,0,1,.565-.234.1.1,0,0,1,.122.044q.461.7.931,1.4a.376.376,0,0,1,.066.224c0,.561,0,1.121,0,1.682H130.85a.2.2,0,0,1-.035-.145q0-1.411,0-2.822A.233.233,0,0,1,130.847,391.822Z"
              transform="translate(-129.663 -381.35)"
              fill="#de541d"
            />
            <path
              id="Path_3706"
              data-name="Path 3706"
              d="M139.856,394.453a2.386,2.386,0,0,0,.625.077,1.914,1.914,0,0,0,1.061-.358v2.6h-1.686a.2.2,0,0,1-.035-.145q0-1.016,0-2.032A.185.185,0,0,1,139.856,394.453Z"
              transform="translate(-136.064 -383.189)"
              fill="#e6e6e6"
            />
            <path
              id="Path_3707"
              data-name="Path 3707"
              d="M129.536,392.407l0,3.114h-.569c0-.277,0-.554.007-.831.006-.459-.028-.92.018-1.378A1.206,1.206,0,0,1,129.536,392.407Z"
              transform="translate(-128.352 -381.935)"
              fill="#cc441a"
            />
            <path
              id="Path_3708"
              data-name="Path 3708"
              d="M138.6,394.441v2.322h-.547v-2.608A2.4,2.4,0,0,0,138.6,394.441Z"
              transform="translate(-134.807 -383.177)"
              fill="#d4d3d2"
            />
            <path
              id="Path_3709"
              data-name="Path 3709"
              d="M137.275,372.68a1.61,1.61,0,0,0,.173-.455c.008-.05.034-.055.074-.055h2.144c.044,0,.061.013.071.058a1.521,1.521,0,0,0,.651.934c.038.028.071.05.071.109a7.972,7.972,0,0,1-.071,1.318,1.84,1.84,0,0,1-1.918,1.5,1.6,1.6,0,0,1-.665-.181,2.027,2.027,0,0,1-.2-.4,3.108,3.108,0,0,1-.321-1.015,4.05,4.05,0,0,1-.034-.566.125.125,0,0,1,.038-.109c.047-.023.093,0,.139,0a.342.342,0,0,0,.348-.178.306.306,0,0,0-.027-.358.327.327,0,0,0-.365-.134c-.043.011-.093.038-.125-.022A1,1,0,0,1,137.275,372.68Z"
              transform="translate(-134.231 -367.552)"
              fill="#fed0b9"
            />
            <path
              id="Path_3710"
              data-name="Path 3710"
              d="M133.76,366.442l.12,0a.186.186,0,1,0,.023-.372.659.659,0,0,1-.128-.023.359.359,0,0,1-.181-.134c-.043-.059-.09-.135-.061-.2.02-.045.106-.017.162-.017.805,0,1.611,0,2.416,0a1.679,1.679,0,0,1,1.618,1.154c.025.075.039.155.06.231s0,.109-.089.108c-.343-.006-.685,0-1.028,0-.029,0-.058,0-.087,0a19.461,19.461,0,0,1-2.69-.657C133.846,366.506,133.784,366.5,133.76,366.442Z"
              transform="translate(-131.589 -362.942)"
              fill="#ffbe4f"
            />
            <path
              id="Path_3711"
              data-name="Path 3711"
              d="M139.9,388a4,4,0,0,0,.019.424.54.54,0,0,0,.293.384c.049.025.072.051.066.106a.431.431,0,0,0,0,.131.389.389,0,0,1-.21.414,1.521,1.521,0,0,1-1.95-.114.2.2,0,0,1-.077-.181.466.466,0,0,0,0-.1.271.271,0,0,1,.146-.315.482.482,0,0,0,.226-.436c0-.106,0-.211,0-.317.044-.03.085-.005.124.011a1.553,1.553,0,0,0,1.234,0C139.813,387.995,139.854,387.97,139.9,388Z"
              transform="translate(-134.796 -378.793)"
              fill="#fed0ba"
            />
            <path
              id="Path_3712"
              data-name="Path 3712"
              d="M136.006,373.932l0,.47c.007.04-.026.056-.047.079a.348.348,0,0,0,.022.516c.023.022.053.038.055.076-.053.043-.029.1-.028.153a3.815,3.815,0,0,0,.085.808,4.4,4.4,0,0,0,.275.733,2.105,2.105,0,0,1,.164.39,1.719,1.719,0,0,1-.979-1.184,5.832,5.832,0,0,1-.1-1.467.076.076,0,0,1,.041-.07A2.073,2.073,0,0,0,136.006,373.932Z"
              transform="translate(-132.962 -368.805)"
              fill="#f3b6a0"
            />
            <path
              id="Path_3713"
              data-name="Path 3713"
              d="M133.382,368.293a18.358,18.358,0,0,0,1.769.494c.338.082.679.148,1.018.222a.163.163,0,0,1,.038.019c-.437,0-.874,0-1.311,0-.357,0-.714,0-1.071,0a.926.926,0,0,1-.825-.655c-.021-.074,0-.089.065-.086C133.171,368.293,133.277,368.292,133.382,368.293Z"
              transform="translate(-131.212 -364.793)"
              fill="#f39b60"
            />
            <path
              id="Path_3714"
              data-name="Path 3714"
              d="M146.147,390.133c0-.4,0-.773,0-1.144,0-.176-.029-.21-.2-.248-.113-.025-.163-.089-.169-.22-.01-.19-.01-.19.177-.19.138,0,.277,0,.415,0a.524.524,0,0,1,.457.787c-.186.312-.4.608-.6.911C146.2,390.055,146.184,390.081,146.147,390.133Z"
              transform="translate(-140.293 -379.037)"
              fill="#dd541d"
            />
            <path
              id="Path_3715"
              data-name="Path 3715"
              d="M134.457,389.448c-.068-.1-.139-.2-.2-.3a.516.516,0,0,1-.019-.549.5.5,0,0,1,.475-.274c.164,0,.328,0,.492,0,.068,0,.093.02.085.087-.006.05,0,.1-.006.152a.192.192,0,0,1-.17.173c-.166.032-.2.073-.2.241,0,.357,0,.714,0,1.071,0,.007.032.087-.034.027-.027-.272,0-.544-.013-.816,0-.045.024-.109-.021-.13s-.08.038-.119.062A1.309,1.309,0,0,0,134.457,389.448Z"
              transform="translate(-132.046 -379.035)"
              fill="#cc441a"
            />
            <path
              id="Path_3716"
              data-name="Path 3716"
              d="M140.831,386.995a3.722,3.722,0,0,1-.574.159,1.621,1.621,0,0,1-.775-.113l-.133-.046v-.419a2.172,2.172,0,0,0,1.482,0Z"
              transform="translate(-135.729 -377.787)"
              fill="#f3b6a0"
            />
            <path
              id="Path_3717"
              data-name="Path 3717"
              d="M135.173,391.247a.345.345,0,0,1,.163-.21,1.14,1.14,0,0,1,.275-.178c0,.28,0,.548,0,.817a.415.415,0,0,1-.016.2Z"
              transform="translate(-132.762 -380.835)"
              fill="#db531d"
            />
            <path
              id="Path_3718"
              data-name="Path 3718"
              d="M133.264,376.441a2.622,2.622,0,0,0,0,.273c.01.092-.024.1-.1.081a.368.368,0,0,1-.276-.36.372.372,0,0,1,.278-.36c.06-.014.1-.007.092.071-.006.1,0,.2,0,.295Z"
              transform="translate(-131.138 -370.324)"
              fill="#f1b59f"
            />
            <path
              id="Path_3719"
              data-name="Path 3719"
              d="M149.66,376.8c0-.234,0-.466,0-.7,0-.071.058-.043.089-.036a.371.371,0,0,1,.007.718C149.725,376.791,149.693,376.794,149.66,376.8Z"
              transform="translate(-143.057 -370.314)"
              fill="#faceb8"
            />
            <path
              id="Path_3720"
              data-name="Path 3720"
              d="M147.53,372.729a1.221,1.221,0,0,1-.327-.484c-.022-.062,0-.081.063-.083.264-.008.264-.01.264.257Z"
              transform="translate(-141.305 -367.545)"
              fill="#ffbb4e"
            />
            <path
              id="Path_3721"
              data-name="Path 3721"
              d="M135.464,372.716c0-.189,0-.349,0-.508,0-.053.017-.071.069-.064a.86.86,0,0,0,.163.007c.1-.007.122.019.084.115A1.287,1.287,0,0,1,135.464,372.716Z"
              transform="translate(-132.967 -367.533)"
              fill="#f0995f"
            />
            <path
              id="Path_3722"
              data-name="Path 3722"
              d="M147.726,397.459c0-.175,0-.35,0-.524,0-.134.069-.21.183-.21a.186.186,0,0,1,.19.207q0,.535,0,1.071a.2.2,0,0,1-.187.214.191.191,0,0,1-.187-.211C147.725,397.823,147.726,397.641,147.726,397.459Z"
              transform="translate(-141.683 -385.003)"
              fill="#313133"
            />
            <path
              id="Path_3723"
              data-name="Path 3723"
              d="M135.17,397.469c0,.178,0,.357,0,.535a.19.19,0,0,1-.185.212A.2.2,0,0,1,134.8,398q0-.535,0-1.071a.186.186,0,0,1,.189-.208c.114,0,.183.076.184.209C135.172,397.112,135.17,397.29,135.17,397.469Z"
              transform="translate(-132.492 -385.003)"
              fill="#313133"
            />
            <path
              id="Path_3724"
              data-name="Path 3724"
              d="M136.614,375.843a.506.506,0,0,1-.039-.887.512.512,0,0,1,.721.272.469.469,0,0,1-.1.493.482.482,0,0,1-.5.144C136.669,375.86,136.641,375.851,136.614,375.843Z"
              transform="translate(-133.584 -369.499)"
              fill="#fed0b9"
            />
            <path
              id="Path_3725"
              data-name="Path 3725"
              d="M126.829,395.38v2.286h1.088V395.38"
              transform="translate(-126.831 -384.048)"
              fill="#fed0ba"
              stroke="#313133"
              stroke-miterlimit="10"
              stroke-width="5"
            />
            <rect
              id="Rectangle_899"
              data-name="Rectangle 899"
              width="0.293"
              height="0.163"
              transform="translate(0.842 11.169)"
              fill="#fed0ba"
              stroke="#1a1818"
              stroke-miterlimit="10"
              stroke-width="2"
            />
            <rect
              id="Rectangle_900"
              data-name="Rectangle 900"
              width="1.089"
              height="1.514"
              transform="translate(-0.002 12.104)"
              fill="#de541d"
              stroke="#313133"
              stroke-miterlimit="10"
              stroke-width="5"
            />
          </g>
        </g>
        <rect
          id="Rectangle_902"
          data-name="Rectangle 902"
          width="7.343"
          height="0.386"
          transform="translate(1.756 15.145)"
          fill="#313133"
        />
        <text
          id="PASPOR"
          transform="translate(3.619 2.505)"
          fill="#0063b0"
          font-size="1"
          font-family="Gotham-Bold, Gotham"
          font-weight="700"
        ><tspan x="0" y="0">PASPOR</tspan></text>
        <text
          id="PASSPORT"
          transform="translate(3.963 5.339)"
          fill="#0063b0"
          font-size="3"
          font-family="Gotham-BoldItalic, Gotham"
          font-weight="700"
          font-style="italic"
        ><tspan x="0" y="0">PASSPORT</tspan></text>
        <rect
          id="Rectangle_903"
          data-name="Rectangle 903"
          width="8.749"
          height="0.561"
          transform="translate(10.501 0.519)"
          fill="#313133"
        />
        <rect
          id="Rectangle_904"
          data-name="Rectangle 904"
          width="6.147"
          height="0.37"
          transform="translate(11.802 1.275)"
          fill="#313133"
        />
        <rect
          id="Rectangle_905"
          data-name="Rectangle 905"
          width="2.385"
          height="0.262"
          transform="translate(10.759 2.851)"
          fill="#313133"
        />
        <rect
          id="Rectangle_906"
          data-name="Rectangle 906"
          width="2.878"
          height="0.262"
          transform="translate(10.759 5.875)"
          fill="#313133"
        />
        <rect
          id="Rectangle_907"
          data-name="Rectangle 907"
          width="3.726"
          height="0.262"
          transform="translate(10.759 7.767)"
          fill="#313133"
        />
        <rect
          id="Rectangle_908"
          data-name="Rectangle 908"
          width="2.385"
          height="0.262"
          transform="translate(10.759 9.659)"
          fill="#313133"
        />
        <rect
          id="Rectangle_909"
          data-name="Rectangle 909"
          width="4.695"
          height="0.262"
          transform="translate(23.929 9.659)"
          fill="#313133"
        />
        <rect
          id="Rectangle_910"
          data-name="Rectangle 910"
          width="6.289"
          height="0.262"
          transform="translate(22.335 11.42)"
          fill="#313133"
        />
        <rect
          id="Rectangle_911"
          data-name="Rectangle 911"
          width="4.695"
          height="0.262"
          transform="translate(23.929 13.181)"
          fill="#313133"
        />
        <rect
          id="Rectangle_912"
          data-name="Rectangle 912"
          width="4.075"
          height="0.262"
          transform="translate(10.759 11.551)"
          fill="#313133"
        />
        <rect
          id="Rectangle_913"
          data-name="Rectangle 913"
          width="1.057"
          height="0.262"
          transform="translate(10.759 13.231)"
          fill="#313133"
        />
        <rect
          id="Rectangle_914"
          data-name="Rectangle 914"
          width="4.834"
          height="0.262"
          transform="translate(16.154 2.851)"
          fill="#313133"
        />
        <rect
          id="Rectangle_915"
          data-name="Rectangle 915"
          width="3.769"
          height="0.262"
          transform="translate(24.355 2.851)"
          fill="#313133"
        />
        <rect
          id="Rectangle_916"
          data-name="Rectangle 916"
          width="0.362"
          height="0.495"
          transform="translate(10.875 3.279)"
          fill="#313133"
        />
        <rect
          id="Rectangle_917"
          data-name="Rectangle 917"
          width="4.34"
          height="0.495"
          transform="translate(10.759 6.299)"
          fill="#313133"
        />
        <rect
          id="Rectangle_918"
          data-name="Rectangle 918"
          width="2.582"
          height="0.495"
          transform="translate(10.759 8.394)"
          fill="#313133"
        />
        <rect
          id="Rectangle_919"
          data-name="Rectangle 919"
          width="2.281"
          height="0.495"
          transform="translate(10.759 10.244)"
          fill="#313133"
        />
        <rect
          id="Rectangle_920"
          data-name="Rectangle 920"
          width="2.385"
          height="0.262"
          transform="translate(17.739 9.659)"
          fill="#313133"
        />
        <rect
          id="Rectangle_921"
          data-name="Rectangle 921"
          width="0.675"
          height="0.495"
          transform="translate(17.971 10.244)"
          fill="#313133"
        />
        <rect
          id="Rectangle_922"
          data-name="Rectangle 922"
          width="0.675"
          height="0.495"
          transform="translate(19.27 10.244)"
          fill="#313133"
        />
        <rect
          id="Rectangle_923"
          data-name="Rectangle 923"
          width="1.899"
          height="0.495"
          transform="translate(26.659 10.244)"
          fill="#313133"
        />
        <rect
          id="Rectangle_924"
          data-name="Rectangle 924"
          width="1.899"
          height="0.495"
          transform="translate(26.659 13.804)"
          fill="#313133"
        />
        <rect
          id="Rectangle_925"
          data-name="Rectangle 925"
          width="2.435"
          height="0.495"
          transform="translate(26.123 12.065)"
          fill="#313133"
        />
        <rect
          id="Rectangle_926"
          data-name="Rectangle 926"
          width="2.976"
          height="0.495"
          transform="translate(10.759 12.094)"
          fill="#313133"
        />
        <rect
          id="Rectangle_927"
          data-name="Rectangle 927"
          width="4.167"
          height="0.495"
          transform="translate(10.759 13.953)"
          fill="#313133"
        />
        <rect
          id="Rectangle_928"
          data-name="Rectangle 928"
          width="0.871"
          height="0.495"
          transform="translate(16.404 3.279)"
          fill="#313133"
        />
        <g
          id="Group_1215"
          data-name="Group 1215"
          transform="translate(24.433 3.322)"
        >
          <path
            id="Path_3726"
            data-name="Path 3726"
            d="M207.121,353.852v.028a.127.127,0,0,1-.038.092.124.124,0,0,1-.091.038h-.2V353.5h.2a.124.124,0,0,1,.091.038.126.126,0,0,1,.038.092v.027a.127.127,0,0,1-.044.1A.129.129,0,0,1,207.121,353.852Zm-.066-.2v-.027a.064.064,0,0,0-.019-.046.062.062,0,0,0-.046-.019h-.132v.156h.132a.065.065,0,0,0,.065-.064Zm0,.225v-.027a.063.063,0,0,0-.019-.046.062.062,0,0,0-.046-.019h-.131v.157h.131a.066.066,0,0,0,.065-.065Z"
            transform="translate(-206.794 -353.498)"
            fill="#1a1818"
          />
          <path
            id="Path_3727"
            data-name="Path 3727"
            d="M208.437,353.944v-.158a.06.06,0,0,1,.019-.045.062.062,0,0,1,.046-.019v-.191a.032.032,0,0,1,.032-.032h.132a.032.032,0,0,1,.032.032v.191a.063.063,0,0,1,.045.018.061.061,0,0,1,.019.046v.159a.061.061,0,0,1-.019.046.063.063,0,0,1-.045.019h-.2a.062.062,0,0,1-.046-.02A.064.064,0,0,1,208.437,353.944Zm.065-.158v.159h.2v-.159Zm.065-.223v.158h.067v-.158Z"
            transform="translate(-207.962 -353.498)"
            fill="#1a1818"
          />
          <path
            id="Path_3728"
            data-name="Path 3728"
            d="M210.386,354.007h-.032a.033.033,0,0,1-.032-.032.032.032,0,0,1,.032-.032v-.214h-.228a.032.032,0,0,1-.023-.009.031.031,0,0,1-.01-.023v-.168a.031.031,0,0,1,.01-.023.032.032,0,0,1,.023-.01h.26a.031.031,0,0,1,.023.01.031.031,0,0,1,.01.023v.446a.031.031,0,0,1-.01.023A.03.03,0,0,1,210.386,354.007Zm-.032-.344v-.1h-.2v.1Z"
            transform="translate(-209.139 -353.496)"
            fill="#1a1818"
          />
          <path
            id="Path_3729"
            data-name="Path 3729"
            d="M212.024,354.01h-.294v-.223a.063.063,0,0,1,.019-.046.06.06,0,0,1,.045-.019h.2v-.157h-.231a.031.031,0,0,1-.023-.01.032.032,0,0,1,.023-.055h.231a.064.064,0,0,1,.046.019.063.063,0,0,1,.019.046v.157a.063.063,0,0,1-.019.046.064.064,0,0,1-.046.019h-.2v.159h.23a.03.03,0,0,1,.023.01.032.032,0,0,1,0,.046A.031.031,0,0,1,212.024,354.01Z"
            transform="translate(-210.3 -353.498)"
            fill="#1a1818"
          />
          <path
            id="Path_3730"
            data-name="Path 3730"
            d="M213.378,353.945v-.387a.063.063,0,0,1,.062-.062h.2a.059.059,0,0,1,.043.018.061.061,0,0,1,.018.044v.387a.062.062,0,0,1-.062.063h-.2a.062.062,0,0,1-.062-.062Zm.262,0v-.381h-.2v.381Z"
            transform="translate(-211.473 -353.496)"
            fill="#1a1818"
          />
          <path
            id="Path_3731"
            data-name="Path 3731"
            d="M215.024,353.562v-.027a.03.03,0,0,1,.01-.023.031.031,0,0,1,.023-.01h.293v.2a.033.033,0,0,1-.012.026l-.119.1v.151a.032.032,0,0,1-.01.023.031.031,0,0,1-.023.01.033.033,0,0,1-.023-.01.032.032,0,0,1-.01-.023v-.163a.036.036,0,0,1,.011-.029l.119-.1v-.12h-.2a.033.033,0,0,1-.065,0Z"
            transform="translate(-212.643 -353.5)"
            fill="#1a1818"
          />
          <path
            id="Path_3732"
            data-name="Path 3732"
            d="M216.7,353.945h.1v-.381h-.1a.031.031,0,0,1-.023-.01.032.032,0,0,1,0-.046.031.031,0,0,1,.023-.009h.163v.446h.065v-.134a.031.031,0,0,1,.01-.023.031.031,0,0,1,.023-.01.031.031,0,0,1,.023.01.03.03,0,0,1,.01.023v.167a.031.031,0,0,1-.01.023.031.031,0,0,1-.023.01H216.7a.03.03,0,0,1-.023-.01.032.032,0,0,1-.01-.023.031.031,0,0,1,.01-.023A.032.032,0,0,1,216.7,353.945Z"
            transform="translate(-213.812 -353.498)"
            fill="#1a1818"
          />
          <path
            id="Path_3733"
            data-name="Path 3733"
            d="M218.607,354.01h-.294v-.223a.063.063,0,0,1,.019-.046.061.061,0,0,1,.046-.019h.2v-.157h-.231a.032.032,0,1,1,0-.065h.231a.063.063,0,0,1,.046.019.062.062,0,0,1,.019.046v.157a.066.066,0,0,1-.065.065h-.2v.159h.229a.031.031,0,0,1,.023.01.032.032,0,0,1,0,.046A.032.032,0,0,1,218.607,354.01Z"
            transform="translate(-214.979 -353.498)"
            fill="#1a1818"
          />
        </g>
        <g
          id="Group_1216"
          data-name="Group 1216"
          transform="translate(1.608 16.962)"
        >
          <path
            id="Path_3734"
            data-name="Path 3734"
            d="M127.893,400.645h.138a.165.165,0,0,1,.126.05.192.192,0,0,1,.047.137.2.2,0,0,1-.047.14.158.158,0,0,1-.123.052h-.078v.309h-.063Zm.063.31h.069c.075,0,.112-.039.112-.118a.127.127,0,0,0-.03-.089.1.1,0,0,0-.078-.034h-.072Z"
            transform="translate(-127.893 -400.645)"
            fill="#fff"
          />
          <path
            id="Path_3735"
            data-name="Path 3735"
            d="M129.923,401.447l-.289-.219v-.059l.289-.217v.07l-.232.178.232.174Z"
            transform="translate(-129.13 -400.863)"
            fill="#fff"
          />
          <path
            id="Path_3736"
            data-name="Path 3736"
            d="M131.641,401.333h-.07l-.138-.282-.137.282h-.07l.174-.351-.174-.338h.073l.134.272.135-.272h.07l-.171.338Z"
            transform="translate(-130.261 -400.645)"
            fill="#fff"
          />
          <path
            id="Path_3737"
            data-name="Path 3737"
            d="M133.421,401.333h-.07l-.139-.282-.137.282H133l.174-.351-.174-.338h.073l.134.272.135-.272h.07l-.171.338Z"
            transform="translate(-131.525 -400.645)"
            fill="#fff"
          />
          <path
            id="Path_3738"
            data-name="Path 3738"
            d="M135.2,401.333h-.071l-.138-.282-.137.282h-.07l.174-.351-.174-.338h.073l.134.272.135-.272h.069l-.171.338Z"
            transform="translate(-132.79 -400.645)"
            fill="#fff"
          />
          <path
            id="Path_3739"
            data-name="Path 3739"
            d="M136.98,401.333h-.07l-.139-.282-.137.282h-.07l.174-.351-.174-.338h.073l.134.272.135-.272h.07l-.171.338Z"
            transform="translate(-134.056 -400.645)"
            fill="#fff"
          />
          <path
            id="Path_3740"
            data-name="Path 3740"
            d="M138.76,401.333h-.071l-.138-.282-.137.282h-.07l.175-.351-.174-.338h.073l.134.272.135-.272h.07l-.171.338Z"
            transform="translate(-135.32 -400.645)"
            fill="#fff"
          />
          <path
            id="Path_3741"
            data-name="Path 3741"
            d="M140.539,401.333h-.07l-.139-.282-.137.282h-.07l.174-.351-.174-.338h.073l.134.272.135-.272h.07l-.171.338Z"
            transform="translate(-136.585 -400.645)"
            fill="#fff"
          />
          <path
            id="Path_3742"
            data-name="Path 3742"
            d="M142.319,401.333h-.07l-.139-.282-.137.282h-.07l.174-.351-.174-.338h.073l.134.272.135-.272h.07l-.171.338Z"
            transform="translate(-137.849 -400.645)"
            fill="#fff"
          />
          <path
            id="Path_3743"
            data-name="Path 3743"
            d="M144.159,401.447l-.289-.219v-.059l.289-.217v.07l-.232.178.232.174Z"
            transform="translate(-139.248 -400.863)"
            fill="#fff"
          />
          <path
            id="Path_3744"
            data-name="Path 3744"
            d="M145.939,401.447l-.289-.219v-.059l.289-.217v.07l-.232.178.232.174Z"
            transform="translate(-140.513 -400.863)"
            fill="#fff"
          />
          <path
            id="Path_3745"
            data-name="Path 3745"
            d="M147.658,401.333h-.071l-.138-.282-.137.282h-.07l.174-.351-.174-.338h.073l.134.272.135-.272h.069l-.171.338Z"
            transform="translate(-141.644 -400.645)"
            fill="#fff"
          />
          <path
            id="Path_3746"
            data-name="Path 3746"
            d="M149.437,401.333h-.07l-.138-.282-.137.282h-.07l.174-.351-.174-.338h.073l.134.272.135-.272h.07l-.171.338Z"
            transform="translate(-142.909 -400.645)"
            fill="#fff"
          />
          <path
            id="Path_3747"
            data-name="Path 3747"
            d="M151.217,401.333h-.07l-.139-.282-.137.282h-.07l.174-.351-.174-.338h.073l.134.272.135-.272h.07l-.171.338Z"
            transform="translate(-144.174 -400.645)"
            fill="#fff"
          />
          <path
            id="Path_3748"
            data-name="Path 3748"
            d="M153,401.333h-.071l-.138-.282-.137.282h-.07l.174-.351-.174-.338h.073l.134.272.135-.272h.069l-.171.338Z"
            transform="translate(-145.438 -400.645)"
            fill="#fff"
          />
          <path
            id="Path_3749"
            data-name="Path 3749"
            d="M154.776,401.333h-.07l-.139-.282-.137.282h-.07l.174-.351-.174-.338h.073l.134.272.135-.272h.07l-.171.338Z"
            transform="translate(-146.703 -400.645)"
            fill="#fff"
          />
          <path
            id="Path_3750"
            data-name="Path 3750"
            d="M156.556,401.333h-.07l-.139-.282-.137.282h-.07l.174-.351-.174-.338h.073l.134.272.135-.272h.07l-.171.338Z"
            transform="translate(-147.968 -400.645)"
            fill="#fff"
          />
          <path
            id="Path_3751"
            data-name="Path 3751"
            d="M158.4,401.447l-.289-.219v-.059l.289-.217v.07l-.232.178.232.174Z"
            transform="translate(-149.366 -400.863)"
            fill="#fff"
          />
          <path
            id="Path_3752"
            data-name="Path 3752"
            d="M160.176,401.447l-.289-.219v-.059l.289-.217v.07l-.232.178.232.174Z"
            transform="translate(-150.631 -400.863)"
            fill="#fff"
          />
          <path
            id="Path_3753"
            data-name="Path 3753"
            d="M161.955,401.447l-.289-.219v-.059l.289-.217v.07l-.232.178.232.174Z"
            transform="translate(-151.896 -400.863)"
            fill="#fff"
          />
          <path
            id="Path_3754"
            data-name="Path 3754"
            d="M163.735,401.447l-.289-.219v-.059l.289-.217v.07l-.232.178.232.174Z"
            transform="translate(-153.161 -400.863)"
            fill="#fff"
          />
          <path
            id="Path_3755"
            data-name="Path 3755"
            d="M165.515,401.447l-.289-.219v-.059l.289-.217v.07l-.232.178.232.174Z"
            transform="translate(-154.426 -400.863)"
            fill="#fff"
          />
          <path
            id="Path_3756"
            data-name="Path 3756"
            d="M167.294,401.447l-.289-.219v-.059l.289-.217v.07l-.232.178.232.174Z"
            transform="translate(-155.69 -400.863)"
            fill="#fff"
          />
          <path
            id="Path_3757"
            data-name="Path 3757"
            d="M169.074,401.447l-.289-.219v-.059l.289-.217v.07l-.232.178.232.174Z"
            transform="translate(-156.955 -400.863)"
            fill="#fff"
          />
          <path
            id="Path_3758"
            data-name="Path 3758"
            d="M170.854,401.447l-.289-.219v-.059l.289-.217v.07l-.232.178.232.174Z"
            transform="translate(-158.22 -400.863)"
            fill="#fff"
          />
          <path
            id="Path_3759"
            data-name="Path 3759"
            d="M172.633,401.447l-.289-.219v-.059l.289-.217v.07l-.232.178.232.174Z"
            transform="translate(-159.485 -400.863)"
            fill="#fff"
          />
          <path
            id="Path_3760"
            data-name="Path 3760"
            d="M174.413,401.447l-.289-.219v-.059l.289-.217v.07l-.232.178.232.174Z"
            transform="translate(-160.75 -400.863)"
            fill="#fff"
          />
          <path
            id="Path_3761"
            data-name="Path 3761"
            d="M176.192,401.447l-.289-.219v-.059l.289-.217v.07l-.232.178.232.174Z"
            transform="translate(-162.014 -400.863)"
            fill="#fff"
          />
          <path
            id="Path_3762"
            data-name="Path 3762"
            d="M177.972,401.447l-.289-.219v-.059l.289-.217v.07l-.232.178.232.174Z"
            transform="translate(-163.279 -400.863)"
            fill="#fff"
          />
          <path
            id="Path_3763"
            data-name="Path 3763"
            d="M179.752,401.447l-.289-.219v-.059l.289-.217v.07l-.232.178.232.174Z"
            transform="translate(-164.544 -400.863)"
            fill="#fff"
          />
          <path
            id="Path_3764"
            data-name="Path 3764"
            d="M181.531,401.447l-.289-.219v-.059l.289-.217v.07l-.232.178.232.174Z"
            transform="translate(-165.809 -400.863)"
            fill="#fff"
          />
          <path
            id="Path_3765"
            data-name="Path 3765"
            d="M183.311,401.447l-.289-.219v-.059l.289-.217v.07l-.232.178.232.174Z"
            transform="translate(-167.074 -400.863)"
            fill="#fff"
          />
          <path
            id="Path_3766"
            data-name="Path 3766"
            d="M185.09,401.447l-.289-.219v-.059l.289-.217v.07l-.232.178.232.174Z"
            transform="translate(-168.338 -400.863)"
            fill="#fff"
          />
          <path
            id="Path_3767"
            data-name="Path 3767"
            d="M186.87,401.447l-.289-.219v-.059l.289-.217v.07l-.232.178.232.174Z"
            transform="translate(-169.603 -400.863)"
            fill="#fff"
          />
          <path
            id="Path_3768"
            data-name="Path 3768"
            d="M188.65,401.447l-.289-.219v-.059l.289-.217v.07l-.232.178.232.174Z"
            transform="translate(-170.868 -400.863)"
            fill="#fff"
          />
          <path
            id="Path_3769"
            data-name="Path 3769"
            d="M190.429,401.447l-.289-.219v-.059l.289-.217v.07l-.232.178.232.174Z"
            transform="translate(-172.132 -400.863)"
            fill="#fff"
          />
          <path
            id="Path_3770"
            data-name="Path 3770"
            d="M192.209,401.447l-.289-.219v-.059l.289-.217v.07l-.232.178.232.174Z"
            transform="translate(-173.397 -400.863)"
            fill="#fff"
          />
          <path
            id="Path_3771"
            data-name="Path 3771"
            d="M193.988,401.447l-.289-.219v-.059l.289-.217v.07l-.232.178.232.174Z"
            transform="translate(-174.662 -400.863)"
            fill="#fff"
          />
          <path
            id="Path_3772"
            data-name="Path 3772"
            d="M195.768,401.447l-.289-.219v-.059l.289-.217v.07l-.232.178.232.174Z"
            transform="translate(-175.927 -400.863)"
            fill="#fff"
          />
          <path
            id="Path_3773"
            data-name="Path 3773"
            d="M197.548,401.447l-.289-.219v-.059l.289-.217v.07l-.232.178.232.174Z"
            transform="translate(-177.192 -400.863)"
            fill="#fff"
          />
          <path
            id="Path_3774"
            data-name="Path 3774"
            d="M199.327,401.447l-.289-.219v-.059l.289-.217v.07l-.232.178.232.174Z"
            transform="translate(-178.456 -400.863)"
            fill="#fff"
          />
          <path
            id="Path_3775"
            data-name="Path 3775"
            d="M201.107,401.447l-.289-.219v-.059l.289-.217v.07l-.232.178.232.174Z"
            transform="translate(-179.721 -400.863)"
            fill="#fff"
          />
          <path
            id="Path_3776"
            data-name="Path 3776"
            d="M202.887,401.447l-.289-.219v-.059l.289-.217v.07l-.232.178.232.174Z"
            transform="translate(-180.986 -400.863)"
            fill="#fff"
          />
          <path
            id="Path_3777"
            data-name="Path 3777"
            d="M204.666,401.447l-.289-.219v-.059l.289-.217v.07l-.232.178.232.174Z"
            transform="translate(-182.251 -400.863)"
            fill="#fff"
          />
          <path
            id="Path_3778"
            data-name="Path 3778"
            d="M206.446,401.447l-.289-.219v-.059l.289-.217v.07l-.232.178.232.174Z"
            transform="translate(-183.516 -400.863)"
            fill="#fff"
          />
          <path
            id="Path_3779"
            data-name="Path 3779"
            d="M208.225,401.447l-.289-.219v-.059l.289-.217v.07l-.232.178.232.174Z"
            transform="translate(-184.78 -400.863)"
            fill="#fff"
          />
          <path
            id="Path_3780"
            data-name="Path 3780"
            d="M210.005,401.447l-.289-.219v-.059l.289-.217v.07l-.232.178.232.174Z"
            transform="translate(-186.045 -400.863)"
            fill="#fff"
          />
          <path
            id="Path_3781"
            data-name="Path 3781"
            d="M211.785,401.447l-.289-.219v-.059l.289-.217v.07l-.232.178.232.174Z"
            transform="translate(-187.31 -400.863)"
            fill="#fff"
          />
          <path
            id="Path_3782"
            data-name="Path 3782"
            d="M213.564,401.447l-.289-.219v-.059l.289-.217v.07l-.232.178.232.174Z"
            transform="translate(-188.575 -400.863)"
            fill="#fff"
          />
          <path
            id="Path_3783"
            data-name="Path 3783"
            d="M215.344,401.447l-.289-.219v-.059l.289-.217v.07l-.232.178.232.174Z"
            transform="translate(-189.84 -400.863)"
            fill="#fff"
          />
          <path
            id="Path_3784"
            data-name="Path 3784"
            d="M217.123,401.447l-.289-.219v-.059l.289-.217v.07l-.232.178.232.174Z"
            transform="translate(-191.104 -400.863)"
            fill="#fff"
          />
          <path
            id="Path_3785"
            data-name="Path 3785"
            d="M218.9,401.447l-.289-.219v-.059l.289-.217v.07l-.232.178.232.174Z"
            transform="translate(-192.369 -400.863)"
            fill="#fff"
          />
          <path
            id="Path_3786"
            data-name="Path 3786"
            d="M220.683,401.447l-.289-.219v-.059l.289-.217v.07l-.232.178.232.174Z"
            transform="translate(-193.634 -400.863)"
            fill="#fff"
          />
        </g>
        <g
          id="Group_1217"
          data-name="Group 1217"
          transform="translate(1.577 18.262)"
        >
          <path
            id="Path_3787"
            data-name="Path 3787"
            d="M128.061,405.511a.146.146,0,0,1-.227,0,.22.22,0,0,1-.046-.144.275.275,0,0,1,.045-.159.133.133,0,0,1,.114-.065.148.148,0,0,1,.134.1.574.574,0,0,1,.048.25.55.55,0,0,1-.056.259.169.169,0,0,1-.151.107.233.233,0,0,1-.11-.024l.01-.071a.234.234,0,0,0,.1.025.116.116,0,0,0,.1-.078A.439.439,0,0,0,128.061,405.511Zm0-.069a.418.418,0,0,0-.03-.163c-.02-.046-.046-.07-.078-.07a.08.08,0,0,0-.07.041.194.194,0,0,0-.026.106.17.17,0,0,0,.027.1.081.081,0,0,0,.069.038.137.137,0,0,0,.1-.046Z"
            transform="translate(-127.788 -405.139)"
            fill="#fff"
          />
          <path
            id="Path_3788"
            data-name="Path 3788"
            d="M129.778,405.467a.164.164,0,0,1,.086.07.213.213,0,0,1,.031.115.218.218,0,0,1-.05.15.165.165,0,0,1-.248,0,.219.219,0,0,1-.049-.149.211.211,0,0,1,.032-.115.171.171,0,0,1,.089-.071.136.136,0,0,1-.073-.057.168.168,0,0,1-.027-.093.191.191,0,0,1,.042-.12.132.132,0,0,1,.11-.054.14.14,0,0,1,.112.054.185.185,0,0,1,.045.121.164.164,0,0,1-.028.092A.14.14,0,0,1,129.778,405.467Zm-.057.035a.146.146,0,0,0-.106.147.15.15,0,0,0,.032.1.1.1,0,0,0,.075.038.094.094,0,0,0,.076-.037.153.153,0,0,0,.031-.1.177.177,0,0,0-.021-.087A.148.148,0,0,0,129.721,405.5Zm0-.068.019-.006a.112.112,0,0,0,.028-.014.121.121,0,0,0,.022-.022.116.116,0,0,0,.016-.031.123.123,0,0,0,.006-.04.116.116,0,0,0-.027-.078.083.083,0,0,0-.065-.031.079.079,0,0,0-.063.032.116.116,0,0,0-.026.077.126.126,0,0,0,.009.05.105.105,0,0,0,.024.035.108.108,0,0,0,.032.02A.085.085,0,0,0,129.721,405.434Z"
            transform="translate(-129.04 -405.142)"
            fill="#fff"
          />
          <path
            id="Path_3789"
            data-name="Path 3789"
            d="M131.639,405.717h-.067v.159h-.063v-.159h-.237v-.061l.216-.468h.085v.46h.067Zm-.131-.07v-.38l-.173.38Z"
            transform="translate(-130.263 -405.174)"
            fill="#fff"
          />
          <path
            id="Path_3790"
            data-name="Path 3790"
            d="M133.464,405.844h-.3v-.058q.114-.16.148-.215a.574.574,0,0,0,.056-.115.355.355,0,0,0,.021-.119.139.139,0,0,0-.028-.091.1.1,0,0,0-.078-.033.264.264,0,0,0-.1.03l-.009-.069a.255.255,0,0,1,.122-.031.149.149,0,0,1,.118.052.207.207,0,0,1,.045.139.346.346,0,0,1-.023.123.626.626,0,0,1-.059.117q-.036.056-.14.2h.23Z"
            transform="translate(-131.609 -405.142)"
            fill="#fff"
          />
          <path
            id="Path_3791"
            data-name="Path 3791"
            d="M135.259,405.245l-.216.631h-.065l.213-.618h-.256v-.07h.324Z"
            transform="translate(-132.867 -405.174)"
            fill="#fff"
          />
          <path
            id="Path_3792"
            data-name="Path 3792"
            d="M136.909,405.475a.156.156,0,0,1,.08.064.19.19,0,0,1,.03.1.219.219,0,0,1-.056.152.173.173,0,0,1-.132.062.2.2,0,0,1-.116-.036l.012-.066a.209.209,0,0,0,.106.031.109.109,0,0,0,.084-.039.142.142,0,0,0,.035-.1.132.132,0,0,0-.038-.1.134.134,0,0,0-.1-.037H136.8v-.066h0a.141.141,0,0,0,.1-.035.124.124,0,0,0,.039-.1.1.1,0,0,0-.028-.076.1.1,0,0,0-.076-.028.2.2,0,0,0-.094.029l-.009-.069a.212.212,0,0,1,.106-.03.161.161,0,0,1,.12.049.172.172,0,0,1,.047.125.18.18,0,0,1-.029.1.124.124,0,0,1-.069.057Z"
            transform="translate(-134.132 -405.142)"
            fill="#fff"
          />
          <path
            id="Path_3793"
            data-name="Path 3793"
            d="M138.758,405.717h-.067v.159h-.063v-.159h-.238v-.061l.215-.468h.086v.46h.067Zm-.131-.07v-.38l-.173.38Z"
            transform="translate(-135.323 -405.174)"
            fill="#fff"
          />
          <path
            id="Path_3794"
            data-name="Path 3794"
            d="M140.456,405.467a.165.165,0,0,1,.086.07.212.212,0,0,1,.031.115.217.217,0,0,1-.05.15.165.165,0,0,1-.247,0,.217.217,0,0,1-.049-.149.208.208,0,0,1,.032-.115.171.171,0,0,1,.089-.071.135.135,0,0,1-.073-.057.166.166,0,0,1-.027-.093.192.192,0,0,1,.042-.12.132.132,0,0,1,.11-.054.139.139,0,0,1,.112.054.185.185,0,0,1,.044.121.164.164,0,0,1-.028.092A.139.139,0,0,1,140.456,405.467Zm-.056.035a.146.146,0,0,0-.106.147.15.15,0,0,0,.032.1.1.1,0,0,0,.075.038.094.094,0,0,0,.076-.037.153.153,0,0,0,.031-.1.177.177,0,0,0-.021-.087A.147.147,0,0,0,140.4,405.5Zm0-.068.019-.006a.119.119,0,0,0,.029-.014.111.111,0,0,0,.022-.022.109.109,0,0,0,.016-.031.122.122,0,0,0,.006-.04.115.115,0,0,0-.027-.078.082.082,0,0,0-.065-.031.08.08,0,0,0-.063.032.118.118,0,0,0-.026.077.122.122,0,0,0,.01.05.1.1,0,0,0,.024.035.1.1,0,0,0,.032.02A.083.083,0,0,0,140.4,405.434Z"
            transform="translate(-136.628 -405.142)"
            fill="#fff"
          />
          <path
            id="Path_3795"
            data-name="Path 3795"
            d="M142.3,405.511a.145.145,0,0,1-.111.052.144.144,0,0,1-.115-.056.218.218,0,0,1-.046-.144.276.276,0,0,1,.044-.159.134.134,0,0,1,.114-.065.147.147,0,0,1,.133.1.569.569,0,0,1,.048.25.553.553,0,0,1-.056.259.169.169,0,0,1-.151.107.234.234,0,0,1-.11-.024l.01-.071a.234.234,0,0,0,.1.025.116.116,0,0,0,.1-.078A.441.441,0,0,0,142.3,405.511Zm0-.069a.412.412,0,0,0-.03-.163c-.02-.046-.046-.07-.078-.07a.079.079,0,0,0-.07.041.194.194,0,0,0-.026.106.17.17,0,0,0,.026.1.081.081,0,0,0,.069.038.138.138,0,0,0,.1-.046Z"
            transform="translate(-137.906 -405.139)"
            fill="#fff"
          />
          <path
            id="Path_3796"
            data-name="Path 3796"
            d="M144.159,405.99l-.289-.219v-.059l.289-.217v.07l-.232.178.232.174Z"
            transform="translate(-139.218 -405.392)"
            fill="#fff"
          />
          <path
            id="Path_3797"
            data-name="Path 3797"
            d="M145.921,405.844h-.3v-.058q.114-.16.148-.215a.575.575,0,0,0,.056-.115.356.356,0,0,0,.021-.119.139.139,0,0,0-.028-.091.1.1,0,0,0-.078-.033.264.264,0,0,0-.1.03l-.009-.069a.255.255,0,0,1,.122-.031.149.149,0,0,1,.118.052.206.206,0,0,1,.045.139.346.346,0,0,1-.023.123.607.607,0,0,1-.059.117q-.036.056-.14.2h.23Z"
            transform="translate(-140.462 -405.142)"
            fill="#fff"
          />
          <path
            id="Path_3798"
            data-name="Path 3798"
            d="M147.637,405.511a.146.146,0,0,1-.226,0,.218.218,0,0,1-.046-.144.275.275,0,0,1,.044-.159.134.134,0,0,1,.114-.065.147.147,0,0,1,.133.1.569.569,0,0,1,.048.25.553.553,0,0,1-.056.259.169.169,0,0,1-.151.107.234.234,0,0,1-.11-.024l.01-.071a.235.235,0,0,0,.1.025.115.115,0,0,0,.1-.078A.438.438,0,0,0,147.637,405.511Zm0-.069a.413.413,0,0,0-.03-.163c-.02-.046-.046-.07-.078-.07a.08.08,0,0,0-.07.041.2.2,0,0,0-.026.106.17.17,0,0,0,.026.1.081.081,0,0,0,.069.038.138.138,0,0,0,.1-.046Z"
            transform="translate(-141.701 -405.139)"
            fill="#fff"
          />
          <path
            id="Path_3799"
            data-name="Path 3799"
            d="M149.366,405.475a.156.156,0,0,1,.08.064.19.19,0,0,1,.03.1.219.219,0,0,1-.056.152.173.173,0,0,1-.132.062.2.2,0,0,1-.116-.036l.012-.066a.208.208,0,0,0,.106.031.109.109,0,0,0,.084-.039.142.142,0,0,0,.035-.1.132.132,0,0,0-.038-.1.134.134,0,0,0-.1-.037h-.017v-.066h0a.14.14,0,0,0,.1-.035.124.124,0,0,0,.039-.1.1.1,0,0,0-.028-.076.1.1,0,0,0-.076-.028.2.2,0,0,0-.094.029l-.009-.069a.213.213,0,0,1,.106-.03.161.161,0,0,1,.12.049.172.172,0,0,1,.047.125.181.181,0,0,1-.029.1.123.123,0,0,1-.069.057Z"
            transform="translate(-142.986 -405.142)"
            fill="#fff"
          />
          <path
            id="Path_3800"
            data-name="Path 3800"
            d="M151.134,405.467a.166.166,0,0,1,.086.07.212.212,0,0,1,.031.115.217.217,0,0,1-.05.15.165.165,0,0,1-.247,0,.217.217,0,0,1-.049-.149.21.21,0,0,1,.032-.115.171.171,0,0,1,.088-.071.135.135,0,0,1-.072-.057.167.167,0,0,1-.028-.093.192.192,0,0,1,.042-.12.132.132,0,0,1,.11-.054.14.14,0,0,1,.112.054.185.185,0,0,1,.044.121.164.164,0,0,1-.028.092A.14.14,0,0,1,151.134,405.467Zm-.056.035a.146.146,0,0,0-.106.147.149.149,0,0,0,.032.1.1.1,0,0,0,.075.038.093.093,0,0,0,.076-.037.153.153,0,0,0,.031-.1.177.177,0,0,0-.021-.087A.147.147,0,0,0,151.077,405.5Zm0-.068.019-.006a.113.113,0,0,0,.028-.014.114.114,0,0,0,.022-.022.11.11,0,0,0,.016-.031.122.122,0,0,0,.006-.04.116.116,0,0,0-.027-.078.082.082,0,0,0-.065-.031.08.08,0,0,0-.063.032.116.116,0,0,0-.026.077.121.121,0,0,0,.01.05.109.109,0,0,0,.023.035.105.105,0,0,0,.033.02A.08.08,0,0,0,151.077,405.434Z"
            transform="translate(-144.217 -405.142)"
            fill="#fff"
          />
          <path
            id="Path_3801"
            data-name="Path 3801"
            d="M152.842,405.143a.145.145,0,0,1,.133.094.608.608,0,0,1,.047.264.624.624,0,0,1-.045.261.142.142,0,0,1-.268,0,.6.6,0,0,1-.047-.263.62.62,0,0,1,.045-.261A.144.144,0,0,1,152.842,405.143Zm0,.644a.09.09,0,0,0,.085-.068.873.873,0,0,0,0-.437.091.091,0,0,0-.085-.068c-.038,0-.066.023-.084.07a.858.858,0,0,0,0,.434A.091.091,0,0,0,152.842,405.787Zm0-.36a.05.05,0,0,1,.041.021.081.081,0,0,1,.017.052.088.088,0,0,1-.017.054.051.051,0,0,1-.041.023.049.049,0,0,1-.04-.023.088.088,0,0,1-.017-.054.083.083,0,0,1,.017-.052A.05.05,0,0,1,152.84,405.427Z"
            transform="translate(-145.466 -405.142)"
            fill="#fff"
          />
          <path
            id="Path_3802"
            data-name="Path 3802"
            d="M154.693,405.467a.165.165,0,0,1,.087.07.212.212,0,0,1,.031.115.217.217,0,0,1-.05.15.165.165,0,0,1-.247,0,.218.218,0,0,1-.049-.149.208.208,0,0,1,.032-.115.171.171,0,0,1,.089-.071.135.135,0,0,1-.073-.057.166.166,0,0,1-.027-.093.192.192,0,0,1,.042-.12.132.132,0,0,1,.11-.054.14.14,0,0,1,.112.054.185.185,0,0,1,.044.121.164.164,0,0,1-.028.092A.139.139,0,0,1,154.693,405.467Zm-.056.035a.146.146,0,0,0-.106.147.15.15,0,0,0,.032.1.1.1,0,0,0,.075.038.094.094,0,0,0,.076-.037.153.153,0,0,0,.031-.1.178.178,0,0,0-.021-.087A.147.147,0,0,0,154.636,405.5Zm0-.068.019-.006a.12.12,0,0,0,.029-.014.114.114,0,0,0,.022-.022.109.109,0,0,0,.016-.031.121.121,0,0,0,.006-.04.115.115,0,0,0-.027-.078.082.082,0,0,0-.065-.031.08.08,0,0,0-.063.032.118.118,0,0,0-.026.077.121.121,0,0,0,.01.05.106.106,0,0,0,.024.035.1.1,0,0,0,.032.02A.084.084,0,0,0,154.636,405.434Z"
            transform="translate(-146.747 -405.142)"
            fill="#fff"
          />
          <path
            id="Path_3803"
            data-name="Path 3803"
            d="M156.4,405.143a.145.145,0,0,1,.133.094.608.608,0,0,1,.047.264.623.623,0,0,1-.045.261.142.142,0,0,1-.268,0,.606.606,0,0,1-.047-.263.621.621,0,0,1,.045-.261A.144.144,0,0,1,156.4,405.143Zm0,.644a.091.091,0,0,0,.085-.068.881.881,0,0,0,0-.437.091.091,0,0,0-.085-.068c-.038,0-.066.023-.084.07a.627.627,0,0,0-.028.217.635.635,0,0,0,.027.218A.091.091,0,0,0,156.4,405.787Zm0-.36a.05.05,0,0,1,.041.021.081.081,0,0,1,.017.052.088.088,0,0,1-.017.054.051.051,0,0,1-.041.023.05.05,0,0,1-.041-.023.09.09,0,0,1-.017-.054.083.083,0,0,1,.016-.052A.05.05,0,0,1,156.4,405.427Z"
            transform="translate(-147.996 -405.142)"
            fill="#fff"
          />
          <path
            id="Path_3804"
            data-name="Path 3804"
            d="M158.083,405.188h.108a.2.2,0,0,1,.172.092.432.432,0,0,1,.065.252.426.426,0,0,1-.066.254.2.2,0,0,1-.168.09h-.11Zm.063.619h.045a.139.139,0,0,0,.123-.073.47.47,0,0,0,0-.4.138.138,0,0,0-.123-.073h-.045Z"
            transform="translate(-149.319 -405.174)"
            fill="#fff"
          />
          <path
            id="Path_3805"
            data-name="Path 3805"
            d="M159.96,405.143a.145.145,0,0,1,.133.094.6.6,0,0,1,.047.264.623.623,0,0,1-.045.261.142.142,0,0,1-.268,0,.6.6,0,0,1-.047-.263.621.621,0,0,1,.045-.261A.145.145,0,0,1,159.96,405.143Zm0,.644a.091.091,0,0,0,.085-.068.873.873,0,0,0,0-.437.091.091,0,0,0-.085-.068c-.038,0-.066.023-.085.07a.864.864,0,0,0,0,.434A.091.091,0,0,0,159.96,405.787Zm0-.36a.051.051,0,0,1,.041.021.083.083,0,0,1,.017.052.088.088,0,0,1-.017.054.05.05,0,0,1-.041.023.049.049,0,0,1-.04-.023.088.088,0,0,1-.017-.054.083.083,0,0,1,.016-.052A.05.05,0,0,1,159.958,405.427Z"
            transform="translate(-150.525 -405.142)"
            fill="#fff"
          />
          <path
            id="Path_3806"
            data-name="Path 3806"
            d="M161.874,405.511a.146.146,0,0,1-.226,0,.218.218,0,0,1-.046-.144.275.275,0,0,1,.044-.159.134.134,0,0,1,.114-.065.148.148,0,0,1,.133.1.57.57,0,0,1,.048.25.549.549,0,0,1-.056.259.169.169,0,0,1-.15.107.234.234,0,0,1-.11-.024l.01-.071a.235.235,0,0,0,.1.025.116.116,0,0,0,.1-.078A.439.439,0,0,0,161.874,405.511Zm0-.069a.418.418,0,0,0-.03-.163c-.02-.046-.046-.07-.078-.07a.079.079,0,0,0-.07.041.2.2,0,0,0-.026.106.17.17,0,0,0,.026.1.081.081,0,0,0,.069.038.139.139,0,0,0,.1-.046Z"
            transform="translate(-151.819 -405.139)"
            fill="#fff"
          />
          <path
            id="Path_3807"
            data-name="Path 3807"
            d="M163.519,405.143a.145.145,0,0,1,.133.094.6.6,0,0,1,.047.264.623.623,0,0,1-.045.261.142.142,0,0,1-.268,0,.6.6,0,0,1-.047-.263.62.62,0,0,1,.045-.261A.145.145,0,0,1,163.519,405.143Zm0,.644a.091.091,0,0,0,.085-.068.873.873,0,0,0,0-.437.091.091,0,0,0-.085-.068c-.038,0-.066.023-.084.07a.863.863,0,0,0,0,.434A.091.091,0,0,0,163.519,405.787Zm0-.36a.051.051,0,0,1,.041.021.083.083,0,0,1,.017.052.088.088,0,0,1-.017.054.05.05,0,0,1-.041.023.049.049,0,0,1-.04-.023.088.088,0,0,1-.017-.054.083.083,0,0,1,.017-.052A.05.05,0,0,1,163.517,405.427Z"
            transform="translate(-153.054 -405.142)"
            fill="#fff"
          />
          <path
            id="Path_3808"
            data-name="Path 3808"
            d="M165.433,405.511a.145.145,0,0,1-.111.052.143.143,0,0,1-.115-.056.218.218,0,0,1-.046-.144.275.275,0,0,1,.044-.159.134.134,0,0,1,.114-.065.148.148,0,0,1,.133.1.571.571,0,0,1,.048.25.553.553,0,0,1-.056.259.169.169,0,0,1-.151.107.234.234,0,0,1-.11-.024l.01-.071a.234.234,0,0,0,.1.025.115.115,0,0,0,.1-.078A.437.437,0,0,0,165.433,405.511Zm0-.069a.412.412,0,0,0-.03-.163c-.02-.046-.046-.07-.078-.07a.08.08,0,0,0-.07.041.194.194,0,0,0-.026.106.17.17,0,0,0,.026.1.081.081,0,0,0,.07.038.138.138,0,0,0,.1-.046Z"
            transform="translate(-154.349 -405.139)"
            fill="#fff"
          />
          <path
            id="Path_3809"
            data-name="Path 3809"
            d="M167.162,405.475a.156.156,0,0,1,.08.064.19.19,0,0,1,.03.1.218.218,0,0,1-.056.152.173.173,0,0,1-.132.062.2.2,0,0,1-.116-.036l.012-.066a.208.208,0,0,0,.106.031.109.109,0,0,0,.084-.039.142.142,0,0,0,.035-.1.133.133,0,0,0-.037-.1.135.135,0,0,0-.1-.037h-.016v-.066h0a.14.14,0,0,0,.1-.035.123.123,0,0,0,.039-.1.1.1,0,0,0-.028-.076.1.1,0,0,0-.076-.028.2.2,0,0,0-.094.029l-.009-.069a.213.213,0,0,1,.106-.03.161.161,0,0,1,.12.049.172.172,0,0,1,.047.125.178.178,0,0,1-.029.1.123.123,0,0,1-.069.057Z"
            transform="translate(-155.634 -405.142)"
            fill="#fff"
          />
          <path
            id="Path_3810"
            data-name="Path 3810"
            d="M168.965,405.693a.232.232,0,0,1-.039.145.136.136,0,0,1-.115.051.216.216,0,0,1-.12-.035l.019-.064a.186.186,0,0,0,.1.029.078.078,0,0,0,.069-.032.184.184,0,0,0,.021-.1v-.5h.063Z"
            transform="translate(-156.857 -405.174)"
            fill="#fff"
          />
          <path
            id="Path_3811"
            data-name="Path 3811"
            d="M170.54,405.188h.108a.2.2,0,0,1,.172.092.434.434,0,0,1,.064.252.425.425,0,0,1-.066.254.2.2,0,0,1-.168.09h-.11Zm.064.619h.045a.139.139,0,0,0,.123-.073.47.47,0,0,0,0-.4.138.138,0,0,0-.123-.073H170.6Z"
            transform="translate(-158.172 -405.174)"
            fill="#fff"
          />
          <path
            id="Path_3812"
            data-name="Path 3812"
            d="M172.489,405.467a.165.165,0,0,1,.086.07.212.212,0,0,1,.031.115.217.217,0,0,1-.05.15.165.165,0,0,1-.247,0,.217.217,0,0,1-.049-.149.208.208,0,0,1,.032-.115.171.171,0,0,1,.089-.071.134.134,0,0,1-.073-.057.166.166,0,0,1-.027-.093.192.192,0,0,1,.042-.12.132.132,0,0,1,.11-.054.139.139,0,0,1,.112.054.185.185,0,0,1,.044.121.164.164,0,0,1-.028.092A.139.139,0,0,1,172.489,405.467Zm-.056.035a.146.146,0,0,0-.106.147.15.15,0,0,0,.032.1.1.1,0,0,0,.075.038.094.094,0,0,0,.076-.037.153.153,0,0,0,.031-.1.177.177,0,0,0-.021-.087A.147.147,0,0,0,172.432,405.5Zm0-.068.018-.006a.119.119,0,0,0,.029-.014.11.11,0,0,0,.038-.053.123.123,0,0,0,.006-.04.115.115,0,0,0-.027-.078.082.082,0,0,0-.064-.031.08.08,0,0,0-.063.032.118.118,0,0,0-.026.077.121.121,0,0,0,.01.05.1.1,0,0,0,.024.035.1.1,0,0,0,.032.02A.082.082,0,0,0,172.432,405.434Z"
            transform="translate(-159.395 -405.142)"
            fill="#fff"
          />
          <path
            id="Path_3813"
            data-name="Path 3813"
            d="M174.35,405.717h-.067v.159h-.063v-.159h-.238v-.061l.216-.468h.085v.46h.067Zm-.131-.07v-.38l-.173.38Z"
            transform="translate(-160.618 -405.174)"
            fill="#fff"
          />
          <path
            id="Path_3814"
            data-name="Path 3814"
            d="M176.19,405.245l-.216.631h-.065l.213-.618h-.255v-.07h.324Z"
            transform="translate(-161.957 -405.174)"
            fill="#fff"
          />
          <path
            id="Path_3815"
            data-name="Path 3815"
            d="M177.891,405.511a.146.146,0,0,1-.226,0,.219.219,0,0,1-.046-.144.276.276,0,0,1,.044-.159.133.133,0,0,1,.114-.065.148.148,0,0,1,.133.1.574.574,0,0,1,.048.25.55.55,0,0,1-.056.259.169.169,0,0,1-.151.107.232.232,0,0,1-.11-.024l.01-.071a.234.234,0,0,0,.1.025.116.116,0,0,0,.1-.078A.438.438,0,0,0,177.891,405.511Zm0-.069a.42.42,0,0,0-.029-.163c-.02-.046-.046-.07-.078-.07a.08.08,0,0,0-.07.041.2.2,0,0,0-.026.106.17.17,0,0,0,.027.1.081.081,0,0,0,.069.038.138.138,0,0,0,.1-.046Z"
            transform="translate(-163.203 -405.139)"
            fill="#fff"
          />
          <path
            id="Path_3816"
            data-name="Path 3816"
            d="M179.541,405.466a.167.167,0,0,1,.051-.008.145.145,0,0,1,.122.059.243.243,0,0,1,.045.149.247.247,0,0,1-.052.159.158.158,0,0,1-.127.065.218.218,0,0,1-.12-.03l.013-.068a.229.229,0,0,0,.109.028.1.1,0,0,0,.08-.04.184.184,0,0,0,.031-.113.169.169,0,0,0-.029-.106.09.09,0,0,0-.075-.037.146.146,0,0,0-.066.016l-.038-.022v-.329h.249v.07h-.194Z"
            transform="translate(-164.512 -405.174)"
            fill="#fff"
          />
          <path
            id="Path_3817"
            data-name="Path 3817"
            d="M181.449,405.511a.145.145,0,0,1-.111.052.143.143,0,0,1-.115-.056.218.218,0,0,1-.046-.144.275.275,0,0,1,.044-.159.134.134,0,0,1,.114-.065.148.148,0,0,1,.133.1.574.574,0,0,1,.048.25.549.549,0,0,1-.056.259.169.169,0,0,1-.15.107.233.233,0,0,1-.11-.024l.01-.071a.234.234,0,0,0,.1.025.115.115,0,0,0,.1-.078A.438.438,0,0,0,181.449,405.511Zm0-.069a.417.417,0,0,0-.03-.163c-.02-.046-.046-.07-.078-.07a.079.079,0,0,0-.07.041.194.194,0,0,0-.026.106.17.17,0,0,0,.027.1.081.081,0,0,0,.069.038.137.137,0,0,0,.1-.046Z"
            transform="translate(-165.732 -405.139)"
            fill="#fff"
          />
          <path
            id="Path_3818"
            data-name="Path 3818"
            d="M183.35,405.258h-.226v.225h.206v.07h-.206v.324h-.063v-.689h.289Z"
            transform="translate(-167.071 -405.174)"
            fill="#fff"
          />
          <path
            id="Path_3819"
            data-name="Path 3819"
            d="M185.079,405.877h-.07l-.2-.544v.544h-.063v-.689h.071l.2.539v-.539h.062Z"
            transform="translate(-168.271 -405.174)"
            fill="#fff"
          />
          <path
            id="Path_3820"
            data-name="Path 3820"
            d="M186.659,405.466a.164.164,0,0,1,.051-.008.144.144,0,0,1,.122.059.243.243,0,0,1,.045.149.246.246,0,0,1-.052.159.158.158,0,0,1-.127.065.219.219,0,0,1-.12-.03l.013-.068a.231.231,0,0,0,.109.028.1.1,0,0,0,.081-.04.186.186,0,0,0,.031-.113.168.168,0,0,0-.029-.106.091.091,0,0,0-.075-.037.144.144,0,0,0-.066.016l-.038-.022v-.329h.25v.07h-.194Z"
            transform="translate(-169.57 -405.174)"
            fill="#fff"
          />
          <path
            id="Path_3821"
            data-name="Path 3821"
            d="M188.505,405.467a.164.164,0,0,1,.086.07.213.213,0,0,1,.031.115.218.218,0,0,1-.05.15.165.165,0,0,1-.248,0,.219.219,0,0,1-.049-.149.211.211,0,0,1,.032-.115.171.171,0,0,1,.089-.071.136.136,0,0,1-.073-.057.168.168,0,0,1-.027-.093.191.191,0,0,1,.042-.12.132.132,0,0,1,.11-.054.14.14,0,0,1,.112.054.185.185,0,0,1,.044.121.164.164,0,0,1-.028.092A.139.139,0,0,1,188.505,405.467Zm-.057.035a.146.146,0,0,0-.106.147.15.15,0,0,0,.032.1.1.1,0,0,0,.076.038.093.093,0,0,0,.075-.037.152.152,0,0,0,.031-.1.177.177,0,0,0-.021-.087A.148.148,0,0,0,188.448,405.5Zm0-.068.019-.006a.11.11,0,0,0,.028-.014.12.12,0,0,0,.022-.022.125.125,0,0,0,.016-.031.123.123,0,0,0,.006-.04.116.116,0,0,0-.027-.078.083.083,0,0,0-.065-.031.079.079,0,0,0-.063.032.116.116,0,0,0-.026.077.126.126,0,0,0,.009.05.1.1,0,0,0,.056.055A.086.086,0,0,0,188.448,405.434Z"
            transform="translate(-170.777 -405.142)"
            fill="#fff"
          />
          <path
            id="Path_3822"
            data-name="Path 3822"
            d="M190.427,405.245l-.216.631h-.065l.213-.618H190.1v-.07h.324Z"
            transform="translate(-172.076 -405.174)"
            fill="#fff"
          />
          <path
            id="Path_3823"
            data-name="Path 3823"
            d="M191.935,405.486a.153.153,0,0,1,.111-.052.144.144,0,0,1,.115.056.219.219,0,0,1,.046.144.291.291,0,0,1-.041.161.125.125,0,0,1-.109.063.154.154,0,0,1-.139-.1.542.542,0,0,1-.051-.247.577.577,0,0,1,.053-.261.162.162,0,0,1,.146-.1.235.235,0,0,1,.11.024l-.01.071a.235.235,0,0,0-.1-.025.108.108,0,0,0-.1.076A.472.472,0,0,0,191.935,405.486Zm0,.069a.386.386,0,0,0,.033.16q.033.072.083.072a.071.071,0,0,0,.065-.039.214.214,0,0,0,.023-.108.175.175,0,0,0-.025-.1.081.081,0,0,0-.071-.036A.145.145,0,0,0,191.937,405.555Z"
            transform="translate(-173.33 -405.142)"
            fill="#fff"
          />
          <path
            id="Path_3824"
            data-name="Path 3824"
            d="M193.986,405.245l-.216.631H193.7l.213-.618h-.256v-.07h.324Z"
            transform="translate(-174.605 -405.174)"
            fill="#fff"
          />
          <path
            id="Path_3825"
            data-name="Path 3825"
            d="M195.765,405.245l-.216.631h-.065l.213-.618h-.256v-.07h.324Z"
            transform="translate(-175.87 -405.174)"
            fill="#fff"
          />
          <path
            id="Path_3826"
            data-name="Path 3826"
            d="M197.416,405.475a.154.154,0,0,1,.08.064.188.188,0,0,1,.03.1.218.218,0,0,1-.056.152.173.173,0,0,1-.132.062.2.2,0,0,1-.117-.036l.012-.066a.207.207,0,0,0,.106.031.109.109,0,0,0,.085-.039.144.144,0,0,0,.035-.1.133.133,0,0,0-.038-.1.135.135,0,0,0-.1-.037h-.016v-.066h0a.14.14,0,0,0,.1-.035.123.123,0,0,0,.039-.1.1.1,0,0,0-.028-.076.1.1,0,0,0-.077-.028.2.2,0,0,0-.094.029l-.008-.069a.211.211,0,0,1,.106-.03.161.161,0,0,1,.12.049.171.171,0,0,1,.047.125.181.181,0,0,1-.029.1.125.125,0,0,1-.069.057Z"
            transform="translate(-177.135 -405.142)"
            fill="#fff"
          />
          <path
            id="Path_3827"
            data-name="Path 3827"
            d="M199.246,405.511a.146.146,0,0,1-.226,0,.218.218,0,0,1-.046-.144.276.276,0,0,1,.044-.159.134.134,0,0,1,.114-.065.148.148,0,0,1,.133.1.574.574,0,0,1,.048.25.55.55,0,0,1-.056.259.169.169,0,0,1-.15.107.233.233,0,0,1-.11-.024l.01-.071a.235.235,0,0,0,.1.025.115.115,0,0,0,.1-.078A.437.437,0,0,0,199.246,405.511Zm0-.069a.418.418,0,0,0-.03-.163c-.02-.046-.046-.07-.078-.07a.079.079,0,0,0-.07.041.194.194,0,0,0-.026.106.17.17,0,0,0,.027.1.081.081,0,0,0,.069.038.138.138,0,0,0,.1-.046Z"
            transform="translate(-178.38 -405.139)"
            fill="#fff"
          />
          <path
            id="Path_3828"
            data-name="Path 3828"
            d="M201.025,405.511a.145.145,0,0,1-.111.052.144.144,0,0,1-.115-.056.22.22,0,0,1-.046-.144.276.276,0,0,1,.045-.159.133.133,0,0,1,.114-.065.148.148,0,0,1,.134.1.574.574,0,0,1,.048.25.55.55,0,0,1-.056.259.169.169,0,0,1-.151.107.233.233,0,0,1-.11-.024l.01-.071a.235.235,0,0,0,.1.025.116.116,0,0,0,.1-.078A.439.439,0,0,0,201.025,405.511Zm0-.069a.417.417,0,0,0-.03-.163c-.02-.046-.046-.07-.078-.07a.08.08,0,0,0-.07.041.2.2,0,0,0-.026.106.173.173,0,0,0,.026.1.081.081,0,0,0,.07.038.138.138,0,0,0,.1-.046Z"
            transform="translate(-179.644 -405.139)"
            fill="#fff"
          />
          <path
            id="Path_3829"
            data-name="Path 3829"
            d="M202.8,405.511a.146.146,0,0,1-.226,0,.218.218,0,0,1-.046-.144.275.275,0,0,1,.044-.159.134.134,0,0,1,.114-.065.147.147,0,0,1,.133.1.571.571,0,0,1,.048.25.553.553,0,0,1-.056.259.17.17,0,0,1-.151.107.234.234,0,0,1-.11-.024l.01-.071a.235.235,0,0,0,.1.025.115.115,0,0,0,.1-.078A.438.438,0,0,0,202.8,405.511Zm0-.069a.412.412,0,0,0-.03-.163c-.02-.046-.046-.07-.078-.07a.08.08,0,0,0-.07.041.2.2,0,0,0-.026.106.17.17,0,0,0,.026.1.081.081,0,0,0,.069.038.139.139,0,0,0,.1-.046Z"
            transform="translate(-180.909 -405.139)"
            fill="#fff"
          />
          <path
            id="Path_3830"
            data-name="Path 3830"
            d="M204.45,405.143a.145.145,0,0,1,.133.094.6.6,0,0,1,.047.264.623.623,0,0,1-.045.261.142.142,0,0,1-.268,0,.6.6,0,0,1-.047-.263.621.621,0,0,1,.045-.261A.145.145,0,0,1,204.45,405.143Zm0,.644a.091.091,0,0,0,.085-.068.872.872,0,0,0,0-.437.091.091,0,0,0-.085-.068c-.038,0-.066.023-.085.07a.865.865,0,0,0,0,.434A.091.091,0,0,0,204.45,405.787Zm0-.36a.051.051,0,0,1,.041.021.083.083,0,0,1,.017.052.088.088,0,0,1-.017.054.05.05,0,0,1-.041.023.049.049,0,0,1-.04-.023.088.088,0,0,1-.017-.054.083.083,0,0,1,.016-.052A.05.05,0,0,1,204.448,405.427Z"
            transform="translate(-182.144 -405.142)"
            fill="#fff"
          />
          <path
            id="Path_3831"
            data-name="Path 3831"
            d="M206.509,405.867h-.287v-.07h.116v-.535l-.109.069v-.08l.118-.077h.054v.623h.108Z"
            transform="translate(-183.532 -405.165)"
            fill="#fff"
          />
          <path
            id="Path_3832"
            data-name="Path 3832"
            d="M208.081,405.467a.166.166,0,0,1,.087.07.213.213,0,0,1,.031.115.217.217,0,0,1-.05.15.165.165,0,0,1-.247,0,.217.217,0,0,1-.049-.149.208.208,0,0,1,.032-.115.171.171,0,0,1,.089-.071.136.136,0,0,1-.073-.057.166.166,0,0,1-.027-.093.192.192,0,0,1,.042-.12.133.133,0,0,1,.11-.054.139.139,0,0,1,.112.054.185.185,0,0,1,.044.121.164.164,0,0,1-.028.092A.14.14,0,0,1,208.081,405.467Zm-.056.035a.146.146,0,0,0-.106.147.151.151,0,0,0,.032.1.1.1,0,0,0,.075.038.093.093,0,0,0,.076-.037.153.153,0,0,0,.031-.1.177.177,0,0,0-.021-.087A.148.148,0,0,0,208.024,405.5Zm0-.068.018-.006a.112.112,0,0,0,.029-.014.114.114,0,0,0,.022-.022.107.107,0,0,0,.016-.031.12.12,0,0,0,.006-.04.115.115,0,0,0-.027-.078.082.082,0,0,0-.065-.031.08.08,0,0,0-.063.032.118.118,0,0,0-.026.077.122.122,0,0,0,.01.05.1.1,0,0,0,.056.055A.084.084,0,0,0,208.024,405.434Z"
            transform="translate(-184.69 -405.142)"
            fill="#fff"
          />
          <path
            id="Path_3833"
            data-name="Path 3833"
            d="M209.987,405.844h-.3v-.058q.114-.16.148-.215a.573.573,0,0,0,.055-.115.354.354,0,0,0,.021-.119.139.139,0,0,0-.027-.091.1.1,0,0,0-.078-.033.264.264,0,0,0-.1.03l-.009-.069a.255.255,0,0,1,.122-.031.148.148,0,0,1,.117.052.206.206,0,0,1,.045.139.346.346,0,0,1-.023.123.612.612,0,0,1-.059.117c-.024.037-.071.1-.14.2h.23Z"
            transform="translate(-185.994 -405.142)"
            fill="#fff"
          />
          <path
            id="Path_3834"
            data-name="Path 3834"
            d="M211.722,405.717h-.067v.159h-.064v-.159h-.237v-.061l.215-.468h.086v.46h.067Zm-.131-.07v-.38l-.173.38Z"
            transform="translate(-187.179 -405.174)"
            fill="#fff"
          />
          <path
            id="Path_3835"
            data-name="Path 3835"
            d="M213.432,405.475a.156.156,0,0,1,.08.064.19.19,0,0,1,.03.1.218.218,0,0,1-.056.152.173.173,0,0,1-.132.062.2.2,0,0,1-.116-.036l.012-.066a.209.209,0,0,0,.106.031.109.109,0,0,0,.084-.039.142.142,0,0,0,.035-.1.132.132,0,0,0-.038-.1.134.134,0,0,0-.1-.037h-.017v-.066h0a.14.14,0,0,0,.1-.035.123.123,0,0,0,.039-.1.1.1,0,0,0-.028-.076.1.1,0,0,0-.076-.028.2.2,0,0,0-.094.029l-.009-.069a.212.212,0,0,1,.106-.03.161.161,0,0,1,.12.049.172.172,0,0,1,.047.125.181.181,0,0,1-.029.1.124.124,0,0,1-.069.057Z"
            transform="translate(-188.518 -405.142)"
            fill="#fff"
          />
          <path
            id="Path_3836"
            data-name="Path 3836"
            d="M215.325,405.844h-.3v-.058q.114-.16.148-.215a.573.573,0,0,0,.055-.115.356.356,0,0,0,.021-.119.137.137,0,0,0-.028-.091.1.1,0,0,0-.077-.033.263.263,0,0,0-.1.03l-.009-.069a.255.255,0,0,1,.122-.031.148.148,0,0,1,.118.052.206.206,0,0,1,.045.139.344.344,0,0,1-.023.123.611.611,0,0,1-.059.117c-.024.037-.071.1-.14.2h.229Z"
            transform="translate(-189.788 -405.142)"
            fill="#fff"
          />
          <path
            id="Path_3837"
            data-name="Path 3837"
            d="M217.105,405.844h-.3v-.058c.076-.107.125-.179.148-.215a.581.581,0,0,0,.055-.115.353.353,0,0,0,.021-.119.137.137,0,0,0-.027-.091.1.1,0,0,0-.078-.033.265.265,0,0,0-.1.03l-.009-.069a.253.253,0,0,1,.122-.031.149.149,0,0,1,.118.052.206.206,0,0,1,.045.139.344.344,0,0,1-.023.123.612.612,0,0,1-.059.117q-.036.056-.14.2h.23Z"
            transform="translate(-191.053 -405.142)"
            fill="#fff"
          />
          <path
            id="Path_3838"
            data-name="Path 3838"
            d="M218.821,405.511a.145.145,0,0,1-.111.052.144.144,0,0,1-.115-.056.22.22,0,0,1-.046-.144.275.275,0,0,1,.045-.159.133.133,0,0,1,.114-.065.148.148,0,0,1,.134.1.574.574,0,0,1,.048.25.549.549,0,0,1-.056.259.169.169,0,0,1-.151.107.233.233,0,0,1-.11-.024l.01-.071a.235.235,0,0,0,.1.025.116.116,0,0,0,.1-.078A.438.438,0,0,0,218.821,405.511Zm0-.069a.418.418,0,0,0-.03-.163c-.02-.046-.046-.07-.078-.07a.079.079,0,0,0-.07.041.194.194,0,0,0-.026.106.17.17,0,0,0,.027.1.081.081,0,0,0,.069.038.138.138,0,0,0,.1-.046Z"
            transform="translate(-192.292 -405.139)"
            fill="#fff"
          />
          <path
            id="Path_3839"
            data-name="Path 3839"
            d="M220.551,405.475a.154.154,0,0,1,.08.064.187.187,0,0,1,.03.1.219.219,0,0,1-.056.152.173.173,0,0,1-.133.062.2.2,0,0,1-.116-.036l.012-.066a.208.208,0,0,0,.106.031.109.109,0,0,0,.085-.039.144.144,0,0,0,.035-.1.133.133,0,0,0-.038-.1.135.135,0,0,0-.1-.037h-.016v-.066h0a.14.14,0,0,0,.1-.035.123.123,0,0,0,.039-.1.1.1,0,0,0-.028-.076.1.1,0,0,0-.077-.028.2.2,0,0,0-.094.029l-.008-.069a.212.212,0,0,1,.106-.03.161.161,0,0,1,.12.049.171.171,0,0,1,.047.125.18.18,0,0,1-.029.1.125.125,0,0,1-.069.057Z"
            transform="translate(-193.577 -405.142)"
            fill="#fff"
          />
        </g>
      </g>
    </g>
  </g>
</svg>
