<svg
  xmlns="http://www.w3.org/2000/svg"
  width="198.921"
  height="123.748"
  viewBox="0 0 198.921 123.748"
>
  <g
    id="Group_4721"
    data-name="Group 4721"
    transform="translate(-114.234 -303.664)"
  >
    <g
      id="Group_4630"
      data-name="Group 4630"
      transform="translate(-129.585 -49.167)"
    >
      <g id="VZM865.tif" transform="translate(244.819 353.829)">
        <g id="Group_4630-2" data-name="Group 4630" transform="translate(0)">
          <path
            id="Path_6684"
            data-name="Path 6684"
            d="M460.5,452.88c-.364,4.03-3.185,6.435-5.98,8.765-4.928,4.108-10.727,6.621-16.73,8.7-7.556,2.616-15.395,3.981-23.267,5.186a8.024,8.024,0,0,1-1.2.047q-46.815-.019-93.629-.056c-8.6-.014-17.215-.007-25.805-.582-8.515-.57-17.006-1.39-25.3-3.548a4.54,4.54,0,0,1-3.495-3.335,34.9,34.9,0,0,1-.837-16.961,36.792,36.792,0,0,0,.534-7.191c-.009-3.647-.188-7.291-.07-10.941a63.869,63.869,0,0,1,1.434-11.833,104.6,104.6,0,0,0,1.43-11.338,9.78,9.78,0,0,1,1.707-4.648c.8-1.139.829-2.591,1.106-3.924,1.271-6.127,2.139-12.315,2.837-18.531a32.367,32.367,0,0,1,1.8-6.972,9.707,9.707,0,0,1,8.638-7c5.244-.647,10.469-1.461,15.687-2.293a77.1,77.1,0,0,0,20.606-6.772,63.971,63.971,0,0,1,14.691-5.263c1.38-.273,2.78-.38,4.179-.521A7.225,7.225,0,0,1,344.573,356c3.623,3.24,5.762,7.4,7.415,11.873a46.8,46.8,0,0,1,2.4,11.654,5.852,5.852,0,0,0,.766,2.473,16.476,16.476,0,0,1,2.224,8.535,11.086,11.086,0,0,0,1.281,4.668,16.582,16.582,0,0,0,7.332,7.746c3.128,1.724,6.059,3.809,9.057,5.764a2.677,2.677,0,0,0,1.876.525,10.174,10.174,0,0,1,7.192,2.009c5,3.3,10.214,6.254,15.227,9.525a42.648,42.648,0,0,0,14.828,6.1,85.449,85.449,0,0,0,20.72,2.1,56.694,56.694,0,0,1,8.824-.014c7.145.838,12.042,5.23,13.579,12.241a5.8,5.8,0,0,0,1.1,2.557,8.857,8.857,0,0,1,1.955,4.751,1.443,1.443,0,0,0,.152.359ZM305.674,428.561l-.17.237c2.9,2.579,4.341,6.07,6.02,9.409.315.627.594,1.272.9,1.9,1.6,3.236,3.037,6.548,4.767,9.72a2.8,2.8,0,0,0,2.424,1.65c4.341.3,8.674.708,13.016.982q10.024.633,20.055,1.134c6.621.325,13.243.656,19.875.673a1.148,1.148,0,0,0,1.261-.829c.558-1.395,1.225-2.747,1.758-4.151,2.487-6.551,2.7-13.387,2.486-20.273A3.238,3.238,0,0,0,375.99,426a75.116,75.116,0,0,1-12.056-7.556c-2.363-1.759-4.482-3.819-6.924-5.484a11.48,11.48,0,0,0-6.388-2.067c-3.045-.065-6.087-.259-9.132-.361a6.233,6.233,0,0,1-4.517-2.08,10.05,10.05,0,0,1-1.62-2.162c-.33-.629-.658-.648-1.25-.323a107.944,107.944,0,0,1-13.114,6.023,48.738,48.738,0,0,1-19.578,3.715,67.726,67.726,0,0,1-16.523-3.1c-3.368-1-6.671-2.181-9.974-3.366-.289-.1-.6-.386-.918-.085a1.276,1.276,0,0,0,.426,2.126q29.274,8.5,58.545,17.008a22.26,22.26,0,0,0,9.385,1.113c3.349-.46,5.855-2.491,5.641-6.364a21.2,21.2,0,0,0-1.563-6.8c-.126-.313-.466-.727-.141-1.011.3-.258.68.1,1.017.2a4.488,4.488,0,0,1,.73.331,42.783,42.783,0,0,1,8.383,5.831,14.048,14.048,0,0,1,5.211,11.046,7.017,7.017,0,0,1-4.329,6.829,13.2,13.2,0,0,1-5.156,1.159,52.349,52.349,0,0,1-14.73-1.518c-7.859-1.863-15.4-4.715-22.986-7.418Q310.05,430.13,305.674,428.561Zm147.008,26.309a1.48,1.48,0,0,0-.952.169c-9.844,3.664-20.081,5.583-30.464,6.843a335.13,335.13,0,0,1-35.062,2.21c-12.86.205-25.712-.119-38.555-.782q-11.032-.569-22.043-1.473-12.107-.993-24.183-2.32c-7.516-.825-15.02-1.754-22.52-2.719-2.854-.367-5.711-.712-8.566-1.063-.4-.049-.806-.172-.772.517a44.309,44.309,0,0,0,.933,8.059,2.1,2.1,0,0,0,1.813,1.732c2.783.586,5.577,1.108,8.4,1.478a236.7,236.7,0,0,0,24.64,1.586c12.954.342,25.912.361,38.869.372,19.286.016,38.573-.185,57.858-.085a105.154,105.154,0,0,0,30.543-3.867c6.629-1.954,12.914-4.591,18.352-8.969A8.012,8.012,0,0,0,452.682,454.871ZM302.356,411.593a3.439,3.439,0,0,0,3.881-2.488,20.432,20.432,0,0,1,9.4-10.076c3.638-1.99,7.4-3.729,11.105-5.594,4.656-2.345,9.392-4.537,13.954-7.067.312-.173.812-.319.8-.685-.016-.458-.589-.272-.891-.435-.38-.2-.821-.3-1.181-.535a5.133,5.133,0,0,1-2.507-5.016,5.038,5.038,0,0,1,3.366-4.36c2.33-1.028,2.374-1.157,1.409-3.564-.012-.031-.03-.06-.043-.091-1.237-2.978-2.89-3.895-6.076-3.4a37.341,37.341,0,0,0-5.846,1.4c-9.578,3.116-18.841,7.042-28.092,10.993-7.254,3.1-14.5,6.218-21.609,9.639a2.359,2.359,0,0,0-1.4,1.777c-.88,3.914-1.643,7.849-2.347,11.8a1.29,1.29,0,0,0,.9,1.684,88.959,88.959,0,0,0,8.82,3.009A70.022,70.022,0,0,0,302.356,411.593Zm9.21,39.118c1.113-.006,1.13-.013.7-1.017q-3.25-7.554-7.157-14.792a9.86,9.86,0,0,0-4.88-4.425c-8.777-3.873-17.7-7.392-26.6-10.963-.663-.266-.875-.107-.992.532-.538,2.926-1.094,5.851-1.417,8.808a86.665,86.665,0,0,0-.235,13.933c.182,3.505-.179,2.978,3.118,3.445,6.656.944,13.329,1.777,20,2.573C299.919,449.5,305.745,450.081,311.566,450.712Zm-32.5-64.774a3.08,3.08,0,0,0,1.287-.418c11.085-4.934,22.094-10.047,33.409-14.451a136.994,136.994,0,0,1,20.575-6.689c6.695-1.451,10.225,2.306,11.559,6.84a16.867,16.867,0,0,1,.672,4.654c.01,1.4-.277,1.81-1.618,2.287-.975.347-1.977.626-2.935,1.014-.565.229-1.316.507-1,1.346a1.38,1.38,0,0,0,1.747.8c.59-.119,1.179-.242,1.77-.358,1.795-.351,2.76.387,2.8,2.243.026,1.3-.1,2.608-.1,3.912a1.119,1.119,0,0,1-.747,1.134c-2.3,1.148-4.588,2.337-6.878,3.516-.312.16-.688.23-.68.738.055,3.647-.151,7.3.107,10.939.147,2.072.871,2.684,2.917,2.852,3.439.283,6.891.274,10.337.406a1.156,1.156,0,0,0,.965-.4c.825-.878,1.662-1.747,2.528-2.585a.691.691,0,0,0,.109-1.023c-1.232-2.068-2.446-4.148-3.621-6.249-.32-.572-.5-.623-.978-.144-1.723,1.733-3.481,3.431-5.24,5.128a17.283,17.283,0,0,1-2.46,2.059,1.616,1.616,0,0,1-1.96-.022c-1.252-.845-1.394-1.739-.412-2.883,2.968-3.46,6.262-6.608,9.445-9.862.247-.252.608-.446.558-.894-.167-1.474-.326-2.992-1.521-4.031a4.748,4.748,0,0,1-1.523-3.665,51.48,51.48,0,0,0-.805-7.778,26.61,26.61,0,0,0-5.7-12.543,4.631,4.631,0,0,0-4.925-1.6,55.624,55.624,0,0,0-13.223,4.609,79.956,79.956,0,0,1-23.92,7.834c-5.455.837-10.91,1.679-16.369,2.491a2.072,2.072,0,0,0-1.7,1.218A30.569,30.569,0,0,0,279.066,385.938ZM404.53,441.87c-.4.138-.476.415-.594.641a39.18,39.18,0,0,0-3.577,9.964c-.289,1.362-.211,1.422,1.185,1.328,3.806-.256,7.594-.686,11.386-1.093a176.061,176.061,0,0,0,27.784-5.1,50.052,50.052,0,0,0,9.167-3.19c1.5-.748,1.625-1.088,1.208-2.692a9.15,9.15,0,0,0-2.566-4.345c-1.1-1.064-1.592-1.163-2.926-.42a30.959,30.959,0,0,1-4.895,2.291c-4.821,1.674-9.851,2.155-14.883,2.56-4.05.325-7.87,1.165-11.04,3.916a6.826,6.826,0,0,1-.906.629,5.947,5.947,0,0,1-9.07-3.585C404.726,442.491,404.632,442.21,404.53,441.87ZM387.215,454.2c2.544,0,5.089-.017,7.633.01.773.008,1.062-.267,1.211-1.06,1.044-5.521,2.538-10.878,6.106-15.4.38-.482-.035-.548-.321-.667-6.147-2.542-12.259-5.167-18.458-7.583-.805-.314-1-.049-1.024.676-.06,1.672-.194,3.343-.194,5.015a45.992,45.992,0,0,1-3.5,17.691c-.439,1.067-.389,1.116.815,1.226A67.529,67.529,0,0,0,387.215,454.2Zm-15.6,5.683c10.753.048,18.39.128,26.017-.251,9.3-.462,18.569-1.217,27.786-2.546a122.222,122.222,0,0,0,21.816-4.794,39.93,39.93,0,0,0,6.182-2.612c.463-.249.89-.538.611-1.172a1.028,1.028,0,0,0-1.363-.682,6.152,6.152,0,0,0-.664.22,95.383,95.383,0,0,1-18.691,5.627,229.858,229.858,0,0,1-46.059,4.748c-16.447.206-32.871-.427-49.283-1.485q-16.186-1.044-32.317-2.71-15.578-1.594-31.093-3.73-1.392-.191-2.781-.4c-.531-.08-.938.033-1.054.63s.348.641.723.752a8.014,8.014,0,0,0,.978.221c7.069,1.151,14.189,1.924,21.3,2.763,8.874,1.047,17.766,1.917,26.668,2.7,9.4.83,18.816,1.553,28.24,2.09C357.319,459.751,366.026,459.831,371.613,459.886Zm-36.96-61.74c0-1.154-.011-2.023,0-2.892.013-.8-.2-1.062-1.017-.638-1.929,1-3.9,1.908-5.841,2.887a137.743,137.743,0,0,0-12.376,6.607,15.923,15.923,0,0,0-5.094,5.838c-.137.241-.389.524-.126.814.207.228.511.122.761.063.877-.207,1.761-.4,2.62-.669a145.093,145.093,0,0,0,18.293-7.636C334.016,401.507,335.5,400.476,334.653,398.146Zm104.276,37.308a3.425,3.425,0,0,0-1.625-.247c-4.014-.037-8.028-.042-12.037-.294a87.359,87.359,0,0,1-14.515-2.447c-.771-.182-1.107,0-1.2.8a64.964,64.964,0,0,0-.524,8.5,1.393,1.393,0,0,0,2.233,1.248c.929-.526,1.8-1.155,2.685-1.755a19.317,19.317,0,0,1,7.436-3.1c3.1-.568,6.261-.539,9.378-.938A37.308,37.308,0,0,0,438.929,435.454Zm-62.269-16.89v.9c0,2.438.008,2.421,2.229,3.39a.79.79,0,0,0,1.041-.2q1.792-1.827,3.63-3.607c.32-.312.462-.516-.03-.811a37.269,37.269,0,0,0-3.976-2.328,6.159,6.159,0,0,0-1.914-.556c-.7-.066-1.07.085-1,.9C376.716,417.021,376.661,417.795,376.66,418.564Zm16.778,5.812c-1.777-1.082-3.6-2.189-5.418-3.3-.249-.152-.464-.241-.71.008-1.251,1.264-2.509,2.522-3.86,3.879l6.357,2.6a.593.593,0,0,0,.729-.121C391.492,426.423,392.453,425.414,393.438,424.376Zm12.08,7.732c.156-.8-.342-1.361-1.394-1.655a17.344,17.344,0,0,1-4.3-2.119c-2.707-1.656-2.46-1.625-4.764.808-.294.311-.378.5.12.7q4.741,1.893,9.465,3.827c.522.214.756.07.8-.468C405.463,432.936,405.48,432.669,405.519,432.108Zm-38.609-21.127c-.072-.353-.363-.424-.574-.559q-2.489-1.592-4.991-3.164c-1.824-1.143-1.8-1.108-3.35.361-.565.536-.342.732.142,1.076,1.443,1.024,2.844,2.106,4.289,3.127.715.505,1.181,1.731,2.022,1.532.751-.177,1.314-1.164,1.952-1.8C366.585,411.371,366.748,411.164,366.909,410.981Zm5.4,8.3c0-1.6,0-2.9,0-4.2a1.559,1.559,0,0,0-1.04-1.458c-.6-.281-.927.2-1.278.533-.609.571-1.184,1.177-1.78,1.761-.207.2-.392.374-.032.612C369.478,417.388,370.77,418.257,372.309,419.286Z"
            transform="translate(-263.58 -353.829)"
            fill="#fff"
            stroke="#000"
            stroke-miterlimit="10"
            stroke-width="2"
          />
        </g>
      </g>
      <g
        id="Group_4631"
        data-name="Group 4631"
        transform="translate(351.817 354.132)"
      >
        <path
          id="Path_6685"
          data-name="Path 6685"
          d="M605.312,387.415c-2.483-.968-5.409-2.1-8.33-3.251-1.762-.693-1.063-1.788-.391-2.8,5.651-8.518,11.343-17.007,16.952-25.551,1.129-1.72,2.141-1.666,3.915.115a73.64,73.64,0,0,0,12.115,9.555c2.134,1.389,2.2,2.254.658,3.52-7.2,5.9-14.346,11.862-21.52,17.791A3.491,3.491,0,0,1,605.312,387.415Zm3.752-10.052q5.154-4.267,10.305-8.537c1.433-1.192.408-2.058-.481-2.817-.95-.812-2.1-2.1-3.246-.478C613.076,369.163,610.307,372.69,609.064,377.364Z"
          transform="translate(-564.481 -354.556)"
          fill="#fff"
        />
        <path
          id="Path_6686"
          data-name="Path 6686"
          d="M657.157,491.264c-3.159-.742-6.427-.6-9.631-1.091a2.869,2.869,0,0,1-2.557-2.029c-1.173-2.838-1.226-2.815,1.74-3.378,3.276-.623,6.556-1.22,9.822-1.892.847-.174,1.251-.12,1.279,1.051a38.245,38.245,0,0,0,.655,6C658.693,491.166,658.131,491.462,657.157,491.264Zm-7.752-4.148a15.7,15.7,0,0,0,4.972,1.027c.726.049,1.1-.179,1.022-.95-.067-.713-.31-1.223-1.165-1.051Q651.819,486.625,649.406,487.116Z"
          transform="translate(-592.695 -429.39)"
          fill="#fff"
          stroke="#fff"
          stroke-miterlimit="10"
          stroke-width="1"
        />
        <path
          id="Path_6687"
          data-name="Path 6687"
          d="M528.765,377.627c-.025,3.244.836,6.4,1.066,9.634a2.871,2.871,0,0,1-1.414,2.942c-2.508,1.772-2.474,1.818-3.68-.95-1.331-3.057-2.639-6.124-4.017-9.16-.358-.788-.394-1.194.742-1.48a38.266,38.266,0,0,0,5.705-1.965C528.33,376.151,528.743,376.634,528.765,377.627Zm-2.331,8.477a15.708,15.708,0,0,0-.1-5.076c-.112-.719-.417-1.029-1.152-.787-.681.224-1.124.573-.768,1.369Q525.422,383.859,526.434,386.1Z"
          transform="translate(-520.499 -367.332)"
          fill="#fff"
          stroke="#fff"
          stroke-miterlimit="10"
          stroke-width="1"
        />
      </g>
    </g>
    <path
      id="Path_6746"
      data-name="Path 6746"
      d="M-7110.05-1870.526s17.387,11.468,11.468,22.565-25.525,20.346-23.675,29.224"
      transform="translate(7305 2192)"
      fill="none"
      stroke="#e25351"
      stroke-width="3"
    />
    <g
      id="Group_4720"
      data-name="Group 4720"
      transform="matrix(0.946, 0.326, -0.326, 0.946, 6521.241, 4579.976)"
    >
      <rect
        id="Rectangle_1764"
        data-name="Rectangle 1764"
        width="30.963"
        height="45.602"
        rx="2"
        transform="translate(-7379 -1919)"
        fill="#e25351"
      />
      <g
        id="Group_4720-2"
        data-name="Group 4720"
        transform="translate(-7372 -1905.221)"
      >
        <g id="Group_681" data-name="Group 681">
          <path
            id="Path_3380"
            data-name="Path 3380"
            d="M31.735,4070.047h-3.9v3.275l1.429-1.434A10.072,10.072,0,0,1,31.735,4070.047Z"
            transform="translate(-27.826 -4070.045)"
            fill="#fff"
          />
          <g
            id="Group_680"
            data-name="Group 680"
            transform="translate(0 0.429)"
          >
            <path
              id="Path_3381"
              data-name="Path 3381"
              d="M41.27,4083.159a5,5,0,0,0-1.526-3.718,5.307,5.307,0,0,0-7.476.011l-4.443,4.457v2.162l5.525-5.542a3.721,3.721,0,0,1,2.677-1.122,3.757,3.757,0,0,1,3.766,3.751,3.723,3.723,0,0,1-1.118,2.681l-5.421,5.438H34.42c.335,0,.663-.014.986-.037l4.33-4.343A5.036,5.036,0,0,0,41.27,4083.159Z"
              transform="translate(-27.823 -4074.433)"
              fill="#fff"
            />
            <path
              id="Path_3382"
              data-name="Path 3382"
              d="M30.34,4073.4l-2.512,2.521v2.123l3.574-3.584a6.926,6.926,0,1,1,9.81,9.779l-2.918,2.927a8.461,8.461,0,0,0,6.233-8.042v-.049a8.253,8.253,0,0,0-5.273-7.646,8.552,8.552,0,0,0-2.959-.518A8.187,8.187,0,0,0,30.34,4073.4Z"
              transform="translate(-27.824 -4070.911)"
              fill="#fff"
            />
            <path
              id="Path_3383"
              data-name="Path 3383"
              d="M38.248,4086.247a2.145,2.145,0,0,0-.663-1.58,2.221,2.221,0,0,0-3.2,0l-6.567,6.588v2.123l7.627-7.652a.678.678,0,0,1,1.082,0,.666.666,0,0,1-.019,1.062l-7.527,7.551h2.153l6.453-6.475A2.189,2.189,0,0,0,38.248,4086.247Z"
              transform="translate(-27.821 -4077.497)"
              fill="#fff"
            />
          </g>
        </g>
      </g>
    </g>
  </g>
</svg>
