<svg xmlns="http://www.w3.org/2000/svg" width="42.244" height="19.115" viewBox="0 0 42.244 19.115"><g transform="translate(-1422.92 -181.595)"><g transform="translate(1422.92 181.595)"><path d="M1452.133,200.71h-24.179c-.473-.056-.948-.1-1.42-.169a5.457,5.457,0,0,1-2.665-.985,1.2,1.2,0,0,1-.557-1.414,8.987,8.987,0,0,0,.172-.886,2.554,2.554,0,0,0-.192-2.3c-.039-.05-.032-.133-.058-.2-.186-.446-.147-.942-.314-1.392V191.55a2.218,2.218,0,0,0,.061-.275,31.739,31.739,0,0,1,2.114-8.1.823.823,0,0,1,.605-.55,2.314,2.314,0,0,1,3,1.644,1.33,1.33,0,0,0,.238.6,9.226,9.226,0,0,0,2.738,2.088,2.724,2.724,0,0,0,2.68.008c1.091-.639,2.175-1.287,3.22-2a.485.485,0,0,0,.236-.506,3.689,3.689,0,0,1,.737-2.553.618.618,0,0,1,.854-.225c2.271,1.041,4.578,2,6.806,3.138a51.7,51.7,0,0,0,6.39,2.744,39.239,39.239,0,0,0,9.294,2.116,4.211,4.211,0,0,1,1.935.5,3.2,3.2,0,0,1,1.244,3.456c-.181.781-.563,1.49-.788,2.25a2.488,2.488,0,0,1-1.208,1.487c-.355.208-.7.428-1.069.618a26.1,26.1,0,0,1-7.318,2.306C1453.838,200.458,1452.983,200.574,1452.133,200.71Zm11.266-5.558c-.8.333-1.568.65-2.335.98a26.961,26.961,0,0,1-9.549,2.168,47.478,47.478,0,0,1-8.592-.519c-3.326-.458-6.664-.739-10.018-.874-2.349-.095-4.7-.065-7.047-.257-.391-.032-.936-.276-1.131-.105-.247.217-.213.758-.293,1.16-.189.949-.109,1.093.8,1.465.127.052.257.1.388.136a11.032,11.032,0,0,0,3.306.362c7.027,0,14.054-.024,21.081.016a27.761,27.761,0,0,0,6.721-.88,19.555,19.555,0,0,0,5.516-2.116A1.977,1.977,0,0,0,1463.4,195.152Zm-10.8-.15c-.144-.008-.2-.016-.247-.013a32.234,32.234,0,0,1-10.1-1.177c-1.3-.341-2.523-.928-3.816-1.3a7.645,7.645,0,0,0-5.686.477c-.331.165-.443.287-.18.642.441.594.829,1.229,1.212,1.863a.668.668,0,0,0,.608.381c2.6.112,5.172.414,7.744.772a67.253,67.253,0,0,0,7.507.658.625.625,0,0,0,.5-.1C1450.931,196.488,1451.731,195.777,1452.6,195Zm-19.81.83a30.046,30.046,0,0,0-6.95-8,.913.913,0,0,0-1.29.447,17.42,17.42,0,0,0-.595,4.353,5.816,5.816,0,0,0,.375,2.178.981.981,0,0,0,.732.643,10.969,10.969,0,0,0,1.178.184C1428.381,195.9,1430.538,195.683,1432.785,195.832Zm-2.358-5.083a.342.342,0,0,0,.028.1q.411.516.825,1.03c.415.515.414.512.978.218a8.054,8.054,0,0,1,5.273-.817,1.344,1.344,0,0,0,1.072-.222c1.527-1.029,3.087-2.009,4.613-3.039a3.007,3.007,0,0,1,3.157-.243c1.047.483,2.1.964,3.162,1.4a11.9,11.9,0,0,0,4.978,1.151,4.415,4.415,0,0,0,2.014-.516c-.4-.107-.733-.184-1.054-.285-.19-.06-.3-.038-.391.158a.489.489,0,0,1-.655.271.465.465,0,0,1-.3-.6c.033-.132.018-.2-.117-.244-.289-.088-.576-.182-.863-.275a.2.2,0,0,0-.267.122,2.748,2.748,0,0,1-.211.352.473.473,0,0,1-.626.143.407.407,0,0,1-.239-.549c.281-.507-.058-.58-.407-.68a1.787,1.787,0,0,1-.345-.134c-.251-.134-.434-.105-.558.176a1.037,1.037,0,0,1-.216.3.463.463,0,0,1-.633.093.475.475,0,0,1-.184-.646.992.992,0,0,1,.121-.215c.129-.162.092-.241-.094-.334-.781-.388-.777-.394-1.455.186a1.208,1.208,0,0,1-.129.1.5.5,0,0,1-.688-.721c.1-.143.277-.221.334-.4-1.007-.558-1.007-.558-1.982.045-.035.022-.068.047-.1.066a.508.508,0,0,1-.561-.846c.136-.113.288-.206.439-.312-.979-.692-1.025-.695-2-.15q-.162.09-.326.177a.509.509,0,1,1-.517-.875c.163-.113.369-.165.506-.341a7.261,7.261,0,0,0-1.276-.493,1.379,1.379,0,0,0-1.214.185c-.26.168-.29.255-.108.521a2.282,2.282,0,0,1-.454,3.263,14.642,14.642,0,0,1-2.572,1.7,9.992,9.992,0,0,1-5.815,1.321C1431.185,190.862,1430.811,190.8,1430.427,190.749ZM1443.153,193c.936.227,1.846.431,2.768.577a26.129,26.129,0,0,0,6.651.353,3.735,3.735,0,0,0,2.166-.8,5.569,5.569,0,0,1,2.3-1.239c.761-.183,1.527-.342,2.29-.516a14.178,14.178,0,0,0,2.269-.642.812.812,0,0,0-.165-.076c-1.121-.12-2.233-.3-3.337-.519a.511.511,0,0,0-.542.168,2.531,2.531,0,0,1-.97.605,6.822,6.822,0,0,1-3.575.262,18.742,18.742,0,0,1-4.553-1.4.884.884,0,0,0-1,.122c-1.315.949-2.651,1.868-3.979,2.8A.775.775,0,0,0,1443.153,193Zm8.566,4.217a21.609,21.609,0,0,0,4.175-.5,39.405,39.405,0,0,0,7.937-2.94.293.293,0,0,0,.194-.193,2.338,2.338,0,0,0-.14-1.876c-.332-.561-.516-.606-1.1-.326-.086.042-.173.083-.262.119a21.458,21.458,0,0,1-3.681,1.033,7.4,7.4,0,0,0-2.9.979A53.341,53.341,0,0,0,1451.719,197.219Zm-21.574-7.6c.527.092.929.187,1.336.229,3.111.317,5.629-1.032,7.941-2.894a1.212,1.212,0,0,0,.191-1.712c-.157-.267-.276-.329-.564-.135q-1.929,1.3-3.89,2.557a3.565,3.565,0,0,1-2.982.55c-.127-.035-.237-.061-.329.065A5.087,5.087,0,0,1,1430.145,189.623ZM1425,186.636c.605-.225.615-.217,1.113.126a20.332,20.332,0,0,1,2.427,2.04c.118.112.219.236.424.164a5.22,5.22,0,0,0,1.792-.983c.188-.167.176-.259-.046-.38a10.8,10.8,0,0,1-2.12-1.623,2.777,2.777,0,0,1-.9-1.476,1.2,1.2,0,0,0-1.387-.953.343.343,0,0,0-.338.238C1425.624,184.715,1425.282,185.638,1425,186.636Zm21.8,2.446c-.4-.172-.756-.339-1.124-.485a1.8,1.8,0,0,0-1.761.194c-1.373.913-2.759,1.806-4.136,2.712-.1.068-.262.094-.281.285.683.25,1.367.5,2.047.752a.437.437,0,0,0,.454-.056q2.307-1.628,4.624-3.242A2.217,2.217,0,0,0,1446.8,189.082Zm-7.962-5.073,1.22-.867c-.86-.512-1.015-.442-1.184.5C1438.858,183.73,1438.856,183.824,1438.839,184.009Z" transform="translate(-1422.92 -181.595)" fill="#fff"/></g></g></svg>