<svg xmlns="http://www.w3.org/2000/svg" width="33.905" height="32.272" viewBox="0 0 33.905 32.272"><path d="M31.765,11.918a1.687,1.687,0,0,0-1.456-1.151L21.116,9.94,17.482,1.515a1.7,1.7,0,0,0-3.115,0L10.734,9.94l-9.2.827A1.692,1.692,0,0,0,.083,11.918,1.669,1.669,0,0,0,.577,13.7l6.95,6.036L5.477,28.675a1.668,1.668,0,0,0,.658,1.731A1.7,1.7,0,0,0,8,30.488l7.928-4.7,7.926,4.7a1.705,1.705,0,0,0,1.862-.082,1.668,1.668,0,0,0,.658-1.731l-2.049-8.939,6.95-6.036a1.668,1.668,0,0,0,.494-1.782ZM16.077,25.7" transform="translate(1.028 0.504)" fill="none" stroke="#000" stroke-width="2"/></svg>