<svg
  xmlns="http://www.w3.org/2000/svg"
  width="103.718"
  height="144.081"
  viewBox="0 0 103.718 144.081"
>
  <g
    id="Group_4614"
    data-name="Group 4614"
    transform="translate(-417.257 -186.5)"
  >
    <g
      id="Group_4599"
      data-name="Group 4599"
      transform="translate(417.257 229.094)"
    >
      <path
        id="Path_6643"
        data-name="Path 6643"
        d="M478.426,326.409h31.919c5.285,0,8.471,1.855,9.981,5.807,1.486,3.89.4,7.324-3.02,10.443.448,2.809,1.184,5.3,1.149,7.775-.037,2.659-1.848,4.624-3.968,6.155,3.081,6.247,2.642,8.909-1.818,13.251.535,2.512,1.5,4.752,1.38,6.935-.271,5.038-4.247,8.241-9.674,8.247q-23.122.027-46.243,0c-1.548,0-3.1.028-4.645-.007a13.339,13.339,0,0,1-9.208-3.6,3.874,3.874,0,0,0-2.384-.889c-4.01-.089-8.027-.15-12.034,0a7.529,7.529,0,0,1-6.793-3.478c-2.777-3.868-4.059-8.318-4.849-12.917A58.017,58.017,0,0,1,419.7,336.79a33.568,33.568,0,0,1,1.568-3.906c2.009-4.43,5.013-7,10.339-6.558,4.683.391,9.426.033,14.14.114a2.863,2.863,0,0,0,2.721-1.468c5.038-7.378,10.161-14.7,15.193-22.078a5.381,5.381,0,0,0,.864-2.7c.109-2.881.018-5.77.047-8.656.037-3.62,1.749-6.508,4.415-7.536a9.587,9.587,0,0,1,9.549,2.285c4,4.421,5.777,9.8,6.174,15.6a37.072,37.072,0,0,1-5.94,23.7A6.526,6.526,0,0,0,478.426,326.409Zm26.738,42.638c1.466-.892,2.718-1.644,3.96-2.412,3.23-2,3.685-4.668,1.287-7.556-.968-1.167-1.948-2.324-2.993-3.569,1.51-.909,2.779-1.658,4.034-2.431,3.141-1.935,3.6-4.577,1.3-7.4-.968-1.183-1.959-2.348-3.061-3.666,1.714-1.05,3.306-1.926,4.786-2.96a4.117,4.117,0,0,0,1.776-4.8,4.237,4.237,0,0,0-4.158-3.285c-.7-.032-1.407-.021-2.112-.021H468.147c1.58-1.81,2.752-3.268,4.042-4.613,6.847-7.134,8.768-15.823,7.888-25.319-.4-4.266-1.69-8.375-4.8-11.452a6.056,6.056,0,0,0-4.538-1.189c-.681.088-1.467,2.2-1.556,3.441-.224,3.081.024,6.195-.124,9.285a7,7,0,0,1-1.081,3.465q-10.43,15.242-21.018,30.376c-3.23,4.633-5.426,9.67-4.822,15.375.85,8.03,1.973,16.038,3.26,24.01.6,3.737,3.771,6.028,7.568,6.112,2.955.066,5.913.02,8.87.021q21.331.015,42.663.042c2.092.005,3.74-.67,4.7-2.576.98-1.952.4-3.674-.961-5.238C507.27,371.578,506.335,370.437,505.163,369.047Zm-61.7-38.106H432.794c-5.719,0-6.16.3-8.259,5.667-.255.653-.481,1.319-.683,1.99a49.583,49.583,0,0,0-1.313,23.564c.746,4.007,2.4,7.864,3.866,11.7a3.519,3.519,0,0,0,2.429,1.968c3.978.21,7.973.092,12.052.092-.824-5.052-1.75-9.87-2.366-14.727-.76-5.985-1.938-12.078-.18-18C439.578,339.029,441.681,335.116,443.461,330.941Z"
        transform="translate(-417.257 -283.544)"
        fill="#fff"
      />
      <path
        id="Path_6644"
        data-name="Path 6644"
        d="M447.353,482.485a3.442,3.442,0,0,1-3.337-3.36,3.37,3.37,0,1,1,6.741.065A3.444,3.444,0,0,1,447.353,482.485Z"
        transform="translate(-432.71 -394.559)"
        fill="#fff"
      />
    </g>
    <path
      id="Path_6645"
      data-name="Path 6645"
      d="M475.742,280.108l-16.089-4.965,4.066-5.741,12.729,7.758Z"
      transform="translate(-24.484 -46.283)"
      fill="none"
      stroke="#e25351"
      stroke-miterlimit="10"
      stroke-width="4.5"
    />
    <path
      id="Path_6646"
      data-name="Path 6646"
      d="M534.408,217.318,527.031,191.9l13.084-2.647-.305,25.072Z"
      transform="translate(-63.395 0)"
      fill="none"
      stroke="#e25351"
      stroke-miterlimit="10"
      stroke-width="4.5"
    />
    <path
      id="Path_6647"
      data-name="Path 6647"
      d="M598.047,270.33l16.883-16.75,5.737,9.081-18.834,10.6Z"
      transform="translate(-104.406 -37.146)"
      fill="none"
      stroke="#e25351"
      stroke-miterlimit="10"
      stroke-width="4.5"
    />
  </g>
</svg>
