<svg
  xmlns="http://www.w3.org/2000/svg"
  width="244.157"
  height="94.584"
  viewBox="0 0 244.157 94.584"
>
  <g
    id="Group_4617"
    data-name="Group 4617"
    transform="translate(-673.182 -1529.685)"
  >
    <g
      id="Group_4619"
      data-name="Group 4619"
      transform="translate(688.115 1578.687)"
    >
      <line
        id="Line_881"
        data-name="Line 881"
        x2="88.667"
        transform="translate(15.264 11.565)"
        fill="none"
        stroke="#fff"
        stroke-miterlimit="10"
        stroke-width="4"
      />
      <g id="Group_4618" data-name="Group 4618">
        <g id="Group_4617-2" data-name="Group 4617">
          <circle
            id="Ellipse_522"
            data-name="Ellipse 522"
            cx="8.007"
            cy="8.007"
            r="8.007"
            transform="translate(0 3.558)"
            fill="none"
            stroke="#fff"
            stroke-miterlimit="10"
            stroke-width="2"
          />
          <circle
            id="Ellipse_523"
            data-name="Ellipse 523"
            cx="11.565"
            cy="11.565"
            r="11.565"
            transform="translate(99.327)"
            fill="#fff"
          />
          <path
            id="Path_6681"
            data-name="Path 6681"
            d="M8.007,0A8.007,8.007,0,1,1,0,8.007,8.007,8.007,0,0,1,8.007,0Z"
            transform="translate(206.506 3.558)"
            fill="none"
            stroke="#fff"
            stroke-width="2"
          />
        </g>
        <line
          id="Line_882"
          data-name="Line 882"
          x2="88.418"
          transform="translate(118.273 11.565)"
          fill="none"
          stroke="#fff"
          stroke-miterlimit="10"
          stroke-width="4"
        />
      </g>
    </g>
    <g
      id="Group_4628"
      data-name="Group 4628"
      transform="translate(673.182 1529.685)"
    >
      <g id="Group_4623" data-name="Group 4623" transform="translate(101.659)">
        <g id="Group_4621" data-name="Group 4621" transform="translate(12.341)">
          <path
            id="Path_6659"
            data-name="Path 6659"
            d="M999.014,1529.685h-5.469v4.589l2-2.01A14.107,14.107,0,0,1,999.014,1529.685Z"
            transform="translate(-993.545 -1529.685)"
            fill="#fff"
          />
          <g
            id="Group_4620"
            data-name="Group 4620"
            transform="translate(0 0.597)"
          >
            <path
              id="Path_6660"
              data-name="Path 6660"
              d="M1012.387,1552.4a7.01,7.01,0,0,0-2.14-5.211,7.438,7.438,0,0,0-10.477.02l-6.224,6.248v3.03l7.74-7.77a5.219,5.219,0,0,1,3.751-1.574,5.268,5.268,0,0,1,5.279,5.256,5.214,5.214,0,0,1-1.565,3.758l-7.594,7.624h1.635c.469,0,.93-.02,1.383-.052l6.066-6.089A7.055,7.055,0,0,0,1012.387,1552.4Z"
              transform="translate(-993.545 -1540.176)"
              fill="#fff"
            />
            <path
              id="Path_6661"
              data-name="Path 6661"
              d="M997.064,1534.855l-3.519,3.533v2.975l5.006-5.024a9.706,9.706,0,1,1,13.753,13.7l-4.088,4.1c5.342-1.741,8.731-6.061,8.731-11.273v-.07a11.567,11.567,0,0,0-7.394-10.712,12,12,0,0,0-4.147-.723A11.473,11.473,0,0,0,997.064,1534.855Z"
              transform="translate(-993.545 -1531.364)"
              fill="#fff"
            />
            <path
              id="Path_6662"
              data-name="Path 6662"
              d="M1008.154,1560.1a3,3,0,0,0-.929-2.213,3.113,3.113,0,0,0-4.48.009l-9.2,9.236v2.974l10.685-10.728a.949.949,0,0,1,1.516-.005.933.933,0,0,1-.026,1.488l-10.545,10.586h3.017l9.041-9.077A3.065,3.065,0,0,0,1008.154,1560.1Z"
              transform="translate(-993.545 -1547.839)"
              fill="#fff"
            />
          </g>
        </g>
        <g
          id="Group_4622"
          data-name="Group 4622"
          transform="translate(0 30.631)"
        >
          <path
            id="Path_6663"
            data-name="Path 6663"
            d="M962.565,1616.123a4.087,4.087,0,0,1,1.74.347,3.65,3.65,0,0,1,1.237.913,3.874,3.874,0,0,1,.74,1.289,4.535,4.535,0,0,1,.249,1.486,4.582,4.582,0,0,1-.249,1.491,3.793,3.793,0,0,1-.74,1.289,3.683,3.683,0,0,1-1.237.907,4.089,4.089,0,0,1-1.74.347h-2.116l-.786-1.087v-6.035l-.8-.948Zm0,6.913a2.823,2.823,0,0,0,1.22-.248,2.652,2.652,0,0,0,.879-.653,2.781,2.781,0,0,0,.532-.919,3.193,3.193,0,0,0,0-2.11,2.767,2.767,0,0,0-.532-.925,2.655,2.655,0,0,0-.879-.653,2.825,2.825,0,0,0-1.22-.248h-1.746v5.757Z"
            transform="translate(-958.865 -1615.996)"
            fill="#fff"
          />
          <path
            id="Path_6664"
            data-name="Path 6664"
            d="M987.6,1623.015h3.746v1.156H987.22l-.809-1.1v-6.058l-.775-.925h5.711v1.156H987.6v2.277h3.665v1.191H987.6Z"
            transform="translate(-976.11 -1615.974)"
            fill="#fff"
          />
          <path
            id="Path_6665"
            data-name="Path 6665"
            d="M1009.385,1616.025h3.734a2.625,2.625,0,0,1,1.15.237,2.512,2.512,0,0,1,.821.618,2.55,2.55,0,0,1,.491.868,3.125,3.125,0,0,1,.162.994,3.073,3.073,0,0,1-.162.988,2.554,2.554,0,0,1-.491.861,2.437,2.437,0,0,1-.821.613,2.671,2.671,0,0,1-1.15.231h-1.78v2.694l-1.179-1.1v-6.093Zm3.734,4.255a1.478,1.478,0,0,0,.648-.133,1.393,1.393,0,0,0,.462-.347,1.435,1.435,0,0,0,.278-.491,1.781,1.781,0,0,0,0-1.133,1.435,1.435,0,0,0-.278-.491,1.4,1.4,0,0,0-.462-.346,1.482,1.482,0,0,0-.648-.133h-1.78v3.075Z"
            transform="translate(-991.408 -1615.932)"
            fill="#fff"
          />
          <path
            id="Path_6666"
            data-name="Path 6666"
            d="M1035.5,1615.765l3.249,8.2h-1.237l-.994-2.393h-2.9q-.116.278-.249.59t-.26.63q-.127.318-.248.619t-.214.555l-.809-1.144,2.37-6.023-.416-1.029Zm-1.457,4.728h2.023l-.983-2.89Z"
            transform="translate(-1005.869 -1615.765)"
            fill="#fff"
          />
          <path
            id="Path_6667"
            data-name="Path 6667"
            d="M1056.086,1623.041v-5.8h-1.723l-.728-1.179h6.058v1.179h-2.44v6.948Z"
            transform="translate(-1019.911 -1615.954)"
            fill="#fff"
          />
          <path
            id="Path_6668"
            data-name="Path 6668"
            d="M1080.3,1624.252a3.767,3.767,0,0,1-1.064-.156,3.082,3.082,0,0,1-.959-.468,2.513,2.513,0,0,1-.7-.78,2.114,2.114,0,0,1-.272-1.081V1617l-.763-.914h1.965v5.677a1.046,1.046,0,0,0,.162.584,1.426,1.426,0,0,0,.416.416,1.983,1.983,0,0,0,.572.255,2.407,2.407,0,0,0,1.277,0,2.055,2.055,0,0,0,.584-.255,1.468,1.468,0,0,0,.428-.416,1.019,1.019,0,0,0,.168-.584v-5.677h1.168v5.677a2.148,2.148,0,0,1-.266,1.081,2.455,2.455,0,0,1-.694.78,3.082,3.082,0,0,1-.96.468A3.767,3.767,0,0,1,1080.3,1624.252Z"
            transform="translate(-1034.666 -1615.974)"
            fill="#fff"
          />
        </g>
      </g>
      <path
        id="Path_6669"
        data-name="Path 6669"
        d="M715.766,1571.941c-1.5-1.873-4.44-4.09-9.906-4.2l-6.369-5.947a1.023,1.023,0,0,0-.7-.276h-4.579a1.022,1.022,0,0,0-.89,1.523l2.645,4.69H683.209l-4.3-3.9a1.021,1.021,0,0,0-.686-.266H674.2a1.022,1.022,0,0,0-1.008,1.184c.093.58,2.4,14.22,12.257,14.22h6.52l-4.155,4.96a1.02,1.02,0,0,0,.782,1.676h4.85a1.021,1.021,0,0,0,.635-.221l8.078-6.416H716.68a1.02,1.02,0,0,0,1-.8A8.1,8.1,0,0,0,715.766,1571.941Zm-2.563.286a4.6,4.6,0,0,1-2.708-.915,3.216,3.216,0,0,1-.762-.947A9.3,9.3,0,0,1,713.2,1572.228Zm-17.239-8.666h2.429l4.466,4.17h-4.543Zm-2.87,20h-2.307l6.841-8.169h5.75Zm11.639-6.637,2.208-1.753a1.021,1.021,0,0,0-.635-1.821h-9.154a1.023,1.023,0,0,0-.783.365l-2.686,3.208h-8.23c-6.612,0-9.232-8.2-9.989-11.318h2.362l4.3,3.9a1.019,1.019,0,0,0,.686.266h22.634a17.178,17.178,0,0,1,1.944.115,5.47,5.47,0,0,0,1.755,2.958,6.843,6.843,0,0,0,4.586,1.467c.365,0,.748-.025,1.139-.061a6.548,6.548,0,0,1,.851,2.668h-10.99Z"
        transform="translate(-673.182 -1550.191)"
        fill="#fff"
      />
      <g
        id="Group_4627"
        data-name="Group 4627"
        transform="translate(212.875 9.315)"
      >
        <g id="Group_4624" data-name="Group 4624">
          <path
            id="Path_6670"
            data-name="Path 6670"
            d="M1276.671,1555.864a.722.722,0,0,0-.511.3l-4.621,6.4a.715.715,0,0,0-.133.411v19.907a.738.738,0,0,0,.711.711h29.859a.739.739,0,0,0,.711-.711v-19.907a.714.714,0,0,0-.133-.411l-4.621-6.4a.723.723,0,0,0-.578-.3h-20.618C1276.715,1555.862,1276.693,1555.862,1276.671,1555.864Zm.422,1.422h9.242v4.977H1273.5Zm10.664,0H1297l3.588,4.977h-12.83Zm-14.93,6.4h28.438v18.485h-28.438Zm12.442,0h3.555"
            transform="translate(-1271.405 -1555.863)"
            fill="#fff"
          />
        </g>
        <g
          id="Group_4626"
          data-name="Group 4626"
          transform="translate(10.343 11.747)"
        >
          <path
            id="Path_6671"
            data-name="Path 6671"
            d="M1302.977,1588.874h-2.507v2.1l.918-.922A6.488,6.488,0,0,1,1302.977,1588.874Z"
            transform="translate(-1300.47 -1588.874)"
            fill="#fff"
          />
          <g
            id="Group_4625"
            data-name="Group 4625"
            transform="translate(0 0.274)"
          >
            <path
              id="Path_6672"
              data-name="Path 6672"
              d="M1309.108,1599.29a3.213,3.213,0,0,0-.981-2.389,3.41,3.41,0,0,0-4.8.009l-2.854,2.865v1.389l3.548-3.562a2.393,2.393,0,0,1,1.72-.722,2.414,2.414,0,0,1,2.42,2.41,2.389,2.389,0,0,1-.717,1.723l-3.482,3.5h.75c.215,0,.427-.009.634-.024l2.781-2.792A3.235,3.235,0,0,0,1309.108,1599.29Z"
              transform="translate(-1300.47 -1593.684)"
              fill="#fff"
            />
            <path
              id="Path_6673"
              data-name="Path 6673"
              d="M1302.083,1591.245l-1.613,1.62v1.364l2.295-2.3a4.45,4.45,0,1,1,6.306,6.281l-1.874,1.881a5.437,5.437,0,0,0,4-5.168v-.032a5.3,5.3,0,0,0-3.39-4.911,5.5,5.5,0,0,0-1.9-.332A5.26,5.26,0,0,0,1302.083,1591.245Z"
              transform="translate(-1300.47 -1589.644)"
              fill="#fff"
            />
            <path
              id="Path_6674"
              data-name="Path 6674"
              d="M1307.168,1602.819a1.377,1.377,0,0,0-.426-1.015,1.427,1.427,0,0,0-2.054,0l-4.218,4.234v1.364l4.9-4.918a.436.436,0,0,1,.7,0,.428.428,0,0,1-.012.682l-4.834,4.853h1.384l4.145-4.162A1.405,1.405,0,0,0,1307.168,1602.819Z"
              transform="translate(-1300.47 -1597.197)"
              fill="#fff"
            />
          </g>
        </g>
      </g>
    </g>
    <path
      id="Path_6675"
      data-name="Path 6675"
      d="M733.536,1692.659l-4,3.778-1.919-1.975a.553.553,0,1,0-.793.771l2.3,2.363a.563.563,0,0,0,.782.017l4.4-4.15a.553.553,0,0,0,.022-.782A.566.566,0,0,0,733.536,1692.659Z"
      transform="translate(-34.452 -104.883)"
      fill="#fff"
      stroke="#fff"
      stroke-miterlimit="10"
      stroke-width="1"
    />
    <g
      id="Group_4629"
      data-name="Group 4629"
      transform="translate(778.549 1604.719)"
    >
      <path
        id="Path_6676"
        data-name="Path 6676"
        d="M1024.088,1759.458c.843,3.41,1.67,6.823,2.526,10.23.184.73-.032.978-.99.919a27.8,27.8,0,0,0-5.82.174c-.938.141-1.257-.07-1.213-.845.22-3.851.4-7.7.6-11.555.024-.458.058-.947.748-.761,1.143.308,2.285.622,3.256.886A1.317,1.317,0,0,1,1024.088,1759.458Zm-2.676,8c-.017.749.621.617,1.092.584.439-.03.945-.062.779-.746q-.6-2.453-1.206-4.9A13.981,13.981,0,0,0,1021.412,1767.461Z"
        transform="translate(-1001.043 -1751.517)"
        fill="#fff"
        stroke="#707070"
        stroke-width="0.5"
      />
      <path
        id="Path_6677"
        data-name="Path 6677"
        d="M1071.859,1744.14a19.151,19.151,0,0,0-2.054,2.219c-.36.463-.54.364-.829.041-1.114-1.245-2.256-2.465-3.389-3.693-1.026-1.112-1.012-1.087.307-1.88a1.439,1.439,0,0,1,1.635-.054c1.436.759,2.71,1.791,4.2,2.435C1072.184,1743.42,1072.322,1743.707,1071.859,1744.14Zm-2.832.259c.293.324.543.192.783-.075.26-.288.179-.49-.128-.688a7.876,7.876,0,0,0-2.308-1.07Q1068.2,1743.482,1069.028,1744.4Z"
        transform="translate(-1030.849 -1740.545)"
        fill="#fff"
        stroke="#fff"
        stroke-miterlimit="10"
        stroke-width="0.5"
      />
      <path
        id="Path_6678"
        data-name="Path 6678"
        d="M971.216,1747.626a19.174,19.174,0,0,0-1.71-2.494c-.372-.454-.236-.607.143-.817,1.461-.811,2.9-1.655,4.351-2.489,1.312-.755,1.284-.746,1.765.716a1.439,1.439,0,0,1-.309,1.606c-1.057,1.233-2.346,2.247-3.3,3.561C971.846,1748.1,971.536,1748.172,971.216,1747.626Zm.374-2.819c-.381.214-.307.487-.1.78.224.317.439.283.7.027a7.879,7.879,0,0,0,1.555-2.014Q972.666,1744.2,971.59,1744.807Z"
        transform="translate(-969.286 -1741.051)"
        fill="#fff"
        stroke="#fff"
        stroke-miterlimit="10"
        stroke-width="0.5"
      />
    </g>
    <path
      id="Path_6679"
      data-name="Path 6679"
      d="M1022.113,1689.964l-5.49,5.185-2.634-2.71a.759.759,0,0,0-1.089,1.058l3.16,3.244a.773.773,0,0,0,1.074.023l6.038-5.7a.759.759,0,0,0,.031-1.073A.777.777,0,0,0,1022.113,1689.964Z"
      transform="translate(-218.692 -103.111)"
      stroke="#000"
      stroke-miterlimit="10"
      stroke-width="1"
    />
    <path
      id="Path_6680"
      data-name="Path 6680"
      d="M1313.752,1692.659l-4,3.778-1.919-1.975a.553.553,0,1,0-.793.771l2.3,2.363a.564.564,0,0,0,.782.017l4.4-4.15a.552.552,0,0,0,.022-.782A.566.566,0,0,0,1313.752,1692.659Z"
      transform="translate(-408.201 -104.883)"
      fill="#fff"
      stroke="#fff"
      stroke-miterlimit="10"
      stroke-width="1"
    />
  </g>
</svg>
