<svg xmlns="http://www.w3.org/2000/svg" width="52.995" height="51.317" viewBox="0 0 52.995 51.317"><g transform="translate(-51.593 -376.867)"><path d="M8686.9,5267.953l-23.618.018a2.123,2.123,0,0,1-2.082-1.7l-7.69-30.437-6.172-2a2.128,2.128,0,1,1,2.245-3.616l6.954,2.492a2.134,2.134,0,0,1,.964,1.382l7.521,29.631,20.418-.016,9.779-14.9a2.13,2.13,0,0,1,3.973,1.54L8688.88,5266.6a2.124,2.124,0,0,1-1.984,1.365Zm-23.671,9.346a3.777,3.777,0,1,0,7.551.219v-.223a3.777,3.777,0,0,0-7.555,0Zm3.354-35.63a11.8,11.8,0,1,0,23.588.683c.007-.232.007-.466,0-.7a11.8,11.8,0,0,0-23.6.016Zm16.225,35.618a3.776,3.776,0,0,0,7.553,0v0a3.776,3.776,0,0,0-7.553.006Z" transform="translate(-8594.735 -4853.001)" fill="#e25351"/><path d="M9056.247,287.733l4.354,5.432,8.129-6.922" transform="translate(-8978.156 99.116)" fill="none" stroke="#fff" stroke-width="1"/></g></svg>