<svg xmlns="http://www.w3.org/2000/svg" width="40.104" height="45.945" viewBox="0 0 40.104 45.945"><g transform="translate(0)" opacity="0.8"><path d="M6402.68,767.306h-10.617a1.267,1.267,0,0,1-.1-2.53.649.649,0,0,0,.582-.674.636.636,0,0,0-.636-.61h-.476a1.272,1.272,0,1,1,0-2.543.635.635,0,0,0,0-1.271h-.636a1.272,1.272,0,1,1,0-2.543.635.635,0,1,0,0-1.271h-.636a1.272,1.272,0,0,1,0-2.544h8.265a.636.636,0,0,0,.591-.872l-1.09-2.725a1.888,1.888,0,0,1-.136-.708V747.28a1.589,1.589,0,1,1,3.178,0v2.225a.641.641,0,0,0,.045.236l1.271,3.179a.647.647,0,0,0,.391.368l3.379,1.127v10.644Z" transform="translate(-6365.946 -726.444)" fill="#d1d1d1"/><path d="M6372.087,733.41a9.609,9.609,0,1,0-9.613-9.607A9.607,9.607,0,0,0,6372.087,733.41Z" transform="translate(-6355.674 -714.192)" fill="#d1d1d1"/><path d="M6407.657,741.131a4.039,4.039,0,0,1,2.551,3.769h1.272a5.305,5.305,0,0,0-3.351-4.949l-.227-.091-.473,1.18Zm0,0" transform="translate(-6373.158 -724.176)" fill="#d1d1d1"/><path d="M6377.481,769.163a14.36,14.36,0,0,0-2.905-6.084,2.267,2.267,0,0,0-.635-3.814,2.269,2.269,0,0,0-.635-3.814,2.271,2.271,0,0,1,2.269-2.269h6.375a12.3,12.3,0,0,0-10.1-5.281H6363.7a12.323,12.323,0,0,0-12.307,12.307v.078a5.847,5.847,0,1,1,3.127,10.97,54.806,54.806,0,0,0,14.318,1.993c9.044,0,14.283-2.575,14.607-2.742l.642-.323h.068v-1.019Z" transform="translate(-6351.363 -727.303)" fill="#d1d1d1"/><g transform="translate(0 34.259)"><path d="M6353.063,770.258h-1.718V771.7l.628-.632A4.458,4.458,0,0,1,6353.063,770.258Z" transform="translate(-6351.344 -770.258)" fill="#d1d1d1"/><g transform="translate(0 0.188)"><path d="M6357.265,775.38a2.2,2.2,0,0,0-.672-1.637,2.339,2.339,0,0,0-3.294.006l-1.955,1.963v.953l2.432-2.442a1.642,1.642,0,0,1,1.179-.494,1.653,1.653,0,0,1,1.658,1.651,1.637,1.637,0,0,1-.49,1.181l-2.387,2.4h.515c.148,0,.292-.007.435-.016l1.906-1.914A2.216,2.216,0,0,0,6357.265,775.38Z" transform="translate(-6351.344 -771.539)" fill="#d1d1d1"/><path d="M6352.45,771.662l-1.105,1.11v.935l1.572-1.579a3.05,3.05,0,1,1,4.322,4.3l-1.284,1.29a3.727,3.727,0,0,0,2.744-3.542v-.022a3.634,3.634,0,0,0-2.324-3.366,3.774,3.774,0,0,0-1.3-.227A3.605,3.605,0,0,0,6352.45,771.662Z" transform="translate(-6351.344 -770.565)" fill="#d1d1d1"/><path d="M6355.935,776.238a.945.945,0,0,0-.292-.7.98.98,0,0,0-1.409,0l-2.89,2.9v.935l3.357-3.371a.3.3,0,0,1,.477,0,.293.293,0,0,1-.009.468l-3.312,3.327h.947l2.841-2.852A.963.963,0,0,0,6355.935,776.238Z" transform="translate(-6351.344 -772.386)" fill="#d1d1d1"/></g></g></g></svg>