<svg xmlns="http://www.w3.org/2000/svg" xmlns:xlink="http://www.w3.org/1999/xlink" width="143.436" height="167.233" viewBox="0 0 143.436 167.233"><defs><clipPath id="a"><rect width="143.436" height="167.233" fill="none"/></clipPath></defs><g clip-path="url(#a)"><g transform="translate(-8876.626 -10103.355)"><g transform="translate(8924.413 10245.558)"><path d="M8956.011,10305.723a.444.444,0,0,1,0,.842,1.62,1.62,0,0,1-1.456,0,.445.445,0,0,1,0-.842A1.6,1.6,0,0,1,8956.011,10305.723Z" transform="translate(-8939 -10283.552)" fill="#d1d1d1"/><path d="M8960.7,10303.018a.443.443,0,0,1,0,.84,1.593,1.593,0,0,1-1.455,0,.443.443,0,0,1,0-.84A1.611,1.611,0,0,1,8960.7,10303.018Z" transform="translate(-8939.882 -10283.044)" fill="#d1d1d1"/><path d="M8965.386,10300.313a.444.444,0,0,1,0,.84,1.605,1.605,0,0,1-1.455,0,.443.443,0,0,1,0-.84A1.613,1.613,0,0,1,8965.386,10300.313Z" transform="translate(-8940.761 -10282.536)" fill="#d1d1d1"/><path d="M8970.07,10297.607a.443.443,0,0,1,0,.84,1.6,1.6,0,0,1-1.454,0,.443.443,0,0,1,0-.84A1.6,1.6,0,0,1,8970.07,10297.607Z" transform="translate(-8941.643 -10282.028)" fill="#d1d1d1"/><path d="M8974.76,10294.9a.442.442,0,0,1,0,.838,1.6,1.6,0,0,1-1.457,0,.442.442,0,0,1,0-.838A1.607,1.607,0,0,1,8974.76,10294.9Z" transform="translate(-8942.523 -10281.52)" fill="#d1d1d1"/><path d="M8979.445,10292.2a.445.445,0,0,1,0,.842,1.628,1.628,0,0,1-1.457,0,.445.445,0,0,1,0-.842A1.616,1.616,0,0,1,8979.445,10292.2Z" transform="translate(-8943.404 -10281.011)" fill="#d1d1d1"/><path d="M8984.133,10289.492a.444.444,0,0,1,0,.841,1.609,1.609,0,0,1-1.454,0,.443.443,0,0,1,0-.841A1.607,1.607,0,0,1,8984.133,10289.492Z" transform="translate(-8944.281 -10280.504)" fill="#d1d1d1"/><path d="M8988.818,10286.787a.443.443,0,0,1,0,.84,1.605,1.605,0,0,1-1.455,0,.443.443,0,0,1,0-.84A1.611,1.611,0,0,1,8988.818,10286.787Z" transform="translate(-8945.166 -10279.994)" fill="#d1d1d1"/><path d="M8951.325,10303.017a.444.444,0,0,1,0,.84,1.6,1.6,0,0,1-1.456,0,.444.444,0,0,1,0-.84A1.607,1.607,0,0,1,8951.325,10303.017Z" transform="translate(-8938.119 -10283.045)" fill="#d1d1d1"/><path d="M8956.011,10300.313a.442.442,0,0,1,0,.84,1.622,1.622,0,0,1-1.454,0,.443.443,0,0,1,0-.84A1.6,1.6,0,0,1,8956.011,10300.313Z" transform="translate(-8939.001 -10282.535)" fill="#d1d1d1"/><path d="M8960.7,10297.607a.443.443,0,0,1,0,.84,1.611,1.611,0,0,1-1.455,0,.443.443,0,0,1,0-.84A1.6,1.6,0,0,1,8960.7,10297.607Z" transform="translate(-8939.882 -10282.027)" fill="#d1d1d1"/><path d="M8965.386,10294.9a.443.443,0,0,1,0,.84,1.6,1.6,0,0,1-1.455,0,.443.443,0,0,1,0-.84A1.611,1.611,0,0,1,8965.386,10294.9Z" transform="translate(-8940.76 -10281.52)" fill="#d1d1d1"/><path d="M8970.071,10292.2a.443.443,0,0,1,0,.84,1.618,1.618,0,0,1-1.455,0,.443.443,0,0,1,0-.84A1.6,1.6,0,0,1,8970.071,10292.2Z" transform="translate(-8941.643 -10281.011)" fill="#d1d1d1"/><path d="M8974.761,10289.492a.445.445,0,0,1,0,.842,1.622,1.622,0,0,1-1.457,0,.444.444,0,0,1,0-.842A1.6,1.6,0,0,1,8974.761,10289.492Z" transform="translate(-8942.523 -10280.502)" fill="#d1d1d1"/><ellipse cx="1.029" cy="0.594" rx="1.029" ry="0.594" transform="translate(34.285 6.618)" fill="#d1d1d1"/><path d="M8946.641,10300.311a.443.443,0,0,1,0,.84,1.611,1.611,0,0,1-1.455,0,.443.443,0,0,1,0-.84A1.611,1.611,0,0,1,8946.641,10300.311Z" transform="translate(-8937.239 -10282.535)" fill="#d1d1d1"/><path d="M8951.326,10297.605a.445.445,0,0,1,0,.842,1.607,1.607,0,0,1-1.456,0,.442.442,0,0,1,0-.838A1.618,1.618,0,0,1,8951.326,10297.605Z" transform="translate(-8938.119 -10282.028)" fill="#d1d1d1"/><ellipse cx="1.029" cy="0.594" rx="1.029" ry="0.594" transform="translate(15.255 13.208)" fill="#d1d1d1"/><path d="M8984.133,10284.08a.444.444,0,0,1,0,.841,1.607,1.607,0,0,1-1.456,0,.444.444,0,0,1,0-.841A1.613,1.613,0,0,1,8984.133,10284.08Z" transform="translate(-8944.285 -10279.485)" fill="#d1d1d1"/><path d="M8960.7,10292.2a.443.443,0,0,1,0,.839,1.6,1.6,0,0,1-1.455,0,.442.442,0,0,1,0-.839A1.611,1.611,0,0,1,8960.7,10292.2Z" transform="translate(-8939.881 -10281.012)" fill="#d1d1d1"/><path d="M8965.386,10289.492a.443.443,0,0,1,0,.84,1.614,1.614,0,0,1-1.456,0,.442.442,0,0,1,0-.838A1.6,1.6,0,0,1,8965.386,10289.492Z" transform="translate(-8940.761 -10280.502)" fill="#d1d1d1"/><path d="M8970.074,10286.785a.443.443,0,0,1,0,.84,1.616,1.616,0,0,1-1.457,0,.444.444,0,0,1,0-.841A1.617,1.617,0,0,1,8970.074,10286.785Z" transform="translate(-8941.642 -10279.994)" fill="#d1d1d1"/><path d="M8974.76,10284.08a.442.442,0,0,1,0,.839,1.609,1.609,0,0,1-1.457,0,.444.444,0,0,1,0-.84A1.606,1.606,0,0,1,8974.76,10284.08Z" transform="translate(-8942.525 -10279.484)" fill="#d1d1d1"/><path d="M8979.445,10281.374a.443.443,0,0,1,0,.84,1.588,1.588,0,0,1-1.455,0,.443.443,0,0,1,0-.84A1.611,1.611,0,0,1,8979.445,10281.374Z" transform="translate(-8943.403 -10278.977)" fill="#d1d1d1"/><path d="M8941.955,10297.6a.444.444,0,0,1,0,.84,1.605,1.605,0,0,1-1.455,0,.442.442,0,0,1,0-.84A1.611,1.611,0,0,1,8941.955,10297.6Z" transform="translate(-8936.359 -10282.026)" fill="#d1d1d1"/><path d="M8946.642,10294.9a.443.443,0,0,1,0,.839,1.609,1.609,0,0,1-1.457,0,.442.442,0,0,1,0-.839A1.609,1.609,0,0,1,8946.642,10294.9Z" transform="translate(-8937.239 -10281.518)" fill="#d1d1d1"/><ellipse cx="1.029" cy="0.594" rx="1.029" ry="0.594" transform="translate(11.45 11.009)" fill="#d1d1d1"/><ellipse cx="1.029" cy="0.594" rx="1.029" ry="0.594" transform="translate(15.256 8.813)" fill="#d1d1d1"/><path d="M8960.7,10286.784a.444.444,0,0,1,0,.841,1.618,1.618,0,0,1-1.455,0,.444.444,0,0,1,0-.841A1.605,1.605,0,0,1,8960.7,10286.784Z" transform="translate(-8939.881 -10279.993)" fill="#d1d1d1"/><path d="M8965.386,10284.079a.442.442,0,0,1,0,.84,1.607,1.607,0,0,1-1.456,0,.444.444,0,0,1,0-.84A1.607,1.607,0,0,1,8965.386,10284.079Z" transform="translate(-8940.761 -10279.484)" fill="#d1d1d1"/><path d="M8968.618,10281.374a1.6,1.6,0,0,1,1.457,0,.444.444,0,0,1,0,.84,1.6,1.6,0,0,1-1.456,0,.443.443,0,0,1,0-.84C8969.021,10281.141,8968.217,10281.605,8968.618,10281.374Z" transform="translate(-8941.643 -10278.977)" fill="#d1d1d1"/><path d="M8974.76,10278.67a.443.443,0,0,1,0,.84,1.611,1.611,0,0,1-1.455,0,.443.443,0,0,1,0-.84A1.6,1.6,0,0,1,8974.76,10278.67Z" transform="translate(-8942.523 -10278.469)" fill="#d1d1d1"/><path d="M8937.268,10294.9a.444.444,0,0,1,0,.841,1.613,1.613,0,0,1-1.456,0,.444.444,0,0,1,0-.841A1.6,1.6,0,0,1,8937.268,10294.9Z" transform="translate(-8935.477 -10281.516)" fill="#d1d1d1"/><ellipse cx="1.029" cy="0.594" rx="1.029" ry="0.594" transform="translate(3.838 11.008)" fill="#d1d1d1"/><path d="M8946.641,10289.486a.443.443,0,0,1,0,.84,1.593,1.593,0,0,1-1.455,0,.443.443,0,0,1,0-.84A1.611,1.611,0,0,1,8946.641,10289.486Z" transform="translate(-8937.239 -10280.501)" fill="#d1d1d1"/><ellipse cx="1.029" cy="0.594" rx="1.029" ry="0.594" transform="translate(11.45 6.615)" fill="#d1d1d1"/><ellipse cx="1.029" cy="0.594" rx="1.029" ry="0.594" transform="translate(15.257 4.418)" fill="#d1d1d1"/><path d="M8960.7,10281.372a.445.445,0,0,1,0,.842,1.619,1.619,0,0,1-1.457,0,.444.444,0,0,1,0-.842,1.605,1.605,0,0,1,1.455,0Z" transform="translate(-8939.881 -10278.977)" fill="#d1d1d1"/><ellipse cx="1.029" cy="0.594" rx="1.029" ry="0.594" transform="translate(0 8.788)" fill="#d1d1d1"/><ellipse cx="1.029" cy="0.594" rx="1.029" ry="0.594" transform="translate(3.806 6.591)" fill="#d1d1d1"/><path d="M8946.6,10284.048a.443.443,0,0,1,0,.84,1.616,1.616,0,0,1-1.457,0,.443.443,0,0,1,0-.84A1.609,1.609,0,0,1,8946.6,10284.048Z" transform="translate(-8937.231 -10279.479)" fill="#d1d1d1"/><ellipse cx="1.029" cy="0.594" rx="1.029" ry="0.594" transform="translate(11.418 2.198)" fill="#d1d1d1"/><path d="M8955.975,10278.638a.444.444,0,0,1,0,.842,1.613,1.613,0,0,1-1.456,0,.444.444,0,0,1,0-.842,1.607,1.607,0,0,1,1.456,0Z" transform="translate(-8938.992 -10278.463)" fill="#d1d1d1"/><path d="M8970.254,10308a.443.443,0,0,1,0,.84,1.614,1.614,0,0,1-1.455,0,.442.442,0,0,1,0-.84A1.6,1.6,0,0,1,8970.254,10308Z" transform="translate(-8941.675 -10283.98)" fill="#d1d1d1"/><path d="M8974.939,10305.292a.444.444,0,0,1,0,.841,1.618,1.618,0,0,1-1.455,0,.444.444,0,0,1,0-.841A1.605,1.605,0,0,1,8974.939,10305.292Z" transform="translate(-8942.557 -10283.471)" fill="#d1d1d1"/><ellipse cx="1.029" cy="0.594" rx="1.029" ry="0.594" transform="translate(34.432 19.45)" fill="#d1d1d1"/><path d="M8984.314,10299.883a.443.443,0,0,1,0,.84,1.609,1.609,0,0,1-1.457,0,.443.443,0,0,1,0-.84A1.616,1.616,0,0,1,8984.314,10299.883Z" transform="translate(-8944.319 -10282.456)" fill="#d1d1d1"/><ellipse cx="1.029" cy="0.594" rx="1.029" ry="0.594" transform="translate(42.044 15.056)" fill="#d1d1d1"/><path d="M8993.688,10294.473a.444.444,0,0,1,0,.84,1.613,1.613,0,0,1-1.457,0,.442.442,0,0,1,0-.839A1.609,1.609,0,0,1,8993.688,10294.473Z" transform="translate(-8946.08 -10281.438)" fill="#d1d1d1"/><path d="M8960.881,10308a.442.442,0,0,1,0,.838,1.593,1.593,0,0,1-1.455,0,.443.443,0,0,1,0-.84A1.605,1.605,0,0,1,8960.881,10308Z" transform="translate(-8939.916 -10283.98)" fill="#d1d1d1"/><path d="M8965.566,10305.292a.443.443,0,0,1,0,.84,1.609,1.609,0,0,1-1.454,0,.443.443,0,0,1,0-.84A1.6,1.6,0,0,1,8965.566,10305.292Z" transform="translate(-8940.795 -10283.472)" fill="#d1d1d1"/><path d="M8970.255,10302.588a.442.442,0,0,1,0,.838,1.593,1.593,0,0,1-1.455,0,.443.443,0,0,1,0-.84A1.611,1.611,0,0,1,8970.255,10302.588Z" transform="translate(-8941.677 -10282.964)" fill="#d1d1d1"/><path d="M8974.939,10299.882a.442.442,0,0,1,0,.839,1.6,1.6,0,0,1-1.455,0,.444.444,0,0,1,0-.841A1.605,1.605,0,0,1,8974.939,10299.882Z" transform="translate(-8942.558 -10282.453)" fill="#d1d1d1"/><path d="M8979.63,10297.178a.443.443,0,0,1,0,.839,1.6,1.6,0,0,1-1.454,0,.443.443,0,0,1,0-.841A1.614,1.614,0,0,1,8979.63,10297.178Z" transform="translate(-8943.438 -10281.948)" fill="#d1d1d1"/><ellipse cx="1.029" cy="0.594" rx="1.029" ry="0.594" transform="translate(38.239 12.859)" fill="#d1d1d1"/><path d="M8989,10291.767a.442.442,0,0,1,0,.839,1.6,1.6,0,0,1-1.457,0,.444.444,0,0,1,0-.841A1.613,1.613,0,0,1,8989,10291.767Z" transform="translate(-8945.198 -10280.93)" fill="#d1d1d1"/><ellipse cx="1.029" cy="0.594" rx="1.029" ry="0.594" transform="translate(45.851 8.465)" fill="#d1d1d1"/></g><g transform="translate(8876.626 10103.355)"><g transform="translate(47.453 92.478)"><path d="M8935.529,10263.059l0-27.467,23.375,13.631,0,27.477Z" transform="translate(-8935.147 -10220.683)" fill="#434343"/><path d="M8935.535,10232.244l24.8-14.469,23.705,13.5-25.131,14.605Z" transform="translate(-8935.148 -10217.334)" fill="#434343"/><path d="M8935.529,10234.371l24.8-14.469,23.706,13.494L8958.9,10248Z" transform="translate(-8935.147 -10217.734)" fill="#efefef"/><path d="M8984.334,10231.39v-.443h0l-.385-.219-23.705-13.5-24.8,14.468h0l-.384.223v.439h0l0,27.466,23.374,13.642h0l.385.223.382-.223h0l25.133-14.607Zm-48.131.753,24.045-14.029,22.938,13.06-24.392,14.144-13.251-7.728Zm-.379,27.247,0-26.582,9.934,5.792,12.678,7.4-.006,26.589Z" transform="translate(-8935.059 -10217.232)" fill="#1a1a1a"/><g transform="translate(8.372 4.877)"><path d="M8972.16,10225.1l-25,14.477v7.171l5.661,3.3v-7.206l25.048-14.5Z" transform="translate(-8945.705 -10223.587)" fill="#1a1a1a"/><path d="M8977.227,10226.926l-6.479-3.689-25,14.475h0l-.381.221v.44h0l0,7.173,6.426,3.748,0-7.651Zm-6.478-2.81,4.942,2.813-24.278,14.051-4.9-2.829Zm-24.616,20.989v-6.291l4.9,2.827,0,6.322Z" transform="translate(-8945.368 -10223.236)" fill="#d1d1d1"/></g></g><g transform="translate(60.954 65.934)"><g transform="translate(0 32.285)"><path d="M8962.824,10224.3c-6.273,0-11.14,4.771-11.14,8.882,0,4.21,5,7.635,11.138,7.637s11.139-3.425,11.139-7.634C8973.961,10229.077,8969.1,10224.3,8962.824,10224.3Z" transform="translate(-8951.685 -10224.301)" fill="#adadad"/><g transform="translate(1.554)"><ellipse cx="9.202" cy="6.206" rx="9.202" ry="6.206" transform="translate(0.382 0.382)" fill="#707070"/><path d="M8972.469,10233.035s-4.117,4.534-9.2,4.534-9.207-4.536-9.207-4.536c0-3.428,4.12-6.205,9.2-6.2S8972.469,10229.609,8972.469,10233.035Z" transform="translate(-8953.685 -10224.776)" fill="#707070"/><path d="M8963.182,10237.479c-5.286,0-9.585-2.959-9.584-6.59s4.3-6.588,9.587-6.588,9.584,2.958,9.581,6.588S8968.467,10237.479,8963.182,10237.479Zm0-12.412c-4.865,0-8.821,2.612-8.821,5.822s3.955,5.825,8.818,5.825,8.82-2.612,8.82-5.825S8968.046,10225.066,8963.185,10225.066Z" transform="translate(-8953.598 -10224.301)" fill="#707070"/></g></g><path d="M8965.066,10184.548a1.486,1.486,0,0,0-1.469,1.5l-.006,36.253a1.469,1.469,0,1,0,2.938,0l.006-36.253A1.486,1.486,0,0,0,8965.066,10184.548Z" transform="translate(-8953.922 -10184.548)" fill="#adadad"/></g><g transform="translate(0 0.369)"><path d="M8916.653,10139.462l.92-11.079-12.547,0,.917,11.08c0,.029-.013.057-.013.086a2.376,2.376,0,0,0,.045.3l.018.23h.017c.383,1.746,2.594,3.09,5.289,3.09s4.9-1.344,5.288-3.089h.015l.021-.23a2.632,2.632,0,0,0,.046-.3C8916.668,10139.518,8916.653,10139.49,8916.653,10139.462Z" transform="translate(-8881.964 -10108.427)" fill="#bababa"/><path d="M8917.9,10127.912h-12.938a.406.406,0,0,0-.4.438l.917,10.984-.014.125a1.675,1.675,0,0,0,.045.333l.125.578c.6,1.808,2.879,3.091,5.581,3.091s4.98-1.279,5.577-3.089l.14-.645a1.459,1.459,0,0,0,.034-.268l-.013-.1Zm-1.715,11.431.011.116a.5.5,0,0,1-.019.112c-.007.046-.018.091-.025.157l-.026.18a2.991,2.991,0,0,1-1.291,1.734l.721-10.395-2.171,1.275h-2.173v10.174c-2.455,0-4.565-1.2-4.916-2.791l-.017-.062-.011-.13c-.008-.048-.018-.1-.026-.146s-.015-.073-.015-.073l.013-.1-.888-10.724,11.719,0Z" transform="translate(-8881.874 -10108.34)" fill="#747474"/><g transform="translate(22.679 14.614)"><path d="M8917.573,10127.234c0,2.337-2.809,4.232-6.273,4.23s-6.273-1.895-6.273-4.232,2.81-4.956,6.273-4.956S8917.575,10124.9,8917.573,10127.234Z" transform="translate(-8904.644 -10121.895)" fill="#e25351"/><path d="M8911.21,10131.757c-3.671,0-6.657-2.069-6.657-4.613,0-2.47,2.91-5.339,6.657-5.339s6.658,2.873,6.658,5.341C8917.868,10129.689,8914.882,10131.759,8911.21,10131.757Zm0-9.187c-3.262,0-5.89,2.5-5.892,4.574,0,2.124,2.643,3.852,5.892,3.852s5.891-1.728,5.891-3.85C8917.1,10125.072,8914.476,10122.569,8911.21,10122.569Z" transform="translate(-8904.553 -10121.805)" fill="#16110d"/></g><g transform="translate(23.587 14.614)"><path d="M8911.422,10129.809c-3.171,0-5.75-1.795-5.75-4s2.58-4,5.75-4,5.75,1.8,5.75,4S8914.594,10129.809,8911.422,10129.809Zm0-7.239c-2.748,0-4.985,1.452-4.985,3.238s2.235,3.237,4.985,3.237,4.985-1.451,4.985-3.237S8914.171,10122.569,8911.422,10122.569Z" transform="translate(-8905.672 -10121.805)" fill="#bababa"/></g><path d="M8913.25,10122.326c-.464-.13-.761.3-.994.653-.088.133-.257.384-.286.417a1.718,1.718,0,0,1-.352-.415c-.24-.344-.54-.765-1-.652-1.339.35-2.187,2.428-2.187,3.213,0,1.205,1.539,2.149,3.506,2.151s3.507-.944,3.507-2.15C8915.447,10124.763,8914.518,10122.672,8913.25,10122.326Z" transform="translate(-8882.605 -10107.285)" fill="#16110d"/><g transform="translate(0 16.283)"><path d="M8877.8,10125.429c-.778.046-1.25.426-1.169.978.158,1.085.932,3.105,4.036,5.9a22.748,22.748,0,0,0,7.85,4.578,2.384,2.384,0,0,0,2.168-.117l14.154-11.993c.35-.295-.336-.9-.977-.86Z" transform="translate(-8876.627 -10123.87)" fill="#707070"/><path d="M8892.042,10140.44a4.408,4.408,0,0,1-.537-.034,23.278,23.278,0,0,1-8.747-2.985c-3.6-2.122-4.863-3.988-5.288-5.181a1.078,1.078,0,0,1,.056-.89,1.76,1.76,0,0,1,1.159-.8l25.245-6.646a1.519,1.519,0,0,1,1.552.494.637.637,0,0,1-.027.764l-11.5,14.554A2.408,2.408,0,0,1,8892.042,10140.44Zm12.264-15.816a.742.742,0,0,0-.18.021l-25.247,6.646a1.064,1.064,0,0,0-.679.414.6.6,0,0,0-.013.277,13.5,13.5,0,0,0,4.957,4.782,22.5,22.5,0,0,0,8.456,2.884,2.053,2.053,0,0,0,1.753-.4l11.438-14.477A.886.886,0,0,0,8904.306,10124.624Z" transform="translate(-8876.771 -10123.861)" fill="#707070"/></g><g transform="translate(29.256)"><path d="M8940.574,10119.668c.783-.039,1.262-.415,1.188-.965-.141-1.081-.883-3.1-3.955-5.9a22.647,22.647,0,0,0-7.809-4.616,2.41,2.41,0,0,0-2.179.1l-14.407,11.84c-.355.292.32.9.966.865Z" transform="translate(-8912.776 -10104.595)" fill="#707070"/><path d="M8913.946,10120.282a1.448,1.448,0,0,1-1.186-.545.637.637,0,0,1,.038-.765l11.783-14.458a2.751,2.751,0,0,1,2.459-.668,23.191,23.191,0,0,1,8.713,3.03c3.569,2.138,4.8,4.011,5.211,5.205a1.08,1.08,0,0,1-.067.882,1.783,1.783,0,0,1-1.174.792l-25.415,6.483A1.49,1.49,0,0,1,8913.946,10120.282Zm-.491-.908a.879.879,0,0,0,.664.125l25.414-6.484a1.063,1.063,0,0,0,.692-.415.314.314,0,0,0,.017-.271c-.3-.879-1.331-2.671-4.881-4.8a22.37,22.37,0,0,0-8.418-2.928,2.087,2.087,0,0,0-1.77.394Z" transform="translate(-8912.651 -10103.812)" fill="#bababa"/></g><g transform="translate(26.785 14.82)"><ellipse cx="2.17" cy="1.228" rx="2.17" ry="1.228" transform="translate(0.382 0.382)" fill="#e6e6e6"/><path d="M8912.162,10125.279c-1.432,0-2.555-.707-2.554-1.61s1.122-1.609,2.554-1.609,2.553.706,2.553,1.609S8913.592,10125.28,8912.162,10125.279Zm0-2.456c-1.022,0-1.789.447-1.789.846s.767.847,1.789.847,1.787-.446,1.787-.847S8913.187,10122.823,8912.162,10122.823Z" transform="translate(-8909.608 -10122.06)" fill="#16110d"/></g></g><g transform="translate(84.912)"><path d="M9020.581,10139.242l.923-11.08-12.549,0,.916,11.08c0,.029-.013.059-.013.088a2.093,2.093,0,0,0,.047.3l.019.229h.015c.384,1.746,2.593,3.09,5.288,3.09s4.9-1.344,5.29-3.088h.015l.019-.23a2.536,2.536,0,0,0,.045-.3C9020.595,10139.3,9020.583,10139.271,9020.581,10139.242Z" transform="translate(-8986.405 -10108.017)" fill="#bababa"/><path d="M9021.828,10127.694l-12.938,0a.4.4,0,0,0-.4.436l.917,10.986-.017.126a1.828,1.828,0,0,0,.047.331l.125.58c.6,1.808,2.876,3.092,5.578,3.092s4.982-1.284,5.58-3.09l.138-.645a1.317,1.317,0,0,0,.034-.269l-.012-.1Zm-1.716,11.427.014.119a.734.734,0,0,1-.019.112c-.011.046-.019.093-.028.156l-.025.18a3,3,0,0,1-1.291,1.735l.722-10.4-2.173,1.277h-2.172l0,10.173c-2.453,0-4.565-1.2-4.915-2.793l-.016-.061-.011-.132c-.008-.048-.018-.095-.026-.145a.217.217,0,0,0-.021-.072l.019-.1-.889-10.72H9021Z" transform="translate(-8986.315 -10107.932)" fill="#747474"/><g transform="translate(22.167 14.805)"><path d="M9021.5,10127.015c0,2.338-2.811,4.231-6.276,4.231s-6.272-1.9-6.272-4.231,2.809-4.959,6.274-4.959S9021.5,10124.68,9021.5,10127.015Z" transform="translate(-9008.572 -10121.674)" fill="#e25351"/><path d="M9015.138,10131.54c-3.671,0-6.657-2.071-6.657-4.615,0-2.471,2.912-5.339,6.657-5.337s6.658,2.869,6.658,5.339C9021.8,10129.471,9018.809,10131.54,9015.138,10131.54Zm0-9.189c-3.263,0-5.891,2.5-5.892,4.574,0,2.124,2.643,3.852,5.892,3.852s5.893-1.726,5.893-3.85C9021.03,10124.855,9018.4,10122.353,9015.138,10122.351Z" transform="translate(-9008.48 -10121.588)" fill="#16110d"/></g><g transform="translate(23.074 14.805)"><path d="M9014.533,10122.056Z" transform="translate(-9008.784 -10121.674)" fill="#ffedcb"/><path d="M9015.349,10129.592c-3.172,0-5.749-1.8-5.749-4s2.582-4,5.749-4,5.752,1.795,5.752,4S9018.521,10129.592,9015.349,10129.592Zm0-7.241c-2.747,0-4.983,1.452-4.983,3.236s2.236,3.238,4.983,3.238,4.987-1.45,4.987-3.236S9018.1,10122.351,9015.349,10122.351Z" transform="translate(-9009.6 -10121.588)" fill="#bababa"/></g><path d="M9017.177,10122.108c-.463-.13-.758.3-.991.652-.091.132-.258.382-.287.415a1.663,1.663,0,0,1-.352-.415c-.24-.341-.539-.764-1-.649-1.336.349-2.187,2.428-2.187,3.211,0,1.205,1.54,2.15,3.507,2.15s3.508-.943,3.508-2.148C9019.377,10124.545,9018.446,10122.453,9017.177,10122.108Z" transform="translate(-8987.045 -10106.875)" fill="#16110d"/><path d="M8995.294,10107.593a2.343,2.343,0,0,0-2.127-.151,23.418,23.418,0,0,0-7.915,4.532c-3.053,2.591-3.859,4.692-4.053,5.835-.1.56.365.958,1.155,1.013l26.011,1.768c.643.042,1.332-.555.985-.854Z" transform="translate(-8981.187 -10104.092)" fill="#707070"/><path d="M9008.84,10119.961a1.485,1.485,0,0,1-.371-.045l-25.211-6.645a1.747,1.747,0,0,1-1.158-.8,1.1,1.1,0,0,1-.046-.912c.477-1.273,1.775-3.2,5.251-5.164a23.677,23.677,0,0,1,8.771-3,2.664,2.664,0,0,1,2.4.7l11.514,14.574a.637.637,0,0,1,.029.764A1.451,1.451,0,0,1,9008.84,10119.961Zm-12.267-15.84a3.779,3.779,0,0,0-.409.023,23.23,23.23,0,0,0-8.482,2.91c-3.451,1.951-4.56,3.822-4.91,4.768a.333.333,0,0,0,.008.293,1.043,1.043,0,0,0,.674.418l25.211,6.643a.9.9,0,0,0,.67-.123l-11.455-14.5A1.7,1.7,0,0,0,8996.573,10104.121Z" transform="translate(-8981.334 -10103.357)" fill="#bababa"/><g transform="translate(29.029 16.53)"><path d="M9031.465,10136.945a2.317,2.317,0,0,0,2.116.166,23.565,23.565,0,0,0,7.955-4.492c3.084-2.582,3.921-4.687,4.133-5.832.1-.562-.349-.967-1.135-1.025l-25.876-1.959c-.639-.047-1.334.547-1,.85Z" transform="translate(-9017.053 -10123.727)" fill="#707070"/><path d="M9030.215,10140.42a2.384,2.384,0,0,1-1.914-.738l-11.233-14.676a.638.638,0,0,1-.016-.762,1.516,1.516,0,0,1,1.558-.482l25.041,6.8a1.734,1.734,0,0,1,1.144.809,1.1,1.1,0,0,1,.031.92c-.5,1.27-1.823,3.191-5.328,5.141a23.873,23.873,0,0,1-8.8,2.957A4.026,4.026,0,0,1,9030.215,10140.42Zm-1.307-1.2a1.974,1.974,0,0,0,1.7.416,23.059,23.059,0,0,0,8.52-2.867c3.48-1.936,4.62-3.809,4.989-4.752a.346.346,0,0,0,0-.3,1.038,1.038,0,0,0-.662-.414l-25.041-6.8a.846.846,0,0,0-.674.121Z" transform="translate(-9016.934 -10123.711)" fill="#bababa"/></g><g transform="translate(26.272 15.011)"><path d="M9018.348,10123.539c0,.677-.97,1.229-2.17,1.229s-2.169-.553-2.169-1.229.972-1.228,2.17-1.228S9018.348,10122.861,9018.348,10123.539Z" transform="translate(-9013.627 -10121.93)" fill="#e6e6e6"/><path d="M9016.09,10125.06c-1.433,0-2.555-.708-2.553-1.608s1.122-1.611,2.553-1.611,2.552.708,2.552,1.611S9017.521,10125.06,9016.09,10125.06Zm0-2.456c-1.023,0-1.789.448-1.789.848s.766.845,1.789.845,1.786-.444,1.786-.845S9017.115,10122.6,9016.09,10122.6Z" transform="translate(-9013.537 -10121.84)" fill="#16110d"/></g></g><g transform="translate(29.407 25.929)"><g transform="translate(1.152)"><path d="M8939.91,10158.584l-24.668-19.916a1.7,1.7,0,0,1,1.747-2.89l28.252,13.247-1.154,2.46-20.189-9.47a.059.059,0,0,0-.062.1l16.882,13.629Z" transform="translate(-8914.319 -10135.351)" fill="#e6e6e6"/><path d="M8940,10159l-25-20.178a1.981,1.981,0,0,1,2.033-3.361l28.511,13.369-1.388,2.965-18.8-8.82,15.616,12.607Zm-23.768-23.152a1.43,1.43,0,0,0-.885,2.539l24.348,19.654.643-2.258-16.739-13.514a.329.329,0,0,1-.073-.437.333.333,0,0,1,.428-.129l19.939,9.352.918-1.953-28-13.131A1.414,1.414,0,0,0,8916.229,10135.844Z" transform="translate(-8914.255 -10135.285)" fill="#bababa"/></g><g transform="translate(52.458 0.021)"><path d="M8984.112,10157.865l-1.708-2.111,17.189-13.879a.011.011,0,0,0-.013-.018l-20.539,9.634-1.153-2.459,28.2-13.227a1.7,1.7,0,0,1,1.75,2.9Z" transform="translate(-8977.519 -10135.373)" fill="#e6e6e6"/><path d="M8983.985,10158.192l-2.056-2.545.217-.176,15.463-12.485-18.787,8.813-1.389-2.963,28.452-13.345a1.982,1.982,0,0,1,2.038,3.371Zm-1.273-2.463,1.355,1.682,23.513-18.986a1.424,1.424,0,0,0-1.462-2.427l-27.946,13.1.918,1.956,20.5-9.613.284.4-.181.177Z" transform="translate(-8977.434 -10135.312)" fill="#bababa"/></g><path d="M8977.216,10167.932c-2.654-4.28-8.745-7.037-15.6-7.038-7.224,0-13.577,3.069-15.969,7.675l-2.151-1.021,1.327,6.411c1.154,6.036,8.486,10.763,16.688,10.767,8,0,15.38-4.544,16.814-10.38h0c.037-.156.068-.31.095-.454l1.248-6.018Zm.741,6.324Z" transform="translate(-8918.599 -10140.098)" fill="#d1d1d1"/><path d="M8979.208,10163.4h0l-.037-.128c-.042-.165-.088-.325-.139-.487l-1.064-3.736h-1.165c-3.123-3.412-8.716-5.689-15.1-5.689s-11.975,2.273-15.1,5.685h-1.373l-1.018,4.311c-.018.073-.038.147-.054.223l-.021.092h0a8.151,8.151,0,0,0-.171,1.645c0,6.605,7.938,11.959,17.729,11.959s17.732-5.35,17.732-11.954A8.232,8.232,0,0,0,8979.208,10163.4Z" transform="translate(-8918.688 -10138.682)" fill="#434343"/><path d="M8961.617,10177.569c-9.987,0-18.112-5.538-18.112-12.343a8.579,8.579,0,0,1,.1-1.266h-.022l.162-.715,1.1-4.672,1.508,0c3.347-3.566,9.036-5.687,15.267-5.687s11.92,2.126,15.265,5.691h1.288l1.142,4.012c.05.157.1.326.142.5l.172.607h-.037a8.607,8.607,0,0,1,.142,1.534C8979.732,10172.034,8971.606,10177.571,8961.617,10177.569Zm-17.16-14.035-.021.122a7.559,7.559,0,0,0-.166,1.57c0,6.383,7.782,11.577,17.348,11.578s17.349-5.19,17.349-11.574a7.836,7.836,0,0,0-.218-1.826l-.029-.117c-.041-.162-.084-.319-.134-.474l-.989-3.47h-1.046l-.112-.124c-3.187-3.484-8.726-5.565-14.817-5.567s-11.631,2.079-14.816,5.563l-.116.125h-1.238Z" transform="translate(-8918.6 -10138.593)" fill="#adadad"/><path d="M8978.41,10159.876c0,6.168-7.415,11.168-16.561,11.165s-16.561-5-16.559-11.17,7.415-11.166,16.561-11.165S8978.412,10153.709,8978.41,10159.876Z" transform="translate(-8918.936 -10137.807)" fill="#434343"/><path d="M8961.762,10171.336c-9.342,0-16.941-5.184-16.94-11.551s7.6-11.549,16.943-11.549,16.941,5.184,16.94,11.553S8971.1,10171.336,8961.762,10171.336Zm0-22.334c-8.92,0-16.178,4.836-16.181,10.783s7.257,10.785,16.178,10.787,16.177-4.836,16.178-10.783S8970.686,10149,8961.765,10149Z" transform="translate(-8918.847 -10137.718)" fill="#747474"/><path d="M8962.523,10145.6c-8.006,0-14.218,6.08-14.218,11.313,0,5.354,6.377,9.711,14.214,9.711s14.218-4.354,14.218-9.707C8976.737,10151.682,8970.527,10145.6,8962.523,10145.6Z" transform="translate(-8919.503 -10137.222)" fill="#bababa"/><g transform="translate(54.295 29.678)"><path d="M9008.3,10203.356a1.811,1.811,0,0,1-1.093-.372l-26.635-20.27a1.36,1.36,0,0,1-.259-1.9h0a1.359,1.359,0,0,1,1.9-.258l17.018,12.95-18.539-19.031a1.358,1.358,0,0,1,.03-1.919h0a1.36,1.36,0,0,1,1.922.03l26.855,27.616a1.894,1.894,0,0,1,.178,2.5A1.793,1.793,0,0,1,9008.3,10203.356Z" transform="translate(-8979.761 -10171.894)" fill="#e6e6e6"/><path d="M9008.237,10203.571a2.059,2.059,0,0,1-1.26-.431l-26.637-20.269a1.636,1.636,0,1,1,1.98-2.6l14.038,10.683-15.924-16.346a1.638,1.638,0,0,1-.461-1.17,1.608,1.608,0,0,1,.5-1.146,1.636,1.636,0,0,1,2.312.037l26.855,27.616a2.178,2.178,0,0,1,.191,2.873A2.07,2.07,0,0,1,9008.237,10203.571Zm-26.9-23.082a1.021,1.021,0,0,0-.146.01,1.081,1.081,0,0,0-.513,1.93l26.637,20.27a1.548,1.548,0,0,0,2.095-.236,1.623,1.623,0,0,0-.165-2.132l-26.856-27.616a1.086,1.086,0,0,0-1.527-.024,1.081,1.081,0,0,0-.024,1.527l18.538,19.03-.368.414-17.019-12.951A1.077,1.077,0,0,0,8981.334,10180.489Z" transform="translate(-8979.695 -10171.83)" fill="#bababa"/></g><g transform="translate(0 29.663)"><path d="M8914.96,10203.343a1.807,1.807,0,0,1-1.391-.657,1.888,1.888,0,0,1,.191-2.506l27.361-27.624a1.357,1.357,0,0,1,1.92-.009h0a1.354,1.354,0,0,1,.01,1.919L8924.1,10193.6l17.57-13.077a1.359,1.359,0,0,1,1.9.279h0a1.355,1.355,0,0,1-.278,1.9l-27.239,20.273A1.816,1.816,0,0,1,8914.96,10203.343Z" transform="translate(-8912.901 -10171.874)" fill="#e6e6e6"/><path d="M8914.9,10203.559a2.092,2.092,0,0,1-1.605-.761,2.166,2.166,0,0,1,.208-2.878l27.361-27.622a1.626,1.626,0,0,1,1.156-.487h0a1.638,1.638,0,0,1,1.166,2.788l-16.362,16.518,14.616-10.877a1.638,1.638,0,0,1,2.287.336,1.634,1.634,0,0,1-.338,2.29l-27.237,20.271A2.09,2.09,0,0,1,8914.9,10203.559Zm27.126-31.189a1.077,1.077,0,0,0-.767.319l-27.361,27.624a1.6,1.6,0,0,0-.178,2.13,1.564,1.564,0,0,0,2.1.25l27.238-20.275a1.076,1.076,0,0,0,.222-1.51,1.083,1.083,0,0,0-1.512-.223l-17.57,13.078-.364-.417,18.954-19.138a1.079,1.079,0,0,0-.767-1.839Z" transform="translate(-8912.838 -10171.811)" fill="#bababa"/></g><g transform="translate(35.506 13.89)"><path d="M8965.975,10162.159a.264.264,0,0,1,0,.5.95.95,0,0,1-.864,0c-.243-.138-.243-.361,0-.5A.956.956,0,0,1,8965.975,10162.159Z" transform="translate(-8958.131 -10154.206)" fill="#efefef"/><path d="M8968.766,10160.551a.263.263,0,0,1,0,.5.952.952,0,0,1-.868,0,.265.265,0,0,1,0-.5A.964.964,0,0,1,8968.766,10160.551Z" transform="translate(-8958.654 -10153.904)" fill="#efefef"/><path d="M8971.556,10158.938a.265.265,0,0,1,0,.5.954.954,0,0,1-.866,0,.264.264,0,0,1,0-.5A.96.96,0,0,1,8971.556,10158.938Z" transform="translate(-8959.18 -10153.601)" fill="#efefef"/><path d="M8974.346,10157.328a.264.264,0,0,1,0,.5.961.961,0,0,1-.868,0c-.238-.137-.238-.361,0-.5A.95.95,0,0,1,8974.346,10157.328Z" transform="translate(-8959.705 -10153.3)" fill="#efefef"/><path d="M8963.187,10160.549a.265.265,0,0,1,0,.5.958.958,0,0,1-.868,0,.265.265,0,0,1,0-.5A.97.97,0,0,1,8963.187,10160.549Z" transform="translate(-8957.607 -10153.904)" fill="#efefef"/><path d="M8965.974,10158.938a.264.264,0,0,1,0,.5.956.956,0,0,1-.864,0,.265.265,0,0,1,0-.5A.95.95,0,0,1,8965.974,10158.938Z" transform="translate(-8958.133 -10153.6)" fill="#efefef"/><path d="M8968.766,10157.328a.263.263,0,0,1,0,.5.954.954,0,0,1-.866,0c-.241-.137-.241-.361,0-.5A.954.954,0,0,1,8968.766,10157.328Z" transform="translate(-8958.655 -10153.298)" fill="#efefef"/><path d="M8971.556,10155.719a.264.264,0,0,1,0,.5.954.954,0,0,1-.866,0,.264.264,0,0,1,0-.5A.954.954,0,0,1,8971.556,10155.719Z" transform="translate(-8959.181 -10152.997)" fill="#efefef"/><path d="M8960.394,10158.937a.265.265,0,0,1,0,.5.956.956,0,0,1-.864,0,.265.265,0,0,1,0-.5A.956.956,0,0,1,8960.394,10158.937Z" transform="translate(-8957.085 -10153.601)" fill="#efefef"/><path d="M8963.186,10157.326a.264.264,0,0,1,0,.5.958.958,0,0,1-.868,0,.265.265,0,0,1,0-.5A.964.964,0,0,1,8963.186,10157.326Z" transform="translate(-8957.608 -10153.298)" fill="#efefef"/><path d="M8965.976,10155.716a.263.263,0,0,1,0,.5.948.948,0,0,1-.866,0,.263.263,0,0,1,0-.5A.954.954,0,0,1,8965.976,10155.716Z" transform="translate(-8958.132 -10152.994)" fill="#efefef"/><path d="M8968.767,10154.105a.265.265,0,0,1,0,.5.954.954,0,0,1-.866,0,.265.265,0,0,1,0-.5A.962.962,0,0,1,8968.767,10154.105Z" transform="translate(-8958.655 -10152.692)" fill="#efefef"/><path d="M8957.6,10157.326a.263.263,0,0,1,0,.5.952.952,0,0,1-.868,0,.264.264,0,0,1,0-.5A.964.964,0,0,1,8957.6,10157.326Z" transform="translate(-8956.558 -10153.299)" fill="#efefef"/><path d="M8960.394,10155.716a.263.263,0,0,1,0,.5.944.944,0,0,1-.864,0,.264.264,0,0,1,0-.5A.953.953,0,0,1,8960.394,10155.716Z" transform="translate(-8957.085 -10152.994)" fill="#efefef"/><path d="M8963.186,10154.105a.264.264,0,0,1,0,.5.954.954,0,0,1-.866,0,.264.264,0,0,1,0-.5A.954.954,0,0,1,8963.186,10154.105Z" transform="translate(-8957.608 -10152.694)" fill="#efefef"/><path d="M8965.976,10152.493a.264.264,0,0,1,0,.5.949.949,0,0,1-.865,0,.264.264,0,0,1,0-.5A.958.958,0,0,1,8965.976,10152.493Z" transform="translate(-8958.133 -10152.39)" fill="#efefef"/></g></g><g transform="translate(0.86 62)"><path d="M8917.081,10215.59l.92-11.081h-12.548l.917,11.079c0,.029-.012.055-.012.084a2.433,2.433,0,0,0,.045.3l.019.229h.017c.382,1.745,2.592,3.09,5.287,3.09s4.905-1.345,5.289-3.088h.014l.021-.23a2.414,2.414,0,0,0,.045-.3C8917.094,10215.646,8917.082,10215.619,8917.081,10215.59Z" transform="translate(-8882.903 -10184.365)" fill="#bababa"/><path d="M8918.327,10204.039h-12.94a.4.4,0,0,0-.4.436l.918,10.985-.017.124a1.827,1.827,0,0,0,.047.335l.126.579c.595,1.808,2.876,3.089,5.577,3.089s4.98-1.28,5.578-3.088l.14-.646a1.385,1.385,0,0,0,.033-.268l-.011-.1Zm-1.717,11.431.014.116a.7.7,0,0,1-.02.113c-.009.046-.019.091-.026.156l-.025.179a2.991,2.991,0,0,1-1.291,1.734l.722-10.395-2.174,1.277h-2.172l0,10.173c-2.45,0-4.564-1.2-4.914-2.791l-.018-.062-.011-.131c-.007-.05-.015-.1-.024-.146a.343.343,0,0,0-.02-.073l.017-.1-.888-10.722,11.719,0Z" transform="translate(-8882.814 -10184.278)" fill="#747474"/><g transform="translate(22.167 14.804)"><path d="M8918,10203.361c0,2.338-2.81,4.232-6.275,4.23s-6.272-1.895-6.272-4.23,2.81-4.957,6.273-4.957S8918,10201.025,8918,10203.361Z" transform="translate(-8905.07 -10198.022)" fill="#e25351"/><path d="M8911.638,10207.887c-3.67,0-6.656-2.072-6.656-4.613,0-2.473,2.909-5.344,6.657-5.341s6.656,2.87,6.656,5.341C8918.294,10205.816,8915.309,10207.887,8911.638,10207.887Zm0-9.19c-3.263,0-5.893,2.5-5.893,4.577,0,2.119,2.642,3.849,5.892,3.849s5.893-1.726,5.893-3.849C8917.53,10201.2,8914.9,10198.7,8911.639,10198.7Z" transform="translate(-8904.981 -10197.933)" fill="#e25351"/></g><g transform="translate(23.074 14.804)"><path d="M8911.031,10198.4Z" transform="translate(-8905.28 -10198.021)" fill="#ffedcb"/><path d="M8911.849,10205.936c-3.171,0-5.752-1.794-5.749-4s2.579-4.006,5.749-4,5.751,1.8,5.751,4S8915.019,10205.936,8911.849,10205.936Zm0-7.239c-2.748,0-4.985,1.453-4.985,3.239s2.235,3.236,4.985,3.238,4.985-1.452,4.985-3.238S8914.6,10198.7,8911.849,10198.7Z" transform="translate(-8906.1 -10197.933)" fill="#bababa"/></g><path d="M8913.676,10198.456c-.465-.133-.762.3-.993.651-.089.134-.255.383-.288.415a1.772,1.772,0,0,1-.352-.415c-.239-.342-.537-.765-1-.649-1.336.349-2.186,2.427-2.186,3.21,0,1.206,1.542,2.15,3.507,2.152s3.507-.946,3.507-2.149C8915.874,10200.889,8914.945,10198.8,8913.676,10198.456Z" transform="translate(-8883.543 -10183.222)" fill="#16110d"/><path d="M8891.793,10183.938a2.353,2.353,0,0,0-2.127-.151,23.416,23.416,0,0,0-7.915,4.533c-3.053,2.592-3.858,4.691-4.054,5.835-.095.561.365.959,1.156,1.013l26.011,1.767c.644.046,1.333-.554.985-.853Z" transform="translate(-8877.685 -10180.439)" fill="#707070"/><path d="M8905.341,10196.308a1.5,1.5,0,0,1-.373-.048l-25.21-6.643a1.758,1.758,0,0,1-1.158-.8,1.1,1.1,0,0,1-.045-.911c.475-1.273,1.773-3.2,5.251-5.164a23.668,23.668,0,0,1,8.77-3,2.668,2.668,0,0,1,2.4.692l11.513,14.576a.637.637,0,0,1,.029.766A1.457,1.457,0,0,1,8905.341,10196.308Zm-12.268-15.842a3.329,3.329,0,0,0-.408.025,23.185,23.185,0,0,0-8.484,2.909c-3.451,1.95-4.56,3.824-4.911,4.768a.354.354,0,0,0,.008.293,1.054,1.054,0,0,0,.677.418l25.21,6.643a.886.886,0,0,0,.67-.123l-11.453-14.5A1.735,1.735,0,0,0,8893.073,10180.466Z" transform="translate(-8877.834 -10179.703)" fill="#bababa"/><g transform="translate(29.029 16.53)"><path d="M8927.961,10213.29a2.308,2.308,0,0,0,2.117.167,23.533,23.533,0,0,0,7.957-4.492c3.084-2.582,3.92-4.687,4.131-5.83.105-.564-.348-.967-1.135-1.026l-25.873-1.955c-.639-.052-1.336.543-1,.848Z" transform="translate(-8913.552 -10200.077)" fill="#707070"/><path d="M8926.714,10216.766a2.382,2.382,0,0,1-1.913-.738l-11.235-14.676a.638.638,0,0,1-.015-.762,1.519,1.519,0,0,1,1.557-.482l25.041,6.8a1.737,1.737,0,0,1,1.143.81,1.1,1.1,0,0,1,.034.92c-.5,1.27-1.825,3.191-5.329,5.14a23.794,23.794,0,0,1-8.8,2.957A4.043,4.043,0,0,1,8926.714,10216.766Zm-1.307-1.2a1.966,1.966,0,0,0,1.7.416,23.057,23.057,0,0,0,8.521-2.867c3.479-1.935,4.62-3.806,4.989-4.752a.344.344,0,0,0,0-.3,1.02,1.02,0,0,0-.662-.416l-25.04-6.8a.85.85,0,0,0-.675.121Z" transform="translate(-8913.432 -10200.058)" fill="#bababa"/></g><g transform="translate(26.271 15.01)"><path d="M8914.847,10199.886c0,.679-.971,1.228-2.171,1.228s-2.17-.551-2.17-1.229.974-1.228,2.17-1.228S8914.847,10199.207,8914.847,10199.886Z" transform="translate(-8910.123 -10198.274)" fill="#e6e6e6"/><path d="M8912.587,10201.406c-1.431,0-2.552-.707-2.552-1.61s1.122-1.609,2.552-1.609,2.554.707,2.554,1.609S8914.02,10201.408,8912.587,10201.406Zm0-2.457c-1.022,0-1.787.448-1.787.847s.765.847,1.787.847,1.79-.446,1.79-.847S8913.613,10198.949,8912.587,10198.949Z" transform="translate(-8910.035 -10198.187)" fill="#16110d"/></g></g><g transform="translate(85.188 62.587)"><path d="M9021.552,10216.076l.92-11.078-12.548,0,.918,11.08c0,.029-.012.055-.012.084a2.567,2.567,0,0,0,.043.3l.02.23h.016c.384,1.744,2.594,3.088,5.289,3.09s4.9-1.344,5.288-3.088h.015l.021-.232a2.753,2.753,0,0,0,.044-.3C9021.564,10216.135,9021.554,10216.105,9021.552,10216.076Z" transform="translate(-8986.862 -10185.042)" fill="#bababa"/><path d="M9022.8,10204.527h-12.941a.4.4,0,0,0-.4.438l.916,10.985-.015.122a1.778,1.778,0,0,0,.045.335l.124.579c.6,1.808,2.878,3.089,5.579,3.089s4.981-1.28,5.578-3.087l.139-.646a1.238,1.238,0,0,0,.035-.269l-.011-.1Zm-1.718,11.431.012.115a.508.508,0,0,1-.02.113c-.008.048-.018.092-.024.158l-.026.178a3.005,3.005,0,0,1-1.29,1.736l.721-10.4-2.174,1.278h-2.17l0,10.172c-2.453,0-4.566-1.2-4.915-2.79l-.018-.063-.01-.131c-.007-.048-.018-.094-.025-.144s-.018-.074-.018-.074l.017-.1-.89-10.724,11.721,0Z" transform="translate(-8986.775 -10184.955)" fill="#747474"/><g transform="translate(22.679 14.614)"><path d="M9022.472,10203.851c0,2.336-2.809,4.23-6.272,4.23s-6.276-1.895-6.275-4.232,2.81-4.958,6.275-4.956S9022.474,10201.515,9022.472,10203.851Z" transform="translate(-9009.541 -10198.511)" fill="#e25351"/><path d="M9016.11,10208.373c-3.673,0-6.658-2.068-6.657-4.613,0-2.469,2.909-5.34,6.657-5.338s6.655,2.871,6.655,5.34C9022.766,10206.3,9019.779,10208.373,9016.11,10208.373Zm0-9.189c-3.264,0-5.892,2.5-5.892,4.576,0,2.125,2.641,3.85,5.892,3.852s5.891-1.727,5.893-3.85C9022,10201.689,9019.375,10199.184,9016.11,10199.184Z" transform="translate(-9009.453 -10198.422)" fill="#16110d"/></g><g transform="translate(23.586 14.614)"><path d="M9015.5,10198.891Z" transform="translate(-9009.753 -10198.509)" fill="#ffedcb"/><path d="M9016.32,10206.424c-3.173,0-5.75-1.795-5.75-4s2.579-4,5.751-4,5.75,1.795,5.75,4S9019.49,10206.426,9016.32,10206.424Zm0-7.24c-2.749,0-4.987,1.455-4.987,3.24s2.236,3.236,4.986,3.236,4.984-1.451,4.984-3.236S9019.069,10199.184,9016.321,10199.184Z" transform="translate(-9010.57 -10198.422)" fill="#bababa"/></g><path d="M9018.147,10198.943c-.465-.131-.76.3-.994.652-.088.135-.256.381-.287.415a1.77,1.77,0,0,1-.352-.413c-.237-.343-.539-.768-1-.649-1.338.347-2.187,2.425-2.187,3.209,0,1.207,1.54,2.149,3.508,2.149s3.5-.942,3.5-2.147C9020.345,10201.379,9019.417,10199.289,9018.147,10198.943Z" transform="translate(-8987.503 -10183.902)" fill="#16110d"/><g transform="translate(0 16.283)"><path d="M8982.7,10202.045c-.777.045-1.247.425-1.167.975.158,1.085.931,3.107,4.034,5.9a22.752,22.752,0,0,0,7.851,4.578,2.382,2.382,0,0,0,2.169-.119l14.153-11.991c.351-.3-.333-.9-.977-.861Z" transform="translate(-8981.525 -10200.483)" fill="#707070"/><path d="M8996.942,10217.055a4.057,4.057,0,0,1-.539-.034,23.29,23.29,0,0,1-8.749-2.983c-3.6-2.125-4.859-3.989-5.285-5.183a1.081,1.081,0,0,1,.055-.891,1.771,1.771,0,0,1,1.159-.8l25.247-6.645a1.521,1.521,0,0,1,1.55.493.637.637,0,0,1-.027.765l-11.5,14.555A2.408,2.408,0,0,1,8996.942,10217.055Zm12.262-15.815a.63.63,0,0,0-.18.022l-25.247,6.644a1.056,1.056,0,0,0-.677.414.319.319,0,0,0-.015.275c.316.881,1.378,2.67,4.959,4.784a22.492,22.492,0,0,0,8.453,2.885,2.05,2.05,0,0,0,1.754-.4l11.44-14.476A.9.9,0,0,0,9009.2,10201.239Z" transform="translate(-8981.671 -10200.476)" fill="#707070"/></g><g transform="translate(29.255)"><path d="M9045.473,10196.283c.783-.04,1.261-.415,1.188-.965-.14-1.079-.883-3.1-3.955-5.9a22.66,22.66,0,0,0-7.809-4.615,2.413,2.413,0,0,0-2.178.1l-14.407,11.841c-.357.294.318.9.967.864Z" transform="translate(-9017.676 -10181.211)" fill="#707070"/><path d="M9018.846,10196.9a1.448,1.448,0,0,1-1.186-.549.633.633,0,0,1,.039-.764l11.781-14.457a2.753,2.753,0,0,1,2.457-.67,23.222,23.222,0,0,1,8.717,3.031c3.566,2.139,4.8,4.012,5.209,5.205a1.07,1.07,0,0,1-.068.883,1.782,1.782,0,0,1-1.172.793l-25.416,6.482A1.4,1.4,0,0,1,9018.846,10196.9Zm-.49-.908a.88.88,0,0,0,.662.123l25.416-6.482a1.09,1.09,0,0,0,.691-.416.324.324,0,0,0,.016-.273c-.3-.877-1.332-2.67-4.881-4.8a22.394,22.394,0,0,0-8.418-2.926,2.084,2.084,0,0,0-1.771.393Z" transform="translate(-9017.551 -10180.426)" fill="#bababa"/></g><g transform="translate(26.783 14.82)"><path d="M9019.318,10200.375c0,.679-.972,1.226-2.17,1.226s-2.172-.55-2.172-1.229.973-1.228,2.172-1.228S9019.318,10199.7,9019.318,10200.375Z" transform="translate(-9014.595 -10198.763)" fill="#e6e6e6"/><path d="M9017.06,10201.895c-1.432,0-2.554-.707-2.554-1.609s1.122-1.611,2.555-1.611,2.553.709,2.553,1.611S9018.49,10201.895,9017.06,10201.895Zm0-2.455c-1.024,0-1.789.447-1.789.846s.765.846,1.788.848,1.788-.447,1.788-.848S9018.085,10199.439,9017.061,10199.439Z" transform="translate(-9014.506 -10198.674)" fill="#16110d"/></g></g></g></g></g></svg>