<svg xmlns="http://www.w3.org/2000/svg" width="16.723" height="29.978" viewBox="0 0 16.723 29.978"><g transform="translate(-499.281 -269.93)"><g transform="translate(499.281 269.93)"><path d="M512.013,274.746c0,1.1.007,2.2-.005,3.294a.659.659,0,0,0,.274.58,7.908,7.908,0,0,1,2.911,4.774.394.394,0,0,0,.289.356.7.7,0,0,1,.508.675,9.277,9.277,0,0,1,0,.994.688.688,0,0,1-.512.669.389.389,0,0,0-.29.352,7.883,7.883,0,0,1-2.86,4.737.764.764,0,0,0-.322.657c.011,2.134.006,4.268.006,6.4a1.431,1.431,0,0,1-1.552,1.635c-2.123.067-4.246.025-6.369.021a1.467,1.467,0,0,1-1.5-1.549c.032-2.175.007-4.35.016-6.526a.692.692,0,0,0-.291-.6,8.056,8.056,0,0,1-.089-12.53.945.945,0,0,0,.384-.81c-.018-2.123-.01-4.247-.009-6.37a1.423,1.423,0,0,1,1.533-1.565q3.123-.02,6.246,0a1.457,1.457,0,0,1,1.63,1.666Q512.013,273.176,512.013,274.746Zm-4.731,17.139a6.978,6.978,0,1,0-6.967-6.978A6.957,6.957,0,0,0,507.282,291.884Zm.006,6.948c1.046,0,2.093,0,3.139,0,.389,0,.517-.119.518-.494,0-1.989,0-3.978.005-5.968,0-.24-.073-.253-.273-.163a8,8,0,0,1-6.744.008c-.276-.121-.3-.037-.3.205,0,1.958,0,3.916,0,5.874,0,.408.136.537.546.538C505.216,298.835,506.252,298.833,507.288,298.833Zm3.659-24.381q0-1.414,0-2.828c0-.525-.1-.625-.61-.626q-3.045,0-6.091,0c-.474,0-.612.131-.613.608,0,1.947,0,3.895-.005,5.842,0,.254.072.27.284.176a8.024,8.024,0,0,1,6.688-.04c.315.136.346.113.346-.243Q510.95,275.9,510.948,274.452Z" transform="translate(-499.281 -269.93)" fill="#fff"/><path d="M616.389,434.558c0,.58.005,1.16,0,1.74,0,.277.119.394.393.391.694-.006,1.388,0,2.082,0,.414,0,.63.186.622.522-.007.313-.23.5-.618.5q-.839.007-1.678,0a1.564,1.564,0,0,0-.974.208.747.747,0,0,1-.932-.181.779.779,0,0,1-.079-.977,1.055,1.055,0,0,0,.165-.643q0-1.538,0-3.076a1.369,1.369,0,0,1,.035-.369.465.465,0,0,1,.54-.364.45.45,0,0,1,.442.472c0,.59,0,1.181,0,1.771Z" transform="translate(-607.868 -422.214)" fill="#fff"/></g></g></svg>