<svg xmlns="http://www.w3.org/2000/svg" width="92.247" height="95.2" viewBox="0 0 92.247 95.2">
  <g id="Group_1" data-name="Group 1" transform="translate(-10.967)">
    <g id="Group_62" data-name="Group 62" transform="translate(10.967)">
      <path id="Path_15" data-name="Path 15" d="M355.114,352.753H334.227v17.531l7.647-7.674A53.827,53.827,0,0,1,355.114,352.753Z" transform="translate(-334.226 -352.753)" fill="#e25351"/>
      <g id="Group_61" data-name="Group 61" transform="translate(0 2.285)">
        <path id="Path_16" data-name="Path 16" d="M406.19,417.579a26.776,26.776,0,0,0-8.175-19.9,28.412,28.412,0,0,0-40.016.077l-23.77,23.861v11.576l29.562-29.672a19.911,19.911,0,0,1,14.324-6.012,20.113,20.113,0,0,1,20.162,20.063v.01a19.9,19.9,0,0,1-5.973,14.347L363.3,461.051h6.246c1.8,0,3.552-.079,5.284-.2l23.16-23.252A26.959,26.959,0,0,0,406.19,417.579Z" transform="translate(-334.227 -368.137)" fill="#fff"/>
        <path id="Path_17" data-name="Path 17" d="M348.1,370.06l-13.872,13.916V395.7L353.961,375.9a38.371,38.371,0,0,1,54.107-.1,38.086,38.086,0,0,1,.327,53.861l-.22.221-16.114,16.165c21.057-6.858,34.413-23.879,34.413-44.411v-.276c0-18.766-11.154-34.454-29.144-42.2a47.3,47.3,0,0,0-16.351-2.849A45.224,45.224,0,0,0,348.1,370.06Z" transform="translate(-334.226 -356.305)" fill="#fff"/>
        <path id="Path_18" data-name="Path 18" d="M390.024,426.675a11.517,11.517,0,0,0-3.549-8.452,11.884,11.884,0,0,0-16.8-.271q-.155.15-.305.306l-35.14,35.273v11.357l40.813-40.97c1.93-1.92,3.85-1.942,5.784-.02q2.78,2.786-.1,5.685l-40.267,40.428h11.521l34.532-34.668A11.741,11.741,0,0,0,390.024,426.675Z" transform="translate(-334.226 -377.098)" fill="#fff"/>
      </g>
    </g>
  </g>
</svg>
