<svg id="Group_2014" data-name="Group 2014" xmlns="http://www.w3.org/2000/svg" width="21.589" height="22.33" viewBox="0 0 21.589 22.33">
  <path id="Path_3557" data-name="Path 3557" d="M408.585,332.928h-5.046v4.234l1.847-1.854A13.013,13.013,0,0,1,408.585,332.928Z" transform="translate(-403.539 -332.928)" fill="#e25351"/>
  <g id="Group_2013" data-name="Group 2013" transform="translate(0 0.551)">
    <path id="Path_3558" data-name="Path 3558" d="M420.921,383.77a6.465,6.465,0,0,0-1.974-4.807,6.862,6.862,0,0,0-9.666.018l-5.742,5.764v2.8l7.14-7.167a4.814,4.814,0,0,1,3.461-1.452,4.859,4.859,0,0,1,4.87,4.849,4.809,4.809,0,0,1-1.444,3.466l-7.006,7.033h1.509c.433,0,.858-.018,1.275-.048l5.6-5.617A6.508,6.508,0,0,0,420.921,383.77Z" transform="translate(-403.539 -372.491)" fill="#e25351"/>
    <path id="Path_3559" data-name="Path 3559" d="M406.785,340.964l-3.246,3.259v2.744l4.618-4.635a8.954,8.954,0,1,1,12.688,12.638l-3.771,3.786c4.928-1.606,8.054-5.591,8.054-10.4v-.065a10.671,10.671,0,0,0-6.821-9.882,11.071,11.071,0,0,0-3.826-.668A10.584,10.584,0,0,0,406.785,340.964Z" transform="translate(-403.539 -337.743)" fill="#e25351"/>
    <path id="Path_3560" data-name="Path 3560" d="M417.017,414.024a2.773,2.773,0,0,0-.857-2.041,2.872,2.872,0,0,0-4.133.008l-8.487,8.52v2.744l9.857-9.9a.876.876,0,0,1,1.4,0,.861.861,0,0,1-.024,1.372l-9.728,9.766h2.784l8.34-8.374A2.83,2.83,0,0,0,417.017,414.024Z" transform="translate(-403.539 -402.713)" fill="#e25351"/>
  </g>
</svg>
